<svg width="746" height="315" viewBox="0 0 746 315" fill="none" xmlns="http://www.w3.org/2000/svg">
<path d="M162.131 310.148C156.013 310.148 150.915 308.109 146.836 304.032C142.757 299.664 140.718 294.277 140.718 287.87V65.5242L148.584 68.1452L54.1894 188.71L52.0043 183.031H211.076C216.903 183.031 221.71 185.07 225.498 189.147C229.577 192.932 231.616 197.738 231.616 203.562C231.616 209.095 229.577 213.755 225.498 217.54C221.71 221.326 216.903 223.219 211.076 223.219H21.8506C16.6064 223.219 11.6536 221.181 6.99218 217.104C2.33073 212.735 0 207.639 0 201.815C0 196.281 1.89372 191.331 5.68115 186.962L144.651 13.1049C146.69 10.1927 149.312 8.00851 152.517 6.55242C155.722 5.09632 159.072 4.36828 162.568 4.36828C168.978 4.36828 174.222 6.55242 178.301 10.9207C182.379 14.9978 184.419 20.2397 184.419 26.6465V287.87C184.419 294.277 182.234 299.664 177.864 304.032C173.493 308.109 168.249 310.148 162.131 310.148Z" fill="url(#paint0_linear_450_1769)"/>
<path d="M376.424 314.516C351.951 314.516 331.266 307.818 314.368 294.422C297.47 280.735 284.651 262.097 275.911 238.508C267.462 214.628 263.238 187.545 263.238 157.258C263.238 126.68 267.462 99.5968 275.911 76.0081C284.651 52.1282 297.47 33.4902 314.368 20.0941C331.266 6.69803 351.951 0 376.424 0C400.896 0 421.436 6.69803 438.042 20.0941C454.94 33.4902 467.759 52.1282 476.499 76.0081C485.24 99.5968 489.61 126.68 489.61 157.258C489.61 187.545 485.24 214.628 476.499 238.508C467.759 262.097 454.94 280.735 438.042 294.422C421.436 307.818 400.896 314.516 376.424 314.516ZM376.424 270.397C390.117 270.397 401.77 266.028 411.385 257.292C421.29 248.555 428.865 235.742 434.109 218.851C439.645 201.96 442.412 181.429 442.412 157.258C442.412 132.796 439.645 112.119 434.109 95.2285C428.865 78.3379 421.29 65.5242 411.385 56.7877C401.77 48.0511 390.117 43.6828 376.424 43.6828C362.731 43.6828 350.931 48.0511 341.026 56.7877C331.12 65.5242 323.545 78.3379 318.301 95.2285C313.057 112.119 310.435 132.796 310.435 157.258C310.435 181.429 313.057 201.96 318.301 218.851C323.545 235.742 331.12 248.555 341.026 257.292C350.931 266.028 362.731 270.397 376.424 270.397Z" fill="url(#paint1_linear_450_1769)"/>
<path d="M676.388 310.148C670.269 310.148 665.171 308.109 661.092 304.032C657.013 299.664 654.974 294.277 654.974 287.87V65.5242L662.84 68.1452L568.446 188.71L566.261 183.031H725.333C731.16 183.031 735.967 185.07 739.754 189.147C743.833 192.932 745.872 197.738 745.872 203.562C745.872 209.095 743.833 213.755 739.754 217.54C735.967 221.326 731.16 223.219 725.333 223.219H536.107C530.863 223.219 525.91 221.181 521.249 217.104C516.587 212.735 514.256 207.639 514.256 201.815C514.256 196.281 516.15 191.331 519.938 186.962L658.907 13.1049C660.947 10.1927 663.569 8.00851 666.773 6.55242C669.978 5.09632 673.329 4.36828 676.825 4.36828C683.234 4.36828 688.478 6.55242 692.557 10.9207C696.636 14.9978 698.675 20.2397 698.675 26.6465V287.87C698.675 294.277 696.49 299.664 692.12 304.032C687.75 308.109 682.506 310.148 676.388 310.148Z" fill="url(#paint2_linear_450_1769)"/>
<defs>
<linearGradient id="paint0_linear_450_1769" x1="372.936" y1="0" x2="372.936" y2="314.516" gradientUnits="userSpaceOnUse">
<stop stop-color="#FEE100"/>
<stop offset="0.836261" stop-color="#FEE100" stop-opacity="0"/>
</linearGradient>
<linearGradient id="paint1_linear_450_1769" x1="372.936" y1="0" x2="372.936" y2="314.516" gradientUnits="userSpaceOnUse">
<stop stop-color="#FEE100"/>
<stop offset="0.836261" stop-color="#FEE100" stop-opacity="0"/>
</linearGradient>
<linearGradient id="paint2_linear_450_1769" x1="372.936" y1="0" x2="372.936" y2="314.516" gradientUnits="userSpaceOnUse">
<stop stop-color="#FEE100"/>
<stop offset="0.836261" stop-color="#FEE100" stop-opacity="0"/>
</linearGradient>
</defs>
</svg>
