<svg width="1126" height="546" viewBox="0 0 1126 546" fill="none" xmlns="http://www.w3.org/2000/svg">
<path d="M1096.74 153.401C1096.74 159.958 1091.43 165.274 1084.87 165.274L1040.34 165.274C1033.78 165.274 1028.47 159.958 1028.47 153.401L1028.47 108.874C1028.47 102.316 1033.78 97 1040.34 97L1061.12 97C1080.79 97 1096.74 112.948 1096.74 132.621L1096.74 153.401Z" fill="#090909"/>
<path d="M1061.57 228.646C1061.57 231.925 1058.99 234.583 1055.81 234.583L1034.22 234.583C1031.05 234.583 1028.47 231.925 1028.47 228.646L1028.47 206.383C1028.47 203.104 1031.05 200.446 1034.22 200.446L1044.3 200.446C1053.84 200.446 1061.57 208.42 1061.57 218.256L1061.57 228.646Z" fill="#35A7FF"/>
<path d="M631.146 296.368C638.446 296.368 644.363 290.451 644.363 283.151L644.363 233.586C644.363 226.286 638.446 220.368 631.146 220.368L581.581 220.368C574.281 220.368 568.363 226.286 568.363 233.586L568.363 256.716C568.363 278.615 586.116 296.368 608.015 296.368L631.146 296.368Z" fill="#35A7FF"/>
<path d="M599.716 122.309C590.376 122.309 582.805 114.576 582.805 105.038L582.805 40.2713C582.805 30.7328 590.376 23.0003 599.716 23.0003L663.133 23.0003C672.473 23.0003 680.044 30.7328 680.044 40.2713L680.044 70.4956C680.044 99.1111 657.33 122.309 629.311 122.309L599.716 122.309Z" fill="#090909"/>
<path d="M1026.39 517.754C1026.39 514.475 1028.97 511.817 1032.15 511.817L1053.74 511.817C1056.92 511.817 1059.5 514.475 1059.5 517.754L1059.5 540.018C1059.5 543.297 1056.92 545.955 1053.74 545.955L1043.67 545.955C1034.13 545.955 1026.39 537.981 1026.39 528.144L1026.39 517.754Z" fill="#FF3C38"/>
<path d="M347.395 189.693C347.395 186.414 349.972 183.756 353.152 183.756L374.74 183.756C377.92 183.756 380.497 186.414 380.497 189.693L380.497 211.956C380.497 215.235 377.92 217.893 374.74 217.893L364.666 217.893C355.127 217.893 347.395 209.919 347.395 200.082L347.395 189.693Z" fill="#FF3C38"/>
<path d="M302.283 526.781C306.953 526.781 310.738 523.076 310.738 518.506L310.738 487.472C310.738 482.901 306.953 479.196 302.283 479.196L270.574 479.196C265.904 479.196 262.119 482.901 262.119 487.472L262.119 501.954C262.119 515.666 273.476 526.781 287.485 526.781L302.283 526.781Z" fill="#FF3C38"/>
<path d="M90.1655 526.781C94.8354 526.781 98.6211 523.076 98.6211 518.506L98.6211 487.472C98.6211 482.901 94.8354 479.196 90.1655 479.196L58.457 479.196C53.7871 479.196 50.0014 482.901 50.0014 487.472L50.0014 501.954C50.0014 515.666 61.3585 526.781 75.3681 526.781L90.1655 526.781Z" fill="#090909"/>
<path d="M273.498 313.684C268.928 313.684 265.223 317.469 265.223 322.139L265.223 353.848C265.223 358.518 268.928 362.303 273.498 362.303L304.532 362.303C309.103 362.303 312.808 358.518 312.808 353.848L312.808 339.05C312.808 325.041 301.692 313.684 287.981 313.684L273.498 313.684Z" fill="#F5F5F5"/>
<path d="M779.189 168.368C785.913 168.368 791.363 162.918 791.363 156.194L791.363 110.542C791.363 103.819 785.913 98.3682 779.189 98.3682L733.537 98.3682C726.814 98.3682 721.363 103.819 721.363 110.542L721.363 131.846C721.363 152.017 737.715 168.368 757.885 168.368L779.189 168.368Z" fill="#FF3C38"/>
<path d="M795.544 45.5186C800.313 45.5186 804.18 49.4653 804.18 54.334L804.18 87.3917C804.18 92.2604 800.313 96.2071 795.544 96.2071L763.161 96.2072C758.392 96.2072 754.526 92.2604 754.526 87.3917L754.526 71.9648C754.526 57.3589 766.124 45.5186 780.432 45.5186L795.544 45.5186Z" fill="#F5F5F5"/>
<path d="M895.209 145.861C899.779 145.861 903.484 142.156 903.484 137.586L903.484 106.552C903.484 101.981 899.779 98.2761 895.209 98.2761L864.175 98.2761C859.604 98.2761 855.899 101.981 855.899 106.552L855.899 121.034C855.899 134.746 867.015 145.861 880.726 145.861L895.209 145.861Z" fill="#35A7FF"/>
<path d="M886.753 7.31344e-07C895.994 3.27434e-07 903.484 7.49085 903.484 16.7313L903.484 79.4736C903.484 88.714 895.994 96.2049 886.753 96.2049L824.011 96.2049C814.77 96.2049 807.279 88.714 807.279 79.4736L807.279 50.1939C807.279 22.4726 829.752 3.22295e-06 857.473 2.01122e-06L886.753 7.31344e-07Z" fill="#FF3C38"/>
<path d="M1061.57 517.754C1061.57 514.475 1064.23 511.817 1067.51 511.817L1089.77 511.817C1093.05 511.817 1095.71 514.475 1095.71 517.754L1095.71 540.018C1095.71 543.297 1093.05 545.955 1089.77 545.955L1079.38 545.955C1069.54 545.955 1061.57 537.981 1061.57 528.144L1061.57 517.754Z" fill="#35A7FF"/>
<path d="M382.57 189.693C382.57 186.414 385.228 183.756 388.507 183.756L410.771 183.756C414.049 183.756 416.708 186.414 416.708 189.693L416.708 211.956C416.708 215.235 414.049 217.893 410.771 217.893L400.381 217.893C390.544 217.893 382.57 209.919 382.57 200.082L382.57 189.693Z" fill="#35A7FF"/>
<path d="M236.313 83.569C236.312 86.8478 233.735 89.5059 230.555 89.5059L208.967 89.5059C205.787 89.5059 203.21 86.8478 203.21 83.569L203.21 61.3055C203.21 58.0267 205.787 55.3686 208.967 55.3686L219.041 55.3686C228.58 55.3686 236.313 63.3427 236.313 73.1793L236.313 83.569Z" fill="#FF3C38"/>
<path d="M201.137 83.569C201.137 86.8478 198.479 89.5059 195.2 89.5059L172.936 89.5059C169.658 89.5059 167 86.8478 167 83.569L167 61.3055C167 58.0267 169.658 55.3686 172.936 55.3686L183.326 55.3686C193.163 55.3686 201.137 63.3427 201.137 73.1793L201.137 83.569Z" fill="#35A7FF"/>
<path d="M301.251 477.131C305.921 477.131 309.707 473.345 309.707 468.675L309.707 436.967C309.707 432.297 305.921 428.511 301.251 428.511L269.543 428.511C264.873 428.511 261.087 432.297 261.087 436.967L261.087 451.764C261.087 465.774 272.444 477.131 286.454 477.131L301.251 477.131Z" fill="#35A7FF"/>
<path d="M989.086 394.608C989.086 401.066 994.321 406.302 1000.78 406.302L1044.63 406.302C1051.09 406.302 1056.33 401.066 1056.33 394.608L1056.33 350.756C1056.33 344.297 1051.09 339.062 1044.63 339.062L1024.17 339.062C1004.79 339.062 989.086 354.768 989.086 374.143L989.086 394.608Z" fill="#35A7FF"/>
<path d="M310.086 66.5464C310.086 73.0047 315.321 78.2402 321.78 78.2402L365.632 78.2402C372.09 78.2402 377.326 73.0047 377.326 66.5464L377.326 22.6941C377.326 16.2358 372.09 11.0003 365.632 11.0003L345.168 11.0003C325.793 11.0003 310.086 26.7068 310.086 46.0818L310.086 66.5464Z" fill="#35A7FF"/>
<path d="M0.36328 200.915C0.363281 207.373 5.59882 212.608 12.0572 212.608L55.9093 212.608C62.3677 212.608 67.6033 207.373 67.6033 200.915L67.6033 157.062C67.6033 150.604 62.3677 145.368 55.9093 145.368L35.445 145.368C16.0699 145.368 0.363277 161.075 0.363278 180.45L0.36328 200.915Z" fill="#35A7FF"/>
<path d="M1125.64 394.608C1125.64 401.066 1120.41 406.302 1113.95 406.302L1070.09 406.302C1063.64 406.302 1058.4 401.066 1058.4 394.608L1058.4 350.756C1058.4 344.297 1063.64 339.062 1070.09 339.062L1090.56 339.062C1109.93 339.062 1125.64 354.768 1125.64 374.143L1125.64 394.608Z" fill="#F5F5F5"/>
<path d="M446.641 66.5464C446.641 73.0047 441.405 78.2402 434.947 78.2402L391.095 78.2402C384.636 78.2402 379.401 73.0047 379.401 66.5464L379.401 22.6941C379.401 16.2358 384.636 11.0003 391.095 11.0003L411.559 11.0003C430.934 11.0003 446.641 26.7068 446.641 46.0818L446.641 66.5464Z" fill="#F5F5F5"/>
<path d="M491.952 168.862C487.282 168.862 483.496 172.729 483.496 177.498L483.496 209.881C483.496 214.65 487.282 218.516 491.952 218.516L523.66 218.516C528.33 218.516 532.116 214.65 532.116 209.881L532.116 194.769C532.116 180.461 520.759 168.862 506.749 168.862L491.952 168.862Z" fill="#090909"/>
</svg>
