<svg width="319" height="32" viewBox="0 0 319 32" fill="none" xmlns="http://www.w3.org/2000/svg">
<path d="M15.5653 6.36308L4.44723 30.2254C4.24957 30.6968 3.95309 31.065 3.55778 31.3302C3.16247 31.5953 2.71775 31.7279 2.22361 31.7279C1.49888 31.7279 0.95533 31.5511 0.592963 31.1976C0.230597 30.8146 0.0329424 30.3433 0 29.7835C0 29.5773 0.0494136 29.3416 0.148241 29.0765L12.6993 1.94413C12.9299 1.44331 13.2593 1.06033 13.6876 0.795198C14.1488 0.53006 14.6429 0.412221 15.17 0.441681C15.6641 0.441681 16.1253 0.574249 16.5536 0.839387C16.9818 1.10452 17.2948 1.47277 17.4924 1.94413L29.8952 28.6788C30.027 28.9734 30.0929 29.268 30.0929 29.5626C30.0929 30.2107 29.8458 30.741 29.3517 31.1534C28.8905 31.5364 28.3634 31.7279 27.7705 31.7279C27.2763 31.7279 26.8151 31.5953 26.3869 31.3302C25.9916 31.0356 25.6951 30.6673 25.4974 30.2254L14.2805 6.49565L15.5653 6.36308ZM6.42377 23.9505L8.64738 19.7083H22.6314L23.4715 23.9505H6.42377Z" fill="#F4F7FB"/>
<path d="M59.233 2.38602C59.9578 2.71008 60.3695 3.21089 60.4684 3.88846C60.6001 4.56604 60.419 5.18469 59.9248 5.74442C59.5625 6.18632 59.0848 6.43673 58.4918 6.49565C57.9318 6.55457 57.3718 6.45146 56.8118 6.18632C55.8564 5.74443 54.8517 5.39091 53.7975 5.12577C52.7434 4.86063 51.6233 4.72807 50.4374 4.72807C48.5597 4.72807 46.8632 5.00793 45.3478 5.56767C43.8654 6.09794 42.5806 6.87862 41.4935 7.90971C40.4064 8.91134 39.5664 10.1045 38.9734 11.4891C38.4134 12.8737 38.1334 14.4056 38.1334 16.0848C38.1334 17.9407 38.4464 19.5905 39.0723 21.034C39.6982 22.4481 40.5547 23.6559 41.6418 24.6575C42.7618 25.6297 44.063 26.3662 45.5455 26.867C47.0608 27.3384 48.6915 27.5741 50.4374 27.5741C51.5574 27.5741 52.6445 27.4562 53.6987 27.2205C54.7858 26.9849 55.807 26.6313 56.7623 26.16C57.3553 25.8949 57.9318 25.8065 58.4918 25.8949C59.0848 25.9538 59.5625 26.2042 59.9248 26.6461C60.4848 27.2647 60.6825 27.8981 60.5178 28.5462C60.386 29.1649 59.9742 29.6362 59.2824 29.9603C58.4589 30.3727 57.553 30.7262 56.5647 31.0208C55.5764 31.3154 54.5717 31.5511 53.5505 31.7279C52.5292 31.9046 51.4916 31.993 50.4374 31.993C48.0655 31.993 45.8255 31.6395 43.7172 30.9325C41.6088 30.2254 39.7311 29.1943 38.084 27.8392C36.4369 26.484 35.1357 24.8196 34.1803 22.8458C33.2579 20.872 32.7967 18.6183 32.7967 16.0848C32.7967 13.8164 33.225 11.7247 34.0815 9.80986C34.9709 7.86552 36.2063 6.20105 37.7875 4.81645C39.4017 3.40238 41.2794 2.31237 43.4207 1.54642C45.5619 0.751009 47.9008 0.353303 50.4374 0.353303C52.0186 0.353303 53.5505 0.530061 55.0329 0.883578C56.5482 1.23709 57.9483 1.73791 59.233 2.38602Z" fill="#F4F7FB"/>
<path d="M90.6473 2.38602C91.3721 2.71008 91.7839 3.21089 91.8827 3.88846C92.0145 4.56604 91.8333 5.18469 91.3391 5.74442C90.9768 6.18632 90.4991 6.43673 89.9061 6.49565C89.3461 6.55457 88.7861 6.45146 88.2261 6.18632C87.2707 5.74443 86.266 5.39091 85.2118 5.12577C84.1577 4.86063 83.0377 4.72807 81.8517 4.72807C79.974 4.72807 78.2775 5.00793 76.7621 5.56767C75.2797 6.09794 73.995 6.87862 72.9079 7.90971C71.8208 8.91134 70.9807 10.1045 70.3878 11.4891C69.8277 12.8737 69.5477 14.4056 69.5477 16.0848C69.5477 17.9407 69.8607 19.5905 70.4866 21.034C71.1125 22.4481 71.969 23.6559 73.0561 24.6575C74.1761 25.6297 75.4774 26.3662 76.9598 26.867C78.4751 27.3384 80.1058 27.5741 81.8517 27.5741C82.9718 27.5741 84.0589 27.4562 85.113 27.2205C86.2001 26.9849 87.2213 26.6313 88.1767 26.16C88.7696 25.8949 89.3461 25.8065 89.9061 25.8949C90.4991 25.9538 90.9768 26.2042 91.3391 26.6461C91.8992 27.2647 92.0968 27.8981 91.9321 28.5462C91.8003 29.1649 91.3885 29.6362 90.6968 29.9603C89.8732 30.3727 88.9673 30.7262 87.979 31.0208C86.9907 31.3154 85.986 31.5511 84.9648 31.7279C83.9436 31.9046 82.9059 31.993 81.8517 31.993C79.4799 31.993 77.2398 31.6395 75.1315 30.9325C73.0232 30.2254 71.1454 29.1943 69.4983 27.8392C67.8512 26.484 66.55 24.8196 65.5946 22.8458C64.6723 20.872 64.2111 18.6183 64.2111 16.0848C64.2111 13.8164 64.6393 11.7247 65.4958 9.80986C66.3853 7.86552 67.6206 6.20105 69.2018 4.81645C70.816 3.40238 72.6937 2.31237 74.835 1.54642C76.9762 0.751009 79.3152 0.353303 81.8517 0.353303C83.433 0.353303 84.9648 0.530061 86.4472 0.883578C87.9625 1.23709 89.3626 1.73791 90.6473 2.38602Z" fill="#F4F7FB"/>
<path d="M100.023 0.618439H117.12C117.812 0.618439 118.389 0.824657 118.85 1.23709C119.344 1.64953 119.591 2.16507 119.591 2.78373C119.591 3.40238 119.344 3.90319 118.85 4.28617C118.389 4.66915 117.812 4.86063 117.12 4.86063H102.197L102.692 4.10941V14.0079L102.247 13.566H114.897C115.588 13.566 116.165 13.7722 116.626 14.1846C117.12 14.5971 117.367 15.1273 117.367 15.7754C117.367 16.3941 117.12 16.8949 116.626 17.2779C116.165 17.6609 115.588 17.8524 114.897 17.8524H102.346L102.692 17.4547V27.6624L102.346 27.3089H117.12C117.812 27.3089 118.389 27.5299 118.85 27.9718C119.344 28.3842 119.591 28.8703 119.591 29.43C119.591 30.0487 119.344 30.5642 118.85 30.9766C118.389 31.3596 117.812 31.5511 117.12 31.5511H100.023C99.3314 31.5511 98.7384 31.3449 98.2443 30.9325C97.7502 30.4906 97.5031 29.9456 97.5031 29.2974V2.87211C97.5031 2.22399 97.7502 1.69372 98.2443 1.28128C98.7384 0.839387 99.3314 0.618439 100.023 0.618439Z" fill="#F4F7FB"/>
<path d="M136.356 31.993C133.985 31.993 131.876 31.6984 130.032 31.1092C128.187 30.52 126.424 29.5479 124.744 28.1927C124.382 27.957 124.102 27.6772 123.904 27.3531C123.74 26.9996 123.657 26.6461 123.657 26.2926C123.657 25.7328 123.888 25.232 124.349 24.7901C124.81 24.3482 125.387 24.1273 126.078 24.1273C126.606 24.1273 127.1 24.2893 127.561 24.6134C128.813 25.6444 130.114 26.4251 131.465 26.9554C132.848 27.4857 134.462 27.7508 136.307 27.7508C137.625 27.7508 138.827 27.5593 139.914 27.1763C141.034 26.7934 141.924 26.2778 142.583 25.6297C143.241 24.9816 143.571 24.2304 143.571 23.376C143.571 22.3155 143.225 21.4464 142.533 20.7689C141.874 20.0618 140.903 19.4874 139.618 19.0455C138.366 18.5741 136.851 18.1764 135.072 17.8524C133.425 17.5872 131.942 17.219 130.625 16.7476C129.34 16.2763 128.236 15.6871 127.314 14.98C126.391 14.2435 125.683 13.3745 125.189 12.3729C124.695 11.3712 124.448 10.2076 124.448 8.88188C124.448 7.08484 124.975 5.53821 126.029 4.24198C127.083 2.94575 128.516 1.94412 130.328 1.23709C132.14 0.53006 134.182 0.176544 136.455 0.176544C138.531 0.176544 140.474 0.471141 142.286 1.06033C144.098 1.62007 145.564 2.38602 146.684 3.35819C147.475 3.97684 147.87 4.63969 147.87 5.34672C147.87 5.87699 147.623 6.37781 147.129 6.84916C146.667 7.29106 146.124 7.51201 145.498 7.51201C145.037 7.51201 144.641 7.39417 144.312 7.15849C143.785 6.65768 143.077 6.21578 142.187 5.8328C141.298 5.42037 140.343 5.08158 139.321 4.81645C138.333 4.55131 137.378 4.41874 136.455 4.41874C134.973 4.41874 133.705 4.61023 132.65 4.9932C131.596 5.34672 130.789 5.84753 130.229 6.49565C129.669 7.1143 129.389 7.85079 129.389 8.70512C129.389 9.70675 129.702 10.5316 130.328 11.1797C130.987 11.8279 131.893 12.3581 133.046 12.7706C134.199 13.1535 135.516 13.5071 136.999 13.8311C138.811 14.1846 140.425 14.5823 141.841 15.0242C143.291 15.4661 144.51 16.0406 145.498 16.7476C146.486 17.4252 147.244 18.2795 147.771 19.3106C148.298 20.3417 148.562 21.6232 148.562 23.1551C148.562 24.9227 148.002 26.4693 146.882 27.795C145.762 29.1207 144.279 30.1518 142.434 30.8883C140.623 31.6248 138.597 31.993 136.356 31.993Z" fill="#F4F7FB"/>
<path d="M165.262 31.993C162.89 31.993 160.781 31.6984 158.937 31.1092C157.092 30.52 155.329 29.5479 153.649 28.1927C153.287 27.957 153.007 27.6772 152.809 27.3531C152.645 26.9996 152.562 26.6461 152.562 26.2926C152.562 25.7328 152.793 25.232 153.254 24.7901C153.715 24.3482 154.292 24.1273 154.983 24.1273C155.511 24.1273 156.005 24.2893 156.466 24.6134C157.718 25.6444 159.019 26.4251 160.37 26.9554C161.753 27.4857 163.367 27.7508 165.212 27.7508C166.53 27.7508 167.732 27.5593 168.819 27.1763C169.939 26.7934 170.829 26.2778 171.488 25.6297C172.146 24.9816 172.476 24.2304 172.476 23.376C172.476 22.3155 172.13 21.4464 171.438 20.7689C170.779 20.0618 169.808 19.4874 168.523 19.0455C167.271 18.5741 165.756 18.1764 163.977 17.8524C162.33 17.5872 160.847 17.219 159.53 16.7476C158.245 16.2763 157.141 15.6871 156.219 14.98C155.296 14.2435 154.588 13.3745 154.094 12.3729C153.6 11.3712 153.353 10.2076 153.353 8.88188C153.353 7.08484 153.88 5.53821 154.934 4.24198C155.988 2.94575 157.421 1.94412 159.233 1.23709C161.045 0.53006 163.087 0.176544 165.36 0.176544C167.436 0.176544 169.379 0.471141 171.191 1.06033C173.003 1.62007 174.469 2.38602 175.589 3.35819C176.38 3.97684 176.775 4.63969 176.775 5.34672C176.775 5.87699 176.528 6.37781 176.034 6.84916C175.572 7.29106 175.029 7.51201 174.403 7.51201C173.942 7.51201 173.547 7.39417 173.217 7.15849C172.69 6.65768 171.982 6.21578 171.092 5.8328C170.203 5.42037 169.248 5.08158 168.226 4.81645C167.238 4.55131 166.283 4.41874 165.36 4.41874C163.878 4.41874 162.61 4.61023 161.555 4.9932C160.501 5.34672 159.694 5.84753 159.134 6.49565C158.574 7.1143 158.294 7.85079 158.294 8.70512C158.294 9.70675 158.607 10.5316 159.233 11.1797C159.892 11.8279 160.798 12.3581 161.951 12.7706C163.104 13.1535 164.421 13.5071 165.904 13.8311C167.716 14.1846 169.33 14.5823 170.746 15.0242C172.196 15.4661 173.415 16.0406 174.403 16.7476C175.391 17.4252 176.149 18.2795 176.676 19.3106C177.203 20.3417 177.467 21.6232 177.467 23.1551C177.467 24.9227 176.907 26.4693 175.787 27.795C174.667 29.1207 173.184 30.1518 171.339 30.8883C169.528 31.6248 167.502 31.993 165.262 31.993Z" fill="#F4F7FB"/>
<path d="M215.069 16.0848C215.069 18.3237 214.657 20.4153 213.833 22.3597C213.01 24.2746 211.84 25.9538 210.325 27.3973C208.842 28.8408 207.08 29.975 205.038 30.7999C202.995 31.5953 200.755 31.993 198.317 31.993C195.912 31.993 193.689 31.5953 191.646 30.7999C189.604 29.975 187.825 28.8408 186.31 27.3973C184.827 25.9538 183.674 24.2746 182.851 22.3597C182.06 20.4153 181.665 18.3237 181.665 16.0848C181.665 13.8458 182.06 11.7689 182.851 9.85405C183.674 7.90971 184.827 6.21578 186.31 4.77226C187.825 3.32873 189.604 2.20926 191.646 1.41385C193.689 0.58898 195.912 0.176544 198.317 0.176544C200.755 0.176544 202.995 0.58898 205.038 1.41385C207.08 2.20926 208.842 3.32873 210.325 4.77226C211.84 6.21578 213.01 7.90971 213.833 9.85405C214.657 11.7689 215.069 13.8458 215.069 16.0848ZM209.732 16.0848C209.732 13.9048 209.238 11.9457 208.249 10.2076C207.294 8.46945 205.96 7.09957 204.247 6.09794C202.534 5.09631 200.557 4.5955 198.317 4.5955C196.11 4.5955 194.15 5.09631 192.437 6.09794C190.724 7.09957 189.39 8.46945 188.435 10.2076C187.479 11.9162 187.002 13.8753 187.002 16.0848C187.002 18.2648 187.479 20.2239 188.435 21.962C189.39 23.7001 190.724 25.07 192.437 26.0716C194.15 27.0732 196.11 27.5741 198.317 27.5741C200.557 27.5741 202.534 27.0732 204.247 26.0716C205.96 25.07 207.294 23.7001 208.249 21.962C209.238 20.2239 209.732 18.2648 209.732 16.0848Z" fill="#F4F7FB"/>
<path d="M224.098 31.5511C223.308 31.5511 222.616 31.3449 222.023 30.9325C221.43 30.4906 221.134 29.9456 221.134 29.2974V2.87211C221.134 2.22399 221.381 1.69372 221.875 1.28128C222.369 0.839387 222.962 0.618439 223.654 0.618439H237.588C239.367 0.618439 240.998 1.01614 242.48 1.81156C243.963 2.57751 245.149 3.65279 246.038 5.03739C246.96 6.39254 247.422 7.9539 247.422 9.72148C247.422 10.8999 247.158 12.0341 246.631 13.1241C246.104 14.1846 245.396 15.1273 244.506 15.9522C243.617 16.7771 242.612 17.3957 241.492 17.8082L240.949 16.9686C241.97 17.2926 242.859 17.764 243.617 18.3826C244.375 18.9718 244.967 19.6789 245.396 20.5037C245.857 21.2991 246.104 22.2124 246.137 23.2435C246.236 24.1567 246.318 24.9227 246.384 25.5413C246.483 26.1305 246.615 26.6166 246.779 26.9996C246.944 27.3826 247.24 27.6772 247.669 27.8834C248.262 28.178 248.624 28.6199 248.756 29.2091C248.921 29.7983 248.789 30.3285 248.361 30.7999C248.064 31.1534 247.685 31.3891 247.224 31.5069C246.796 31.5953 246.351 31.61 245.89 31.5511C245.429 31.4627 245.033 31.3449 244.704 31.1976C244.177 30.903 243.633 30.4906 243.073 29.9603C242.546 29.4006 242.118 28.6346 241.789 27.6624C241.459 26.6903 241.294 25.4088 241.294 23.8179C241.294 23.0815 241.163 22.4481 240.899 21.9178C240.636 21.3875 240.273 20.9604 239.812 20.6363C239.351 20.2828 238.807 20.0324 238.181 19.8851C237.555 19.7083 236.864 19.6199 236.106 19.6199H225.63L226.322 18.7361V29.2974C226.322 29.9456 226.124 30.4906 225.729 30.9325C225.334 31.3449 224.79 31.5511 224.098 31.5511ZM225.68 15.7754H237.49C238.247 15.746 238.972 15.4809 239.664 14.98C240.388 14.4498 240.965 13.7427 241.393 12.8589C241.854 11.9751 242.085 10.9735 242.085 9.85405C242.085 8.43999 241.607 7.2616 240.652 6.31889C239.73 5.34672 238.626 4.86063 237.341 4.86063H225.779L226.322 3.71171V16.7034L225.68 15.7754Z" fill="#F4F7FB"/>
<path d="M259.956 29.2974C259.923 29.9456 259.643 30.4906 259.116 30.9325C258.622 31.3449 258.029 31.5511 257.337 31.5511C256.58 31.5511 255.954 31.3449 255.46 30.9325C254.998 30.4906 254.768 29.9456 254.768 29.2974V2.87211C254.768 2.22399 255.015 1.69372 255.509 1.28128C256.003 0.839387 256.645 0.618439 257.436 0.618439C258.095 0.618439 258.671 0.839387 259.166 1.28128C259.693 1.69372 259.956 2.22399 259.956 2.87211V29.2974Z" fill="#F4F7FB"/>
<path d="M270.462 0.618439H287.559C288.25 0.618439 288.827 0.824657 289.288 1.23709C289.782 1.64953 290.029 2.16507 290.029 2.78373C290.029 3.40238 289.782 3.90319 289.288 4.28617C288.827 4.66915 288.25 4.86063 287.559 4.86063H272.636L273.13 4.10941V14.0079L272.685 13.566H285.335C286.027 13.566 286.603 13.7722 287.065 14.1846C287.559 14.5971 287.806 15.1273 287.806 15.7754C287.806 16.3941 287.559 16.8949 287.065 17.2779C286.603 17.6609 286.027 17.8524 285.335 17.8524H272.784L273.13 17.4547V27.6624L272.784 27.3089H287.559C288.25 27.3089 288.827 27.5299 289.288 27.9718C289.782 28.3842 290.029 28.8703 290.029 29.43C290.029 30.0487 289.782 30.5642 289.288 30.9766C288.827 31.3596 288.25 31.5511 287.559 31.5511H270.462C269.77 31.5511 269.177 31.3449 268.683 30.9325C268.189 30.4906 267.941 29.9456 267.941 29.2974V2.87211C267.941 2.22399 268.189 1.69372 268.683 1.28128C269.177 0.839387 269.77 0.618439 270.462 0.618439Z" fill="#F4F7FB"/>
<path d="M306.795 31.993C304.423 31.993 302.315 31.6984 300.47 31.1092C298.625 30.52 296.863 29.5479 295.183 28.1927C294.82 27.957 294.54 27.6772 294.343 27.3531C294.178 26.9996 294.096 26.6461 294.096 26.2926C294.096 25.7328 294.326 25.232 294.787 24.7901C295.249 24.3482 295.825 24.1273 296.517 24.1273C297.044 24.1273 297.538 24.2893 297.999 24.6134C299.251 25.6444 300.552 26.4251 301.903 26.9554C303.286 27.4857 304.901 27.7508 306.745 27.7508C308.063 27.7508 309.266 27.5593 310.353 27.1763C311.473 26.7934 312.362 26.2778 313.021 25.6297C313.68 24.9816 314.009 24.2304 314.009 23.376C314.009 22.3155 313.663 21.4464 312.972 20.7689C312.313 20.0618 311.341 19.4874 310.056 19.0455C308.804 18.5741 307.289 18.1764 305.51 17.8524C303.863 17.5872 302.381 17.219 301.063 16.7476C299.778 16.2763 298.675 15.6871 297.752 14.98C296.83 14.2435 296.122 13.3745 295.627 12.3729C295.133 11.3712 294.886 10.2076 294.886 8.88188C294.886 7.08484 295.413 5.53821 296.467 4.24198C297.522 2.94575 298.955 1.94412 300.766 1.23709C302.578 0.53006 304.621 0.176544 306.894 0.176544C308.969 0.176544 310.913 0.471141 312.724 1.06033C314.536 1.62007 316.002 2.38602 317.122 3.35819C317.913 3.97684 318.308 4.63969 318.308 5.34672C318.308 5.87699 318.061 6.37781 317.567 6.84916C317.106 7.29106 316.562 7.51201 315.936 7.51201C315.475 7.51201 315.08 7.39417 314.75 7.15849C314.223 6.65768 313.515 6.21578 312.626 5.8328C311.736 5.42037 310.781 5.08158 309.76 4.81645C308.771 4.55131 307.816 4.41874 306.894 4.41874C305.411 4.41874 304.143 4.61023 303.089 4.9932C302.035 5.34672 301.228 5.84753 300.668 6.49565C300.108 7.1143 299.828 7.85079 299.828 8.70512C299.828 9.70675 300.141 10.5316 300.766 11.1797C301.425 11.8279 302.331 12.3581 303.484 12.7706C304.637 13.1535 305.955 13.5071 307.437 13.8311C309.249 14.1846 310.863 14.5823 312.28 15.0242C313.729 15.4661 314.948 16.0406 315.936 16.7476C316.925 17.4252 317.682 18.2795 318.209 19.3106C318.736 20.3417 319 21.6232 319 23.1551C319 24.9227 318.44 26.4693 317.32 27.795C316.2 29.1207 314.717 30.1518 312.873 30.8883C311.061 31.6248 309.035 31.993 306.795 31.993Z" fill="#F4F7FB"/>
</svg>
