<svg width="300" height="114" viewBox="0 0 300 114" fill="none" xmlns="http://www.w3.org/2000/svg">
<rect x="0.5" y="10.4452" width="202" height="26.8993" rx="13.4497" stroke="#FF3C38"/>
<path d="M20.64 18.0869C20.8213 18.0869 21.008 18.1082 21.2 18.1509C21.4027 18.1936 21.5733 18.2682 21.712 18.3749C21.8613 18.4816 21.936 18.6256 21.936 18.8069C21.936 18.9776 21.8827 19.1216 21.776 19.2389C21.6693 19.3456 21.5413 19.3989 21.392 19.3989C21.296 19.3989 21.1627 19.3722 20.992 19.3189C20.8213 19.2549 20.6453 19.2229 20.464 19.2229C20.2187 19.2229 20.016 19.2762 19.856 19.3829C19.7067 19.4896 19.5947 19.6336 19.52 19.8149C19.456 19.9856 19.424 20.1776 19.424 20.3909V29.2389C19.424 29.4202 19.36 29.5749 19.232 29.7029C19.1147 29.8309 18.9653 29.8949 18.784 29.8949C18.592 29.8949 18.4373 29.8309 18.32 29.7029C18.2027 29.5749 18.144 29.4202 18.144 29.2389V20.4069C18.144 19.6922 18.3627 19.1269 18.8 18.7109C19.248 18.2949 19.8613 18.0869 20.64 18.0869ZM21.088 21.7509C21.2587 21.7509 21.4027 21.8096 21.52 21.9269C21.6373 22.0336 21.696 22.1722 21.696 22.3429C21.696 22.5136 21.6373 22.6576 21.52 22.7749C21.4027 22.8816 21.2587 22.9349 21.088 22.9349H17.072C16.9013 22.9349 16.7573 22.8762 16.64 22.7589C16.5227 22.6416 16.464 22.5029 16.464 22.3429C16.464 22.1616 16.5227 22.0176 16.64 21.9109C16.7573 21.8042 16.9013 21.7509 17.072 21.7509H21.088ZM23.9959 29.8949C23.8145 29.8949 23.6599 29.8309 23.5319 29.7029C23.4145 29.5749 23.3559 29.4202 23.3559 29.2389V22.2629C23.3559 22.0816 23.4145 21.9322 23.5319 21.8149C23.6599 21.6869 23.8145 21.6229 23.9959 21.6229C24.1879 21.6229 24.3425 21.6869 24.4599 21.8149C24.5772 21.9322 24.6359 22.0816 24.6359 22.2629V24.3749L24.4439 24.0389C24.5079 23.7082 24.6199 23.3882 24.7799 23.0789C24.9505 22.7589 25.1639 22.4762 25.4199 22.2309C25.6759 21.9749 25.9692 21.7776 26.2999 21.6389C26.6305 21.4896 26.9932 21.4149 27.3879 21.4149C27.6225 21.4149 27.8359 21.4736 28.0279 21.5909C28.2305 21.6976 28.3319 21.8522 28.3319 22.0549C28.3319 22.2789 28.2732 22.4442 28.1559 22.5509C28.0385 22.6576 27.9052 22.7109 27.7559 22.7109C27.6172 22.7109 27.4839 22.6842 27.3559 22.6309C27.2279 22.5669 27.0679 22.5349 26.8759 22.5349C26.6092 22.5349 26.3425 22.6096 26.0759 22.7589C25.8199 22.8976 25.5799 23.1002 25.3559 23.3669C25.1425 23.6336 24.9665 23.9376 24.8279 24.2789C24.6999 24.6096 24.6359 24.9669 24.6359 25.3509V29.2389C24.6359 29.4202 24.5719 29.5749 24.4439 29.7029C24.3265 29.8309 24.1772 29.8949 23.9959 29.8949ZM33.2424 30.0549C32.389 30.0549 31.6424 29.8736 31.0024 29.5109C30.3624 29.1482 29.861 28.6522 29.4984 28.0229C29.1464 27.3829 28.9704 26.6469 28.9704 25.8149C28.9704 24.8869 29.1517 24.0976 29.5144 23.4469C29.8877 22.7856 30.3677 22.2842 30.9544 21.9429C31.5517 21.5909 32.181 21.4149 32.8424 21.4149C33.333 21.4149 33.8077 21.5056 34.2664 21.6869C34.725 21.8682 35.1304 22.1349 35.4824 22.4869C35.8344 22.8282 36.117 23.2442 36.3304 23.7349C36.5437 24.2149 36.6557 24.7536 36.6664 25.3509C36.6664 25.5216 36.6024 25.6656 36.4744 25.7829C36.3464 25.9002 36.197 25.9589 36.0264 25.9589H29.7064L29.4184 24.8549H35.5784L35.3224 25.0789V24.7269C35.2797 24.2896 35.1304 23.9162 34.8744 23.6069C34.629 23.2869 34.325 23.0416 33.9624 22.8709C33.6104 22.7002 33.237 22.6149 32.8424 22.6149C32.5224 22.6149 32.2024 22.6736 31.8824 22.7909C31.573 22.8976 31.2904 23.0789 31.0344 23.3349C30.789 23.5802 30.5864 23.9002 30.4264 24.2949C30.277 24.6896 30.2024 25.1642 30.2024 25.7189C30.2024 26.3376 30.325 26.8816 30.5704 27.3509C30.8264 27.8202 31.1784 28.1936 31.6264 28.4709C32.0744 28.7376 32.597 28.8709 33.1944 28.8709C33.5677 28.8709 33.893 28.8229 34.1704 28.7269C34.4477 28.6309 34.6877 28.5136 34.8904 28.3749C35.093 28.2256 35.2637 28.0762 35.4024 27.9269C35.541 27.8309 35.6744 27.7829 35.8024 27.7829C35.9624 27.7829 36.0904 27.8362 36.1864 27.9429C36.293 28.0496 36.3464 28.1776 36.3464 28.3269C36.3464 28.5082 36.261 28.6682 36.0904 28.8069C35.7917 29.1376 35.3864 29.4309 34.8744 29.6869C34.3624 29.9322 33.8184 30.0549 33.2424 30.0549ZM42.4143 30.0549C41.5609 30.0549 40.8143 29.8736 40.1743 29.5109C39.5343 29.1482 39.0329 28.6522 38.6703 28.0229C38.3183 27.3829 38.1423 26.6469 38.1423 25.8149C38.1423 24.8869 38.3236 24.0976 38.6863 23.4469C39.0596 22.7856 39.5396 22.2842 40.1263 21.9429C40.7236 21.5909 41.3529 21.4149 42.0143 21.4149C42.5049 21.4149 42.9796 21.5056 43.4383 21.6869C43.8969 21.8682 44.3023 22.1349 44.6543 22.4869C45.0063 22.8282 45.2889 23.2442 45.5023 23.7349C45.7156 24.2149 45.8276 24.7536 45.8383 25.3509C45.8383 25.5216 45.7743 25.6656 45.6463 25.7829C45.5183 25.9002 45.3689 25.9589 45.1983 25.9589H38.8783L38.5903 24.8549H44.7503L44.4943 25.0789V24.7269C44.4516 24.2896 44.3023 23.9162 44.0463 23.6069C43.8009 23.2869 43.4969 23.0416 43.1343 22.8709C42.7823 22.7002 42.4089 22.6149 42.0143 22.6149C41.6943 22.6149 41.3743 22.6736 41.0543 22.7909C40.7449 22.8976 40.4623 23.0789 40.2063 23.3349C39.9609 23.5802 39.7583 23.9002 39.5983 24.2949C39.4489 24.6896 39.3743 25.1642 39.3743 25.7189C39.3743 26.3376 39.4969 26.8816 39.7423 27.3509C39.9983 27.8202 40.3503 28.1936 40.7983 28.4709C41.2463 28.7376 41.7689 28.8709 42.3663 28.8709C42.7396 28.8709 43.0649 28.8229 43.3423 28.7269C43.6196 28.6309 43.8596 28.5136 44.0623 28.3749C44.2649 28.2256 44.4356 28.0762 44.5743 27.9269C44.7129 27.8309 44.8463 27.7829 44.9743 27.7829C45.1343 27.7829 45.2623 27.8362 45.3583 27.9429C45.4649 28.0496 45.5183 28.1776 45.5183 28.3269C45.5183 28.5082 45.4329 28.6682 45.2623 28.8069C44.9636 29.1376 44.5583 29.4309 44.0463 29.6869C43.5343 29.9322 42.9903 30.0549 42.4143 30.0549ZM54.5781 18.0549C54.7595 18.0549 54.9088 18.1189 55.0261 18.2469C55.1541 18.3642 55.2181 18.5136 55.2181 18.6949V29.2389C55.2181 29.4202 55.1541 29.5749 55.0261 29.7029C54.9088 29.8309 54.7595 29.8949 54.5781 29.8949C54.3861 29.8949 54.2315 29.8309 54.1141 29.7029C53.9968 29.5749 53.9381 29.4202 53.9381 29.2389V27.7189L54.2421 27.6069C54.2421 27.8629 54.1621 28.1349 54.0021 28.4229C53.8421 28.7002 53.6235 28.9616 53.3461 29.2069C53.0688 29.4522 52.7381 29.6549 52.3541 29.8149C51.9808 29.9749 51.5755 30.0549 51.1381 30.0549C50.4235 30.0549 49.7728 29.8682 49.1861 29.4949C48.6101 29.1216 48.1515 28.6096 47.8101 27.9589C47.4795 27.3082 47.3141 26.5669 47.3141 25.7349C47.3141 24.8922 47.4795 24.1456 47.8101 23.4949C48.1515 22.8442 48.6101 22.3376 49.1861 21.9749C49.7621 21.6016 50.4021 21.4149 51.1061 21.4149C51.5541 21.4149 51.9755 21.4896 52.3701 21.6389C52.7648 21.7882 53.1061 21.9909 53.3941 22.2469C53.6928 22.5029 53.9275 22.7856 54.0981 23.0949C54.2688 23.4042 54.3541 23.7136 54.3541 24.0229L53.9381 23.9269V18.6949C53.9381 18.5136 53.9968 18.3642 54.1141 18.2469C54.2315 18.1189 54.3861 18.0549 54.5781 18.0549ZM51.2821 28.8709C51.8155 28.8709 52.2848 28.7376 52.6901 28.4709C53.1061 28.1936 53.4261 27.8202 53.6501 27.3509C53.8848 26.8709 54.0021 26.3322 54.0021 25.7349C54.0021 25.1269 53.8848 24.5882 53.6501 24.1189C53.4261 23.6496 53.1061 23.2816 52.6901 23.0149C52.2848 22.7376 51.8155 22.5989 51.2821 22.5989C50.7595 22.5989 50.2901 22.7376 49.8741 23.0149C49.4688 23.2816 49.1488 23.6496 48.9141 24.1189C48.6795 24.5882 48.5621 25.1269 48.5621 25.7349C48.5621 26.3216 48.6795 26.8549 48.9141 27.3349C49.1488 27.8042 49.4688 28.1776 49.8741 28.4549C50.2901 28.7322 50.7595 28.8709 51.2821 28.8709ZM65.4462 25.7349C65.4462 26.5669 65.2596 27.3082 64.8863 27.9589C64.5236 28.6096 64.0276 29.1216 63.3983 29.4949C62.7796 29.8682 62.0809 30.0549 61.3023 30.0549C60.5236 30.0549 59.8196 29.8682 59.1903 29.4949C58.5609 29.1216 58.0596 28.6096 57.6863 27.9589C57.3236 27.3082 57.1423 26.5669 57.1423 25.7349C57.1423 24.9029 57.3236 24.1616 57.6863 23.5109C58.0596 22.8602 58.5609 22.3482 59.1903 21.9749C59.8196 21.6016 60.5236 21.4149 61.3023 21.4149C62.0809 21.4149 62.7796 21.6016 63.3983 21.9749C64.0276 22.3482 64.5236 22.8602 64.8863 23.5109C65.2596 24.1616 65.4462 24.9029 65.4462 25.7349ZM64.1663 25.7349C64.1663 25.1162 64.0383 24.5722 63.7823 24.1029C63.5369 23.6336 63.1956 23.2656 62.7583 22.9989C62.3316 22.7322 61.8463 22.5989 61.3023 22.5989C60.7583 22.5989 60.2676 22.7322 59.8303 22.9989C59.4036 23.2656 59.0623 23.6336 58.8063 24.1029C58.5503 24.5722 58.4223 25.1162 58.4223 25.7349C58.4223 26.3429 58.5503 26.8816 58.8063 27.3509C59.0623 27.8202 59.4036 28.1936 59.8303 28.4709C60.2676 28.7376 60.7583 28.8709 61.3023 28.8709C61.8463 28.8709 62.3316 28.7376 62.7583 28.4709C63.1956 28.1936 63.5369 27.8202 63.7823 27.3509C64.0383 26.8816 64.1663 26.3429 64.1663 25.7349ZM71.3235 21.4949C72.0488 21.4949 72.6355 21.6816 73.0835 22.0549C73.5422 22.4176 73.8462 22.9349 73.9955 23.6069H73.7555L73.8675 23.3189C73.9955 23.0202 74.2142 22.7322 74.5235 22.4549C74.8328 22.1776 75.1902 21.9482 75.5955 21.7669C76.0008 21.5856 76.4222 21.4949 76.8595 21.4949C77.5635 21.4949 78.1182 21.6496 78.5235 21.9589C78.9288 22.2576 79.2168 22.6629 79.3875 23.1749C79.5688 23.6762 79.6595 24.2416 79.6595 24.8709V29.2389C79.6595 29.4202 79.5955 29.5749 79.4675 29.7029C79.3502 29.8309 79.2008 29.8949 79.0195 29.8949C78.8275 29.8949 78.6728 29.8309 78.5555 29.7029C78.4382 29.5749 78.3795 29.4202 78.3795 29.2389V24.9029C78.3795 24.4869 78.3155 24.1136 78.1875 23.7829C78.0702 23.4416 77.8728 23.1749 77.5955 22.9829C77.3288 22.7802 76.9608 22.6789 76.4915 22.6789C76.0542 22.6789 75.6542 22.7802 75.2915 22.9829C74.9288 23.1749 74.6408 23.4416 74.4275 23.7829C74.2142 24.1136 74.1075 24.4869 74.1075 24.9029V29.2389C74.1075 29.4202 74.0488 29.5749 73.9315 29.7029C73.8142 29.8309 73.6595 29.8949 73.4675 29.8949C73.2862 29.8949 73.1315 29.8309 73.0035 29.7029C72.8862 29.5749 72.8275 29.4202 72.8275 29.2389V24.8549C72.8275 24.4496 72.7688 24.0869 72.6515 23.7669C72.5448 23.4362 72.3582 23.1749 72.0915 22.9829C71.8248 22.7802 71.4568 22.6789 70.9875 22.6789C70.5608 22.6789 70.1715 22.7802 69.8195 22.9829C69.4675 23.1749 69.1848 23.4362 68.9715 23.7669C68.7582 24.0869 68.6515 24.4496 68.6515 24.8549V29.2389C68.6515 29.4202 68.5875 29.5749 68.4595 29.7029C68.3422 29.8309 68.1928 29.8949 68.0115 29.8949C67.8302 29.8949 67.6755 29.8309 67.5475 29.7029C67.4302 29.5749 67.3715 29.4202 67.3715 29.2389V22.2629C67.3715 22.0816 67.4302 21.9322 67.5475 21.8149C67.6755 21.6869 67.8302 21.6229 68.0115 21.6229C68.2035 21.6229 68.3582 21.6869 68.4755 21.8149C68.5928 21.9322 68.6515 22.0816 68.6515 22.2629V23.4789L68.2995 23.8629C68.3422 23.5856 68.4488 23.3082 68.6195 23.0309C68.8008 22.7536 69.0302 22.4976 69.3075 22.2629C69.5848 22.0282 69.8942 21.8416 70.2355 21.7029C70.5768 21.5642 70.9395 21.4949 71.3235 21.4949ZM94.29 25.7349C94.29 26.5669 94.1033 27.3082 93.73 27.9589C93.3673 28.6096 92.8713 29.1216 92.242 29.4949C91.6233 29.8682 90.9247 30.0549 90.146 30.0549C89.3673 30.0549 88.6633 29.8682 88.034 29.4949C87.4047 29.1216 86.9033 28.6096 86.53 27.9589C86.1673 27.3082 85.986 26.5669 85.986 25.7349C85.986 24.9029 86.1673 24.1616 86.53 23.5109C86.9033 22.8602 87.4047 22.3482 88.034 21.9749C88.6633 21.6016 89.3673 21.4149 90.146 21.4149C90.9247 21.4149 91.6233 21.6016 92.242 21.9749C92.8713 22.3482 93.3673 22.8602 93.73 23.5109C94.1033 24.1616 94.29 24.9029 94.29 25.7349ZM93.01 25.7349C93.01 25.1162 92.882 24.5722 92.626 24.1029C92.3807 23.6336 92.0393 23.2656 91.602 22.9989C91.1753 22.7322 90.69 22.5989 90.146 22.5989C89.602 22.5989 89.1113 22.7322 88.674 22.9989C88.2473 23.2656 87.906 23.6336 87.65 24.1029C87.394 24.5722 87.266 25.1162 87.266 25.7349C87.266 26.3429 87.394 26.8816 87.65 27.3509C87.906 27.8202 88.2473 28.1936 88.674 28.4709C89.1113 28.7376 89.602 28.8709 90.146 28.8709C90.69 28.8709 91.1753 28.7376 91.602 28.4709C92.0393 28.1936 92.3807 27.8202 92.626 27.3509C92.882 26.8816 93.01 26.3429 93.01 25.7349ZM99.6713 18.0869C99.8526 18.0869 100.039 18.1082 100.231 18.1509C100.434 18.1936 100.605 18.2682 100.743 18.3749C100.893 18.4816 100.967 18.6256 100.967 18.8069C100.967 18.9776 100.914 19.1216 100.807 19.2389C100.701 19.3456 100.573 19.3989 100.423 19.3989C100.327 19.3989 100.194 19.3722 100.023 19.3189C99.8526 19.2549 99.6766 19.2229 99.4953 19.2229C99.2499 19.2229 99.0473 19.2762 98.8873 19.3829C98.7379 19.4896 98.6259 19.6336 98.5513 19.8149C98.4873 19.9856 98.4553 20.1776 98.4553 20.3909V29.2389C98.4553 29.4202 98.3913 29.5749 98.2633 29.7029C98.1459 29.8309 97.9966 29.8949 97.8153 29.8949C97.6233 29.8949 97.4686 29.8309 97.3513 29.7029C97.2339 29.5749 97.1753 29.4202 97.1753 29.2389V20.4069C97.1753 19.6922 97.3939 19.1269 97.8313 18.7109C98.2793 18.2949 98.8926 18.0869 99.6713 18.0869ZM100.119 21.7509C100.29 21.7509 100.434 21.8096 100.551 21.9269C100.669 22.0336 100.727 22.1722 100.727 22.3429C100.727 22.5136 100.669 22.6576 100.551 22.7749C100.434 22.8816 100.29 22.9349 100.119 22.9349H96.1033C95.9326 22.9349 95.7886 22.8762 95.6713 22.7589C95.5539 22.6416 95.4953 22.5029 95.4953 22.3429C95.4953 22.1616 95.5539 22.0176 95.6713 21.9109C95.7886 21.8042 95.9326 21.7509 96.1033 21.7509H100.119ZM110.745 21.4949C111.471 21.4949 112.057 21.6816 112.505 22.0549C112.964 22.4176 113.268 22.9349 113.417 23.6069H113.177L113.289 23.3189C113.417 23.0202 113.636 22.7322 113.945 22.4549C114.255 22.1776 114.612 21.9482 115.017 21.7669C115.423 21.5856 115.844 21.4949 116.281 21.4949C116.985 21.4949 117.54 21.6496 117.945 21.9589C118.351 22.2576 118.639 22.6629 118.809 23.1749C118.991 23.6762 119.081 24.2416 119.081 24.8709V29.2389C119.081 29.4202 119.017 29.5749 118.889 29.7029C118.772 29.8309 118.623 29.8949 118.441 29.8949C118.249 29.8949 118.095 29.8309 117.977 29.7029C117.86 29.5749 117.801 29.4202 117.801 29.2389V24.9029C117.801 24.4869 117.737 24.1136 117.609 23.7829C117.492 23.4416 117.295 23.1749 117.017 22.9829C116.751 22.7802 116.383 22.6789 115.913 22.6789C115.476 22.6789 115.076 22.7802 114.713 22.9829C114.351 23.1749 114.063 23.4416 113.849 23.7829C113.636 24.1136 113.529 24.4869 113.529 24.9029V29.2389C113.529 29.4202 113.471 29.5749 113.353 29.7029C113.236 29.8309 113.081 29.8949 112.889 29.8949C112.708 29.8949 112.553 29.8309 112.425 29.7029C112.308 29.5749 112.249 29.4202 112.249 29.2389V24.8549C112.249 24.4496 112.191 24.0869 112.073 23.7669C111.967 23.4362 111.78 23.1749 111.513 22.9829C111.247 22.7802 110.879 22.6789 110.409 22.6789C109.983 22.6789 109.593 22.7802 109.241 22.9829C108.889 23.1749 108.607 23.4362 108.393 23.7669C108.18 24.0869 108.073 24.4496 108.073 24.8549V29.2389C108.073 29.4202 108.009 29.5749 107.881 29.7029C107.764 29.8309 107.615 29.8949 107.433 29.8949C107.252 29.8949 107.097 29.8309 106.969 29.7029C106.852 29.5749 106.793 29.4202 106.793 29.2389V22.2629C106.793 22.0816 106.852 21.9322 106.969 21.8149C107.097 21.6869 107.252 21.6229 107.433 21.6229C107.625 21.6229 107.78 21.6869 107.897 21.8149C108.015 21.9322 108.073 22.0816 108.073 22.2629V23.4789L107.721 23.8629C107.764 23.5856 107.871 23.3082 108.041 23.0309C108.223 22.7536 108.452 22.4976 108.729 22.2629C109.007 22.0282 109.316 21.8416 109.657 21.7029C109.999 21.5642 110.361 21.4949 110.745 21.4949ZM129.306 25.7349C129.306 26.5669 129.119 27.3082 128.746 27.9589C128.383 28.6096 127.887 29.1216 127.258 29.4949C126.639 29.8682 125.94 30.0549 125.162 30.0549C124.383 30.0549 123.679 29.8682 123.05 29.4949C122.42 29.1216 121.919 28.6096 121.546 27.9589C121.183 27.3082 121.002 26.5669 121.002 25.7349C121.002 24.9029 121.183 24.1616 121.546 23.5109C121.919 22.8602 122.42 22.3482 123.05 21.9749C123.679 21.6016 124.383 21.4149 125.162 21.4149C125.94 21.4149 126.639 21.6016 127.258 21.9749C127.887 22.3482 128.383 22.8602 128.746 23.5109C129.119 24.1616 129.306 24.9029 129.306 25.7349ZM128.026 25.7349C128.026 25.1162 127.898 24.5722 127.642 24.1029C127.396 23.6336 127.055 23.2656 126.618 22.9989C126.191 22.7322 125.706 22.5989 125.162 22.5989C124.618 22.5989 124.127 22.7322 123.69 22.9989C123.263 23.2656 122.922 23.6336 122.666 24.1029C122.41 24.5722 122.282 25.1162 122.282 25.7349C122.282 26.3429 122.41 26.8816 122.666 27.3509C122.922 27.8202 123.263 28.1936 123.69 28.4709C124.127 28.7376 124.618 28.8709 125.162 28.8709C125.706 28.8709 126.191 28.7376 126.618 28.4709C127.055 28.1936 127.396 27.8202 127.642 27.3509C127.898 26.8816 128.026 26.3429 128.026 25.7349ZM131.153 21.4789C131.281 21.4789 131.403 21.5162 131.521 21.5909C131.638 21.6549 131.723 21.7509 131.777 21.8789L134.433 28.1189L134.177 28.2469L136.881 21.8949C136.998 21.6069 137.195 21.4682 137.473 21.4789C137.633 21.4789 137.771 21.5322 137.889 21.6389C138.006 21.7456 138.065 21.8789 138.065 22.0389C138.065 22.1029 138.054 22.1669 138.033 22.2309C138.022 22.2842 138.006 22.3322 137.985 22.3749L134.897 29.4789C134.779 29.7456 134.593 29.8842 134.337 29.8949C134.198 29.9056 134.065 29.8789 133.937 29.8149C133.819 29.7402 133.734 29.6282 133.681 29.4789L130.593 22.3909C130.571 22.3482 130.55 22.3002 130.529 22.2469C130.518 22.1936 130.513 22.1296 130.513 22.0549C130.513 21.9162 130.566 21.7882 130.673 21.6709C130.79 21.5429 130.95 21.4789 131.153 21.4789ZM143.539 30.0549C142.686 30.0549 141.939 29.8736 141.299 29.5109C140.659 29.1482 140.158 28.6522 139.795 28.0229C139.443 27.3829 139.267 26.6469 139.267 25.8149C139.267 24.8869 139.449 24.0976 139.811 23.4469C140.185 22.7856 140.665 22.2842 141.251 21.9429C141.849 21.5909 142.478 21.4149 143.139 21.4149C143.63 21.4149 144.105 21.5056 144.563 21.6869C145.022 21.8682 145.427 22.1349 145.779 22.4869C146.131 22.8282 146.414 23.2442 146.627 23.7349C146.841 24.2149 146.953 24.7536 146.963 25.3509C146.963 25.5216 146.899 25.6656 146.771 25.7829C146.643 25.9002 146.494 25.9589 146.323 25.9589H140.003L139.715 24.8549H145.875L145.619 25.0789V24.7269C145.577 24.2896 145.427 23.9162 145.171 23.6069C144.926 23.2869 144.622 23.0416 144.259 22.8709C143.907 22.7002 143.534 22.6149 143.139 22.6149C142.819 22.6149 142.499 22.6736 142.179 22.7909C141.87 22.8976 141.587 23.0789 141.331 23.3349C141.086 23.5802 140.883 23.9002 140.723 24.2949C140.574 24.6896 140.499 25.1642 140.499 25.7189C140.499 26.3376 140.622 26.8816 140.867 27.3509C141.123 27.8202 141.475 28.1936 141.923 28.4709C142.371 28.7376 142.894 28.8709 143.491 28.8709C143.865 28.8709 144.19 28.8229 144.467 28.7269C144.745 28.6309 144.985 28.5136 145.187 28.3749C145.39 28.2256 145.561 28.0762 145.699 27.9269C145.838 27.8309 145.971 27.7829 146.099 27.7829C146.259 27.7829 146.387 27.8362 146.483 27.9429C146.59 28.0496 146.643 28.1776 146.643 28.3269C146.643 28.5082 146.558 28.6682 146.387 28.8069C146.089 29.1376 145.683 29.4309 145.171 29.6869C144.659 29.9322 144.115 30.0549 143.539 30.0549ZM152.839 21.4949C153.564 21.4949 154.151 21.6816 154.599 22.0549C155.058 22.4176 155.362 22.9349 155.511 23.6069H155.271L155.383 23.3189C155.511 23.0202 155.73 22.7322 156.039 22.4549C156.348 22.1776 156.706 21.9482 157.111 21.7669C157.516 21.5856 157.938 21.4949 158.375 21.4949C159.079 21.4949 159.634 21.6496 160.039 21.9589C160.444 22.2576 160.732 22.6629 160.903 23.1749C161.084 23.6762 161.175 24.2416 161.175 24.8709V29.2389C161.175 29.4202 161.111 29.5749 160.983 29.7029C160.866 29.8309 160.716 29.8949 160.535 29.8949C160.343 29.8949 160.188 29.8309 160.071 29.7029C159.954 29.5749 159.895 29.4202 159.895 29.2389V24.9029C159.895 24.4869 159.831 24.1136 159.703 23.7829C159.586 23.4416 159.388 23.1749 159.111 22.9829C158.844 22.7802 158.476 22.6789 158.007 22.6789C157.57 22.6789 157.17 22.7802 156.807 22.9829C156.444 23.1749 156.156 23.4416 155.943 23.7829C155.73 24.1136 155.623 24.4869 155.623 24.9029V29.2389C155.623 29.4202 155.564 29.5749 155.447 29.7029C155.33 29.8309 155.175 29.8949 154.983 29.8949C154.802 29.8949 154.647 29.8309 154.519 29.7029C154.402 29.5749 154.343 29.4202 154.343 29.2389V24.8549C154.343 24.4496 154.284 24.0869 154.167 23.7669C154.06 23.4362 153.874 23.1749 153.607 22.9829C153.34 22.7802 152.972 22.6789 152.503 22.6789C152.076 22.6789 151.687 22.7802 151.335 22.9829C150.983 23.1749 150.7 23.4362 150.487 23.7669C150.274 24.0869 150.167 24.4496 150.167 24.8549V29.2389C150.167 29.4202 150.103 29.5749 149.975 29.7029C149.858 29.8309 149.708 29.8949 149.527 29.8949C149.346 29.8949 149.191 29.8309 149.063 29.7029C148.946 29.5749 148.887 29.4202 148.887 29.2389V22.2629C148.887 22.0816 148.946 21.9322 149.063 21.8149C149.191 21.6869 149.346 21.6229 149.527 21.6229C149.719 21.6229 149.874 21.6869 149.991 21.8149C150.108 21.9322 150.167 22.0816 150.167 22.2629V23.4789L149.815 23.8629C149.858 23.5856 149.964 23.3082 150.135 23.0309C150.316 22.7536 150.546 22.4976 150.823 22.2629C151.1 22.0282 151.41 21.8416 151.751 21.7029C152.092 21.5642 152.455 21.4949 152.839 21.4949ZM167.367 30.0549C166.514 30.0549 165.767 29.8736 165.127 29.5109C164.487 29.1482 163.986 28.6522 163.623 28.0229C163.271 27.3829 163.095 26.6469 163.095 25.8149C163.095 24.8869 163.277 24.0976 163.639 23.4469C164.013 22.7856 164.493 22.2842 165.079 21.9429C165.677 21.5909 166.306 21.4149 166.967 21.4149C167.458 21.4149 167.933 21.5056 168.391 21.6869C168.85 21.8682 169.255 22.1349 169.607 22.4869C169.959 22.8282 170.242 23.2442 170.455 23.7349C170.669 24.2149 170.781 24.7536 170.791 25.3509C170.791 25.5216 170.727 25.6656 170.599 25.7829C170.471 25.9002 170.322 25.9589 170.151 25.9589H163.831L163.543 24.8549H169.703L169.447 25.0789V24.7269C169.405 24.2896 169.255 23.9162 168.999 23.6069C168.754 23.2869 168.45 23.0416 168.087 22.8709C167.735 22.7002 167.362 22.6149 166.967 22.6149C166.647 22.6149 166.327 22.6736 166.007 22.7909C165.698 22.8976 165.415 23.0789 165.159 23.3349C164.914 23.5802 164.711 23.9002 164.551 24.2949C164.402 24.6896 164.327 25.1642 164.327 25.7189C164.327 26.3376 164.45 26.8816 164.695 27.3509C164.951 27.8202 165.303 28.1936 165.751 28.4709C166.199 28.7376 166.722 28.8709 167.319 28.8709C167.693 28.8709 168.018 28.8229 168.295 28.7269C168.573 28.6309 168.813 28.5136 169.015 28.3749C169.218 28.2256 169.389 28.0762 169.527 27.9269C169.666 27.8309 169.799 27.7829 169.927 27.7829C170.087 27.7829 170.215 27.8362 170.311 27.9429C170.418 28.0496 170.471 28.1776 170.471 28.3269C170.471 28.5082 170.386 28.6682 170.215 28.8069C169.917 29.1376 169.511 29.4309 168.999 29.6869C168.487 29.9322 167.943 30.0549 167.367 30.0549ZM176.827 21.4149C177.553 21.4149 178.123 21.5642 178.539 21.8629C178.955 22.1616 179.249 22.5616 179.419 23.0629C179.601 23.5642 179.691 24.1242 179.691 24.7429V29.2389C179.691 29.4202 179.627 29.5749 179.499 29.7029C179.382 29.8309 179.233 29.8949 179.051 29.8949C178.87 29.8949 178.715 29.8309 178.587 29.7029C178.47 29.5749 178.411 29.4202 178.411 29.2389V24.7749C178.411 24.3696 178.347 24.0069 178.219 23.6869C178.102 23.3562 177.899 23.0949 177.611 22.9029C177.334 22.7002 176.95 22.5989 176.459 22.5989C176.011 22.5989 175.601 22.7002 175.227 22.9029C174.854 23.0949 174.555 23.3562 174.331 23.6869C174.107 24.0069 173.995 24.3696 173.995 24.7749V29.2389C173.995 29.4202 173.931 29.5749 173.803 29.7029C173.686 29.8309 173.537 29.8949 173.355 29.8949C173.174 29.8949 173.019 29.8309 172.891 29.7029C172.774 29.5749 172.715 29.4202 172.715 29.2389V22.2629C172.715 22.0816 172.774 21.9322 172.891 21.8149C173.019 21.6869 173.174 21.6229 173.355 21.6229C173.547 21.6229 173.702 21.6869 173.819 21.8149C173.937 21.9322 173.995 22.0816 173.995 22.2629V23.3989L173.675 23.7509C173.729 23.4736 173.851 23.1962 174.043 22.9189C174.235 22.6309 174.475 22.3749 174.763 22.1509C175.051 21.9269 175.371 21.7509 175.723 21.6229C176.075 21.4842 176.443 21.4149 176.827 21.4149ZM181.739 21.6709H185.499C185.67 21.6709 185.808 21.7296 185.915 21.8469C186.032 21.9642 186.091 22.1029 186.091 22.2629C186.091 22.4336 186.032 22.5776 185.915 22.6949C185.808 22.8016 185.67 22.8549 185.499 22.8549H181.739C181.579 22.8549 181.44 22.7962 181.323 22.6789C181.206 22.5616 181.147 22.4176 181.147 22.2469C181.147 22.0869 181.206 21.9536 181.323 21.8469C181.44 21.7296 181.579 21.6709 181.739 21.6709ZM183.419 19.4949C183.6 19.4949 183.75 19.5589 183.867 19.6869C183.984 19.8042 184.043 19.9536 184.043 20.1349V27.8629C184.043 28.1189 184.08 28.3109 184.155 28.4389C184.23 28.5669 184.326 28.6576 184.443 28.7109C184.571 28.7536 184.694 28.7749 184.811 28.7749C184.918 28.7749 185.008 28.7589 185.083 28.7269C185.168 28.6842 185.264 28.6629 185.371 28.6629C185.478 28.6629 185.574 28.7162 185.659 28.8229C185.755 28.9189 185.803 29.0469 185.803 29.2069C185.803 29.3989 185.691 29.5642 185.467 29.7029C185.243 29.8309 184.992 29.8949 184.715 29.8949C184.566 29.8949 184.379 29.8842 184.155 29.8629C183.942 29.8416 183.728 29.7722 183.515 29.6549C183.302 29.5376 183.12 29.3456 182.971 29.0789C182.832 28.8016 182.763 28.4176 182.763 27.9269V20.1349C182.763 19.9536 182.827 19.8042 182.955 19.6869C183.083 19.5589 183.238 19.4949 183.419 19.4949Z" fill="#FF3C38"/>
<path d="M17.6648 106.198C18.3038 106.198 18.8363 106.43 19.2624 106.895C19.7188 107.36 19.947 107.942 19.947 108.639C19.947 109.337 19.7188 109.918 19.2624 110.383C18.8363 110.848 18.3038 111.08 17.6648 111.08H2.32791C1.65845 111.08 1.09549 110.848 0.639036 110.383C0.213012 109.885 0 109.27 0 108.539V78.7469C0 78.0162 0.228227 77.4184 0.684681 76.9534C1.14113 76.4552 1.73452 76.2061 2.46485 76.2061C3.07346 76.2061 3.60599 76.4552 4.06244 76.9534C4.54932 77.4184 4.79277 78.0162 4.79277 78.7469V107.045L3.83421 106.198H17.6648Z" fill="#F4F7FB"/>
<path d="M29.978 108.539C29.9475 109.27 29.6889 109.885 29.202 110.383C28.7455 110.848 28.1978 111.08 27.5588 111.08C26.8589 111.08 26.2807 110.848 25.8242 110.383C25.3982 109.885 25.1852 109.27 25.1852 108.539V78.7469C25.1852 78.0162 25.4134 77.4184 25.8699 76.9534C26.3263 76.4552 26.9197 76.2061 27.65 76.2061C28.2587 76.2061 28.7912 76.4552 29.2476 76.9534C29.7345 77.4184 29.978 78.0162 29.978 78.7469V108.539Z" fill="#F4F7FB"/>
<path d="M52.1891 111.578C49.8764 111.578 47.7158 111.13 45.7074 110.233C43.699 109.303 41.9341 108.025 40.4126 106.397C38.9215 104.736 37.7499 102.827 36.8979 100.668C36.0458 98.5089 35.6198 96.1674 35.6198 93.6432C35.6198 91.1189 36.0458 88.7774 36.8979 86.6185C37.7499 84.4596 38.9215 82.5665 40.4126 80.939C41.9341 79.2783 43.699 77.9996 45.7074 77.1029C47.7158 76.1729 49.8764 75.7079 52.1891 75.7079C53.6802 75.7079 55.1256 75.8906 56.5254 76.2559C57.9252 76.6213 59.188 77.1527 60.314 77.8502C60.7095 78.0826 60.9986 78.3982 61.1812 78.7967C61.3638 79.1621 61.4551 79.5274 61.4551 79.8928C61.4551 80.5903 61.2421 81.2047 60.8161 81.7361C60.4205 82.2343 59.9184 82.4834 59.3098 82.4834C59.0967 82.4834 58.8685 82.4502 58.6251 82.3838C58.4121 82.3174 58.2143 82.2343 58.0317 82.1347C57.1796 81.6697 56.2667 81.321 55.293 81.0885C54.3192 80.8228 53.2846 80.6899 52.1891 80.6899C49.9981 80.6899 48.0201 81.2711 46.2552 82.4336C44.4902 83.5629 43.0904 85.1073 42.0558 87.0669C41.0516 89.0265 40.5495 91.2186 40.5495 93.6432C40.5495 96.0345 41.0516 98.2266 42.0558 100.219C43.0904 102.179 44.4902 103.74 46.2552 104.903C48.0201 106.032 49.9981 106.596 52.1891 106.596C53.2541 106.596 54.3801 106.464 55.5668 106.198C56.7536 105.899 57.7578 105.517 58.5794 105.052L58.2143 106.397V96.9313L58.9446 97.6288H52.965C52.2956 97.6288 51.7326 97.3963 51.2762 96.9313C50.8501 96.4663 50.6371 95.8685 50.6371 95.1378C50.6371 94.4071 50.8501 93.8092 51.2762 93.3442C51.7326 92.8792 52.2956 92.6468 52.965 92.6468H60.8617C61.5007 92.6468 62.0333 92.8959 62.4593 93.3941C62.9157 93.859 63.144 94.4569 63.144 95.1876V106.248C63.144 106.779 63.0222 107.227 62.7788 107.593C62.5354 107.958 62.2615 108.257 61.9572 108.49C60.5878 109.42 59.0663 110.167 57.3927 110.731C55.7494 111.296 54.0149 111.578 52.1891 111.578Z" fill="#F4F7FB"/>
<path d="M71.6016 76.2061C72.2102 76.2061 72.7427 76.4552 73.1992 76.9534C73.686 77.4184 73.9295 78.0162 73.9295 78.7469V108.539C73.899 109.27 73.6404 109.885 73.1535 110.383C72.6971 110.848 72.1493 111.08 71.5103 111.08C70.8104 111.08 70.2322 110.848 69.7757 110.383C69.3497 109.885 69.1367 109.27 69.1367 108.539V78.7469C69.1367 78.0162 69.3649 77.4184 69.8214 76.9534C70.2778 76.4552 70.8712 76.2061 71.6016 76.2061ZM92.1876 76.2061C92.918 76.2061 93.4961 76.4552 93.9222 76.9534C94.3482 77.4184 94.5612 78.0162 94.5612 78.7469V108.539C94.5612 109.27 94.333 109.885 93.8765 110.383C93.4505 110.848 92.8723 111.08 92.142 111.08C91.5029 111.08 90.9552 110.848 90.4988 110.383C90.0423 109.885 89.8141 109.27 89.8141 108.539V78.7469C89.8141 78.0162 90.0423 77.4184 90.4988 76.9534C90.9856 76.4552 91.5486 76.2061 92.1876 76.2061ZM71.419 91.0525H92.2333L92.1876 95.8352H71.3733L71.419 91.0525Z" fill="#F4F7FB"/>
<path d="M112.351 111.08C111.621 111.08 111.028 110.848 110.571 110.383C110.145 109.885 109.932 109.27 109.932 108.539V78.6971H114.816V108.539C114.816 109.27 114.573 109.885 114.086 110.383C113.63 110.848 113.051 111.08 112.351 111.08ZM101.99 80.9888C101.351 80.9888 100.803 80.7729 100.347 80.3412C99.8903 79.8762 99.6621 79.2783 99.6621 78.5476C99.6621 77.8502 99.8903 77.2855 100.347 76.8538C100.803 76.422 101.351 76.2061 101.99 76.2061H122.759C123.398 76.2061 123.93 76.4386 124.356 76.9036C124.813 77.3353 125.041 77.9 125.041 78.5975C125.041 79.3282 124.813 79.9094 124.356 80.3412C123.93 80.7729 123.398 80.9888 122.759 80.9888H101.99Z" fill="#F4F7FB"/>
<path d="M166.939 76.0566C167.548 76.0566 168.111 76.3057 168.628 76.8039C169.145 77.2689 169.404 77.9166 169.404 78.7469C169.404 78.9794 169.358 79.2617 169.267 79.5939L159.91 109.486C159.758 109.984 159.484 110.366 159.088 110.632C158.692 110.898 158.282 111.047 157.856 111.08C157.43 111.08 157.004 110.947 156.578 110.682C156.152 110.416 155.832 110.017 155.619 109.486L148.407 91.0525L148.818 91.2518L141.697 109.486C141.454 110.017 141.119 110.416 140.693 110.682C140.297 110.947 139.871 111.08 139.415 111.08C139.019 111.047 138.624 110.898 138.228 110.632C137.833 110.366 137.559 109.984 137.407 109.486L128.049 79.5939C127.958 79.2617 127.912 78.9794 127.912 78.7469C127.912 77.9166 128.186 77.2689 128.734 76.8039C129.282 76.3057 129.845 76.0566 130.423 76.0566C130.91 76.0566 131.351 76.2061 131.746 76.505C132.173 76.7707 132.462 77.1693 132.614 77.7007L140.51 103.408H139.689L146.627 84.8748C146.84 84.3766 147.129 83.978 147.494 83.6791C147.89 83.3802 148.331 83.2473 148.818 83.2806C149.305 83.2473 149.731 83.3802 150.096 83.6791C150.492 83.978 150.781 84.3766 150.963 84.8748L157.536 102.86L156.851 103.258L164.702 77.7007C164.855 77.1693 165.144 76.7707 165.57 76.505C165.996 76.2061 166.452 76.0566 166.939 76.0566Z" fill="#F4F7FB"/>
<path d="M176.396 76.2061H192.189C192.828 76.2061 193.36 76.4386 193.786 76.9036C194.243 77.3686 194.471 77.9498 194.471 78.6473C194.471 79.3448 194.243 79.9094 193.786 80.3412C193.36 80.7729 192.828 80.9888 192.189 80.9888H178.404L178.86 80.1419V91.3016L178.45 90.8034H190.135C190.774 90.8034 191.306 91.0359 191.732 91.5009C192.189 91.9659 192.417 92.5637 192.417 93.2944C192.417 93.9919 192.189 94.5565 191.732 94.9883C191.306 95.4201 190.774 95.636 190.135 95.636H178.541L178.86 95.1876V106.696L178.541 106.297H192.189C192.828 106.297 193.36 106.547 193.786 107.045C194.243 107.51 194.471 108.058 194.471 108.689C194.471 109.386 194.243 109.968 193.786 110.433C193.36 110.864 192.828 111.08 192.189 111.08H176.396C175.756 111.08 175.209 110.848 174.752 110.383C174.296 109.885 174.068 109.27 174.068 108.539V78.7469C174.068 78.0162 174.296 77.4184 174.752 76.9534C175.209 76.4552 175.756 76.2061 176.396 76.2061Z" fill="#F4F7FB"/>
<path d="M204.937 108.539C204.907 109.27 204.648 109.885 204.161 110.383C203.705 110.848 203.157 111.08 202.518 111.08C201.818 111.08 201.24 110.848 200.783 110.383C200.357 109.885 200.144 109.27 200.144 108.539V78.7469C200.144 78.0162 200.373 77.4184 200.829 76.9534C201.285 76.4552 201.879 76.2061 202.609 76.2061C203.218 76.2061 203.75 76.4552 204.207 76.9534C204.694 77.4184 204.937 78.0162 204.937 78.7469V108.539Z" fill="#F4F7FB"/>
<path d="M227.148 111.578C224.835 111.578 222.675 111.13 220.667 110.233C218.658 109.303 216.893 108.025 215.372 106.397C213.881 104.736 212.709 102.827 211.857 100.668C211.005 98.5089 210.579 96.1674 210.579 93.6432C210.579 91.1189 211.005 88.7774 211.857 86.6185C212.709 84.4596 213.881 82.5665 215.372 80.939C216.893 79.2783 218.658 77.9996 220.667 77.1029C222.675 76.1729 224.835 75.7079 227.148 75.7079C228.639 75.7079 230.085 75.8906 231.485 76.2559C232.884 76.6213 234.147 77.1527 235.273 77.8502C235.669 78.0826 235.958 78.3982 236.14 78.7967C236.323 79.1621 236.414 79.5274 236.414 79.8928C236.414 80.5903 236.201 81.2047 235.775 81.7361C235.38 82.2343 234.877 82.4834 234.269 82.4834C234.056 82.4834 233.828 82.4502 233.584 82.3838C233.371 82.3174 233.173 82.2343 232.991 82.1347C232.139 81.6697 231.226 81.321 230.252 81.0885C229.278 80.8228 228.244 80.6899 227.148 80.6899C224.957 80.6899 222.979 81.2711 221.214 82.4336C219.449 83.5629 218.05 85.1073 217.015 87.0669C216.011 89.0265 215.509 91.2186 215.509 93.6432C215.509 96.0345 216.011 98.2266 217.015 100.219C218.05 102.179 219.449 103.74 221.214 104.903C222.979 106.032 224.957 106.596 227.148 106.596C228.213 106.596 229.339 106.464 230.526 106.198C231.713 105.899 232.717 105.517 233.539 105.052L233.173 106.397V96.9313L233.904 97.6288H227.924C227.255 97.6288 226.692 97.3963 226.235 96.9313C225.809 96.4663 225.596 95.8685 225.596 95.1378C225.596 94.4071 225.809 93.8092 226.235 93.3442C226.692 92.8792 227.255 92.6468 227.924 92.6468H235.821C236.46 92.6468 236.992 92.8959 237.418 93.3941C237.875 93.859 238.103 94.4569 238.103 95.1876V106.248C238.103 106.779 237.981 107.227 237.738 107.593C237.494 107.958 237.221 108.257 236.916 108.49C235.547 109.42 234.025 110.167 232.352 110.731C230.709 111.296 228.974 111.578 227.148 111.578Z" fill="#F4F7FB"/>
<path d="M246.561 76.2061C247.169 76.2061 247.702 76.4552 248.158 76.9534C248.645 77.4184 248.889 78.0162 248.889 78.7469V108.539C248.858 109.27 248.6 109.885 248.113 110.383C247.656 110.848 247.108 111.08 246.469 111.08C245.769 111.08 245.191 110.848 244.735 110.383C244.309 109.885 244.096 109.27 244.096 108.539V78.7469C244.096 78.0162 244.324 77.4184 244.781 76.9534C245.237 76.4552 245.83 76.2061 246.561 76.2061ZM267.147 76.2061C267.877 76.2061 268.455 76.4552 268.881 76.9534C269.307 77.4184 269.52 78.0162 269.52 78.7469V108.539C269.52 109.27 269.292 109.885 268.836 110.383C268.41 110.848 267.831 111.08 267.101 111.08C266.462 111.08 265.914 110.848 265.458 110.383C265.001 109.885 264.773 109.27 264.773 108.539V78.7469C264.773 78.0162 265.001 77.4184 265.458 76.9534C265.945 76.4552 266.508 76.2061 267.147 76.2061ZM246.378 91.0525H267.192L267.147 95.8352H246.332L246.378 91.0525Z" fill="#F4F7FB"/>
<path d="M287.311 111.08C286.58 111.08 285.987 110.848 285.53 110.383C285.104 109.885 284.891 109.27 284.891 108.539V78.6971H289.775V108.539C289.775 109.27 289.532 109.885 289.045 110.383C288.589 110.848 288.01 111.08 287.311 111.08ZM276.949 80.9888C276.31 80.9888 275.762 80.7729 275.306 80.3412C274.849 79.8762 274.621 79.2783 274.621 78.5476C274.621 77.8502 274.849 77.2855 275.306 76.8538C275.762 76.422 276.31 76.2061 276.949 76.2061H297.718C298.357 76.2061 298.889 76.4386 299.315 76.9036C299.772 77.3353 300 77.9 300 78.5975C300 79.3282 299.772 79.9094 299.315 80.3412C298.889 80.7729 298.357 80.9888 297.718 80.9888H276.949Z" fill="#F4F7FB"/>
<path d="M250.878 35.9903H246.984V39.8699H250.878V35.9903Z" fill="#FF3C38"/>
<path d="M248.189 42.1865L246.137 44.0746L245.863 44.094L242.42 44.3446L240.811 44.461L241.476 41.3605L241.789 39.9057L241.951 39.1782L243.366 32.5991C243.366 32.5991 243.366 32.5991 243.366 32.5894L243.69 31.1006H247.186L247.207 31.335L247.808 37.9772L247.97 39.7553L248.191 42.1801L248.189 42.1865Z" fill="#FF3C38"/>
<path d="M255.455 25.2593H246.883V37.9698H255.455V25.2593Z" fill="#FF3C38"/>
<path d="M240.797 41.3805L238.774 42.1613C238.774 42.1613 237.335 41.6537 234.137 43.1813L233.775 43.3607C233.129 43.2826 232.475 43.2826 231.828 43.3607C231.307 43.4165 230.8 43.5655 230.331 43.8004C230.172 43.8849 230.022 43.9863 229.885 44.1027C229.675 44.2791 229.502 44.4952 229.376 44.7385C229.25 44.9818 229.174 45.2476 229.151 45.5204C229.106 46.1658 229.204 46.8133 229.439 47.4165C229.441 47.4243 229.443 47.4319 229.447 47.4392C229.542 47.7194 229.675 47.9849 229.844 48.228C230.2 48.7324 230.736 49.0827 231.342 49.2076C231.524 49.2485 231.709 49.275 231.895 49.2868C233.014 49.3612 234.338 48.9781 235.592 48.443C237.183 47.7383 238.698 46.8761 240.115 45.8695L241.932 45.1066L240.883 41.4306L240.797 41.3805Z" fill="white" stroke="black" stroke-width="2" stroke-miterlimit="10" stroke-linecap="round"/>
<path d="M225.488 41.4435L231.105 50.2696C231.183 50.3926 231.304 50.4819 231.445 50.5196C231.586 50.5573 231.736 50.5408 231.866 50.4732L235.444 48.6143C235.514 48.5777 235.576 48.5273 235.625 48.4663C235.675 48.4053 235.712 48.3349 235.733 48.2593C235.755 48.1837 235.761 48.1046 235.751 48.0267C235.741 47.9487 235.715 47.8737 235.675 47.806L230.483 39.1868C230.411 39.0677 230.298 38.9783 230.166 38.9348C230.033 38.8912 229.889 38.8963 229.76 38.9492L225.757 40.598C225.679 40.6304 225.609 40.6794 225.552 40.7417C225.494 40.8039 225.451 40.8779 225.426 40.9584C225.4 41.0389 225.392 41.124 225.403 41.2078C225.414 41.2916 225.443 41.372 225.488 41.4435Z" fill="black" stroke="black" stroke-width="2" stroke-miterlimit="10"/>
<path d="M258.241 24.738L248.134 28.5352L247.584 19.077H258.241V24.738Z" fill="#FF3C38"/>
<path d="M226.931 41.7959L230.703 47.722C230.781 47.845 230.902 47.9343 231.043 47.972C231.184 48.0098 231.335 47.9932 231.464 47.9257L233.69 46.7699C233.759 46.7333 233.821 46.683 233.871 46.6219C233.92 46.5608 233.957 46.4904 233.978 46.4147C234 46.3391 234.005 46.2599 233.995 46.182C233.985 46.1041 233.959 46.0291 233.918 45.9616L230.427 40.1551C230.355 40.0359 230.243 39.9464 230.11 39.9028C229.978 39.8592 229.834 39.8644 229.705 39.9175L227.207 40.9488C227.128 40.9805 227.057 41.0292 226.998 41.0912C226.94 41.1533 226.897 41.2274 226.87 41.3081C226.844 41.3889 226.836 41.4745 226.846 41.5587C226.857 41.643 226.886 41.724 226.931 41.7959Z" fill="white" stroke="black" stroke-width="2" stroke-miterlimit="10" stroke-linecap="round"/>
<path d="M266.641 42.4946L266.594 42.5417L266.586 42.4476L266.641 42.4946Z" stroke="black" stroke-width="2" stroke-miterlimit="10" stroke-linecap="round"/>
<path d="M267.008 42.1378L266.515 41.7191L264.048 39.6177L263.668 39.9636L266.585 42.4466L266.593 42.5403L266.64 42.4934" stroke="black" stroke-width="2" stroke-miterlimit="10" stroke-linecap="round"/>
<path d="M266.62 93.7457H258.527V105.498H266.62V93.7457Z" fill="white" stroke="black" stroke-width="2" stroke-miterlimit="10" stroke-linecap="round"/>
<path d="M251.964 92.3419L243.918 91.485L242.665 103.17L250.711 104.027L251.964 92.3419Z" fill="white" stroke="black" stroke-width="2" stroke-miterlimit="10" stroke-linecap="round"/>
<path d="M237.211 103.759C237.211 103.759 233.642 104.383 231.9 107.137C231.713 107.431 231.604 107.768 231.584 108.115C231.563 108.462 231.632 108.809 231.783 109.122C231.934 109.436 232.163 109.706 232.448 109.907C232.733 110.108 233.065 110.234 233.412 110.272L250.032 112.05C250.228 112.071 250.425 112.047 250.61 111.981C250.795 111.914 250.962 111.807 251.099 111.667C251.236 111.527 251.34 111.358 251.402 111.172C251.464 110.986 251.482 110.789 251.457 110.595L251.316 109.527" fill="white"/>
<path d="M237.211 103.759C237.211 103.759 233.642 104.383 231.9 107.137C231.713 107.431 231.604 107.768 231.584 108.115C231.563 108.462 231.632 108.809 231.783 109.122C231.934 109.436 232.163 109.706 232.448 109.907C232.733 110.108 233.065 110.234 233.412 110.272L250.032 112.05C250.228 112.071 250.425 112.047 250.61 111.981C250.795 111.914 250.962 111.807 251.099 111.667C251.236 111.527 251.34 111.358 251.402 111.172C251.464 110.986 251.482 110.789 251.457 110.595L251.316 109.527" stroke="black" stroke-width="2" stroke-miterlimit="10" stroke-linecap="round"/>
<path d="M237.213 103.758L241.699 102.465C242.257 102.303 242.845 102.265 243.42 102.353C243.995 102.441 244.544 102.654 245.028 102.976L247.184 104.408L249.424 104.671C249.912 104.729 250.362 104.959 250.694 105.319C251.025 105.68 251.216 106.147 251.231 106.636L251.322 109.524L239.268 108.241C239.268 108.241 239.899 105.745 237.213 103.758Z" fill="black" stroke="black" stroke-width="2" stroke-miterlimit="10" stroke-linecap="round"/>
<path d="M253.341 106.091C253.341 106.091 249.864 107.088 248.421 110.011C248.265 110.323 248.191 110.67 248.207 111.018C248.223 111.366 248.328 111.705 248.512 112.001C248.696 112.298 248.953 112.543 249.258 112.713C249.563 112.883 249.907 112.973 250.257 112.974H266.967C267.164 112.974 267.357 112.93 267.534 112.844C267.711 112.759 267.866 112.635 267.987 112.481C268.109 112.327 268.194 112.148 268.236 111.957C268.278 111.765 268.275 111.567 268.229 111.377L267.976 110.329" fill="white"/>
<path d="M253.341 106.091C253.341 106.091 249.864 107.088 248.421 110.011C248.265 110.323 248.191 110.67 248.207 111.018C248.223 111.366 248.328 111.705 248.512 112.001C248.696 112.298 248.953 112.543 249.258 112.713C249.563 112.883 249.907 112.973 250.257 112.974H266.967C267.164 112.974 267.357 112.93 267.534 112.844C267.711 112.759 267.866 112.635 267.987 112.481C268.109 112.327 268.194 112.148 268.236 111.957C268.278 111.765 268.275 111.567 268.229 111.377L267.976 110.329" stroke="black" stroke-width="2" stroke-miterlimit="10" stroke-linecap="round"/>
<path d="M253.34 106.09L257.662 104.328C258.2 104.109 258.779 104.011 259.36 104.038C259.94 104.066 260.507 104.22 261.022 104.49L263.319 105.686L265.574 105.712C266.063 105.718 266.534 105.898 266.902 106.22C267.269 106.542 267.509 106.985 267.577 107.467L267.977 110.329H255.856C255.856 110.329 256.221 107.776 253.34 106.09Z" fill="black" stroke="black" stroke-width="2" stroke-miterlimit="10" stroke-linecap="round"/>
<path d="M268.322 95.4194C268.335 95.8338 268.264 96.2465 268.113 96.6331C267.963 97.0196 267.736 97.3722 267.446 97.6698C267.156 97.9673 266.81 98.2039 266.426 98.3655C266.043 98.5271 265.631 98.6104 265.215 98.6104H260.024C259.113 98.6107 258.234 98.2755 257.557 97.669C256.879 97.0626 256.451 96.2279 256.354 95.3256L254.381 77.1125L252.41 58.846L257.671 58.838L267.032 58.8218C267.092 58.8219 267.151 58.8126 267.207 58.7943L268.322 95.4194Z" fill="#35A7FF" stroke="black" stroke-width="2" stroke-miterlimit="10"/>
<path d="M267.211 58.7942L267.201 58.4726" stroke="black" stroke-width="2" stroke-miterlimit="10"/>
<path d="M245.884 44.2022L245.863 44.7194" stroke="black" stroke-width="2" stroke-miterlimit="10"/>
<path d="M254.383 77.1103L251.787 95.7858C251.679 96.567 251.291 97.2828 250.694 97.8015C250.098 98.3201 249.334 98.6066 248.542 98.6082H243.747C243.238 98.6093 242.735 98.502 242.271 98.2936C241.808 98.0852 241.394 97.7804 241.058 97.3997C240.722 97.019 240.472 96.5712 240.324 96.0863C240.176 95.6013 240.134 95.0905 240.2 94.5879L245.473 54.1301C245.798 55.4664 246.564 56.6552 247.649 57.5053C248.733 58.3555 250.073 58.8178 251.453 58.818C251.777 58.818 252.134 58.818 252.412 58.8422L254.383 77.1103Z" fill="#35A7FF" stroke="black" stroke-width="2" stroke-miterlimit="10"/>
<path d="M242.582 44.8572C242.656 45.0293 242.79 45.1694 242.958 45.2526C243.127 45.3358 243.319 45.3567 243.502 45.3115L245.822 44.7328L245.849 44.7247H245.862" fill="#FF3C38"/>
<path d="M242.582 44.8572C242.656 45.0293 242.79 45.1694 242.958 45.2526C243.127 45.3358 243.319 45.3567 243.502 45.3115L245.822 44.7328L245.849 44.7247H245.862" stroke="black" stroke-width="2" stroke-miterlimit="10"/>
<path d="M241.27 40.7213L241.169 40.398C241.116 40.2335 241.118 40.0559 241.177 39.8932C241.236 39.7305 241.347 39.5919 241.494 39.4992C241.931 39.2295 242.297 38.8602 242.563 38.4218C242.828 37.9834 242.986 37.4883 243.022 36.9774C243.022 36.9774 243.376 30.4791 244.247 25.552C244.64 23.3102 245.843 21.2895 247.629 19.8716C248.003 19.575 248.4 19.308 248.815 19.0731C249.019 18.9567 249.226 18.8489 249.438 18.7498C249.454 18.8629 249.467 18.9712 249.479 19.0731C249.479 19.0925 249.479 19.1119 249.479 19.1296C249.49 19.2347 249.498 19.3365 249.503 19.4319C249.515 19.6356 249.531 19.8377 249.552 20.0365C249.682 21.2828 250.022 22.4063 250.726 23.0642C250.794 23.1274 250.866 23.1868 250.941 23.242C251.244 23.4867 251.593 23.6701 251.967 23.7819" fill="#FF3C38"/>
<path d="M241.27 40.7213L241.169 40.398C241.116 40.2335 241.118 40.0559 241.177 39.8932C241.236 39.7305 241.347 39.5919 241.494 39.4992C241.931 39.2295 242.297 38.8602 242.563 38.4218C242.828 37.9834 242.986 37.4883 243.022 36.9774C243.022 36.9774 243.376 30.4791 244.247 25.552C244.64 23.3102 245.843 21.2895 247.629 19.8716C248.003 19.575 248.4 19.308 248.815 19.0731C249.019 18.9567 249.226 18.8489 249.438 18.7498C249.454 18.8629 249.467 18.9712 249.479 19.0731C249.479 19.0925 249.479 19.1119 249.479 19.1296C249.49 19.2347 249.498 19.3365 249.503 19.4319C249.515 19.6356 249.531 19.8377 249.552 20.0365C249.682 21.2828 250.022 22.4063 250.726 23.0642C250.794 23.1274 250.866 23.1868 250.941 23.242C251.244 23.4867 251.593 23.6701 251.967 23.7819" stroke="black" stroke-width="2" stroke-miterlimit="10"/>
<path d="M241.268 40.7177L241.371 41.041L242.552 44.7768C242.552 44.8026 242.57 44.8269 242.58 44.8511" stroke="black" stroke-width="2" stroke-miterlimit="10"/>
<path d="M249.439 18.7518L249.97 18.721L252.316 18.5847" stroke="black" stroke-width="2" stroke-miterlimit="10"/>
<path d="M257.656 18.241C257.507 18.2427 257.359 18.264 257.215 18.3043L256.699 18.3335L255.419 18.4081L254.885 18.4389L254.094 18.4843" stroke="black" stroke-width="2" stroke-miterlimit="10"/>
<path d="M254.093 18.483L252.316 18.5852" stroke="black" stroke-width="2" stroke-miterlimit="10" stroke-linecap="round"/>
<path d="M253.331 22.4624L251.975 23.7863" stroke="black" stroke-width="2" stroke-miterlimit="10" stroke-linecap="round"/>
<path d="M245.86 44.7204L245.847 45.026L245.611 50.7678L245.473 54.1285C245.798 55.4648 246.564 56.6535 247.648 57.5037C248.733 58.3539 250.073 58.8162 251.453 58.8163C251.777 58.8163 252.134 58.8163 252.411 58.8406L257.673 58.8325L267.034 58.8163C267.093 58.8164 267.152 58.8071 267.209 58.7889C267.319 58.7527 267.416 58.6825 267.484 58.5884C267.552 58.4943 267.589 58.3812 267.588 58.2651C267.588 58.2538 267.588 58.2425 267.588 58.2312L267.201 51.7522L267.147 50.8599L267.116 50.3297C267.116 50.3297 266.99 48.4287 266.86 46.5051C266.844 46.2593 266.827 46.0153 266.811 45.7728C266.748 44.8271 266.688 43.9348 266.649 43.3286C266.645 43.2591 266.621 43.1923 266.58 43.1358C266.539 43.0794 266.483 43.0358 266.418 43.0102C266.353 42.9845 266.282 42.9779 266.214 42.9911C266.145 43.0043 266.082 43.0367 266.031 43.0845L265.057 44.0253L265.038 44.0431C265.038 44.049 265.038 44.055 265.038 44.0609V44.0932C265.008 44.2479 264.961 44.399 264.9 44.5442C264.889 44.5733 264.876 44.6024 264.861 44.6348C264.847 44.6671 264.834 44.6994 264.817 44.7334C264.769 44.8411 264.709 44.9575 264.637 45.0825L264.572 45.1925C264.543 45.241 264.512 45.2927 264.478 45.3444L264.339 45.5562C264.059 45.9571 263.748 46.3354 263.409 46.6877L263.328 46.7718L263.237 46.8639C263.145 46.9577 263.047 47.053 262.944 47.15C262.905 47.1872 262.866 47.2244 262.824 47.2616C262.678 47.399 262.52 47.538 262.353 47.6786C262.298 47.7271 262.241 47.774 262.183 47.8225L261.868 48.0763C261.67 48.6963 261.398 49.2901 261.057 49.8447C260.787 50.2938 260.44 50.6913 260.03 51.0183C259.886 51.1268 259.732 51.2199 259.569 51.2964C259.32 51.4129 259.051 51.4794 258.777 51.4919C258.502 51.5044 258.228 51.4626 257.97 51.3691C257.362 51.141 256.813 50.7823 256.36 50.3184L256.342 50.3022C256.126 50.0992 255.94 49.8668 255.789 49.612C255.478 49.0796 255.381 48.449 255.52 47.8484C255.559 47.6659 255.613 47.4869 255.682 47.3133C256.081 46.269 256.98 45.2296 257.994 44.3163C258.234 44.0981 258.481 43.8879 258.727 43.6875L258.967 43.4951L259.193 43.3173C259.444 43.1233 259.692 42.9407 259.931 42.7709C260.108 42.6432 260.281 42.522 260.448 42.4088L260.629 42.2876C260.812 42.1647 260.984 42.0516 261.144 41.9497L261.25 41.8835C261.488 41.7315 261.693 41.6071 261.853 41.5117C262.09 41.3694 262.228 41.2934 262.228 41.2934L262.277 41.2498L263.68 39.9663L264.06 39.6204L266.527 41.7218L267.014 42.1405L267.084 42.2019C267.4 42.4753 267.802 42.6317 268.22 42.645C268.639 42.6582 269.049 42.5275 269.383 42.2747C272.644 39.9825 274.164 36.1805 272.017 32.8262C271.462 31.352 267.008 24.1262 262.807 20.3161C262.063 19.6463 261.201 19.1191 260.265 18.761C259.438 18.4232 258.553 18.2476 257.66 18.2437L256.803 19.0795L256.702 19.1781" fill="#FF3C38"/>
<path d="M245.86 44.7204L245.847 45.026L245.611 50.7678L245.473 54.1285C245.798 55.4648 246.564 56.6535 247.648 57.5037C248.733 58.3539 250.073 58.8162 251.453 58.8163C251.777 58.8163 252.134 58.8163 252.411 58.8406L257.673 58.8325L267.034 58.8163C267.093 58.8164 267.152 58.8071 267.209 58.7889C267.319 58.7527 267.416 58.6825 267.484 58.5884C267.552 58.4943 267.589 58.3812 267.588 58.2651C267.588 58.2538 267.588 58.2425 267.588 58.2312L267.201 51.7522L267.147 50.8599L267.116 50.3297C267.116 50.3297 266.99 48.4287 266.86 46.5051C266.844 46.2593 266.827 46.0153 266.811 45.7728C266.748 44.8271 266.688 43.9348 266.649 43.3286C266.645 43.2591 266.621 43.1923 266.58 43.1358C266.539 43.0794 266.483 43.0358 266.418 43.0102C266.353 42.9845 266.282 42.9779 266.214 42.9911C266.145 43.0043 266.082 43.0367 266.031 43.0845L265.057 44.0253L265.038 44.0431C265.038 44.049 265.038 44.055 265.038 44.0609V44.0932C265.008 44.2479 264.961 44.399 264.9 44.5442C264.889 44.5733 264.876 44.6024 264.861 44.6348C264.847 44.6671 264.834 44.6994 264.817 44.7334C264.769 44.8411 264.709 44.9575 264.637 45.0825L264.572 45.1925C264.543 45.241 264.512 45.2927 264.478 45.3444L264.339 45.5562C264.059 45.9571 263.748 46.3354 263.409 46.6877L263.328 46.7718L263.237 46.8639C263.145 46.9577 263.047 47.053 262.944 47.15C262.905 47.1872 262.866 47.2244 262.824 47.2616C262.678 47.399 262.52 47.538 262.353 47.6786C262.298 47.7271 262.241 47.774 262.183 47.8225L261.868 48.0763C261.67 48.6963 261.398 49.2901 261.057 49.8447C260.787 50.2938 260.44 50.6913 260.03 51.0183C259.886 51.1268 259.732 51.2199 259.569 51.2964C259.32 51.4129 259.051 51.4794 258.777 51.4919C258.502 51.5044 258.228 51.4626 257.97 51.3691C257.362 51.141 256.813 50.7823 256.36 50.3184L256.342 50.3022C256.126 50.0992 255.94 49.8668 255.789 49.612C255.478 49.0796 255.381 48.449 255.52 47.8484C255.559 47.6659 255.613 47.4869 255.682 47.3133C256.081 46.269 256.98 45.2296 257.994 44.3163C258.234 44.0981 258.481 43.8879 258.727 43.6875L258.967 43.4951L259.193 43.3173C259.444 43.1233 259.692 42.9407 259.931 42.7709C260.108 42.6432 260.281 42.522 260.448 42.4088L260.629 42.2876C260.812 42.1647 260.984 42.0516 261.144 41.9497L261.25 41.8835C261.488 41.7315 261.693 41.6071 261.853 41.5117C262.09 41.3694 262.228 41.2934 262.228 41.2934L262.277 41.2498L263.68 39.9663L264.06 39.6204L266.527 41.7218L267.014 42.1405L267.084 42.2019C267.4 42.4753 267.802 42.6317 268.22 42.645C268.639 42.6582 269.049 42.5275 269.383 42.2747C272.644 39.9825 274.164 36.1805 272.017 32.8262C271.462 31.352 267.008 24.1262 262.807 20.3161C262.063 19.6463 261.201 19.1191 260.265 18.761C259.438 18.4232 258.553 18.2476 257.66 18.2437L256.803 19.0795L256.702 19.1781" stroke="black" stroke-width="2" stroke-miterlimit="10" stroke-linecap="round"/>
<path d="M263.671 39.9653L264.051 39.6193L264.985 38.7658C264.985 38.7658 268.91 36.0743 267.201 34.5904C265.493 33.1064 262.805 29.555 262.805 29.555" stroke="black" stroke-width="2" stroke-miterlimit="10" stroke-linecap="round"/>
<path d="M268.889 48.5268L258.151 37.8268C257.721 37.3988 257.025 37.3988 256.595 37.8268L250.552 43.8484C250.122 44.2764 250.122 44.9703 250.552 45.3983L261.291 56.0983C261.72 56.5263 262.417 56.5263 262.846 56.0983L268.889 50.0768C269.319 49.6488 269.319 48.9548 268.889 48.5268Z" fill="#FEE100" stroke="black" stroke-width="2" stroke-miterlimit="10" stroke-linecap="round"/>
<path d="M268.757 47.7128L258.018 37.0128C257.588 36.5848 256.892 36.5848 256.462 37.0128L250.419 43.0343C249.99 43.4623 249.99 44.1563 250.419 44.5843L261.158 55.2843C261.587 55.7123 262.284 55.7123 262.713 55.2843L268.757 49.2627C269.186 48.8347 269.186 48.1408 268.757 47.7128Z" fill="#FEE100" stroke="black" stroke-width="2" stroke-miterlimit="10" stroke-linecap="round"/>
<path d="M266.595 42.5409L265.039 44.0475C265.039 44.0475 264.903 45.5622 262.176 47.8204L261.861 48.0742C261.663 48.6942 261.391 49.288 261.05 49.8426C260.781 50.2917 260.433 50.6892 260.023 51.0162C259.88 51.1247 259.725 51.2178 259.562 51.2943C259.314 51.4108 259.044 51.4773 258.77 51.4898C258.495 51.5023 258.221 51.4605 257.963 51.367C257.355 51.1389 256.806 50.7802 256.353 50.3163L256.335 50.3001C256.119 50.0971 255.933 49.8647 255.782 49.6099C255.471 49.0775 255.374 48.4469 255.513 47.8463C255.552 47.6638 255.606 47.4848 255.675 47.3112C256.074 46.2669 256.973 45.2275 257.987 44.3142C259.293 43.1681 260.712 42.1554 262.221 41.2914L263.673 39.9642L266.593 42.4472L266.595 42.5409Z" fill="white" stroke="black" stroke-width="2" stroke-miterlimit="10" stroke-linecap="round"/>
<path d="M249.285 11.7375C249.15 11.9366 249.045 12.1545 248.974 12.3841C248.745 12.0237 248.523 11.6551 248.357 11.3237C248.214 11.0732 248.117 10.7996 248.068 10.5155C248.177 10.5041 248.287 10.5118 248.393 10.5381C248.92 10.6351 249.835 10.939 249.285 11.7375Z" fill="black" stroke="black" stroke-width="2" stroke-miterlimit="10" stroke-linecap="round"/>
<path d="M254.831 19.4362C254.774 19.5929 254.688 19.7377 254.577 19.8629C253.906 20.6243 253.617 21.6411 253.332 22.4623C253.028 23.3287 252.73 23.9592 251.975 23.7862C251.601 23.6743 251.252 23.491 250.948 23.2463C250.874 23.191 250.802 23.1317 250.734 23.0685C250.03 22.4105 249.689 21.2903 249.56 20.0408C249.538 19.8419 249.522 19.6399 249.511 19.4362C249.511 19.3408 249.498 19.239 249.487 19.1339C249.475 19.0288 249.459 18.885 249.44 18.7524C249.227 17.2248 248.661 15.0344 248.791 13.3387C248.811 13.0172 248.87 12.6992 248.966 12.3915C249.378 13.0381 249.809 13.662 249.973 13.9837C250.762 15.521 252.181 16.5701 253.813 16.6364H254.078C254.459 17.1798 254.731 17.792 254.878 18.4388C254.896 18.5355 254.909 18.6332 254.915 18.7314C254.937 18.9696 254.908 19.2097 254.831 19.4362Z" fill="black" stroke="black" stroke-width="2" stroke-miterlimit="10" stroke-linecap="round"/>
<path d="M262.624 14.0253C262.679 14.0873 262.715 14.1635 262.727 14.2449C262.74 14.3263 262.729 14.4096 262.696 14.4851C262.663 14.5607 262.609 14.6253 262.541 14.6716C262.473 14.7178 262.392 14.7437 262.31 14.7463C261.619 14.768 260.93 14.689 260.262 14.5119C259.682 14.357 259.123 14.1328 258.596 13.8443C257.907 13.4693 254.678 10.4755 253.822 9.62523C253.085 8.89295 251.771 8.42255 250.337 8.12026C250.036 8.05668 249.733 8.0028 249.427 7.95861C247.824 7.71861 246.206 7.59597 244.586 7.59167C244.56 7.59102 244.535 7.58155 244.516 7.56484C244.496 7.54814 244.483 7.52523 244.478 7.49997C244.474 7.47471 244.478 7.44866 244.491 7.4262C244.503 7.40374 244.523 7.38624 244.547 7.37667C245.379 7.06792 247.035 6.47305 249.023 5.86201C251.294 5.16368 250.337 5.05376 251.515 3.84461C251.965 3.40314 252.454 3.0018 252.975 2.64517C253.885 2.1385 254.925 1.91036 255.964 1.98927C257.004 2.06818 257.997 2.45064 258.82 3.08884C259.642 3.72704 260.258 4.59267 260.589 5.57754C260.921 6.56241 260.954 7.62282 260.684 8.62623C260.504 11.2207 261.8 13.1056 262.624 14.0253Z" fill="#35A7FF" stroke="black" stroke-width="2" stroke-miterlimit="10" stroke-linecap="round"/>
<path d="M248.434 10.2224C245.563 10.106 244.525 8.88071 244.156 8.14358C244.127 8.08394 244.114 8.01791 244.118 7.95175C244.122 7.88559 244.142 7.82148 244.178 7.76548C244.213 7.70949 244.263 7.66346 244.321 7.63175C244.379 7.60004 244.445 7.5837 244.512 7.58427C245.457 7.58751 248.597 9.38344 248.434 10.2224Z" fill="black" stroke="black" stroke-width="2" stroke-miterlimit="10" stroke-linecap="round"/>
<path d="M258.594 13.8462C258.129 14.675 257.455 15.3684 256.638 15.8577C255.822 16.3471 254.891 16.6155 253.938 16.6363H253.82C252.399 16.6369 251.034 16.0862 250.015 15.1009C248.995 14.1156 248.4 12.7732 248.357 11.3584C248.357 11.3018 248.357 11.2469 248.357 11.1968C248.357 10.0326 248.733 8.89914 249.428 7.96376C249.734 8.01226 250.038 8.06614 250.338 8.12541C251.772 8.4277 253.087 8.8981 253.823 9.63037C254.68 10.4807 255.575 11.5152 256.617 12.4318L256.701 12.5045C257.282 13.0187 257.916 13.4686 258.594 13.8462Z" fill="white" stroke="black" stroke-width="2" stroke-miterlimit="10" stroke-linecap="round"/>
<path d="M260.262 14.5147V21.4996C260.267 21.9547 260.1 22.3951 259.795 22.7332C259.489 23.0713 259.067 23.2825 258.612 23.3247C258.368 23.3422 258.122 23.3094 257.892 23.2285C257.661 23.1475 257.449 23.02 257.269 22.854C257.09 22.688 256.947 22.4869 256.849 22.2634C256.751 22.0398 256.7 21.7986 256.699 21.5546V15.8225C256.777 15.774 256.861 15.7239 256.93 15.6705L256.986 15.6301C257.082 15.5655 257.175 15.4943 257.265 15.4216C257.309 15.386 257.352 15.3488 257.397 15.31C257.433 15.281 257.468 15.2502 257.502 15.2179L257.525 15.1953C257.569 15.1581 257.611 15.1177 257.652 15.0773C257.692 15.0369 257.736 14.9948 257.773 14.9544L257.841 14.8817L257.906 14.8089H257.914C257.937 14.7841 257.958 14.7599 257.978 14.7362C257.997 14.7152 258.016 14.6931 258.033 14.6699C258.062 14.6376 258.088 14.6053 258.114 14.5729L258.221 14.4339C258.247 14.3983 258.275 14.3612 258.299 14.324L258.32 14.2949C258.339 14.2674 258.359 14.2399 258.377 14.2108C258.403 14.172 258.429 14.1332 258.453 14.0928L258.505 14.0088C258.536 13.9603 258.565 13.9102 258.592 13.86C259.121 14.1444 259.681 14.3642 260.262 14.5147Z" fill="black" stroke="black" stroke-width="2" stroke-miterlimit="10" stroke-linecap="round"/>
<path d="M245.863 44.723V32.8579" stroke="black" stroke-width="2" stroke-miterlimit="10" stroke-linecap="round"/>
<path d="M165.559 39.1147C165.052 38.894 164.461 39.1248 164.239 39.6302L160.619 47.8668C160.397 48.3722 160.628 48.9609 161.134 49.1817C161.641 49.4024 162.231 49.1716 162.454 48.6662L165.671 41.3448L173.007 44.5423C173.514 44.7631 174.104 44.5323 174.327 44.0268C174.549 43.5214 174.318 42.9327 173.812 42.712L165.559 39.1147ZM227.378 70.7541C202.823 76.9465 189.26 73.2424 181.001 66.1837C172.639 59.0366 169.475 48.3139 166.089 39.6654L164.224 40.3944C167.509 48.7863 170.855 60.1447 179.696 67.7011C188.641 75.3459 202.974 78.9677 227.866 72.6904L227.378 70.7541Z" fill="black"/>
</svg>
