<svg width="34" height="15" viewBox="0 0 34 15" fill="none" xmlns="http://www.w3.org/2000/svg">
<path fill-rule="evenodd" clip-rule="evenodd" d="M4.78569 2.90677C5.41076 2.95955 6.03583 2.59012 6.4265 2.12174C6.81065 1.64017 7.06459 0.993674 6.99948 0.333984C6.44603 0.360372 5.76236 0.70341 5.37169 1.18498C5.01358 1.60059 4.70755 2.27347 4.78569 2.90677ZM12.2207 11.4037V1.11914H16.0297C17.9961 1.11914 19.3699 2.49129 19.3699 4.49675C19.3699 6.5022 17.97 7.88755 15.9776 7.88755H13.7964V11.4037H12.2207ZM6.99303 3.03273C6.44235 3.00061 5.93988 3.20052 5.53402 3.36198C5.27285 3.46589 5.05168 3.55388 4.88341 3.55388C4.69459 3.55388 4.46429 3.46118 4.20571 3.35711C3.86689 3.22074 3.47953 3.06482 3.07331 3.07231C2.14222 3.0855 1.27624 3.61985 0.800921 4.47085C-0.175751 6.17284 0.546986 8.69286 1.4911 10.0782C1.95339 10.7643 2.50684 11.5163 3.23609 11.4899C3.55692 11.4777 3.7877 11.3785 4.02654 11.2758C4.30151 11.1576 4.58715 11.0348 5.03317 11.0348C5.46372 11.0348 5.73688 11.1544 5.99909 11.2692C6.24841 11.3783 6.48783 11.4832 6.84327 11.4767C7.59856 11.4636 8.07388 10.7907 8.53617 10.1046C9.03505 9.36825 9.25429 8.64961 9.28756 8.54055L9.29146 8.52793C9.29066 8.52713 9.2845 8.52427 9.27363 8.51922C9.10686 8.44187 7.83217 7.85064 7.81994 6.2652C7.80767 4.93446 8.83099 4.26022 8.99208 4.15409C9.00188 4.14763 9.00849 4.14327 9.01148 4.141C8.36037 3.16466 7.34463 3.05911 6.99303 3.03273ZM22.2488 11.4828C23.2385 11.4828 24.1566 10.9748 24.5733 10.17H24.6059V11.4036H26.0644V6.28444C26.0644 4.80014 24.8923 3.84359 23.0888 3.84359C21.4154 3.84359 20.1783 4.81333 20.1327 6.1459H21.5521C21.6693 5.5126 22.2488 5.097 23.0432 5.097C24.0068 5.097 24.5473 5.55218 24.5473 6.38999V6.95732L22.5809 7.07607C20.7512 7.18821 19.7616 7.94685 19.7616 9.26623C19.7616 10.5988 20.7838 11.4828 22.2488 11.4828ZM22.6727 10.2629C21.8327 10.2629 21.2988 9.85394 21.2988 9.22724C21.2988 8.58074 21.8132 8.20472 22.7964 8.14535L24.5479 8.0332V8.61373C24.5479 9.57687 23.7405 10.2629 22.6727 10.2629ZM30.9015 11.8068C30.2699 13.6078 29.5472 14.2015 28.0106 14.2015C27.8934 14.2015 27.5027 14.1883 27.4115 14.1619V12.9283C27.5092 12.9415 27.7501 12.9547 27.8738 12.9547C28.5705 12.9547 28.9612 12.6578 29.2021 11.886L29.3454 11.4308L26.6758 3.94336H28.3231L30.1788 10.0191H30.2113L32.067 3.94336H33.6688L30.9015 11.8068ZM13.7969 2.46484H15.6135C16.9808 2.46484 17.7622 3.2037 17.7622 4.50328C17.7622 5.80287 16.9808 6.54832 15.607 6.54832H13.7969V2.46484Z" fill="black"/>
</svg>
