<svg width="179" height="170" viewBox="0 0 179 170" fill="none" xmlns="http://www.w3.org/2000/svg">
<path d="M11.2043 167.899L57.3885 167.407C57.952 167.397 58.5006 167.224 58.9678 166.908C59.4349 166.593 59.8003 166.147 60.0195 165.627L59.5196 159.037H23.7063C23.2415 156.172 21.7242 150.026 16.3568 147.53C1.00891 154.454 -3.87611 168.048 11.2043 167.899Z" fill="white" stroke="black" stroke-width="3" stroke-miterlimit="10" stroke-linecap="round"/>
<path d="M17.0276 147.869C21.8513 150.549 23.2457 156.282 23.6886 159.015H59.502L58.7872 149.631C58.6761 149.03 58.3673 148.484 57.9102 148.08C57.349 147.59 56.6918 147.223 55.9807 147.003C53.8846 146.296 50.4642 146.063 45.1801 146.674H45.0003C41.8562 147.043 40.0013 146.871 38.9313 146.458C38.6263 146.35 38.3439 146.186 38.0982 145.975C37.2611 145.184 36.2729 144.57 35.1931 144.17C34.1132 143.771 32.964 143.594 31.8143 143.651L31.025 143.713C26.2097 144.118 21.4894 145.289 17.0408 147.179C16.9752 147.209 16.9194 147.257 16.8798 147.317C16.8402 147.377 16.8185 147.448 16.8171 147.52C16.8157 147.592 16.8348 147.663 16.872 147.725C16.9093 147.787 16.9632 147.836 17.0276 147.869Z" fill="black" stroke="black" stroke-width="3" stroke-miterlimit="10" stroke-linecap="round"/>
<path d="M32.0996 141.577L32.8934 141.503C35.2131 141.314 37.432 142.346 39.2036 144.139C39.4472 144.371 39.731 144.557 40.0411 144.688L52.6001 144.618C58.3446 144.561 59.1076 145.36 59.1076 145.36C59.1076 143.73 119.289 75.995 119.289 75.995L114.277 66.9971C108.883 71.8563 90.7024 77.2648 90.2552 77.3966L83.9713 81.7374C70.3774 91.0912 32.0996 141.577 32.0996 141.577Z" fill="white" stroke="black" stroke-width="3" stroke-miterlimit="10" stroke-linecap="round"/>
<path d="M110.935 87.0841C111.045 87.8046 111.189 88.5295 111.373 89.2501L127.055 153.251L101.621 154.072C98.8583 154.165 96.0694 150.773 95.359 146.463C95.359 146.463 90.3775 118.182 91.2633 115.857C91.2458 115.857 110.4 83.6922 110.935 87.0841Z" fill="#E03C38" stroke="black" stroke-width="3" stroke-miterlimit="10" stroke-linecap="round"/>
<path d="M53.9841 23.8831C54.7411 25.9249 55.9326 27.7771 57.4759 29.3112C59.0191 30.8453 60.8772 32.0245 62.921 32.7668C62.8815 32.3274 62.864 31.8442 62.864 31.3741C62.8595 29.8164 63.0902 28.267 63.5481 26.7784C63.6086 26.602 63.7155 26.4452 63.8575 26.3246C63.9995 26.204 64.1713 26.124 64.3549 26.093C69.8451 25.0474 71.7614 21.6468 75.3177 16.5107C75.3444 16.4711 75.3828 16.4409 75.4275 16.4243C75.4722 16.4078 75.5209 16.4056 75.5669 16.4182C75.6129 16.4308 75.6537 16.4575 75.6838 16.4946C75.7138 16.5317 75.7315 16.5773 75.7343 16.6249C75.9178 18.7236 76.7187 20.7206 78.0356 22.363C79.3525 24.0055 81.1261 25.2195 83.132 25.8514C83.2058 25.874 83.2847 25.8736 83.3583 25.8503C83.4318 25.8271 83.4966 25.782 83.5441 25.7211C83.5916 25.6602 83.6196 25.5863 83.6243 25.5092C83.629 25.432 83.6103 25.3553 83.5705 25.289C83.0928 24.4453 82.8434 23.4911 82.847 22.5211C82.847 21.7802 82.9926 21.0467 83.2756 20.3622C83.5586 19.6778 83.9733 19.0559 84.4961 18.5321C85.019 18.0082 85.6397 17.5927 86.3228 17.3092C87.0059 17.0257 87.7381 16.8798 88.4775 16.8798C89.2169 16.8798 89.9491 17.0257 90.6322 17.3092C91.3153 17.5927 91.936 18.0082 92.4589 18.5321C92.9817 19.0559 93.3964 19.6778 93.6794 20.3622C93.9624 21.0467 94.108 21.7802 94.108 22.5211C94.108 22.6573 94.108 22.7935 94.108 22.9341C94.087 23.2447 94.0415 23.5532 93.9721 23.8567C93.9326 23.9929 93.8931 24.1203 93.8537 24.2477C93.8158 24.3866 93.7659 24.5218 93.7046 24.6519C93.6141 24.872 93.5101 25.0862 93.3932 25.2934C93.3044 25.4436 93.2491 25.6113 93.2309 25.7849C93.2127 25.9586 93.2322 26.1341 93.288 26.2995C93.4152 26.6642 93.5292 27.0332 93.63 27.4111H96.5988C97.843 24.8127 98.4378 21.9501 98.3317 19.0701C98.2256 16.1901 97.4219 13.3792 95.9899 10.8798C94.5578 8.38037 92.5405 6.26749 90.1117 4.72336C87.683 3.17924 84.9159 2.25021 82.0489 2.01642C77.7208 1.66933 73.2392 3.55416 72.0114 4.17365C71.8501 4.25545 71.6646 4.27574 71.4895 4.23076C70.2764 3.92805 69.0299 3.78042 67.7797 3.79141C64.14 3.85688 60.6487 5.24842 57.9588 7.70583C55.2688 10.1632 53.5643 13.5182 53.1641 17.1434C52.9273 19.4231 53.2076 21.7271 53.9841 23.8831Z" fill="black" stroke="black" stroke-width="3" stroke-miterlimit="10" stroke-linecap="round"/>
<path d="M89.5324 42.459L98.3333 46.1979L100.754 27.4067H93.6193C93.9376 28.6578 94.1054 29.9425 94.1192 31.2335V31.3741C94.1213 33.4334 93.7172 35.4729 92.93 37.3752C92.1428 39.2776 90.9882 41.0053 89.5324 42.459Z" fill="white" stroke="black" stroke-width="3" stroke-miterlimit="10" stroke-linecap="round"/>
<path d="M98.3322 46.1981V51.8438L100.143 50.6883C103.256 48.6334 106.085 46.1768 108.558 43.3819C109.836 41.9867 111.413 40.8998 113.171 40.2028C114.928 39.5058 116.821 39.2168 118.705 39.3576C120.59 39.4984 122.419 40.0653 124.054 41.0157C125.689 41.966 127.087 43.2752 128.145 44.8449C129.202 46.4145 129.891 48.2038 130.159 50.0784C130.428 51.953 130.269 53.8641 129.694 55.6682C129.119 57.4724 128.144 59.1226 126.842 60.495C125.539 61.8674 123.944 62.9263 122.174 63.5922L124.104 66.4655L130.142 75.4591L170.643 135.743C172.312 135.741 173.912 135.075 175.091 133.892C176.271 132.709 176.934 131.106 176.936 129.434C176.937 129.077 176.907 128.722 176.848 128.37C165.789 62.3444 136.11 32.5035 115.794 25.3244C111.33 23.7471 106.344 25.1179 102.239 22.9475C102.178 22.9078 102.107 22.8842 102.033 22.879C101.96 22.8738 101.887 22.8871 101.82 22.9178C101.753 22.9484 101.695 22.9953 101.651 23.0542C101.607 23.1132 101.579 23.1822 101.568 23.2551L100.753 27.407L98.3322 46.1981Z" fill="#35A7FF" stroke="black" stroke-width="3" stroke-miterlimit="10" stroke-linecap="round"/>
<path d="M43.3647 94.2896L43.7374 94.4478C50.0476 97.1059 56.2218 96.6446 61.256 95.2298C65.4981 94.0239 69.4913 92.0689 73.0476 89.4567L95.1398 76.8561C95.5783 76.6935 109.975 71.3597 122.165 63.5832C123.935 62.9173 125.531 61.8584 126.833 60.486C128.136 59.1136 129.111 57.4634 129.685 55.6593C130.26 53.8551 130.419 51.944 130.151 50.0694C129.882 48.1948 129.194 46.4055 128.136 44.8359C127.079 43.2662 125.68 41.9571 124.045 41.0067C122.41 40.0563 120.582 39.4894 118.697 39.3487C116.812 39.2079 114.92 39.4968 113.162 40.1938C111.405 40.8908 109.828 41.9777 108.55 43.3729C106.077 46.1678 103.247 48.6244 100.134 50.6793L98.3234 51.8348L83.9271 62.8187C80.7558 65.3152 77.7254 67.9862 74.8498 70.8193C73.0563 72.5196 68.9913 74.444 59.8659 73.227C56.303 72.805 52.6912 73.2574 49.3416 74.5451C46.3125 75.639 43.5427 77.3505 41.2072 79.5713C39.7732 80.8987 38.6462 82.5242 37.9052 84.3339C36.5063 88.0332 37.7605 91.8248 43.3647 94.2896Z" fill="white" stroke="black" stroke-width="3" stroke-miterlimit="10" stroke-linecap="round"/>
<path d="M95.148 76.8515C95.6874 76.7197 117.6 71.3112 124.09 66.452L122.16 63.5786C109.983 71.3552 95.5953 76.6889 95.148 76.8515Z" fill="black" stroke="black" stroke-width="3" stroke-miterlimit="10" stroke-linecap="round"/>
<path d="M73.045 89.4575L73.0547 89.4478" stroke="black" stroke-width="3" stroke-miterlimit="10" stroke-linecap="round"/>
<path d="M19.4739 167.899L65.658 167.407C66.2215 167.397 66.7702 167.224 67.2373 166.908C67.7044 166.593 68.0698 166.147 68.2891 165.627L67.7892 159.037H31.9758C31.511 156.172 29.9938 150.026 24.6264 147.53C9.28284 154.454 4.39342 168.048 19.4739 167.899Z" fill="white" stroke="black" stroke-width="3" stroke-miterlimit="10" stroke-linecap="round"/>
<path d="M25.3016 147.869C30.1252 150.549 31.5153 156.283 31.9582 159.016H67.7715L67.0567 149.631C66.9456 149.03 66.6368 148.484 66.1797 148.08C65.6185 147.59 64.9613 147.224 64.2502 147.004C62.1541 146.296 58.7381 146.063 53.4541 146.674H53.2699C50.1257 147.043 48.2708 146.872 47.2009 146.459C46.8958 146.35 46.6134 146.187 46.3677 145.975C45.5335 145.191 44.5505 144.583 43.477 144.187C42.4036 143.79 41.2616 143.614 40.1189 143.669L39.3252 143.73C34.5099 144.136 29.7897 145.306 25.341 147.197C25.2785 147.226 25.225 147.271 25.1862 147.329C25.1474 147.386 25.1248 147.452 25.1207 147.521C25.1167 147.59 25.1314 147.659 25.1632 147.72C25.195 147.781 25.2429 147.833 25.3016 147.869Z" fill="black" stroke="black" stroke-width="3" stroke-miterlimit="10" stroke-linecap="round"/>
<path d="M111.281 97.5318C111.28 97.9974 111.309 98.4627 111.369 98.9245L122.121 153.954H157.233C164.639 153.954 170.643 145.799 170.643 135.742L127.559 75.9902L113.088 91.6181C111.88 93.3501 111.248 95.4193 111.281 97.5318Z" fill="#FF3C38" stroke="black" stroke-width="3" stroke-miterlimit="10" stroke-linecap="round"/>
<path d="M16.4402 78.8595C16.4038 78.8943 16.3747 78.9363 16.3549 78.9827C16.335 79.0291 16.3248 79.0791 16.3248 79.1297C16.3248 79.1802 16.335 79.2302 16.3549 79.2766C16.3747 79.3231 16.4038 79.365 16.4402 79.3999L26.6883 88.433L40.1725 100.296L46.4257 105.796C46.9175 106.229 47.5424 106.481 48.1966 106.509C48.8507 106.537 49.4947 106.339 50.0215 105.95C52.9025 103.824 58.4059 99.7551 61.1992 97.677C61.3895 97.5353 61.5444 97.3514 61.6518 97.1396C61.7592 96.9279 61.8162 96.6941 61.8183 96.4566C61.8204 96.2192 61.7676 95.9844 61.664 95.7708C61.5604 95.5571 61.4088 95.3705 61.2211 95.2254C56.187 96.6489 50.0128 97.1014 43.7026 94.4433L43.3298 94.2852C37.7256 91.8204 36.4715 88.0288 37.8616 84.3382C38.6026 82.5285 39.7296 80.903 41.1636 79.5756L26.8374 68.4028L16.4402 78.8595Z" fill="#35A7FF" stroke="black" stroke-width="3" stroke-miterlimit="10" stroke-linecap="round"/>
<path d="M16.6897 78.6177L26.0212 69.2595C26.256 69.0235 26.5688 68.8817 26.9008 68.8607C27.2327 68.8396 27.5608 68.9408 27.8235 69.1452L41.1981 79.5799C43.5323 77.3596 46.3006 75.6482 49.3281 74.5537L28.9022 60.1297C28.7061 59.9908 28.483 59.8949 28.2475 59.8481C28.0119 59.8013 27.7692 59.8048 27.535 59.8583C27.3009 59.9117 27.0806 60.014 26.8885 60.1584C26.6965 60.3028 26.5369 60.4862 26.4202 60.6965L16.5274 78.4947C16.5193 78.5054 16.5134 78.5175 16.5101 78.5305C16.5067 78.5434 16.5059 78.5569 16.5077 78.5702C16.5096 78.5835 16.514 78.5962 16.5208 78.6078C16.5275 78.6193 16.5365 78.6294 16.5471 78.6375C16.5578 78.6456 16.5699 78.6515 16.5828 78.6548C16.5958 78.6582 16.6092 78.659 16.6225 78.6572C16.6357 78.6553 16.6485 78.6509 16.66 78.6441C16.6715 78.6374 16.6816 78.6284 16.6897 78.6177Z" fill="white" stroke="black" stroke-width="3" stroke-miterlimit="10" stroke-linecap="round"/>
<path d="M25.5476 93.6873C25.6785 95.3279 26.2467 96.9031 27.1928 98.2485C28.1389 99.5939 29.4283 100.66 30.9261 101.336C32.424 102.011 34.0755 102.272 35.708 102.089C37.3406 101.907 38.8944 101.289 40.207 100.3L26.7228 88.437C25.8086 90.0272 25.3987 91.8583 25.5476 93.6873Z" fill="white" stroke="black" stroke-width="3" stroke-miterlimit="10" stroke-linecap="round"/>
<path d="M62.8488 31.3741C62.8488 31.8442 62.8488 32.3055 62.9058 32.7668C63.2624 36.7866 65.1533 40.5134 68.1846 43.1709C71.2158 45.8283 75.1537 47.2113 79.1775 47.0318C83.2014 46.8522 87.0009 45.124 89.7844 42.2071C92.5679 39.2902 94.1206 35.4097 94.1191 31.3741V31.2335C94.1053 29.9425 93.9375 28.6578 93.6192 27.4067C93.5184 27.0289 93.4044 26.6598 93.2772 26.2952C93.2214 26.1298 93.2019 25.9542 93.2201 25.7806C93.2383 25.6069 93.2936 25.4393 93.3824 25.289C93.4993 25.0818 93.6033 24.8676 93.6938 24.6476C93.7552 24.5175 93.805 24.3822 93.8429 24.2434C93.8823 24.116 93.9218 23.9886 93.9613 23.8524C94.0308 23.5489 94.0762 23.2404 94.0972 22.9297C94.0972 22.7891 94.0972 22.6529 94.0972 22.5167C94.0972 21.0206 93.504 19.5857 92.4481 18.5277C91.3922 17.4698 89.96 16.8754 88.4667 16.8754C86.9734 16.8754 85.5413 17.4698 84.4854 18.5277C83.4294 19.5857 82.8362 21.0206 82.8362 22.5167C82.8326 23.4868 83.082 24.4409 83.5598 25.2847C83.5995 25.3509 83.6182 25.4277 83.6135 25.5048C83.6088 25.582 83.5808 25.6559 83.5334 25.7168C83.4859 25.7777 83.421 25.8227 83.3475 25.846C83.2739 25.8692 83.195 25.8696 83.1212 25.847C81.1153 25.2151 79.3417 24.0011 78.0248 22.3587C76.7079 20.7163 75.907 18.7193 75.7235 16.6206C75.7207 16.5729 75.703 16.5273 75.673 16.4903C75.643 16.4532 75.6021 16.4265 75.5561 16.4139C75.5102 16.4013 75.4614 16.4034 75.4167 16.42C75.372 16.4366 75.3336 16.4668 75.307 16.5064C71.7287 21.6424 69.8124 25.043 64.3441 26.0887C64.1606 26.1196 63.9887 26.1996 63.8467 26.3203C63.7047 26.4409 63.5978 26.5977 63.5373 26.7741C63.0774 28.2638 62.8453 29.8147 62.8488 31.3741Z" fill="white" stroke="black" stroke-width="3" stroke-miterlimit="10" stroke-linecap="round"/>
<path d="M127.561 155.746V166.194C127.561 167.187 128.052 168 128.657 168H163.199C163.804 168 164.295 167.187 164.295 166.194V155.746C164.295 154.749 163.804 153.941 163.199 153.941H128.657C128.052 153.932 127.561 154.74 127.561 155.746Z" fill="#FEE100" stroke="black" stroke-width="3" stroke-miterlimit="10" stroke-linecap="round"/>
<path d="M90.8244 155.746V166.194C90.8244 167.187 91.3155 168 91.9207 168H126.462C127.067 168 127.559 167.187 127.559 166.194V155.746C127.559 154.749 127.067 153.941 126.462 153.941H91.9207C91.3155 153.932 90.8244 154.74 90.8244 155.746Z" fill="#FEE100" stroke="black" stroke-width="3" stroke-miterlimit="10" stroke-linecap="round"/>
<path d="M40.3692 141.577L41.1629 141.503C43.4826 141.314 45.7015 142.346 47.4775 144.139C47.7186 144.372 48.0012 144.559 48.3106 144.688L60.8696 144.618C66.6141 144.561 67.3772 145.36 67.3772 145.36C67.3772 143.73 127.559 75.995 127.559 75.995L122.56 66.9971C117.161 71.8563 98.9851 77.2648 98.5378 77.3966L92.2496 81.7154C78.6294 91.0912 40.3692 141.577 40.3692 141.577Z" fill="white" stroke="black" stroke-width="3" stroke-miterlimit="10" stroke-linecap="round"/>
<path d="M135.321 54.6953C137.136 62.8651 120.099 72.5341 108.833 77.9566C103.444 80.5501 97.1147 78.3327 94.1497 73.1393L87.4401 61.3866C86.7034 60.0949 87.2076 59.1899 88.3171 58.4298C96.5523 52.9115 104.432 46.8704 111.361 39.7748L115.952 35.0957" fill="#35A7FF"/>
<path d="M135.321 54.6953C137.136 62.8651 120.099 72.5341 108.833 77.9566C103.444 80.5501 97.1147 78.3327 94.1497 73.1393L87.4401 61.3866C86.7034 60.0949 87.2076 59.1899 88.3171 58.4298C96.5523 52.9115 104.432 46.8704 111.361 39.7748L115.952 35.0957" stroke="black" stroke-width="3" stroke-miterlimit="10" stroke-linecap="round"/>
<path d="M123.527 58.6444L138.861 48.9566L120.738 34.269L116.16 38.6714L123.527 58.6444Z" fill="#35A7FF"/>
</svg>
