<svg width="26" height="27" viewBox="0 0 26 27" fill="none" xmlns="http://www.w3.org/2000/svg">
<path d="M1 0.987061C0.447715 0.987061 0 1.43478 0 1.98706C0 2.53935 0.447715 2.98706 1 2.98706V0.987061ZM2.56356 2.10103L2.96809 1.18651H2.96809L2.56356 2.10103ZM3.45516 3.73009L2.47178 3.91164V3.91164L3.45516 3.73009ZM3.125 2.56844L3.95088 2.0046L3.95088 2.0046L3.125 2.56844ZM4.33333 4.98706C3.78105 4.98706 3.33333 5.43478 3.33333 5.98706C3.33333 6.53935 3.78105 6.98706 4.33333 6.98706V4.98706ZM24.397 8.60034L25.3714 8.8252L25.3718 8.82349L24.397 8.60034ZM22.3047 17.667L23.2761 17.905L23.2791 17.8919L22.3047 17.667ZM22.3037 17.6712L21.3323 17.4332L21.3293 17.4463L22.3037 17.6712ZM21.9401 18.7723L22.7481 19.3615L22.7481 19.3615L21.9401 18.7723ZM20.2291 19.3204V18.3204H20.2291L20.2291 19.3204ZM21.3867 19.2136L21.7791 20.1334L21.3867 19.2136ZM24.0075 6.17629L23.4939 7.03437L23.4939 7.03437L24.0075 6.17629ZM24.3974 8.59844L23.423 8.37358L23.4226 8.3753L24.3974 8.59844ZM24.593 6.91024L25.5446 6.60282L25.5446 6.60282L24.593 6.91024ZM6.33338 19.3205L5.35 19.502C5.43756 19.9763 5.85112 20.3205 6.33339 20.3205L6.33338 19.3205ZM21 24.9871C20.8159 24.9871 20.6667 24.8378 20.6667 24.6537H18.6667C18.6667 25.9424 19.7113 26.9871 21 26.9871V24.9871ZM21.3333 24.6537C21.3333 24.8378 21.1841 24.9871 21 24.9871V26.9871C22.2887 26.9871 23.3333 25.9424 23.3333 24.6537H21.3333ZM21 24.3204C21.1841 24.3204 21.3333 24.4696 21.3333 24.6537H23.3333C23.3333 23.3651 22.2887 22.3204 21 22.3204V24.3204ZM21 22.3204C19.7113 22.3204 18.6667 23.3651 18.6667 24.6537H20.6667C20.6667 24.4696 20.8159 24.3204 21 24.3204V22.3204ZM7.66667 24.9871C7.48257 24.9871 7.33333 24.8378 7.33333 24.6537H5.33333C5.33333 25.9424 6.378 26.9871 7.66667 26.9871V24.9871ZM8 24.6537C8 24.8378 7.85076 24.9871 7.66667 24.9871V26.9871C8.95533 26.9871 10 25.9424 10 24.6537H8ZM7.66667 24.3204C7.85076 24.3204 8 24.4696 8 24.6537H10C10 23.3651 8.95533 22.3204 7.66667 22.3204V24.3204ZM7.66667 22.3204C6.378 22.3204 5.33333 23.3651 5.33333 24.6537H7.33333C7.33333 24.4696 7.48257 24.3204 7.66667 24.3204V22.3204ZM1 2.98706H1.3578V0.987061H1V2.98706ZM1.3578 2.98706C1.6885 2.98706 1.88196 2.98771 2.02628 2.99852C2.15818 3.00839 2.17563 3.0229 2.15902 3.01555L2.96809 1.18651C2.69384 1.06519 2.42426 1.02272 2.17561 1.0041C1.9394 0.986412 1.65879 0.987061 1.3578 0.987061V2.98706ZM4.43855 3.54854C4.38409 3.25358 4.33392 2.97822 4.27375 2.74963C4.21038 2.5089 4.11976 2.25196 3.95088 2.0046L2.29912 3.13228C2.28883 3.11722 2.30614 3.13152 2.33963 3.25875C2.37632 3.39811 2.41193 3.58744 2.47178 3.91164L4.43855 3.54854ZM2.15902 3.01555C2.21555 3.04056 2.26394 3.08076 2.29912 3.13228L3.95088 2.0046C3.70595 1.64583 3.36589 1.36247 2.96809 1.18651L2.15902 3.01555ZM4.33333 6.98706H22.3183V4.98706H4.33333V6.98706ZM23.4226 8.37548L21.3303 17.4421L23.2791 17.8919L25.3714 8.8252L23.4226 8.37548ZM21.3334 17.4291L21.3324 17.4332L23.2749 17.9091L23.276 17.905L21.3334 17.4291ZM21.3293 17.4463C21.2582 17.7542 21.2163 17.9329 21.1757 18.0643C21.1389 18.1835 21.1221 18.1968 21.1321 18.1832L22.7481 19.3615C22.9182 19.1282 23.0155 18.8847 23.0865 18.6551C23.1537 18.4377 23.2135 18.1757 23.2781 17.8961L21.3293 17.4463ZM20.2291 20.3204C20.5168 20.3204 20.7861 20.321 21.0135 20.3044C21.2534 20.2869 21.5131 20.2469 21.7791 20.1334L20.9943 18.2938C21.01 18.2871 20.993 18.3006 20.8677 18.3097C20.73 18.3198 20.5456 18.3204 20.2291 18.3204V20.3204ZM21.1321 18.1832C21.0952 18.2337 21.0474 18.2712 20.9943 18.2938L21.7791 20.1334C22.1682 19.9674 22.5017 19.6994 22.7481 19.3615L21.1321 18.1832ZM22.3183 6.98706C22.7946 6.98706 23.0859 6.98798 23.3 7.00685C23.5059 7.025 23.5245 7.05264 23.4939 7.03437L24.521 5.31821C24.1742 5.1107 23.8063 5.04373 23.4757 5.01458C23.1532 4.98615 22.7581 4.98706 22.3183 4.98706V6.98706ZM25.3718 8.82349L25.3722 8.82159L23.4226 8.3753L23.4222 8.3772L25.3718 8.82349ZM25.3718 8.82331C25.4706 8.39546 25.5603 8.01073 25.6051 7.69007C25.6511 7.36169 25.6688 6.98757 25.5446 6.60282L23.6414 7.21765C23.6303 7.18327 23.6531 7.20766 23.6244 7.413C23.5946 7.62606 23.53 7.91025 23.423 8.37358L25.3718 8.82331ZM23.4939 7.03437C23.5657 7.07734 23.6175 7.14356 23.6414 7.21766L25.5446 6.60282C25.3699 6.06209 25.0036 5.60703 24.521 5.31821L23.4939 7.03437ZM2.47178 3.91164L5.35 19.502L7.31677 19.1389L4.43855 3.54854L2.47178 3.91164ZM20.2291 18.3204L6.33338 18.3205L6.33339 20.3205L20.2291 20.3204L20.2291 18.3204Z" fill="#F4F7FB"/>
</svg>
