<svg width="1280" height="692" viewBox="0 0 1280 692" fill="none" xmlns="http://www.w3.org/2000/svg">
<path d="M1359 104.118C1359 82.4618 1339.85 64.9058 1316.24 64.9058H1155.91C1132.29 64.9058 1113.15 82.4618 1113.15 104.118V251.166C1113.15 272.822 1132.29 290.378 1155.91 290.378H1230.73C1301.57 290.378 1359 237.71 1359 172.741V104.118Z" fill="#FEE101"/>
<path d="M1048.7 714.367C1048.7 735.814 1029.98 753.199 1006.9 753.199H850.16C827.076 753.199 808.363 735.814 808.363 714.367V568.747C808.363 547.301 827.076 529.916 850.16 529.916H923.305C992.556 529.916 1048.7 582.072 1048.7 646.411V714.367Z" fill="#FF3C38"/>
<path d="M677.172 733.212C677.172 744.251 686.958 753.199 699.029 753.199H780.993C793.065 753.199 802.85 744.251 802.85 733.212V658.261C802.85 647.222 793.065 638.274 780.993 638.274H742.743C706.529 638.274 677.172 665.119 677.172 698.235V733.212Z" fill="#F5F5F5"/>
<path d="M976.383 8.81334C976.383 -2.22514 985.911 -11.1736 997.665 -11.1736H1077.47C1089.23 -11.1736 1098.75 -2.22513 1098.75 8.81334V83.7649C1098.75 94.8034 1089.23 103.752 1077.47 103.752H1040.23C1004.97 103.752 976.383 76.9065 976.383 43.7911V8.81334Z" fill="#090909"/>
<path d="M1195.32 321.099C1195.32 310.691 1204.93 302.254 1216.79 302.254H1297.32C1309.18 302.254 1318.79 310.691 1318.79 321.099V391.767C1318.79 402.175 1309.18 410.612 1297.32 410.612H1259.74C1224.16 410.612 1195.32 385.301 1195.32 354.078V321.099Z" fill="#35A7FF"/>
<path d="M129.26 158.496C129.26 177.104 113.122 192.188 93.2147 192.188H-41.9543C-61.8614 192.188 -77.9993 177.104 -77.9993 158.496V32.1491C-77.9993 13.5414 -61.8614 -1.54317 -41.9543 -1.54317H21.1246C80.846 -1.54317 129.26 43.7104 129.26 99.5336V158.496Z" fill="#35A7FF"/>
<path d="M241.709 624.426C241.709 604.872 258.448 589.02 279.096 589.02H419.298C439.946 589.02 456.685 604.872 456.685 624.426V757.197C456.685 776.751 439.946 792.602 419.298 792.602H353.87C291.925 792.602 241.709 745.048 241.709 686.386V624.426Z" fill="#F5F5F5"/>
<path d="M469.91 14.6255C469.91 5.164 478.065 -2.5061 488.124 -2.5061H556.428C566.487 -2.5061 574.642 5.164 574.642 14.6255V78.8697C574.642 88.3313 566.487 96.0014 556.428 96.0014H524.553C494.375 96.0014 469.91 72.9911 469.91 44.6064V14.6255Z" fill="#090909"/>
<path d="M27.834 508.168C27.834 499.022 35.9888 491.608 46.0482 491.608H114.352C124.411 491.608 132.566 499.022 132.566 508.168V570.271C132.566 579.417 124.411 586.832 114.352 586.832H82.4768C52.2984 586.832 27.834 564.588 27.834 537.15V508.168Z" fill="#FEE101"/>
<path d="M106.297 374.351C106.297 383.497 114.452 390.911 124.511 390.911H192.815C202.874 390.911 211.029 383.497 211.029 374.351V312.248C211.029 303.102 202.874 295.687 192.815 295.687H160.94C130.761 295.687 106.297 317.931 106.297 345.369V374.351Z" fill="#FF3C38"/>
</svg>
