<svg xmlns="http://www.w3.org/2000/svg" width="343" height="190" viewBox="0 0 343 190" fill="none">
<path d="M30.6372 0C35.6915 0 40.1573 1.03412 44.0345 3.10236C47.9118 5.09674 51.1313 7.90365 53.6931 11.5231C56.3241 15.0686 58.2973 19.2051 59.6128 23.9325C60.9283 28.5861 61.586 33.5351 61.586 38.7796C61.586 45.9446 60.409 52.4817 58.055 58.3909C55.7009 64.2263 52.2391 68.8799 47.6695 72.3516C43.0998 75.8233 37.4224 77.5591 30.6372 77.5591H5.29661C3.84264 77.5591 2.59638 77.0421 1.55783 76.0079C0.519275 74.9 0 73.5334 0 71.9084V5.65074C0 4.02569 0.519275 2.69611 1.55783 1.66198C2.59638 0.553993 3.84264 0 5.29661 0H30.6372ZM29.5987 66.9224C34.5145 66.9224 38.4956 65.6298 41.542 63.0445C44.5884 60.4592 46.804 57.0614 48.1887 52.851C49.6427 48.5668 50.3697 43.8763 50.3697 38.7796C50.3697 35.0124 49.9543 31.4669 49.1234 28.1429C48.3618 24.7451 47.1156 21.7535 45.3846 19.1682C43.723 16.509 41.5766 14.4408 38.9456 12.9635C36.3839 11.4123 33.2682 10.6367 29.5987 10.6367H9.97008L10.9048 9.63949V68.0304L10.2816 66.9224H29.5987Z" fill="#FEE101"/>
<path d="M79.6381 0H115.572C117.026 0 118.238 0.517061 119.207 1.55118C120.245 2.5853 120.765 3.87796 120.765 5.42914C120.765 6.98032 120.245 8.23604 119.207 9.1963C118.238 10.1566 117.026 10.6367 115.572 10.6367H84.2078L85.2463 8.7531V33.572L84.3116 32.464H110.899C112.352 32.464 113.564 32.9811 114.533 34.0152C115.572 35.0493 116.091 36.3789 116.091 38.004C116.091 39.5552 115.572 40.8109 114.533 41.7711C113.564 42.7314 112.352 43.2115 110.899 43.2115H84.5193L85.2463 42.2143V67.8088L84.5193 66.9224H115.572C117.026 66.9224 118.238 67.4764 119.207 68.5844C120.245 69.6186 120.765 70.8373 120.765 72.2408C120.765 73.792 120.245 75.0846 119.207 76.1188C118.238 77.079 117.026 77.5591 115.572 77.5591H79.6381C78.1842 77.5591 76.9379 77.0421 75.8994 76.0079C74.8608 74.9 74.3415 73.5334 74.3415 71.9084V5.65074C74.3415 4.02569 74.8608 2.69611 75.8994 1.66198C76.9379 0.553993 78.1842 0 79.6381 0Z" fill="#FEE101"/>
<path d="M102.59 190C97.605 190 93.1739 189.261 89.2967 187.784C85.4194 186.307 81.7152 183.869 78.1842 180.471C77.4226 179.88 76.8341 179.179 76.4186 178.366C76.0725 177.48 75.8994 176.593 75.8994 175.707C75.8994 174.303 76.384 173.048 77.3533 171.94C78.3226 170.832 79.5343 170.278 80.9883 170.278C82.096 170.278 83.1346 170.684 84.1039 171.497C86.7349 174.082 89.4697 176.039 92.3085 177.369C95.2164 178.699 98.609 179.363 102.486 179.363C105.256 179.363 107.783 178.883 110.068 177.923C112.422 176.963 114.291 175.67 115.676 174.045C117.061 172.42 117.753 170.536 117.753 168.394C117.753 165.735 117.026 163.556 115.572 161.857C114.187 160.084 112.145 158.644 109.445 157.536C106.814 156.354 103.629 155.357 99.8899 154.544C96.428 153.88 93.3124 152.956 90.5429 151.774C87.8427 150.593 85.5233 149.115 83.5846 147.342C81.646 145.496 80.1574 143.317 79.1189 140.805C78.0803 138.294 77.5611 135.376 77.5611 132.052C77.5611 127.546 78.6688 123.668 80.8844 120.418C83.1 117.168 86.1118 114.657 89.9198 112.884C93.7278 111.111 98.0205 110.225 102.798 110.225C107.16 110.225 111.245 110.964 115.053 112.441C118.861 113.844 121.942 115.765 124.296 118.202C125.957 119.754 126.788 121.416 126.788 123.188C126.788 124.518 126.269 125.774 125.23 126.956C124.261 128.063 123.119 128.617 121.803 128.617C120.834 128.617 120.003 128.322 119.311 127.731C118.203 126.475 116.714 125.367 114.845 124.407C112.976 123.373 110.968 122.524 108.821 121.859C106.744 121.194 104.736 120.862 102.798 120.862C99.6822 120.862 97.0165 121.342 94.801 122.302C92.5854 123.188 90.8891 124.444 89.7121 126.069C88.535 127.62 87.9465 129.467 87.9465 131.609C87.9465 134.12 88.6043 136.189 89.9198 137.814C91.3045 139.439 93.2085 140.768 95.6318 141.803C98.0551 142.763 100.825 143.649 103.94 144.462C107.748 145.348 111.141 146.345 114.118 147.453C117.164 148.561 119.726 150.002 121.803 151.774C123.88 153.473 125.473 155.615 126.581 158.201C127.688 160.786 128.242 163.999 128.242 167.84C128.242 172.272 127.065 176.15 124.711 179.474C122.357 182.798 119.242 185.383 115.364 187.23C111.556 189.077 107.298 190 102.59 190Z" fill="#FEE101"/>
<path d="M164.691 188.892C163.03 188.892 161.68 188.375 160.641 187.341C159.672 186.233 159.187 184.866 159.187 183.241V116.873H170.3V183.241C170.3 184.866 169.746 186.233 168.638 187.341C167.599 188.375 166.284 188.892 164.691 188.892ZM141.116 121.97C139.662 121.97 138.416 121.489 137.377 120.529C136.339 119.495 135.82 118.165 135.82 116.54C135.82 114.989 136.339 113.734 137.377 112.773C138.416 111.813 139.662 111.333 141.116 111.333H188.37C189.824 111.333 191.036 111.85 192.005 112.884C193.044 113.844 193.563 115.1 193.563 116.651C193.563 118.276 193.044 119.569 192.005 120.529C191.036 121.489 189.824 121.97 188.37 121.97H141.116Z" fill="#FEE101"/>
<path d="M216.218 183.241C216.149 184.866 215.56 186.233 214.453 187.341C213.414 188.375 212.168 188.892 210.714 188.892C209.121 188.892 207.806 188.375 206.767 187.341C205.798 186.233 205.313 184.866 205.313 183.241V116.984C205.313 115.359 205.833 114.029 206.871 112.995C207.91 111.887 209.26 111.333 210.921 111.333C212.306 111.333 213.518 111.887 214.556 112.995C215.664 114.029 216.218 115.359 216.218 116.984V183.241Z" fill="#FEE101"/>
<path d="M250.033 190C245.948 190 242.21 189.003 238.817 187.008C235.424 185.014 232.69 182.244 230.613 178.699C229.989 177.591 229.678 176.556 229.678 175.596C229.678 174.045 230.232 172.752 231.34 171.718C232.447 170.684 233.555 170.167 234.663 170.167C235.632 170.167 236.498 170.462 237.259 171.053C238.09 171.57 238.852 172.235 239.544 173.048C240.929 174.968 242.487 176.446 244.218 177.48C245.948 178.44 247.887 178.92 250.033 178.92C252.526 178.92 254.776 178.329 256.784 177.147C258.792 175.892 260.384 174.23 261.561 172.161C262.738 170.019 263.327 167.693 263.327 165.181V116.984C263.327 115.359 263.881 114.029 264.989 112.995C266.096 111.887 267.377 111.333 268.831 111.333C270.424 111.333 271.704 111.887 272.674 112.995C273.643 114.029 274.128 115.359 274.128 116.984V165.181C274.128 169.687 273.055 173.823 270.908 177.591C268.831 181.358 265.958 184.386 262.288 186.676C258.688 188.892 254.603 190 250.033 190Z" fill="#FEE101"/>
<path d="M331.206 178.034C332.66 178.034 333.871 178.551 334.841 179.585C335.879 180.619 336.399 181.912 336.399 183.463C336.399 185.014 335.879 186.307 334.841 187.341C333.871 188.375 332.66 188.892 331.206 188.892H296.311C294.787 188.892 293.506 188.375 292.468 187.341C291.499 186.233 291.014 184.866 291.014 183.241V116.984C291.014 115.359 291.533 114.029 292.572 112.995C293.61 111.887 294.96 111.333 296.622 111.333C298.007 111.333 299.219 111.887 300.257 112.995C301.365 114.029 301.919 115.359 301.919 116.984V179.917L299.738 178.034H331.206Z" fill="#FEE101"/>
<svg xmlns="http://www.w3.org/2000/svg" xmlns:xlink="http://www.w3.org/1999/xlink" x="240" y="50" width="101px" height="100px" viewBox="0 0 141 200" version="1.1">
<g id="surface1">
<path style=" stroke:none;fill-rule:nonzero;fill:rgb(100%,100%,100%);fill-opacity:1;" d="M 28.804688 163.773438 L 34.710938 168.539062 L 39.191406 169.410156 C 40.972656 169.746094 42.597656 170.65625 43.816406 172 L 49.175781 165.289062 L 35.855469 154.929688 Z M 28.804688 163.773438 "/>
<path style=" stroke:none;fill-rule:nonzero;fill:rgb(11.372549%,11.372549%,10.588235%);fill-opacity:1;" d="M 43.894531 174.347656 L 51.328125 165.046875 L 35.613281 152.773438 L 26.621094 164.003906 L 34.105469 169.976562 L 38.957031 170.917969 C 40.402344 171.199219 41.714844 171.945312 42.703125 173.042969 Z M 47.039062 165.554688 L 43.652344 169.785156 C 42.445312 168.84375 41.035156 168.203125 39.535156 167.910156 L 35.417969 167.113281 L 30.9375 163.53125 L 36.117188 157.054688 Z M 47.039062 165.554688 "/>
<path style=" stroke:none;fill-rule:nonzero;fill:rgb(100%,100%,100%);fill-opacity:1;" d="M 18.46875 175.53125 L 45.675781 197.296875 C 46.246094 197.75 46.925781 198.050781 47.644531 198.167969 C 48.363281 198.289062 49.101562 198.222656 49.789062 197.976562 C 50.472656 197.730469 51.085938 197.316406 51.570312 196.769531 C 52.050781 196.222656 52.386719 195.5625 52.542969 194.847656 C 54.007812 188.179688 49.648438 182.027344 49.648438 182.027344 C 42.753906 181.015625 40.011719 185.679688 40.011719 185.679688 L 20.28125 169.882812 L 18.5 171.261719 C 18.171875 171.511719 17.90625 171.832031 17.722656 172.203125 C 17.539062 172.570312 17.441406 172.976562 17.4375 173.386719 C 17.4375 173.800781 17.527344 174.207031 17.707031 174.578125 C 17.882812 174.949219 18.144531 175.277344 18.46875 175.53125 Z M 18.46875 175.53125 "/>
<path style=" stroke:none;fill-rule:nonzero;fill:rgb(11.372549%,11.372549%,10.588235%);fill-opacity:1;" d="M 48.335938 199.765625 C 48.996094 199.765625 49.652344 199.652344 50.277344 199.433594 C 51.210938 199.105469 52.046875 198.542969 52.703125 197.800781 C 53.355469 197.058594 53.8125 196.160156 54.019531 195.191406 C 55.617188 187.949219 51.085938 181.441406 50.882812 181.167969 L 50.507812 180.632812 L 49.871094 180.539062 C 44.503906 179.761719 41.304688 182.007812 39.757812 183.574219 L 20.300781 167.953125 L 17.570312 170.058594 C 17.0625 170.449219 16.652344 170.949219 16.371094 171.519531 C 16.085938 172.09375 15.933594 172.722656 15.929688 173.363281 C 15.925781 174.003906 16.066406 174.636719 16.339844 175.210938 C 16.617188 175.789062 17.019531 176.296875 17.519531 176.695312 L 44.722656 198.480469 C 45.75 199.304688 47.019531 199.757812 48.335938 199.765625 Z M 48.757812 183.464844 C 49.691406 185.023438 52.128906 189.699219 51.066406 194.535156 C 50.960938 194.996094 50.742188 195.425781 50.425781 195.78125 C 50.113281 196.132812 49.710938 196.402344 49.265625 196.558594 C 48.824219 196.71875 48.347656 196.761719 47.882812 196.683594 C 47.417969 196.605469 46.980469 196.410156 46.617188 196.113281 L 19.410156 174.328125 C 19.269531 174.214844 19.15625 174.074219 19.078125 173.914062 C 19 173.753906 18.957031 173.574219 18.957031 173.394531 C 18.957031 173.214844 19 173.039062 19.078125 172.878906 C 19.15625 172.71875 19.269531 172.574219 19.410156 172.464844 L 20.238281 171.816406 L 40.40625 188.007812 L 41.296875 186.5 C 41.40625 186.328125 43.519531 182.980469 48.757812 183.464844 Z M 48.757812 183.464844 "/>
<path style=" stroke:none;fill-rule:nonzero;fill:rgb(11.372549%,11.372549%,10.588235%);fill-opacity:1;" d="M 20.28125 169.90625 L 40.011719 185.699219 C 40.011719 185.699219 42.753906 181.046875 49.648438 182.046875 L 44.917969 173.527344 C 44.613281 172.976562 44.242188 172.460938 43.816406 172 C 42.609375 170.660156 41 169.746094 39.234375 169.398438 L 34.753906 168.527344 L 33.933594 168.367188 L 30.230469 165.460938 C 29.421875 164.835938 28.417969 164.519531 27.394531 164.566406 C 26.371094 164.617188 25.402344 165.03125 24.660156 165.734375 Z M 20.28125 169.90625 "/>
<path style=" stroke:none;fill-rule:nonzero;fill:rgb(11.372549%,11.372549%,10.588235%);fill-opacity:1;" d="M 40.425781 187.976562 L 41.316406 186.46875 C 41.40625 186.328125 43.691406 182.714844 49.40625 183.546875 L 52.441406 183.992188 L 46.21875 172.789062 C 45.863281 172.136719 45.429688 171.53125 44.925781 170.988281 C 43.496094 169.417969 41.597656 168.351562 39.515625 167.953125 L 34.570312 167 L 31.160156 164.320312 C 30.070312 163.457031 28.703125 163.019531 27.316406 163.089844 C 25.925781 163.15625 24.609375 163.722656 23.605469 164.683594 L 17.953125 170.035156 Z M 47 180.398438 C 44.277344 180.496094 41.695312 181.632812 39.789062 183.574219 L 22.59375 169.804688 L 25.71875 166.847656 C 26.199219 166.390625 26.824219 166.117188 27.488281 166.085938 C 28.148438 166.050781 28.800781 166.257812 29.320312 166.667969 L 33.304688 169.792969 L 38.96875 170.898438 C 40.414062 171.179688 41.726562 171.925781 42.710938 173.023438 C 43.050781 173.394531 43.347656 173.804688 43.589844 174.246094 Z M 47 180.398438 "/>
<path style=" stroke:none;fill-rule:nonzero;fill:rgb(100%,100%,100%);fill-opacity:1;" d="M 95.101562 165.238281 L 99.148438 176.371094 L 106.308594 173.769531 L 109.390625 170.390625 C 110.605469 169.054688 112.222656 168.152344 113.996094 167.820312 L 111.03125 159.664062 Z M 95.101562 165.238281 "/>
<path style=" stroke:none;fill-rule:nonzero;fill:rgb(11.372549%,11.372549%,10.588235%);fill-opacity:1;" d="M 98.214844 178.261719 L 107.15625 175.035156 L 110.496094 171.382812 C 111.484375 170.285156 112.804688 169.546875 114.257812 169.277344 L 116.007812 168.964844 L 111.960938 157.722656 L 93.191406 164.359375 Z M 105.417969 172.414062 L 100.035156 174.367188 L 97.003906 166.160156 L 110.050781 161.546875 L 111.941406 166.757812 C 110.511719 167.308594 109.230469 168.183594 108.199219 169.316406 Z M 105.417969 172.414062 "/>
<path style=" stroke:none;fill-rule:nonzero;fill:rgb(100%,100%,100%);fill-opacity:1;" d="M 99.925781 186.804688 L 100.179688 189.039062 C 100.222656 189.449219 100.359375 189.839844 100.578125 190.1875 C 100.792969 190.535156 101.089844 190.828125 101.4375 191.042969 C 101.785156 191.257812 102.175781 191.394531 102.585938 191.4375 C 102.992188 191.476562 103.402344 191.425781 103.789062 191.285156 L 136.535156 179.367188 C 137.222656 179.113281 137.828125 178.691406 138.304688 178.136719 C 138.78125 177.582031 139.105469 176.917969 139.253906 176.203125 C 139.402344 175.488281 139.367188 174.75 139.148438 174.050781 C 138.929688 173.355469 138.539062 172.726562 138.011719 172.222656 C 133.089844 167.507812 125.574219 168.023438 125.574219 168.023438 C 121.132812 173.394531 123.671875 178.140625 123.671875 178.140625 Z M 99.925781 186.804688 "/>
<path style=" stroke:none;fill-rule:nonzero;fill:rgb(11.372549%,11.372549%,10.588235%);fill-opacity:1;" d="M 102.859375 192.964844 C 103.351562 192.96875 103.839844 192.882812 104.304688 192.714844 L 137.050781 180.792969 C 137.980469 180.453125 138.804688 179.878906 139.449219 179.132812 C 140.09375 178.382812 140.539062 177.484375 140.742188 176.515625 C 140.945312 175.550781 140.898438 174.546875 140.605469 173.601562 C 140.316406 172.65625 139.789062 171.804688 139.074219 171.117188 C 133.726562 166 125.816406 166.484375 125.484375 166.503906 L 124.824219 166.503906 L 124.410156 167.011719 C 120.960938 171.191406 121.214844 175.105469 121.75 177.191406 L 98.296875 185.742188 L 98.671875 189.203125 C 98.742188 189.835938 98.957031 190.445312 99.296875 190.984375 C 99.636719 191.523438 100.09375 191.980469 100.632812 192.320312 C 101.300781 192.734375 102.070312 192.957031 102.859375 192.964844 Z M 126.320312 169.519531 C 128.144531 169.519531 133.402344 169.894531 136.960938 173.316406 C 137.304688 173.644531 137.5625 174.054688 137.703125 174.511719 C 137.84375 174.964844 137.867188 175.449219 137.769531 175.914062 C 137.679688 176.375 137.46875 176.804688 137.160156 177.160156 C 136.851562 177.515625 136.453125 177.785156 136.011719 177.9375 L 103.273438 189.859375 C 103.105469 189.917969 102.929688 189.9375 102.753906 189.917969 C 102.578125 189.898438 102.410156 189.84375 102.261719 189.75 C 102.109375 189.652344 101.980469 189.523438 101.882812 189.371094 C 101.785156 189.21875 101.726562 189.046875 101.707031 188.867188 L 101.585938 187.855469 L 125.855469 179.023438 L 125.027344 177.472656 C 124.9375 177.292969 123.195312 173.761719 126.320312 169.519531 Z M 126.320312 169.519531 "/>
<path style=" stroke:none;fill-rule:nonzero;fill:rgb(11.372549%,11.372549%,10.588235%);fill-opacity:1;" d="M 98.652344 180.882812 L 99.925781 186.804688 L 123.714844 178.152344 C 123.714844 178.152344 121.175781 173.394531 125.613281 168.03125 L 115.886719 167.648438 C 114.675781 167.59375 113.464844 167.808594 112.347656 168.277344 C 111.230469 168.742188 110.226562 169.453125 109.414062 170.351562 L 106.328125 173.730469 L 105.769531 174.335938 L 101.371094 175.996094 C 100.410156 176.351562 99.605469 177.039062 99.105469 177.9375 C 98.605469 178.832031 98.445312 179.878906 98.652344 180.882812 Z M 98.652344 180.882812 "/>
<path style=" stroke:none;fill-rule:nonzero;fill:rgb(11.372549%,11.372549%,10.588235%);fill-opacity:1;" d="M 98.8125 188.816406 L 125.835938 178.980469 L 125.007812 177.433594 C 124.9375 177.28125 123.046875 173.457031 126.746094 168.984375 L 128.699219 166.625 L 115.90625 166.121094 C 115.167969 166.089844 114.425781 166.140625 113.699219 166.273438 C 111.601562 166.667969 109.691406 167.734375 108.25 169.308594 L 104.859375 173.011719 L 100.816406 174.539062 C 99.515625 175.027344 98.433594 175.964844 97.765625 177.183594 C 97.097656 178.402344 96.894531 179.820312 97.183594 181.175781 Z M 121.691406 177.230469 L 100.988281 184.78125 L 100.085938 180.570312 C 99.945312 179.921875 100.042969 179.246094 100.359375 178.664062 C 100.679688 178.082031 101.195312 177.632812 101.816406 177.402344 L 106.550781 175.613281 L 110.445312 171.363281 C 111.429688 170.265625 112.753906 169.523438 114.207031 169.257812 C 114.707031 169.164062 115.214844 169.128906 115.722656 169.144531 L 122.742188 169.429688 C 121.414062 171.800781 121.039062 174.589844 121.691406 177.230469 Z M 121.691406 177.230469 "/>
<path style="fill-rule:nonzero;fill:rgb(11.372549%,11.372549%,10.588235%);fill-opacity:1;stroke-width:1;stroke-linecap:butt;stroke-linejoin:miter;stroke:rgb(11.372549%,11.372549%,10.588235%);stroke-opacity:1;stroke-miterlimit:10;" d="M 45.372562 328.127891 C 46.195673 327.450547 47.233018 327.089297 48.292913 327.111875 L 99.67531 327.111875 C 100.723931 327.540859 101.896581 327.540859 102.945202 327.111875 L 154.203568 327.111875 C 155.128158 327.100586 156.041473 327.394102 156.774379 327.958555 C 157.541113 328.556875 158.161264 329.347109 158.567182 330.227656 C 158.9731 331.119492 159.153507 332.101641 159.108405 333.0725 L 159.108405 348.60625 C 159.176058 349.306172 159.09713 350.017383 158.882896 350.706016 C 158.668661 351.383359 158.330397 352.004258 157.879377 352.546133 C 157.417082 353.099297 156.864583 353.53957 156.233156 353.866953 C 155.601729 354.194336 154.913924 354.397539 154.203568 354.453984 L 102.821171 354.453984 C 101.772551 354.025 100.5999 354.025 99.55128 354.453984 L 48.180158 354.453984 C 47.469803 354.397539 46.781998 354.194336 46.150571 353.866953 C 45.519143 353.53957 44.966645 353.099297 44.50435 352.546133 C 44.05333 352.004258 43.70379 351.383359 43.500831 350.706016 C 43.286597 350.017383 43.207668 349.306172 43.275321 348.60625 L 43.275321 333.0725 C 43.241495 332.146797 43.410627 331.221094 43.771443 330.363125 C 44.132258 329.516445 44.684757 328.748789 45.372562 328.127891 Z M 104.456117 347.928906 L 152.602449 347.928906 L 152.602449 333.546641 L 104.456117 333.546641 Z M 49.781278 347.928906 L 97.916334 347.928906 L 97.916334 333.546641 L 49.781278 333.546641 Z M 49.781278 347.928906 " transform="matrix(0.346437,0,0,0.346021,0,0)"/>
<path style=" stroke:none;fill-rule:nonzero;fill:rgb(99.607843%,88.235294%,0%);fill-opacity:1;" d="M 36.1875 115.441406 L 52.867188 115.441406 L 52.867188 120.421875 L 36.1875 120.421875 Z M 36.1875 115.441406 "/>
<path style=" stroke:none;fill-rule:nonzero;fill:rgb(99.607843%,88.235294%,0%);fill-opacity:1;" d="M 17.246094 115.441406 L 33.921875 115.441406 L 33.921875 120.421875 L 17.246094 120.421875 Z M 17.246094 115.441406 "/>
<path style=" stroke:none;fill-rule:nonzero;fill:rgb(100%,100%,100%);fill-opacity:1;" d="M 33.042969 21.578125 C 33.042969 21.667969 33.132812 21.738281 33.175781 21.832031 C 33.277344 22.023438 33.398438 22.210938 33.527344 22.386719 L 33.710938 22.597656 C 33.777344 22.675781 33.847656 22.746094 33.921875 22.8125 C 34.042969 22.929688 34.171875 23.035156 34.308594 23.136719 C 34.40625 23.207031 34.488281 23.296875 34.550781 23.402344 C 34.609375 23.503906 34.648438 23.621094 34.660156 23.742188 C 34.660156 24.003906 34.710938 24.269531 34.753906 24.542969 C 34.90625 25.433594 35.164062 26.300781 35.519531 27.132812 L 35.519531 27.222656 C 35.902344 28.078125 36.398438 28.882812 36.988281 29.613281 C 37.96875 30.828125 39.195312 31.816406 40.59375 32.515625 C 41.988281 33.214844 43.519531 33.605469 45.078125 33.660156 C 46.855469 33.734375 48.621094 33.375 50.226562 32.613281 C 51.832031 31.847656 53.226562 30.703125 54.289062 29.277344 C 55.351562 27.855469 56.046875 26.191406 56.324219 24.433594 C 56.597656 22.675781 56.4375 20.878906 55.859375 19.199219 C 55.75 18.894531 55.636719 18.59375 55.503906 18.296875 C 55.066406 17.304688 54.480469 16.382812 53.765625 15.566406 C 53.664062 15.449219 53.523438 15.371094 53.371094 15.355469 C 53.265625 15.332031 53.15625 15.332031 53.046875 15.355469 L 52.359375 15.484375 C 51.457031 15.535156 50.550781 15.535156 49.648438 15.484375 L 49.296875 15.414062 C 47.40625 14.96875 45.664062 13.804688 43.328125 12.378906 C 43.300781 12.359375 43.265625 12.347656 43.230469 12.351562 C 43.195312 12.351562 43.164062 12.363281 43.136719 12.386719 C 43.109375 12.40625 43.089844 12.4375 43.082031 12.46875 C 43.070312 12.503906 43.074219 12.539062 43.085938 12.570312 C 43.566406 13.957031 43.621094 15.457031 43.25 16.875 C 42.878906 18.296875 42.089844 19.574219 40.992188 20.546875 C 40.953125 20.578125 40.902344 20.597656 40.851562 20.605469 C 40.796875 20.609375 40.746094 20.601562 40.699219 20.578125 C 40.652344 20.554688 40.613281 20.515625 40.585938 20.472656 C 40.558594 20.425781 40.546875 20.375 40.546875 20.324219 C 40.609375 19.648438 40.5 18.96875 40.222656 18.347656 C 40.023438 17.859375 39.730469 17.414062 39.355469 17.042969 C 38.980469 16.671875 38.535156 16.375 38.046875 16.179688 C 37.558594 15.980469 37.03125 15.886719 36.503906 15.894531 C 35.976562 15.90625 35.457031 16.023438 34.976562 16.238281 C 34.492188 16.453125 34.058594 16.761719 33.699219 17.148438 C 33.339844 17.535156 33.0625 17.992188 32.882812 18.488281 C 32.699219 18.984375 32.621094 19.511719 32.648438 20.039062 C 32.679688 20.566406 32.8125 21.082031 33.042969 21.558594 Z M 33.042969 21.578125 "/>
<path style=" stroke:none;fill-rule:nonzero;fill:rgb(11.372549%,11.372549%,10.588235%);fill-opacity:1;" d="M 45.5625 35.207031 C 47.542969 35.203125 49.492188 34.726562 51.246094 33.816406 C 53.003906 32.90625 54.519531 31.589844 55.667969 29.976562 C 56.8125 28.363281 57.558594 26.5 57.84375 24.542969 C 58.125 22.582031 57.9375 20.585938 57.296875 18.714844 C 57.164062 18.347656 57.03125 18.023438 56.890625 17.703125 C 56.375 16.566406 55.695312 15.515625 54.867188 14.585938 C 54.535156 14.207031 54.082031 13.953125 53.582031 13.875 C 53.28125 13.820312 52.972656 13.820312 52.671875 13.875 L 52.117188 13.976562 C 51.894531 13.976562 50.207031 13.976562 49.863281 13.976562 L 49.558594 13.90625 C 47.921875 13.375 46.375 12.605469 44.964844 11.621094 L 44.066406 11.074219 C 43.765625 10.898438 43.421875 10.820312 43.078125 10.847656 C 42.734375 10.871094 42.40625 11 42.132812 11.214844 C 41.878906 11.425781 41.691406 11.710938 41.59375 12.027344 C 41.496094 12.347656 41.496094 12.6875 41.589844 13.007812 C 42.089844 14.445312 42.023438 16.015625 41.40625 17.40625 C 40.980469 16.585938 40.351562 15.886719 39.574219 15.382812 C 38.800781 14.875 37.910156 14.574219 36.988281 14.515625 C 36.097656 14.441406 35.203125 14.59375 34.386719 14.960938 C 33.730469 15.257812 33.140625 15.683594 32.648438 16.210938 C 32.160156 16.738281 31.777344 17.359375 31.523438 18.035156 C 31.273438 18.710938 31.15625 19.429688 31.183594 20.148438 C 31.207031 20.871094 31.375 21.578125 31.675781 22.234375 L 31.878906 22.609375 C 32.007812 22.851562 32.15625 23.085938 32.3125 23.308594 L 32.609375 23.640625 C 32.710938 23.761719 32.824219 23.878906 32.941406 23.984375 L 33.203125 24.21875 C 33.203125 24.421875 33.253906 24.613281 33.285156 24.816406 C 33.457031 25.835938 33.75 26.832031 34.164062 27.78125 L 34.164062 27.871094 C 34.445312 28.492188 34.78125 29.085938 35.175781 29.640625 L 35.90625 30.5625 C 37.019531 31.945312 38.414062 33.074219 40 33.875 C 41.585938 34.675781 43.324219 35.125 45.097656 35.199219 Z M 52.925781 16.992188 C 53.40625 17.597656 53.800781 18.261719 54.109375 18.964844 C 54.230469 19.238281 54.34375 19.503906 54.433594 19.777344 C 55.179688 21.996094 55.074219 24.414062 54.140625 26.5625 C 53.207031 28.710938 51.507812 30.433594 49.375 31.402344 C 48.058594 32 46.617188 32.277344 45.167969 32.210938 C 44.132812 32.171875 43.105469 31.96875 42.132812 31.605469 C 40.707031 31.058594 39.433594 30.175781 38.421875 29.023438 L 38.160156 28.699219 C 37.648438 28.089844 37.222656 27.40625 36.894531 26.675781 C 36.574219 25.933594 36.335938 25.15625 36.199219 24.359375 C 36.199219 24.15625 36.136719 23.933594 36.117188 23.710938 C 36.089844 23.367188 35.984375 23.03125 35.808594 22.730469 C 35.632812 22.433594 35.394531 22.175781 35.105469 21.980469 L 34.875 21.78125 L 34.742188 21.648438 L 34.621094 21.515625 C 34.558594 21.425781 34.5 21.332031 34.449219 21.234375 L 34.308594 20.980469 C 34.066406 20.394531 34.0625 19.738281 34.292969 19.152344 C 34.523438 18.5625 34.976562 18.085938 35.550781 17.824219 C 35.917969 17.664062 36.316406 17.597656 36.714844 17.628906 C 37.148438 17.660156 37.566406 17.808594 37.925781 18.0625 C 38.28125 18.3125 38.5625 18.65625 38.738281 19.058594 C 38.90625 19.429688 38.976562 19.84375 38.9375 20.25 C 38.898438 20.613281 38.96875 20.976562 39.140625 21.292969 C 39.3125 21.613281 39.582031 21.871094 39.902344 22.035156 C 40.226562 22.199219 40.59375 22.261719 40.949219 22.210938 C 41.308594 22.164062 41.644531 22.003906 41.914062 21.757812 C 42.84375 20.945312 43.59375 19.949219 44.117188 18.828125 C 44.640625 17.707031 44.921875 16.488281 44.945312 15.253906 C 46.164062 16.011719 47.484375 16.589844 48.871094 16.960938 L 49.273438 17.042969 C 50.355469 17.128906 51.441406 17.128906 52.523438 17.042969 L 52.632812 17.042969 Z M 52.925781 16.992188 "/>
<path style=" stroke:none;fill-rule:nonzero;fill:rgb(100%,100%,100%);fill-opacity:1;" d="M 3.773438 113.386719 C 3.773438 113.386719 -3.578125 121.777344 8.042969 122.839844 C 13.96875 123.375 15.566406 120.410156 15.707031 114.410156 C 15.660156 109.550781 15.304688 104.695312 14.648438 99.878906 L 15.183594 81.441406 C 14.484375 85.753906 6.871094 82.992188 6.871094 82.992188 L 5.929688 99.179688 C 4.347656 103.4375 3.609375 107.960938 3.746094 112.5 Z M 3.773438 113.386719 "/>
<path style=" stroke:none;fill-rule:nonzero;fill:rgb(11.372549%,11.372549%,10.588235%);fill-opacity:1;" d="M 9.328125 124.4375 C 11.222656 124.554688 13.09375 123.953125 14.566406 122.75 C 16.800781 120.726562 17.15625 117.273438 17.226562 114.460938 C 17.199219 109.5625 16.863281 104.671875 16.214844 99.820312 L 16.742188 81.503906 L 13.707031 81.21875 C 13.695312 81.386719 13.644531 81.550781 13.558594 81.695312 C 13.46875 81.835938 13.347656 81.957031 13.199219 82.039062 C 12.015625 82.738281 9.09375 82.191406 7.40625 81.585938 L 5.492188 80.886719 L 4.484375 98.847656 C 2.898438 103.234375 2.152344 107.878906 2.277344 112.539062 C 2.277344 112.660156 2.277344 112.773438 2.277344 112.894531 C 1.316406 114.136719 -0.835938 117.40625 0.347656 120.371094 C 1.257812 122.648438 3.816406 123.992188 7.941406 124.417969 C 8.402344 124.449219 8.863281 124.457031 9.328125 124.4375 Z M 13.554688 85.136719 L 13.128906 99.980469 L 13.128906 100.113281 C 13.757812 104.847656 14.097656 109.613281 14.140625 114.390625 C 14.070312 117.609375 13.542969 119.550781 12.492188 120.460938 C 11.632812 121.230469 10.207031 121.523438 8.125 121.332031 C 5.3125 121.070312 3.523438 120.320312 3.066406 119.226562 C 2.441406 117.679688 4.199219 115.179688 4.855469 114.390625 L 5.25 113.925781 L 5.25 113.328125 C 5.25 113.023438 5.25 112.742188 5.25 112.457031 C 5.113281 108.136719 5.796875 103.832031 7.273438 99.769531 L 7.386719 99.527344 L 8.273438 84.972656 C 10 85.4375 11.808594 85.488281 13.554688 85.117188 Z M 13.554688 85.136719 "/>
<path style=" stroke:none;fill-rule:nonzero;fill:rgb(100%,100%,100%);fill-opacity:1;" d="M 87.972656 54.140625 C 86.960938 57.632812 87.800781 59.199219 87.800781 59.199219 L 84.816406 67.296875 L 92.128906 71.082031 L 95.949219 61.699219 C 97.859375 59.195312 99.464844 56.480469 100.746094 53.605469 C 102.542969 49.285156 103.121094 44.496094 98.238281 42.664062 C 98.238281 42.664062 90.429688 53.90625 88.609375 54.292969 C 88.382812 54.328125 88.15625 54.273438 87.972656 54.140625 Z M 87.972656 54.140625 "/>
<path style=" stroke:none;fill-rule:nonzero;fill:rgb(11.372549%,11.372549%,10.588235%);fill-opacity:1;" d="M 92.90625 73.226562 L 97.285156 62.488281 C 99.222656 59.910156 100.855469 57.117188 102.152344 54.160156 C 103.707031 50.417969 103.980469 47.320312 102.96875 44.972656 C 102.566406 44.089844 101.984375 43.300781 101.257812 42.65625 C 100.535156 42.007812 99.683594 41.519531 98.761719 41.21875 L 97.660156 40.8125 L 96.992188 41.824219 C 93.867188 46.316406 89.914062 51.449219 88.445312 52.664062 L 87.113281 51.722656 L 86.515625 53.746094 C 85.910156 55.519531 85.800781 57.425781 86.191406 59.261719 L 82.925781 68.09375 Z M 98.742188 44.566406 C 99.378906 44.941406 99.882812 45.507812 100.179688 46.1875 C 100.847656 47.726562 100.5625 50.082031 99.347656 52.996094 C 98.121094 55.765625 96.582031 58.382812 94.757812 60.800781 L 94.625 60.960938 L 91.347656 69.007812 L 86.707031 66.609375 L 89.457031 59.148438 L 89.15625 58.550781 C 88.910156 57.609375 88.910156 56.621094 89.15625 55.679688 C 90.8125 55.011719 94.019531 51.277344 98.742188 44.566406 Z M 98.742188 44.566406 "/>
<path style=" stroke:none;fill-rule:nonzero;fill:rgb(11.372549%,11.372549%,10.588235%);fill-opacity:1;" d="M 51.1875 76.878906 C 51.535156 76.871094 51.875 76.746094 52.140625 76.519531 C 52.40625 76.292969 52.589844 75.984375 52.65625 75.640625 C 52.722656 75.296875 52.667969 74.941406 52.503906 74.632812 C 52.339844 74.324219 52.074219 74.082031 51.753906 73.945312 L 51.4375 73.84375 C 51.054688 73.714844 50.636719 73.742188 50.273438 73.917969 C 49.910156 74.097656 49.632812 74.410156 49.496094 74.792969 C 49.433594 74.980469 49.402344 75.175781 49.414062 75.371094 C 49.425781 75.566406 49.472656 75.757812 49.558594 75.933594 C 49.640625 76.113281 49.761719 76.269531 49.90625 76.398438 C 50.050781 76.53125 50.222656 76.632812 50.40625 76.695312 L 50.621094 76.695312 C 50.796875 76.792969 50.988281 76.855469 51.1875 76.878906 Z M 51.1875 76.878906 "/>
<path style=" stroke:none;fill-rule:nonzero;fill:rgb(11.372549%,11.372549%,10.588235%);fill-opacity:1;" d="M 82.328125 128.386719 C 82.527344 128.386719 82.722656 128.347656 82.90625 128.273438 C 83.089844 128.199219 83.257812 128.085938 83.398438 127.949219 C 83.539062 127.808594 83.652344 127.640625 83.730469 127.457031 C 83.804688 127.273438 83.84375 127.078125 83.84375 126.878906 C 83.84375 126.578125 83.753906 126.285156 83.589844 126.035156 C 83.421875 125.785156 83.183594 125.589844 82.90625 125.476562 C 82.628906 125.359375 82.324219 125.332031 82.03125 125.390625 C 81.738281 125.449219 81.46875 125.59375 81.253906 125.804688 C 81.042969 126.015625 80.898438 126.289062 80.839844 126.582031 C 80.78125 126.875 80.8125 127.179688 80.925781 127.457031 C 81.039062 127.734375 81.234375 127.972656 81.484375 128.140625 C 81.734375 128.304688 82.027344 128.394531 82.328125 128.394531 Z M 82.328125 128.386719 "/>
<path style=" stroke:none;fill-rule:nonzero;fill:rgb(100%,100%,100%);fill-opacity:1;" d="M 37.421875 29.90625 L 34.945312 36.402344 C 37.765625 37.847656 40.507812 39.304688 42.964844 40.632812 L 45.511719 33.964844 C 43.953125 33.90625 42.425781 33.515625 41.03125 32.816406 C 39.632812 32.117188 38.402344 31.128906 37.421875 29.914062 Z M 37.421875 29.90625 "/>
<path style=" stroke:none;fill-rule:nonzero;fill:rgb(11.372549%,11.372549%,10.588235%);fill-opacity:1;" d="M 43.761719 42.796875 L 47.675781 32.554688 L 45.582031 32.457031 C 44.546875 32.414062 43.523438 32.210938 42.550781 31.847656 C 40.996094 31.25 39.625 30.257812 38.574219 28.964844 L 36.925781 26.941406 L 33.003906 37.179688 L 34.214844 37.796875 C 36.613281 39.023438 39.152344 40.367188 42.214844 42.019531 Z M 43.398438 35.238281 L 42.164062 38.484375 C 40.222656 37.472656 38.492188 36.535156 36.84375 35.683594 L 38 32.648438 C 39.050781 33.503906 40.230469 34.1875 41.496094 34.671875 C 42.117188 34.90625 42.753906 35.09375 43.398438 35.238281 Z M 43.398438 35.238281 "/>
<path style=" stroke:none;fill-rule:nonzero;fill:rgb(11.372549%,11.372549%,10.588235%);fill-opacity:1;" d="M 28.644531 19.308594 C 29.113281 20.808594 29.863281 22.207031 30.847656 23.429688 C 31.003906 23.621094 31.183594 23.789062 31.386719 23.933594 C 31.8125 24.238281 32.3125 24.425781 32.832031 24.476562 C 33.351562 24.53125 33.878906 24.449219 34.359375 24.238281 C 34.3125 23.972656 34.285156 23.707031 34.265625 23.4375 C 34.253906 23.316406 34.21875 23.203125 34.15625 23.097656 C 34.097656 22.992188 34.011719 22.902344 33.914062 22.832031 L 33.527344 22.507812 C 33.453125 22.441406 33.382812 22.371094 33.316406 22.296875 L 33.125 22.082031 C 33 21.902344 32.886719 21.71875 32.78125 21.527344 L 32.640625 21.273438 C 32.21875 20.3125 32.195312 19.226562 32.574219 18.25 C 32.953125 17.273438 33.703125 16.484375 34.660156 16.0625 C 35.257812 15.804688 35.90625 15.691406 36.554688 15.738281 C 37.074219 15.777344 37.582031 15.917969 38.050781 16.15625 C 38.515625 16.394531 38.929688 16.722656 39.269531 17.121094 C 39.609375 17.519531 39.863281 17.984375 40.019531 18.480469 C 40.175781 18.980469 40.234375 19.507812 40.183594 20.027344 C 40.179688 20.082031 40.191406 20.136719 40.21875 20.183594 C 40.242188 20.230469 40.28125 20.265625 40.328125 20.292969 C 40.378906 20.316406 40.429688 20.328125 40.484375 20.320312 C 40.539062 20.316406 40.585938 20.296875 40.628906 20.261719 C 41.726562 19.285156 42.515625 18.007812 42.886719 16.585938 C 43.257812 15.164062 43.203125 13.667969 42.722656 12.277344 C 42.707031 12.246094 42.703125 12.210938 42.710938 12.179688 C 42.722656 12.144531 42.738281 12.113281 42.765625 12.09375 C 42.792969 12.074219 42.828125 12.0625 42.859375 12.0625 C 42.894531 12.0625 42.929688 12.074219 42.957031 12.09375 C 45.300781 13.5 47 14.65625 48.921875 15.132812 L 49.285156 15.203125 C 49.78125 15.296875 50.28125 15.339844 50.785156 15.332031 L 51.570312 15.28125 L 51.996094 15.222656 L 52.683594 15.089844 C 52.789062 15.066406 52.902344 15.066406 53.007812 15.089844 C 53.160156 15.117188 53.300781 15.195312 53.402344 15.3125 C 54.113281 16.132812 54.695312 17.054688 55.132812 18.046875 C 55.273438 18.339844 55.386719 18.640625 55.496094 18.945312 C 56.582031 17.890625 57.429688 16.613281 57.972656 15.199219 C 58.519531 13.785156 58.75 12.269531 58.652344 10.757812 C 58.53125 9.0625 58 7.421875 57.105469 5.972656 C 56.027344 4.230469 54.457031 2.84375 52.59375 1.988281 C 50.734375 1.132812 48.660156 0.847656 46.636719 1.167969 C 44.917969 1.441406 43.292969 2.136719 41.902344 3.191406 C 41.804688 3.261719 41.683594 3.300781 41.558594 3.300781 C 39.132812 3.21875 36.722656 3.730469 34.539062 4.789062 C 32.042969 6.167969 30.09375 8.359375 29.019531 11.003906 C 27.949219 13.648438 27.816406 16.582031 28.644531 19.308594 Z M 28.644531 19.308594 "/>
<path style=" stroke:none;fill-rule:nonzero;fill:rgb(11.372549%,11.372549%,10.588235%);fill-opacity:1;" d="M 33.105469 25.511719 C 33.671875 25.511719 34.234375 25.390625 34.753906 25.160156 L 35.449219 24.84375 L 35.339844 24.085938 C 35.339844 23.84375 35.269531 23.609375 35.25 23.367188 C 35.226562 23.101562 35.148438 22.839844 35.019531 22.605469 C 34.886719 22.371094 34.707031 22.167969 34.488281 22.011719 L 34.195312 21.78125 L 34.042969 21.605469 L 33.902344 21.457031 C 33.820312 21.335938 33.742188 21.210938 33.671875 21.082031 L 33.5 20.765625 C 33.210938 20.0625 33.210938 19.273438 33.496094 18.570312 C 33.78125 17.867188 34.332031 17.300781 35.027344 16.992188 C 35.464844 16.792969 35.949219 16.710938 36.429688 16.75 C 36.957031 16.785156 37.464844 16.964844 37.898438 17.265625 C 38.328125 17.570312 38.667969 17.988281 38.878906 18.46875 C 39.089844 18.925781 39.171875 19.429688 39.121094 19.925781 C 39.097656 20.191406 39.15625 20.453125 39.285156 20.683594 C 39.414062 20.914062 39.613281 21.097656 39.851562 21.210938 C 40.078125 21.324219 40.332031 21.363281 40.582031 21.328125 C 40.835938 21.292969 41.070312 21.179688 41.253906 21.011719 C 42.246094 20.140625 43.011719 19.054688 43.5 17.832031 C 43.988281 16.609375 44.179688 15.289062 44.058594 13.976562 C 45.464844 14.914062 47.011719 15.628906 48.640625 16.09375 L 49.03125 16.171875 C 49.597656 16.277344 50.167969 16.328125 50.742188 16.324219 C 51.054688 16.324219 51.339844 16.324219 51.621094 16.265625 C 51.90625 16.203125 51.9375 16.265625 52.097656 16.203125 L 52.714844 16.082031 C 53.304688 16.785156 53.792969 17.566406 54.160156 18.410156 C 54.28125 18.683594 54.394531 18.964844 54.496094 19.25 L 55.03125 20.726562 L 56.152344 19.632812 C 57.300781 18.523438 58.203125 17.183594 58.804688 15.703125 C 59.402344 14.222656 59.683594 12.628906 59.632812 11.03125 L 59.632812 10.636719 C 59.523438 9.058594 59.085938 7.519531 58.351562 6.121094 C 57.617188 4.71875 56.597656 3.484375 55.363281 2.5 C 54.125 1.511719 52.699219 0.792969 51.171875 0.386719 C 49.644531 -0.0234375 48.046875 -0.109375 46.484375 0.132812 C 44.652344 0.4375 42.917969 1.171875 41.425781 2.28125 C 38.878906 2.226562 36.355469 2.78125 34.066406 3.898438 C 31.339844 5.371094 29.210938 7.738281 28.039062 10.605469 C 26.867188 13.472656 26.722656 16.652344 27.632812 19.613281 C 28.136719 21.234375 28.945312 22.746094 30.007812 24.066406 C 30.222656 24.324219 30.46875 24.554688 30.738281 24.753906 C 31.425781 25.253906 32.253906 25.519531 33.105469 25.511719 Z M 36.207031 14.714844 C 35.511719 14.71875 34.824219 14.859375 34.1875 15.132812 C 32.992188 15.671875 32.058594 16.664062 31.589844 17.890625 C 31.121094 19.113281 31.152344 20.476562 31.679688 21.679688 L 31.871094 22.03125 C 31.980469 22.253906 32.113281 22.464844 32.265625 22.660156 L 32.507812 22.953125 C 32.601562 23.058594 32.703125 23.160156 32.8125 23.257812 C 32.890625 23.34375 32.980469 23.417969 33.074219 23.488281 C 32.664062 23.488281 32.269531 23.359375 31.941406 23.113281 C 31.808594 23.019531 31.691406 22.90625 31.585938 22.78125 C 30.542969 21.488281 29.792969 19.976562 29.394531 18.363281 C 28.996094 16.746094 28.953125 15.0625 29.277344 13.429688 C 29.597656 11.796875 30.273438 10.253906 31.257812 8.914062 C 32.242188 7.570312 33.507812 6.460938 34.964844 5.660156 C 36.988281 4.695312 39.210938 4.226562 41.449219 4.292969 C 41.816406 4.3125 42.175781 4.191406 42.460938 3.960938 C 43.707031 3.007812 45.167969 2.375 46.71875 2.117188 C 48.542969 1.832031 50.410156 2.089844 52.085938 2.859375 C 53.765625 3.632812 55.179688 4.878906 56.152344 6.449219 C 56.925781 7.699219 57.394531 9.113281 57.527344 10.578125 L 57.527344 10.78125 C 57.679688 13.015625 57.027344 15.234375 55.6875 17.035156 C 55.246094 16.15625 54.695312 15.34375 54.050781 14.605469 C 53.789062 14.308594 53.429688 14.113281 53.039062 14.058594 C 52.789062 13.988281 52.527344 13.988281 52.28125 14.058594 L 51.773438 14.160156 L 51.390625 14.160156 C 51.148438 14.160156 50.894531 14.160156 50.660156 14.210938 C 50.238281 14.210938 49.8125 14.175781 49.398438 14.097656 L 49.054688 14.027344 C 47.363281 13.484375 45.761719 12.695312 44.300781 11.679688 L 43.398438 11.132812 C 43.191406 11.011719 42.953125 10.957031 42.714844 10.972656 C 42.472656 10.988281 42.246094 11.078125 42.054688 11.226562 C 41.871094 11.371094 41.738281 11.570312 41.667969 11.792969 C 41.601562 12.015625 41.601562 12.257812 41.671875 12.480469 C 41.996094 13.425781 42.101562 14.433594 41.972656 15.425781 C 41.84375 16.417969 41.488281 17.367188 40.933594 18.195312 C 40.867188 17.980469 40.789062 17.765625 40.699219 17.558594 C 40.339844 16.738281 39.761719 16.035156 39.027344 15.519531 C 38.296875 15.003906 37.4375 14.699219 36.542969 14.636719 Z M 36.207031 14.714844 "/>
<path style=" stroke:none;fill-rule:nonzero;fill:rgb(20.784314%,65.490196%,100%);fill-opacity:1;" d="M 94.242188 30.378906 C 94.238281 30.398438 94.238281 30.414062 94.242188 30.429688 C 94.238281 30.46875 94.238281 30.503906 94.242188 30.542969 L 91.207031 39.398438 L 86.714844 52.359375 L 86.269531 53.019531 C 86.171875 53.179688 86.078125 53.339844 86 53.492188 C 86.074219 53.578125 86.164062 53.644531 86.269531 53.695312 C 86.371094 53.742188 86.480469 53.769531 86.59375 53.777344 C 88.496094 53.867188 93.453125 53.988281 95.414062 54.070312 C 95.773438 54.082031 96.128906 53.972656 96.417969 53.757812 C 96.707031 53.542969 96.914062 53.234375 97.003906 52.886719 L 98.023438 48.542969 L 99.035156 44.769531 L 100.542969 39.003906 L 102.433594 31.746094 C 102.445312 31.691406 102.4375 31.636719 102.410156 31.589844 C 102.378906 31.542969 102.335938 31.507812 102.28125 31.492188 L 102.109375 31.492188 L 95.03125 30.117188 L 94.695312 30.117188 C 94.652344 30.125 94.613281 30.144531 94.574219 30.167969 C 94.527344 30.183594 94.480469 30.210938 94.441406 30.25 C 94.371094 30.28125 94.300781 30.328125 94.242188 30.378906 Z M 94.242188 30.378906 "/>
<path style=" stroke:none;fill-rule:nonzero;fill:rgb(11.372549%,11.372549%,10.588235%);fill-opacity:1;" d="M 95.324219 55.679688 C 96.011719 55.6875 96.6875 55.464844 97.238281 55.046875 C 97.785156 54.628906 98.179688 54.039062 98.355469 53.371094 L 103.898438 32.121094 C 103.960938 31.894531 103.972656 31.660156 103.9375 31.425781 C 103.902344 31.195312 103.820312 30.972656 103.699219 30.773438 C 103.480469 30.429688 103.148438 30.171875 102.757812 30.046875 L 102.394531 30.046875 L 95.625 28.730469 L 94.847656 28.144531 L 94.292969 28.691406 C 94.128906 28.730469 93.972656 28.789062 93.828125 28.863281 C 93.6875 28.929688 93.558594 29.015625 93.441406 29.117188 L 92.996094 29.265625 L 92.824219 29.855469 C 92.824219 29.925781 92.753906 30.015625 92.714844 30.128906 L 89.679688 39.125 L 85.28125 51.804688 L 84.957031 52.277344 C 84.816406 52.5 84.703125 52.703125 84.601562 52.886719 L 84.136719 53.785156 L 84.792969 54.566406 C 85 54.8125 85.253906 55.011719 85.539062 55.152344 C 85.824219 55.296875 86.132812 55.378906 86.453125 55.394531 C 87.464844 55.445312 89.324219 55.496094 91.144531 55.546875 L 95.304688 55.6875 Z M 100.59375 32.738281 L 95.394531 52.59375 C 94.382812 52.59375 92.785156 52.59375 91.144531 52.511719 L 88.191406 52.421875 L 95.273438 31.726562 Z M 100.59375 32.738281 "/>
<path style=" stroke:none;fill-rule:nonzero;fill:rgb(11.372549%,11.372549%,10.588235%);fill-opacity:1;" d="M 86.191406 56.234375 L 87.203125 54.28125 C 87.261719 54.171875 87.332031 54.050781 87.414062 53.929688 L 88.851562 51.640625 L 85.816406 51.589844 L 83.957031 51.589844 L 84.105469 53.21875 C 84.148438 53.742188 84.371094 54.238281 84.734375 54.617188 Z M 87.011719 52.59375 C 87.101562 52.703125 87.160156 52.84375 87.171875 52.988281 L 86.484375 53.058594 Z M 87.011719 52.59375 "/>
<path style=" stroke:none;fill-rule:nonzero;fill:rgb(100%,100%,100%);fill-opacity:1;" d="M 90.855469 26.847656 L 86 39.640625 L 81.011719 52.511719 C 80.992188 52.570312 80.984375 52.636719 80.988281 52.699219 C 80.996094 52.761719 81.019531 52.824219 81.054688 52.878906 C 81.089844 52.929688 81.140625 52.976562 81.195312 53.007812 C 81.25 53.039062 81.3125 53.054688 81.378906 53.058594 L 85.847656 53.058594 C 85.972656 53.054688 86.09375 53.019531 86.203125 52.957031 L 86.574219 52.410156 L 94.109375 30.601562 C 94.105469 30.566406 94.105469 30.527344 94.109375 30.492188 C 94.105469 30.476562 94.105469 30.457031 94.109375 30.441406 C 94.105469 30.425781 94.105469 30.40625 94.109375 30.390625 C 94.136719 30.359375 94.167969 30.332031 94.203125 30.308594 C 94.238281 30.273438 94.285156 30.246094 94.332031 30.230469 C 94.371094 30.203125 94.410156 30.1875 94.453125 30.179688 L 94.789062 30.179688 L 101.867188 31.554688 C 101.878906 31.550781 101.886719 31.542969 101.894531 31.53125 C 101.898438 31.523438 101.902344 31.511719 101.902344 31.5 C 101.902344 31.488281 101.898438 31.476562 101.894531 31.464844 C 101.886719 31.457031 101.878906 31.449219 101.867188 31.441406 L 91.90625 26.382812 C 91.703125 26.332031 91.492188 26.351562 91.300781 26.4375 C 91.109375 26.519531 90.953125 26.667969 90.855469 26.847656 Z M 90.855469 26.847656 "/>
<path style=" stroke:none;fill-rule:nonzero;fill:rgb(11.372549%,11.372549%,10.588235%);fill-opacity:1;" d="M 85.644531 54.617188 L 85.867188 54.617188 C 86.246094 54.605469 86.617188 54.503906 86.949219 54.324219 L 87.183594 54.191406 L 87.476562 53.828125 L 87.777344 53.371094 L 87.921875 53.21875 L 95.335938 31.726562 L 101.402344 32.910156 L 101.5625 33.03125 L 103.222656 32.949219 L 103.566406 31.835938 C 103.648438 31.511719 103.628906 31.171875 103.507812 30.859375 C 103.386719 30.546875 103.171875 30.28125 102.890625 30.097656 L 102.757812 30.027344 L 92.796875 24.964844 C 92.492188 24.820312 92.160156 24.738281 91.824219 24.726562 C 91.484375 24.714844 91.148438 24.773438 90.835938 24.894531 C 90.523438 25.019531 90.234375 25.207031 89.996094 25.445312 C 89.757812 25.683594 89.570312 25.96875 89.449219 26.28125 L 84.59375 39.074219 L 79.605469 51.933594 C 79.484375 52.222656 79.4375 52.539062 79.464844 52.851562 C 79.492188 53.167969 79.59375 53.46875 79.765625 53.730469 C 79.933594 53.996094 80.167969 54.214844 80.441406 54.367188 C 80.714844 54.523438 81.023438 54.609375 81.335938 54.617188 Z M 92.695312 30.078125 L 85.28125 51.582031 L 83.027344 51.582031 L 87.414062 40.1875 L 92.046875 27.980469 L 93.746094 28.84375 C 93.65625 28.886719 93.570312 28.941406 93.492188 29.003906 L 93.300781 29.144531 L 93.078125 29.238281 L 92.824219 29.761719 C 92.777344 29.867188 92.730469 29.96875 92.695312 30.078125 Z M 92.695312 30.078125 "/>
<path style=" stroke:none;fill-rule:nonzero;fill:rgb(11.372549%,11.372549%,10.588235%);fill-opacity:1;" d="M 86.210938 54.515625 C 86.449219 54.515625 86.683594 54.460938 86.898438 54.351562 C 87.339844 54.140625 87.695312 53.78125 87.910156 53.339844 C 88.011719 53.011719 88.011719 52.660156 87.902344 52.332031 C 87.796875 52.007812 87.589844 51.71875 87.3125 51.515625 C 87.035156 51.3125 86.699219 51.203125 86.355469 51.199219 C 86.011719 51.195312 85.675781 51.296875 85.390625 51.496094 C 85.109375 51.691406 84.898438 51.972656 84.78125 52.296875 C 84.667969 52.625 84.65625 52.976562 84.753906 53.304688 C 84.847656 53.636719 85.046875 53.929688 85.316406 54.144531 C 85.585938 54.355469 85.917969 54.480469 86.261719 54.496094 Z M 86.210938 54.515625 "/>
<path style=" stroke:none;fill-rule:nonzero;fill:rgb(20.784314%,65.490196%,100%);fill-opacity:1;" d="M 56.832031 115.441406 L 51.003906 123.277344 L 34.570312 145.386719 C 33.492188 146.832031 33.023438 148.640625 33.265625 150.425781 C 33.507812 152.214844 34.441406 153.832031 35.863281 154.9375 L 49.183594 165.300781 C 50.40625 166.25 51.949219 166.683594 53.484375 166.507812 C 55.019531 166.328125 56.425781 165.554688 57.398438 164.347656 C 63.554688 156.710938 75.664062 140.628906 80.222656 126.847656 L 91.347656 163.359375 C 91.464844 163.730469 91.652344 164.074219 91.902344 164.375 C 92.152344 164.671875 92.460938 164.914062 92.808594 165.089844 C 93.15625 165.265625 93.535156 165.371094 93.925781 165.398438 C 94.3125 165.421875 94.703125 165.367188 95.070312 165.238281 L 110.980469 159.613281 L 112.292969 159.148438 C 112.839844 158.957031 113.316406 158.609375 113.660156 158.144531 C 114.003906 157.679688 114.203125 157.125 114.226562 156.546875 C 114.703125 145.933594 110.757812 133.808594 105.984375 123.277344 C 101.757812 114.023438 96.738281 105.15625 90.972656 96.773438 C 84.601562 87.199219 58.105469 78.324219 49.082031 75.308594 L 49.195312 75.554688 C 49.195312 75.554688 37.625 74.269531 32.476562 81.980469 C 27.90625 88.851562 29.523438 106.742188 21.796875 111.515625 C 24.105469 112.449219 26.550781 113.003906 29.039062 113.15625 C 34.726562 113.628906 40.4375 113.726562 46.140625 113.449219 C 49.820312 113.308594 53.128906 113.105469 55.453125 112.933594 C 55.753906 112.914062 56.054688 112.980469 56.316406 113.125 C 56.582031 113.269531 56.796875 113.484375 56.941406 113.75 C 57.085938 114.011719 57.152344 114.3125 57.132812 114.613281 C 57.113281 114.914062 57.007812 115.199219 56.832031 115.441406 Z M 56.832031 115.441406 "/>
<path style=" stroke:none;fill-rule:nonzero;fill:rgb(11.372549%,11.372549%,10.588235%);fill-opacity:1;" d="M 52.796875 168.054688 C 53.90625 168.054688 55 167.808594 56.003906 167.332031 C 57.003906 166.855469 57.886719 166.15625 58.582031 165.289062 C 64.558594 157.882812 74.761719 144.261719 80.070312 131.542969 L 89.933594 163.804688 C 90.207031 164.707031 90.761719 165.5 91.519531 166.066406 C 92.277344 166.628906 93.195312 166.9375 94.140625 166.941406 C 94.640625 166.9375 95.136719 166.851562 95.605469 166.6875 L 112.800781 160.617188 C 113.632812 160.328125 114.363281 159.796875 114.886719 159.089844 C 115.414062 158.382812 115.710938 157.53125 115.742188 156.648438 C 116.15625 147.308594 113.347656 135.875 107.367188 122.6875 C 103.085938 113.347656 98.011719 104.394531 92.199219 95.921875 C 86.292969 86.9375 65.054688 79.035156 49.570312 73.84375 L 46.230469 72.738281 L 46.789062 73.933594 C 42.824219 73.996094 35.296875 74.945312 31.210938 81.109375 C 29.191406 84.207031 28.308594 88.992188 27.410156 94.070312 C 26.207031 100.789062 24.972656 107.742188 20.996094 110.203125 L 18.660156 111.648438 L 21.128906 112.851562 C 23.597656 113.878906 26.21875 114.484375 28.886719 114.644531 C 34.640625 115.128906 40.421875 115.230469 46.191406 114.949219 C 50.449219 114.777344 53.898438 114.542969 55.566406 114.421875 L 56.832031 115.433594 L 55.617188 114.523438 L 33.367188 144.464844 C 32.050781 146.226562 31.480469 148.4375 31.773438 150.617188 C 32.070312 152.796875 33.207031 154.773438 34.945312 156.121094 L 48.265625 166.484375 C 49.558594 167.496094 51.152344 168.046875 52.796875 168.054688 Z M 80.285156 121.847656 L 78.789062 126.363281 C 74.175781 140.234375 61.460938 156.882812 56.214844 163.386719 C 55.492188 164.273438 54.457031 164.839844 53.324219 164.972656 C 52.191406 165.105469 51.050781 164.789062 50.144531 164.097656 L 36.796875 153.785156 C 35.6875 152.921875 34.960938 151.660156 34.773438 150.265625 C 34.582031 148.875 34.945312 147.464844 35.785156 146.335938 L 58.035156 116.394531 C 58.386719 115.917969 58.59375 115.351562 58.632812 114.761719 C 58.671875 114.171875 58.542969 113.582031 58.257812 113.0625 C 57.972656 112.542969 57.542969 112.117188 57.023438 111.835938 C 56.503906 111.550781 55.914062 111.425781 55.324219 111.464844 C 53.664062 111.585938 50.265625 111.820312 46.058594 111.980469 C 40.433594 112.261719 34.792969 112.164062 29.179688 111.6875 C 27.699219 111.558594 26.230469 111.324219 24.78125 110.992188 C 28.136719 107.226562 29.269531 100.871094 30.375 94.667969 C 31.210938 89.921875 32.011719 85.429688 33.722656 82.871094 C 38.28125 76.027344 48.890625 77.089844 49.011719 77.113281 L 49.75 77.191406 C 59.398438 80.421875 83.84375 88.878906 89.691406 97.664062 C 95.414062 105.984375 100.40625 114.789062 104.609375 123.972656 C 110.394531 136.734375 113.113281 147.691406 112.699219 156.558594 C 112.6875 156.832031 112.59375 157.09375 112.433594 157.316406 C 112.269531 157.535156 112.046875 157.703125 111.789062 157.792969 L 94.59375 163.863281 C 94.449219 163.917969 94.296875 163.945312 94.140625 163.945312 C 93.84375 163.941406 93.554688 163.839844 93.320312 163.65625 C 93.082031 163.472656 92.914062 163.21875 92.835938 162.933594 Z M 80.285156 121.847656 "/>
<path style=" stroke:none;fill-rule:nonzero;fill:rgb(11.372549%,11.372549%,10.588235%);fill-opacity:1;" d="M 80.222656 128.355469 C 80.558594 128.359375 80.886719 128.25 81.152344 128.042969 C 81.417969 127.835938 81.609375 127.546875 81.691406 127.222656 C 82.113281 125.945312 82.449219 124.761719 82.703125 123.617188 C 83.09375 122.019531 83.351562 120.386719 83.46875 118.742188 C 84.804688 98.613281 57.984375 86.867188 56.839844 86.359375 C 56.65625 86.28125 56.460938 86.238281 56.261719 86.238281 C 56.0625 86.234375 55.863281 86.273438 55.679688 86.347656 C 55.492188 86.421875 55.324219 86.53125 55.183594 86.671875 C 55.039062 86.808594 54.925781 86.976562 54.847656 87.160156 C 54.769531 87.34375 54.726562 87.539062 54.726562 87.738281 C 54.722656 87.9375 54.761719 88.136719 54.835938 88.320312 C 54.910156 88.507812 55.019531 88.675781 55.160156 88.816406 C 55.296875 88.960938 55.464844 89.074219 55.648438 89.152344 C 55.910156 89.265625 81.640625 100.539062 80.4375 118.5 C 80.332031 119.976562 80.101562 121.441406 79.75 122.878906 C 79.496094 123.964844 79.171875 125.085938 78.738281 126.3125 L 78.65625 126.542969 L 78.65625 126.796875 C 78.652344 127.003906 78.6875 127.210938 78.765625 127.402344 C 78.839844 127.59375 78.957031 127.769531 79.101562 127.914062 C 79.25 128.0625 79.425781 128.175781 79.617188 128.25 C 79.8125 128.328125 80.015625 128.363281 80.222656 128.355469 Z M 80.222656 128.355469 "/>
<path style=" stroke:none;fill-rule:nonzero;fill:rgb(100%,23.529412%,21.960784%);fill-opacity:1;" d="M 3.824219 100.761719 C 3.90625 97.046875 4.300781 92.308594 4.371094 91.429688 C 5.382812 78.273438 3.753906 40.957031 20.550781 36.785156 C 25.378906 35.871094 30.328125 35.785156 35.1875 36.535156 C 37.070312 36.792969 38.925781 37.226562 40.730469 37.828125 L 43.652344 38.839844 C 45.613281 39.539062 47.515625 40.226562 49.273438 40.863281 L 49.445312 40.925781 C 56.328125 43.339844 62.664062 47.089844 68.085938 51.964844 C 71.847656 55.40625 73.144531 58.035156 75.167969 60.0625 C 78.121094 63.015625 82.246094 63.996094 84.359375 61.679688 C 84.554688 61.449219 84.828125 61.289062 85.125 61.238281 C 85.425781 61.183594 85.734375 61.238281 86 61.386719 L 86.828125 61.882812 L 94.128906 66.203125 L 96.292969 67.488281 C 96.929688 67.863281 97.375 68.855469 96.789062 69.320312 C 89.324219 75.238281 84.269531 88.394531 74.15625 84.347656 C 75.316406 84.851562 78.878906 86.371094 80.121094 86.824219 C 80.1875 86.859375 80.238281 86.914062 80.265625 86.980469 C 80.296875 87.042969 80.304688 87.117188 80.292969 87.1875 C 80.277344 87.257812 80.238281 87.324219 80.183594 87.371094 C 80.128906 87.417969 80.0625 87.449219 79.992188 87.453125 L 79.089844 87.515625 C 75.367188 87.765625 67.359375 88.382812 59.710938 89.476562 C 53.21875 90.40625 46.96875 91.683594 43.835938 93.363281 C 37.90625 96.550781 32.164062 108.125 25.335938 112.589844 C 25.023438 112.792969 24.699219 112.984375 24.375 113.167969 C 23.1875 113.84375 21.863281 114.25 20.5 114.359375 C 19.683594 114.410156 18.859375 114.332031 18.0625 114.128906 C 17.820312 114.066406 17.597656 113.941406 17.417969 113.761719 C 17.238281 113.582031 17.113281 113.359375 17.054688 113.117188 C 17.03125 112.980469 17.03125 112.84375 17.054688 112.710938 L 17.539062 104.515625 L 15.210938 104.515625 C 12.085938 104.515625 6.6875 104.605469 4.421875 104.515625 C 4.082031 104.527344 3.742188 104.503906 3.410156 104.441406 C 2.84375 103.058594 3.785156 102.367188 3.824219 100.761719 Z M 3.824219 100.761719 "/>
<path style=" stroke:none;fill-rule:nonzero;fill:rgb(11.372549%,11.372549%,10.588235%);fill-opacity:1;" d="M 20.007812 115.910156 C 20.203125 115.917969 20.398438 115.917969 20.59375 115.910156 C 22.171875 115.789062 23.707031 115.324219 25.082031 114.542969 C 25.460938 114.328125 25.816406 114.113281 26.144531 113.90625 C 29.746094 111.535156 32.941406 107.480469 36.027344 103.554688 C 39.109375 99.625 41.832031 96.175781 44.542969 94.71875 C 46.300781 93.777344 50.398438 92.359375 59.914062 90.996094 C 67.367188 89.914062 75.167969 89.292969 79.210938 89.023438 L 80.132812 88.960938 C 80.476562 88.941406 80.804688 88.828125 81.085938 88.628906 C 81.367188 88.433594 81.589844 88.164062 81.726562 87.847656 C 81.859375 87.535156 81.90625 87.1875 81.859375 86.847656 C 81.808594 86.507812 81.667969 86.1875 81.449219 85.925781 C 85.492188 84.40625 88.6875 80.53125 91.652344 76.949219 C 93.460938 74.597656 95.492188 72.429688 97.71875 70.472656 C 98.011719 70.246094 98.238281 69.945312 98.386719 69.609375 C 98.53125 69.269531 98.59375 68.898438 98.558594 68.53125 C 98.515625 68.042969 98.355469 67.570312 98.09375 67.15625 C 97.832031 66.738281 97.476562 66.394531 97.050781 66.140625 L 86.765625 60.070312 C 86.199219 59.753906 85.542969 59.644531 84.902344 59.757812 C 84.265625 59.871094 83.683594 60.199219 83.257812 60.6875 C 83.011719 60.949219 82.714844 61.15625 82.386719 61.296875 C 82.058594 61.433594 81.703125 61.503906 81.347656 61.496094 C 79.40625 61.367188 77.589844 60.484375 76.289062 59.039062 C 75.527344 58.222656 74.8125 57.359375 74.15625 56.457031 C 72.65625 54.425781 70.960938 52.542969 69.097656 50.84375 C 63.535156 45.832031 57.03125 41.980469 49.964844 39.519531 L 49.296875 40.894531 L 49.882812 39.4375 C 48.070312 38.769531 46.171875 38.082031 44.199219 37.414062 C 43.1875 37.070312 42.246094 36.726562 41.253906 36.402344 C 39.367188 35.761719 37.425781 35.304688 35.449219 35.035156 C 30.121094 34.265625 24 34.378906 20.230469 35.320312 C 4.875 39.132812 3.855469 67.164062 3.246094 83.890625 C 3.136719 86.816406 3.046875 89.335938 2.894531 91.296875 L 2.894531 91.421875 C 2.507812 96.113281 2.386719 99.070312 2.347656 100.710938 C 2.324219 101.117188 2.234375 101.523438 2.085938 101.902344 C 1.667969 102.90625 1.625 104.027344 1.964844 105.0625 C 2.308594 106.074219 3.289062 106.144531 4.410156 106.164062 C 7.109375 106.222656 13.917969 106.164062 15.253906 106.164062 L 15.949219 106.164062 L 15.554688 112.730469 C 15.535156 113.386719 15.734375 114.027344 16.121094 114.558594 C 16.507812 115.085938 17.058594 115.46875 17.691406 115.644531 C 18.449219 115.828125 19.226562 115.917969 20.007812 115.910156 Z M 74.875 86.300781 C 70.625 86.644531 64.960938 87.191406 59.488281 87.96875 C 51.492188 89.113281 45.988281 90.480469 43.105469 92.015625 C 39.839844 93.777344 36.824219 97.613281 33.640625 101.660156 C 30.707031 105.394531 27.671875 109.25 24.539062 111.335938 C 24.253906 111.515625 23.960938 111.6875 23.667969 111.859375 C 22.679688 112.429688 21.578125 112.777344 20.441406 112.871094 C 19.824219 112.914062 19.203125 112.859375 18.601562 112.710938 L 19.167969 103.058594 L 15.210938 103.058594 C 13.949219 103.058594 7.757812 103.148438 4.875 103.058594 C 4.902344 102.96875 4.929688 102.878906 4.96875 102.792969 C 5.210938 102.125 5.351562 101.421875 5.382812 100.710938 C 5.382812 99.101562 5.535156 96.214844 5.90625 91.601562 L 5.90625 91.480469 C 6.058594 89.457031 6.152344 86.898438 6.261719 83.941406 C 6.839844 68.042969 7.800781 41.441406 20.9375 38.183594 C 24.316406 37.34375 30.039062 37.25 34.984375 37.960938 C 36.777344 38.203125 38.539062 38.613281 40.253906 39.183594 C 41.265625 39.519531 42.207031 39.863281 43.15625 40.195312 L 48.769531 42.21875 L 48.960938 42.289062 C 55.65625 44.648438 61.8125 48.316406 67.074219 53.078125 C 68.789062 54.667969 70.347656 56.414062 71.726562 58.300781 C 72.457031 59.292969 73.25 60.242188 74.105469 61.132812 C 76.015625 63.152344 78.640625 64.351562 81.417969 64.472656 C 82.160156 64.476562 82.894531 64.328125 83.582031 64.039062 C 84.265625 63.75 84.886719 63.328125 85.402344 62.792969 L 95.253906 68.621094 C 93.101562 70.59375 91.121094 72.742188 89.324219 75.046875 C 84.746094 80.570312 80.789062 85.347656 74.761719 82.929688 L 73.589844 85.734375 C 73.863281 85.875 74.328125 86.078125 74.875 86.300781 Z M 74.875 86.300781 "/>
<path style=" stroke:none;fill-rule:nonzero;fill:rgb(100%,23.529412%,21.960784%);fill-opacity:1;" d="M 17.519531 107.621094 C 19.539062 91.429688 17.519531 83.335938 23.585938 61.074219 Z M 17.519531 107.621094 "/>
<path style=" stroke:none;fill-rule:nonzero;fill:rgb(11.372549%,11.372549%,10.588235%);fill-opacity:1;" d="M 17.519531 109.140625 C 17.890625 109.136719 18.246094 109 18.523438 108.753906 C 18.800781 108.507812 18.980469 108.171875 19.027344 107.804688 C 19.703125 102.398438 19.925781 97.875 20.148438 93.503906 C 20.445312 82.664062 22.089844 71.898438 25.054688 61.46875 C 25.160156 61.078125 25.105469 60.664062 24.90625 60.3125 C 24.707031 59.960938 24.375 59.707031 23.988281 59.601562 C 23.597656 59.492188 23.183594 59.546875 22.832031 59.746094 C 22.484375 59.949219 22.226562 60.277344 22.121094 60.667969 C 19.097656 71.3125 17.417969 82.292969 17.125 93.351562 C 16.902344 97.671875 16.679688 102.136719 16.011719 107.429688 C 15.964844 107.828125 16.074219 108.226562 16.320312 108.546875 C 16.566406 108.863281 16.929688 109.066406 17.328125 109.117188 Z M 17.519531 109.140625 "/>
<path style=" stroke:none;fill-rule:nonzero;fill:rgb(100%,23.529412%,21.960784%);fill-opacity:1;" d="M 76.179688 85.359375 C 76.179688 85.359375 63.03125 78.273438 59.996094 63.097656 Z M 76.179688 85.359375 "/>
<path style=" stroke:none;fill-rule:nonzero;fill:rgb(11.372549%,11.372549%,10.588235%);fill-opacity:1;" d="M 76.179688 86.875 C 76.515625 86.875 76.84375 86.761719 77.109375 86.554688 C 77.375 86.347656 77.5625 86.054688 77.648438 85.730469 C 77.730469 85.402344 77.699219 85.054688 77.5625 84.746094 C 77.429688 84.4375 77.191406 84.183594 76.894531 84.023438 C 76.695312 83.910156 64.324219 77.011719 61.484375 62.773438 C 61.394531 62.386719 61.15625 62.054688 60.828125 61.839844 C 60.496094 61.625 60.09375 61.550781 59.707031 61.628906 C 59.320312 61.707031 58.980469 61.929688 58.753906 62.253906 C 58.53125 62.582031 58.445312 62.980469 58.507812 63.371094 C 61.644531 79.0625 74.894531 86.371094 75.460938 86.644531 C 75.675781 86.78125 75.921875 86.859375 76.179688 86.875 Z M 76.179688 86.875 "/>
</g>
</svg>
</svg>