<svg width="281" height="41" viewBox="0 0 281 41" fill="none" xmlns="http://www.w3.org/2000/svg">
<path d="M3.12295 40.4184C2.19763 40.4184 1.43755 40.1036 0.842701 39.474C0.2809 38.8073 0 37.9925 0 37.0296V4.91844C0 3.95548 0.2809 3.15918 0.842701 2.52955C1.43755 1.86289 2.16458 1.52955 3.02381 1.52955H19.1343C19.9935 1.52955 20.704 1.84437 21.2658 2.474C21.8606 3.06659 22.1581 3.84437 22.1581 4.80733C22.1581 5.62215 21.8606 6.34437 21.2658 6.974C20.704 7.60363 19.9935 7.91844 19.1343 7.91844H5.75019L6.19633 7.25178V18.4184L5.84933 17.6962H16.9036C17.7628 17.6962 18.4733 18.011 19.0351 18.6407C19.63 19.2333 19.9274 20.011 19.9274 20.974C19.9274 21.7888 19.63 22.511 19.0351 23.1407C18.4733 23.7703 17.7628 24.0851 16.9036 24.0851H5.75019L6.19633 23.5851V37.0296C6.19633 37.9925 5.88238 38.8073 5.25449 39.474C4.65964 40.1036 3.94913 40.4184 3.12295 40.4184Z" fill="#F4F7FB"/>
<path d="M34.0314 37.0296C34.0314 37.9925 33.7175 38.8073 33.0896 39.474C32.4617 40.1036 31.7346 40.4184 30.9084 40.4184C29.9831 40.4184 29.2396 40.1036 28.6778 39.474C28.116 38.8073 27.8351 37.9925 27.8351 37.0296V4.91844C27.8351 3.95548 28.1325 3.15918 28.7273 2.52955C29.3222 1.86289 30.0823 1.52955 31.0076 1.52955C31.8007 1.52955 32.4947 1.86289 33.0896 2.52955C33.7175 3.15918 34.0314 3.95548 34.0314 4.91844V37.0296Z" fill="#F4F7FB"/>
<path d="M53.2346 40.4184C52.3093 40.4184 51.5492 40.1036 50.9543 39.474C50.3595 38.8073 50.0621 37.9925 50.0621 37.0296V4.80733H56.5063V37.0296C56.5063 37.9925 56.1923 38.8073 55.5644 39.474C54.9696 40.1036 54.193 40.4184 53.2346 40.4184ZM42.2795 7.91844C41.4203 7.91844 40.6932 7.62215 40.0984 7.02956C39.5366 6.43696 39.2557 5.65918 39.2557 4.69622C39.2557 3.73326 39.5366 2.974 40.0984 2.41844C40.6932 1.82585 41.4203 1.52955 42.2795 1.52955H64.2888C65.1481 1.52955 65.8586 1.82585 66.4204 2.41844C67.0152 3.01104 67.3127 3.78881 67.3127 4.75178C67.3127 5.71474 67.0152 6.49252 66.4204 7.08511C65.8586 7.64067 65.1481 7.91844 64.2888 7.91844H42.2795Z" fill="#F4F7FB"/>
<path d="M89.5327 40.4184C88.6074 40.4184 87.8473 40.1036 87.2524 39.474C86.6906 38.8073 86.4097 37.9925 86.4097 37.0296V4.91844C86.4097 3.95548 86.6906 3.15918 87.2524 2.52955C87.8473 1.86289 88.5743 1.52955 89.4335 1.52955H105.544C106.403 1.52955 107.114 1.84437 107.676 2.474C108.27 3.06659 108.568 3.84437 108.568 4.80733C108.568 5.62215 108.27 6.34437 107.676 6.974C107.114 7.60363 106.403 7.91844 105.544 7.91844H92.1599L92.6061 7.25178V18.4184L92.2591 17.6962H103.313C104.173 17.6962 104.883 18.011 105.445 18.6407C106.04 19.2333 106.337 20.011 106.337 20.974C106.337 21.7888 106.04 22.511 105.445 23.1407C104.883 23.7703 104.173 24.0851 103.313 24.0851H92.1599L92.6061 23.5851V37.0296C92.6061 37.9925 92.2921 38.8073 91.6642 39.474C91.0694 40.1036 90.3589 40.4184 89.5327 40.4184Z" fill="#F4F7FB"/>
<path d="M145.733 20.974C145.733 23.7518 145.32 26.3444 144.493 28.7518C143.667 31.1592 142.494 33.2888 140.974 35.1407C139.487 36.9555 137.702 38.3814 135.62 39.4184C133.571 40.4555 131.324 40.974 128.879 40.974C126.433 40.974 124.186 40.4555 122.137 39.4184C120.088 38.3814 118.304 36.9555 116.783 35.1407C115.296 33.2888 114.14 31.1592 113.313 28.7518C112.487 26.3444 112.074 23.7518 112.074 20.974C112.074 18.1962 112.487 15.6036 113.313 13.1962C114.14 10.7888 115.296 8.6777 116.783 6.86289C118.304 5.01104 120.088 3.56659 122.137 2.52955C124.186 1.49252 126.433 0.973999 128.879 0.973999C131.324 0.973999 133.571 1.49252 135.62 2.52955C137.702 3.56659 139.487 5.01104 140.974 6.86289C142.494 8.6777 143.667 10.7888 144.493 13.1962C145.32 15.6036 145.733 18.1962 145.733 20.974ZM139.288 20.974C139.288 18.4925 138.842 16.2518 137.95 14.2518C137.058 12.2147 135.835 10.6036 134.282 9.41844C132.729 8.23326 130.928 7.64067 128.879 7.64067C126.83 7.64067 125.029 8.23326 123.475 9.41844C121.922 10.6036 120.699 12.1962 119.807 14.1962C118.948 16.1962 118.518 18.4555 118.518 20.974C118.518 23.4555 118.948 25.7147 119.807 27.7518C120.699 29.7518 121.922 31.3444 123.475 32.5296C125.029 33.7147 126.83 34.3073 128.879 34.3073C130.928 34.3073 132.729 33.7147 134.282 32.5296C135.835 31.3444 137.058 29.7518 137.95 27.7518C138.842 25.7147 139.288 23.4555 139.288 20.974Z" fill="#F4F7FB"/>
<path d="M154.992 40.4184C154.067 40.4184 153.24 40.1036 152.513 39.474C151.786 38.8073 151.423 37.9925 151.423 37.0296V4.91844C151.423 3.95548 151.704 3.15918 152.265 2.52955C152.86 1.86289 153.587 1.52955 154.447 1.52955H168.723C170.441 1.52955 172.044 2.04807 173.531 3.08511C175.051 4.08511 176.274 5.49252 177.2 7.30733C178.125 9.08511 178.587 11.1407 178.587 13.474C178.587 14.8814 178.323 16.2518 177.794 17.5851C177.299 18.9184 176.605 20.1221 175.712 21.1962C174.853 22.2703 173.878 23.1036 172.788 23.6962L172.837 22.4184C173.763 22.974 174.523 23.6407 175.118 24.4184C175.745 25.1592 176.225 25.974 176.555 26.8629C176.919 27.7147 177.133 28.6407 177.2 29.6407C177.332 30.5666 177.414 31.3814 177.447 32.0851C177.513 32.7888 177.613 33.3814 177.745 33.8629C177.91 34.3444 178.207 34.7147 178.637 34.974C179.364 35.4555 179.81 36.1592 179.975 37.0851C180.174 37.974 179.992 38.7703 179.43 39.474C179.067 39.9555 178.604 40.2703 178.042 40.4184C177.48 40.5296 176.919 40.5296 176.357 40.4184C175.795 40.2703 175.332 40.0851 174.969 39.8629C174.407 39.4925 173.845 38.9555 173.283 38.2518C172.722 37.511 172.259 36.5296 171.895 35.3073C171.565 34.0851 171.4 32.511 171.4 30.5851C171.4 29.9555 171.301 29.3814 171.102 28.8629C170.904 28.3073 170.623 27.8444 170.26 27.474C169.896 27.0666 169.433 26.7703 168.872 26.5851C168.31 26.3629 167.649 26.2518 166.889 26.2518H156.876L157.619 24.974V37.0296C157.619 37.9925 157.388 38.8073 156.925 39.474C156.462 40.1036 155.818 40.4184 154.992 40.4184ZM156.925 20.5296H168.475C169.07 20.5296 169.648 20.2333 170.21 19.6407C170.772 19.011 171.234 18.1777 171.598 17.1407C171.962 16.0666 172.143 14.8999 172.143 13.6407C172.143 12.011 171.747 10.6592 170.954 9.58511C170.194 8.474 169.367 7.91844 168.475 7.91844H157.024L157.619 6.14067V21.8629L156.925 20.5296Z" fill="#F4F7FB"/>
<path d="M212.087 10.2518L201.38 38.474C201.149 39.1777 200.785 39.7333 200.289 40.1407C199.827 40.511 199.314 40.6962 198.753 40.6962C197.86 40.6962 197.199 40.4184 196.77 39.8629C196.34 39.3073 196.125 38.6222 196.125 37.8073C196.125 37.474 196.175 37.1222 196.274 36.7518L208.617 3.52955C208.882 2.78881 209.278 2.21474 209.807 1.80733C210.369 1.39992 210.964 1.23326 211.591 1.30733C212.186 1.30733 212.732 1.51104 213.227 1.91844C213.756 2.28881 214.136 2.82585 214.367 3.52955L226.562 36.0851C226.727 36.5666 226.81 37.011 226.81 37.4184C226.81 38.4184 226.512 39.2147 225.917 39.8073C225.356 40.3999 224.728 40.6962 224.034 40.6962C223.439 40.6962 222.894 40.4925 222.398 40.0851C221.935 39.6777 221.572 39.1221 221.307 38.4184L210.65 10.5851L212.087 10.2518ZM202.917 31.6962L205.643 25.3073H219.027L219.969 31.6962H202.917Z" fill="#F4F7FB"/>
<path d="M250.141 33.9184C251 33.9184 251.711 34.2333 252.273 34.8629C252.868 35.4555 253.165 36.2333 253.165 37.1962C253.165 38.1222 252.868 38.8999 252.273 39.5296C251.711 40.1221 251 40.4184 250.141 40.4184H234.031C233.171 40.4184 232.444 40.1036 231.85 39.474C231.288 38.8073 231.007 37.9925 231.007 37.0296V4.91844C231.007 3.95548 231.304 3.15918 231.899 2.52955C232.494 1.86289 233.254 1.52955 234.179 1.52955C234.973 1.52955 235.667 1.86289 236.261 2.52955C236.889 3.15918 237.203 3.95548 237.203 4.91844V34.8629L236.113 33.9184H250.141Z" fill="#F4F7FB"/>
<path d="M277.976 33.9184C278.835 33.9184 279.546 34.2333 280.108 34.8629C280.703 35.4555 281 36.2333 281 37.1962C281 38.1222 280.703 38.8999 280.108 39.5296C279.546 40.1221 278.835 40.4184 277.976 40.4184H261.866C261.007 40.4184 260.279 40.1036 259.685 39.474C259.123 38.8073 258.842 37.9925 258.842 37.0296V4.91844C258.842 3.95548 259.139 3.15918 259.734 2.52955C260.329 1.86289 261.089 1.52955 262.014 1.52955C262.808 1.52955 263.502 1.86289 264.096 2.52955C264.724 3.15918 265.038 3.95548 265.038 4.91844V34.8629L263.948 33.9184H277.976Z" fill="#F4F7FB"/>
</svg>
