<svg width="38" height="9" viewBox="0 0 38 9" fill="none" xmlns="http://www.w3.org/2000/svg">
<path fill-rule="evenodd" clip-rule="evenodd" d="M1.87734 8.50616H0V0H1.87734V8.50616ZM6.56461 0H4.72799C4.72799 1.56535 4.03589 3.0021 2.8292 3.94206L2.10156 4.50872L4.92093 8.50651H7.23898L4.64479 4.82793C5.87448 3.5546 6.56461 1.84152 6.56461 0ZM9.55808 8.50417H7.78516V0.00195312H9.55808V8.50417ZM14.9149 2.62155V2.99777C14.4365 2.65842 13.8591 2.45898 13.2363 2.45898C11.5881 2.45898 10.252 3.8484 10.252 5.56234C10.252 7.27628 11.5881 8.66569 13.2363 8.66569C13.8591 8.66569 14.4365 8.46626 14.9149 8.12699V8.50287H16.6083V2.62155H14.9149ZM14.9106 5.56188C14.9106 6.39759 14.2236 7.0751 13.3761 7.0751C12.5288 7.0751 11.8418 6.39759 11.8418 5.56188C11.8418 4.72617 12.5288 4.04883 13.3761 4.04883C14.2236 4.04883 14.9106 4.72617 14.9106 5.56188ZM32.7802 2.99777V2.62155H34.4735V8.50287H32.7802V8.12699C32.3018 8.46626 31.7244 8.66569 31.1015 8.66569C29.4533 8.66569 28.1172 7.27628 28.1172 5.56234C28.1172 3.8484 29.4533 2.45898 31.1015 2.45898C31.7244 2.45898 32.3018 2.65842 32.7802 2.99777ZM31.2414 7.0751C32.0888 7.0751 32.7757 6.39759 32.7757 5.56188C32.7757 4.72617 32.0888 4.04883 31.2414 4.04883C30.3939 4.04883 29.707 4.72617 29.707 5.56188C29.707 6.39759 30.3939 7.0751 31.2414 7.0751ZM25.1084 2.46484C24.432 2.46484 23.7918 2.68322 23.3638 3.28572V2.62338H21.6777V8.50436H23.3845V5.41369C23.3845 4.51934 23.9612 4.08138 24.6557 4.08138C25.3999 4.08138 25.8277 4.54369 25.8277 5.40152V8.50436H27.519V4.7643C27.519 3.39564 26.4726 2.46484 25.1084 2.46484ZM19.2279 2.62305V3.38905C19.5673 2.92957 20.1998 2.62339 20.8875 2.62339V4.33476L20.878 4.33437L20.8739 4.33416L20.8673 4.33398C20.1973 4.33398 19.2317 4.83196 19.2317 5.75838V8.50428H17.4941V2.62305H19.2279ZM35.209 7.52301C35.209 6.91267 35.6847 6.41797 36.2716 6.41797C36.8584 6.41797 37.3342 6.91267 37.3342 7.52301C37.3342 8.13318 36.8584 8.62797 36.2716 8.62797C35.6847 8.62797 35.209 8.13318 35.209 7.52301Z" fill="#17120F"/>
</svg>
