<svg width="159" height="152" viewBox="0 0 159 152" fill="none" xmlns="http://www.w3.org/2000/svg">
<path d="M9.20555 150.908L50.6691 150.464C51.175 150.455 51.6676 150.299 52.087 150.014C52.5064 149.728 52.8344 149.326 53.0312 148.856L52.5824 142.902H20.4297C20.0124 140.314 18.6502 134.761 13.8314 132.506C0.052227 138.762 -4.33349 151.043 9.20555 150.908Z" fill="white" stroke="black" stroke-width="2" stroke-miterlimit="10" stroke-linecap="round"/>
<path d="M14.4335 132.812C18.7641 135.234 20.016 140.414 20.4136 142.883H52.5664L51.9247 134.404C51.8249 133.861 51.5477 133.368 51.1373 133.003C50.6335 132.56 50.0435 132.229 49.4051 132.03C47.5232 131.391 44.4524 131.181 39.7085 131.733H39.547C36.7243 132.066 35.059 131.911 34.0984 131.538C33.8245 131.44 33.5709 131.292 33.3503 131.101C32.5988 130.386 31.7117 129.832 30.7422 129.471C29.7727 129.11 28.7409 128.95 27.7087 129.002L27.0001 129.057C22.677 129.424 18.4392 130.481 14.4453 132.189C14.3864 132.216 14.3363 132.259 14.3007 132.314C14.2652 132.368 14.2457 132.432 14.2444 132.497C14.2432 132.562 14.2603 132.626 14.2938 132.682C14.3272 132.738 14.3756 132.783 14.4335 132.812Z" fill="black" stroke="black" stroke-width="2" stroke-miterlimit="10" stroke-linecap="round"/>
<path d="M27.9685 127.127L28.6811 127.06C30.7637 126.889 32.7558 127.822 34.3463 129.442C34.565 129.652 34.8198 129.82 35.0982 129.938L46.3735 129.874C51.5309 129.823 52.2159 130.545 52.2159 130.545C52.2159 129.073 106.246 67.8755 106.246 67.8755L101.746 59.7461C96.9038 64.1363 80.5814 69.0227 80.1798 69.1418L74.5382 73.0636C62.3338 81.5145 27.9685 127.127 27.9685 127.127Z" fill="white" stroke="black" stroke-width="2" stroke-miterlimit="10" stroke-linecap="round"/>
<path d="M98.7467 77.8943C98.8451 78.5453 98.975 79.2003 99.1404 79.8513L113.219 137.674L90.3847 138.417C87.9044 138.5 85.4005 135.435 84.7628 131.541C84.7628 131.541 80.2904 105.99 81.0857 103.89C81.0699 103.89 98.2664 74.8299 98.7467 77.8943Z" fill="#E03C38" stroke="black" stroke-width="2" stroke-miterlimit="10" stroke-linecap="round"/>
<path d="M47.6159 20.7942C48.2955 22.6389 49.3652 24.3124 50.7507 25.6984C52.1362 27.0844 53.8044 28.1497 55.6393 28.8204C55.6039 28.4234 55.5881 27.9868 55.5881 27.5621C55.5841 26.1548 55.7911 24.7549 56.2023 23.41C56.2566 23.2507 56.3526 23.109 56.4801 23C56.6075 22.8911 56.7618 22.8188 56.9267 22.7908C61.8557 21.8461 63.5761 18.7737 66.7689 14.1334C66.7929 14.0977 66.8273 14.0704 66.8675 14.0554C66.9076 14.0404 66.9514 14.0385 66.9926 14.0499C67.0339 14.0612 67.0706 14.0854 67.0976 14.1189C67.1245 14.1524 67.1404 14.1936 67.1429 14.2366C67.3077 16.1328 68.0267 17.937 69.209 19.4209C70.3913 20.9047 71.9836 22.0016 73.7845 22.5725C73.8507 22.5929 73.9216 22.5926 73.9876 22.5715C74.0537 22.5505 74.1119 22.5098 74.1545 22.4548C74.1971 22.3998 74.2222 22.333 74.2265 22.2633C74.2307 22.1936 74.2139 22.1242 74.1782 22.0644C73.7493 21.3021 73.5253 20.44 73.5286 19.5636C73.5286 18.8943 73.6594 18.2315 73.9134 17.6132C74.1674 16.9948 74.5398 16.4329 75.0092 15.9597C75.4786 15.4864 76.0358 15.111 76.6491 14.8548C77.2624 14.5987 77.9198 14.4669 78.5836 14.4669C79.2474 14.4669 79.9048 14.5987 80.5181 14.8548C81.1314 15.111 81.6886 15.4864 82.158 15.9597C82.6274 16.4329 82.9998 16.9948 83.2538 17.6132C83.5078 18.2315 83.6386 18.8943 83.6386 19.5636C83.6386 19.6867 83.6386 19.8097 83.6386 19.9368C83.6197 20.2174 83.5789 20.4962 83.5166 20.7703C83.4811 20.8934 83.4457 21.0085 83.4103 21.1236C83.3763 21.2491 83.3315 21.3713 83.2764 21.4888C83.1951 21.6876 83.1018 21.8812 82.9969 22.0684C82.9172 22.2041 82.8674 22.3556 82.8511 22.5124C82.8348 22.6693 82.8523 22.8279 82.9024 22.9774C83.0166 23.3068 83.1189 23.6403 83.2095 23.9816H85.8748C86.9919 21.6341 87.5258 19.0478 87.4306 16.4458C87.3353 13.8438 86.6138 11.3042 85.3281 9.04603C84.0424 6.78788 82.2313 4.87895 80.0508 3.48387C77.8703 2.08879 75.386 1.24944 72.8121 1.03822C68.9264 0.724629 64.9028 2.42752 63.8005 2.98721C63.6557 3.06112 63.4892 3.07946 63.332 3.03882C62.2429 2.76532 61.1238 2.63194 60.0014 2.64187C56.7337 2.70102 53.5993 3.95825 51.1842 6.17845C48.7692 8.39865 47.239 11.4298 46.8797 14.705C46.667 16.7647 46.9187 18.8463 47.6159 20.7942Z" fill="black" stroke="black" stroke-width="2" stroke-miterlimit="10" stroke-linecap="round"/>
<path d="M79.527 37.5769L87.4284 40.9549L89.6016 23.9775H83.1962C83.482 25.1078 83.6326 26.2685 83.645 27.4349V27.562C83.6469 29.4225 83.2841 31.2651 82.5774 32.9838C81.8706 34.7025 80.834 36.2634 79.527 37.5769Z" fill="white" stroke="black" stroke-width="2" stroke-miterlimit="10" stroke-linecap="round"/>
<path d="M87.4308 40.9549V46.0557L89.0568 45.0117C91.8515 43.1551 94.3916 40.9357 96.6117 38.4105C97.7592 37.15 99.175 36.168 100.753 35.5383C102.331 34.9086 104.029 34.6475 105.722 34.7747C107.414 34.9019 109.056 35.4141 110.523 36.2727C111.991 37.1313 113.247 38.3142 114.196 39.7323C115.146 41.1504 115.764 42.767 116.005 44.4606C116.246 46.1543 116.103 47.8809 115.587 49.5109C115.071 51.1409 114.196 52.6319 113.026 53.8718C111.857 55.1117 110.424 56.0684 108.836 56.67L110.568 59.266L115.989 67.3915L152.351 121.856C153.849 121.854 155.285 121.253 156.344 120.184C157.404 119.116 157.999 117.667 158 116.156C158.001 115.834 157.975 115.513 157.921 115.196C147.992 55.5427 121.347 28.5822 103.108 22.0961C99.0998 20.6711 94.6236 21.9095 90.9386 19.9486C90.8831 19.9127 90.8196 19.8914 90.7538 19.8867C90.688 19.882 90.6222 19.8941 90.5622 19.9217C90.5022 19.9494 90.4501 19.9918 90.4107 20.045C90.3712 20.0983 90.3456 20.1607 90.3363 20.2265L89.604 23.9776L87.4308 40.9549Z" fill="#35A7FF" stroke="black" stroke-width="2" stroke-miterlimit="10" stroke-linecap="round"/>
<path d="M38.0802 84.4044L38.4148 84.5473C44.0801 86.9488 49.6232 86.532 54.1428 85.2539C57.9514 84.1644 61.5364 82.398 64.7292 80.038L84.5633 68.6537C84.957 68.5068 97.8819 63.6879 108.827 56.6619C110.415 56.0604 111.848 55.1037 113.017 53.8638C114.186 52.6238 115.062 51.1329 115.578 49.5029C116.094 47.8729 116.237 46.1463 115.996 44.4526C115.755 42.759 115.136 41.1424 114.187 39.7243C113.238 38.3061 111.982 37.1233 110.514 36.2647C109.046 35.406 107.405 34.8939 105.712 34.7667C104.02 34.6395 102.321 34.9006 100.743 35.5303C99.1657 36.16 97.7499 37.142 96.6024 38.4025C94.3823 40.9276 91.8422 43.1471 89.0475 45.0037L87.4215 46.0476L74.4966 55.9713C71.6496 58.2268 68.9289 60.6399 66.3472 63.1996C64.737 64.7358 61.0875 66.4744 52.8948 65.3749C49.6961 64.9936 46.4534 65.4023 43.4462 66.5657C40.7267 67.5541 38.2401 69.1003 36.1432 71.1068C34.8558 72.306 33.844 73.7746 33.1788 75.4097C31.9229 78.7519 33.0488 82.1776 38.0802 84.4044Z" fill="white" stroke="black" stroke-width="2" stroke-miterlimit="10" stroke-linecap="round"/>
<path d="M84.575 68.6499C85.0592 68.5308 104.732 63.6444 110.559 59.2542L108.826 56.6582C97.8935 63.6841 84.9765 68.503 84.575 68.6499Z" fill="black" stroke="black" stroke-width="2" stroke-miterlimit="10" stroke-linecap="round"/>
<path d="M64.7303 80.0382L64.7383 80.0303" stroke="black" stroke-width="2" stroke-miterlimit="10" stroke-linecap="round"/>
<path d="M16.6313 150.908L58.0949 150.464C58.6008 150.455 59.0934 150.299 59.5128 150.014C59.9321 149.728 60.2602 149.326 60.457 148.856L60.0082 142.902H27.8555C27.4381 140.314 26.076 134.761 21.2572 132.506C7.48195 138.762 3.09229 151.043 16.6313 150.908Z" fill="white" stroke="black" stroke-width="2" stroke-miterlimit="10" stroke-linecap="round"/>
<path d="M21.8632 132.812C26.1938 135.234 27.4418 140.414 27.8394 142.883H59.9922L59.3505 134.404C59.2507 133.861 58.9735 133.368 58.5631 133.003C58.0593 132.56 57.4692 132.229 56.8308 132.03C54.949 131.391 51.8822 131.181 47.1382 131.733H46.9728C44.1501 132.066 42.4847 131.911 41.5241 131.538C41.2503 131.44 40.9967 131.292 40.7761 131.102C40.0272 130.393 39.1446 129.843 38.1809 129.485C37.2172 129.127 36.1919 128.968 35.166 129.018L34.4534 129.073C30.1304 129.44 25.8926 130.497 21.8986 132.205C21.8425 132.231 21.7944 132.272 21.7596 132.324C21.7248 132.376 21.7045 132.436 21.7009 132.498C21.6972 132.56 21.7104 132.622 21.739 132.678C21.7676 132.733 21.8105 132.78 21.8632 132.812Z" fill="black" stroke="black" stroke-width="2" stroke-miterlimit="10" stroke-linecap="round"/>
<path d="M99.0576 87.3333C99.0565 87.754 99.0828 88.1744 99.1363 88.5916L108.79 138.309H140.312C146.962 138.309 152.352 130.942 152.352 121.856L113.671 67.8711L100.68 81.9904C99.5955 83.5553 99.028 85.4247 99.0576 87.3333Z" fill="#FF3C38" stroke="black" stroke-width="2" stroke-miterlimit="10" stroke-linecap="round"/>
<path d="M13.9046 70.4639C13.8718 70.4954 13.8458 70.5333 13.828 70.5752C13.8101 70.6172 13.801 70.6624 13.801 70.708C13.801 70.7537 13.8101 70.7988 13.828 70.8408C13.8458 70.8827 13.8718 70.9206 13.9046 70.9521L23.1052 79.1133L35.2112 89.8308L40.8252 94.8006C41.2667 95.1918 41.8278 95.4189 42.415 95.4442C43.0023 95.4695 43.5805 95.2914 44.0535 94.9395C46.64 93.0183 51.5808 89.3426 54.0887 87.465C54.2595 87.337 54.3985 87.1709 54.495 86.9796C54.5914 86.7883 54.6426 86.5771 54.6445 86.3625C54.6464 86.1479 54.599 85.9358 54.5059 85.7428C54.4129 85.5498 54.2768 85.3812 54.1083 85.2501C49.5888 86.5362 44.0456 86.945 38.3804 84.5435L38.0457 84.4006C33.0144 82.1738 31.8884 78.7481 33.1364 75.4138C33.8017 73.7788 34.8135 72.3102 36.1009 71.1109L23.239 61.0166L13.9046 70.4639Z" fill="#35A7FF" stroke="black" stroke-width="2" stroke-miterlimit="10" stroke-linecap="round"/>
<path d="M14.1351 70.2452L22.5128 61.7903C22.7237 61.5771 23.0045 61.449 23.3025 61.4299C23.6005 61.4109 23.8951 61.5024 24.1309 61.6871L36.1385 71.1145C38.2341 69.1085 40.7194 67.5623 43.4375 66.5735L25.0994 53.5418C24.9233 53.4163 24.723 53.3296 24.5115 53.2873C24.3001 53.2451 24.0821 53.2482 23.8719 53.2965C23.6617 53.3448 23.4639 53.4372 23.2915 53.5677C23.1191 53.6982 22.9758 53.8638 22.8711 54.0538L13.9894 70.134C13.9822 70.1437 13.9769 70.1547 13.9738 70.1664C13.9708 70.1781 13.9701 70.1903 13.9718 70.2023C13.9734 70.2142 13.9774 70.2258 13.9834 70.2362C13.9895 70.2466 13.9975 70.2558 14.0071 70.2631C14.0167 70.2703 14.0276 70.2757 14.0392 70.2787C14.0508 70.2818 14.0629 70.2825 14.0748 70.2808C14.0866 70.2792 14.0981 70.2752 14.1084 70.2691C14.1188 70.2629 14.1278 70.2548 14.1351 70.2452Z" fill="white" stroke="black" stroke-width="2" stroke-miterlimit="10" stroke-linecap="round"/>
<path d="M22.085 83.8607C22.2025 85.3429 22.7127 86.7661 23.5621 87.9816C24.4115 89.1972 25.5691 90.1605 26.9138 90.7709C28.2586 91.3813 29.7412 91.6164 31.2069 91.4518C32.6726 91.2871 34.0676 90.7286 35.2461 89.8347L23.1401 79.1172C22.3194 80.5539 21.9514 82.2082 22.085 83.8607Z" fill="white" stroke="black" stroke-width="2" stroke-miterlimit="10" stroke-linecap="round"/>
<path d="M55.5743 27.5616C55.5743 27.9863 55.5743 28.4031 55.6255 28.8199C55.9456 32.4516 57.6433 35.8187 60.3647 38.2196C63.0861 40.6206 66.6215 41.8701 70.234 41.7079C73.8466 41.5457 77.2577 39.9842 79.7567 37.3489C82.2557 34.7136 83.6498 31.2076 83.6484 27.5616V27.4346C83.6361 26.2682 83.4854 25.1075 83.1996 23.9772C83.1091 23.6358 83.0067 23.3024 82.8926 22.9729C82.8425 22.8235 82.825 22.6649 82.8413 22.508C82.8576 22.3511 82.9073 22.1996 82.987 22.0639C83.092 21.8767 83.1853 21.6832 83.2666 21.4844C83.3217 21.3668 83.3665 21.2446 83.4004 21.1192C83.4358 21.0041 83.4713 20.8889 83.5067 20.7659C83.5691 20.4917 83.6099 20.213 83.6288 19.9323C83.6288 19.8053 83.6288 19.6822 83.6288 19.5592C83.6288 18.2074 83.0962 16.911 82.1482 15.9552C81.2002 14.9994 79.9144 14.4624 78.5738 14.4624C77.2331 14.4624 75.9473 14.9994 74.9993 15.9552C74.0513 16.911 73.5188 18.2074 73.5188 19.5592C73.5155 20.4356 73.7394 21.2977 74.1684 22.0599C74.204 22.1198 74.2208 22.1892 74.2166 22.2589C74.2124 22.3286 74.1873 22.3953 74.1446 22.4504C74.102 22.5054 74.0438 22.5461 73.9778 22.5671C73.9117 22.5881 73.8409 22.5884 73.7747 22.568C71.9738 21.9971 70.3814 20.9003 69.1991 19.4164C68.0168 17.9325 67.2978 16.1283 67.1331 14.2322C67.1305 14.1891 67.1147 14.1479 67.0877 14.1144C67.0607 14.0809 67.024 14.0568 66.9828 14.0454C66.9415 14.034 66.8977 14.036 66.8576 14.0509C66.8175 14.0659 66.783 14.0932 66.7591 14.129C63.5466 18.7693 61.8261 21.8416 56.9168 22.7863C56.752 22.8143 56.5977 22.8866 56.4702 22.9956C56.3427 23.1046 56.2468 23.2462 56.1924 23.4056C55.7796 24.7515 55.5712 26.1527 55.5743 27.5616Z" fill="white" stroke="black" stroke-width="2" stroke-miterlimit="10" stroke-linecap="round"/>
<path d="M113.673 139.929V149.369C113.673 150.266 114.114 151 114.657 151H145.668C146.211 151 146.652 150.266 146.652 149.369V139.929C146.652 139.028 146.211 138.298 145.668 138.298H114.657C114.114 138.29 113.673 139.02 113.673 139.929Z" fill="#FEE100" stroke="black" stroke-width="2" stroke-miterlimit="10" stroke-linecap="round"/>
<path d="M80.6924 139.929V149.369C80.6924 150.266 81.1333 151 81.6766 151H112.688C113.231 151 113.672 150.266 113.672 149.369V139.929C113.672 139.028 113.231 138.298 112.688 138.298H81.6766C81.1333 138.29 80.6924 139.02 80.6924 139.929Z" fill="#FEE100" stroke="black" stroke-width="2" stroke-miterlimit="10" stroke-linecap="round"/>
<path d="M35.3943 127.127L36.1068 127.06C38.1895 126.889 40.1815 127.822 41.776 129.442C41.9925 129.653 42.2462 129.821 42.524 129.938L53.7993 129.874C58.9567 129.823 59.6417 130.545 59.6417 130.545C59.6417 129.073 113.672 67.8755 113.672 67.8755L109.184 59.7461C104.337 64.1363 88.019 69.0227 87.6174 69.1418L81.9719 73.0437C69.7438 81.5145 35.3943 127.127 35.3943 127.127Z" fill="white" stroke="black" stroke-width="2" stroke-miterlimit="10" stroke-linecap="round"/>
<path d="M120.638 48.6315C122.214 55.7731 107.947 64.1826 97.8574 69.1584C92.474 71.8133 86.107 69.5831 83.1451 64.3623L77.6505 54.677C76.9891 53.51 77.4418 52.6923 78.4379 52.0056C85.8314 47.0199 92.906 41.562 99.1264 35.1513L103.248 30.9238" fill="#35A7FF"/>
<path d="M120.638 48.6315C122.214 55.7731 107.947 64.1826 97.8574 69.1584C92.474 71.8133 86.107 69.5832 83.1451 64.3623L77.6505 54.677C76.9891 53.51 77.4418 52.6923 78.4379 52.0056C85.8314 47.0199 92.906 41.562 99.1264 35.1513L103.248 30.9238" stroke="black" stroke-width="2" stroke-miterlimit="10" stroke-linecap="round"/>
<path d="M110.049 52.2002L123.816 43.4476L107.545 30.1777L103.435 34.1551L110.049 52.2002Z" fill="#35A7FF"/>
</svg>
