<svg width="32" height="20" viewBox="0 0 32 20" fill="none" xmlns="http://www.w3.org/2000/svg">
<path fill-rule="evenodd" clip-rule="evenodd" d="M15.9978 17.1537C14.3737 18.5542 12.2668 19.3996 9.96461 19.3996C4.82806 19.3996 0.664062 15.1911 0.664062 9.99961C0.664062 4.80813 4.82806 0.599609 9.96461 0.599609C12.2668 0.599609 14.3737 1.44505 15.9978 2.8455C17.6219 1.44505 19.7288 0.599609 22.031 0.599609C27.1676 0.599609 31.3316 4.80813 31.3316 9.99961C31.3316 15.1911 27.1676 19.3996 22.031 19.3996C19.7288 19.3996 17.6219 18.5542 15.9978 17.1537Z" fill="#ED0006"/>
<path fill-rule="evenodd" clip-rule="evenodd" d="M16 17.1537C17.9995 15.4295 19.2673 12.8642 19.2673 9.99961C19.2673 7.135 17.9995 4.56968 16 2.84555C17.6241 1.44507 19.731 0.599609 22.0333 0.599609C27.1698 0.599609 31.3338 4.80813 31.3338 9.99961C31.3338 15.1911 27.1698 19.3996 22.0333 19.3996C19.731 19.3996 17.6241 18.5541 16 17.1537Z" fill="#F9A000"/>
<path fill-rule="evenodd" clip-rule="evenodd" d="M15.9978 17.1539C17.9973 15.4298 19.2652 12.8644 19.2652 9.99981C19.2652 7.13518 17.9973 4.56983 15.9978 2.8457C13.9983 4.56983 12.7305 7.13518 12.7305 9.99981C12.7305 12.8644 13.9983 15.4298 15.9978 17.1539Z" fill="#FF5E00"/>
</svg>
