<svg width="22" height="16" viewBox="0 0 22 16" fill="none" xmlns="http://www.w3.org/2000/svg">
<path d="M1.66602 13.6538C1.11373 13.6538 0.666016 14.1015 0.666016 14.6538C0.666016 15.2061 1.11373 15.6538 1.66602 15.6538V13.6538ZM20.3327 15.6538C20.885 15.6538 21.3327 15.2061 21.3327 14.6538C21.3327 14.1015 20.885 13.6538 20.3327 13.6538V15.6538ZM1.66602 6.9871C1.11373 6.9871 0.666016 7.43482 0.666016 7.9871C0.666016 8.53939 1.11373 8.9871 1.66602 8.9871V6.9871ZM20.3327 8.9871C20.885 8.9871 21.3327 8.53939 21.3327 7.9871C21.3327 7.43482 20.885 6.9871 20.3327 6.9871V8.9871ZM1.66602 0.320435C1.11373 0.320435 0.666016 0.76815 0.666016 1.32043C0.666016 1.87272 1.11373 2.32043 1.66602 2.32043V0.320435ZM20.3327 2.32043C20.885 2.32043 21.3327 1.87272 21.3327 1.32043C21.3327 0.76815 20.885 0.320435 20.3327 0.320435V2.32043ZM1.66602 15.6538H20.3327V13.6538H1.66602V15.6538ZM1.66602 8.9871H20.3327V6.9871H1.66602V8.9871ZM1.66602 2.32043H20.3327V0.320435H1.66602V2.32043Z" fill="white"/>
</svg>
