<svg width="207" height="53" viewBox="0 0 207 53" fill="none" xmlns="http://www.w3.org/2000/svg">
<path fill-rule="evenodd" clip-rule="evenodd" d="M5.30078 26.4902L5.30078 50.3316C5.30078 51.7947 4.11402 52.9807 2.65007 52.9807C1.18613 52.9807 -0.000631486 51.7947 -0.000631422 50.3316L-0.000630379 26.4902L5.30078 26.4902Z" fill="#090909"/>
<path fill-rule="evenodd" clip-rule="evenodd" d="M110.27 26.4902L110.27 50.3316C110.27 51.7947 109.083 52.9807 107.619 52.9807C106.155 52.9807 104.968 51.7947 104.968 50.3316L104.968 26.4902L110.27 26.4902Z" fill="#090909"/>
<path fill-rule="evenodd" clip-rule="evenodd" d="M180.25 26.4902L180.25 50.3316C180.25 51.7947 179.063 52.9807 177.599 52.9807C176.135 52.9807 174.949 51.7947 174.949 50.3316L174.949 26.4902L180.25 26.4902Z" fill="#090909"/>
<path fill-rule="evenodd" clip-rule="evenodd" d="M96.4883 26.4902L96.4883 2.64884C96.4883 1.18581 97.675 -0.000204072 99.139 -0.000204055C100.603 -0.000204037 101.79 1.18581 101.79 2.64884L101.79 26.4902L96.4883 26.4902Z" fill="#090909"/>
<path fill-rule="evenodd" clip-rule="evenodd" d="M101.789 50.3324C101.789 51.7954 100.602 52.9814 99.1383 52.9814L11.134 52.9814C9.67007 52.9814 8.48331 51.7954 8.48331 50.3324C8.48331 48.8693 9.67007 47.6833 11.134 47.6833L99.1383 47.6833C100.602 47.6833 101.789 48.8693 101.789 50.3324Z" fill="#FEE100"/>
<path fill-rule="evenodd" clip-rule="evenodd" d="M171.77 50.3324C171.77 51.7954 170.583 52.9814 169.119 52.9814L116.104 52.9814C114.64 52.9814 113.453 51.7954 113.453 50.3324C113.453 48.8693 114.64 47.6833 116.104 47.6833L169.119 47.6833C170.583 47.6833 171.77 48.8693 171.77 50.3324Z" fill="#FEE100"/>
<path fill-rule="evenodd" clip-rule="evenodd" d="M206.758 50.3324C206.758 51.7954 205.571 52.9814 204.107 52.9814H186.082C184.618 52.9814 183.432 51.7954 183.432 50.3324C183.432 48.8694 184.618 47.6834 186.082 47.6834H204.107C205.571 47.6834 206.758 48.8694 206.758 50.3324Z" fill="#FEE100"/>
<path fill-rule="evenodd" clip-rule="evenodd" d="M15.9044 37.0864C21.7602 37.0864 26.5073 32.3423 26.5073 26.4901C26.5073 20.638 21.7602 15.8938 15.9044 15.8938C10.0486 15.8938 5.30146 20.638 5.30146 26.4901C5.30146 32.3423 10.0486 37.0864 15.9044 37.0864ZM15.9044 42.3845C24.6881 42.3845 31.8088 35.2684 31.8088 26.4901C31.8088 17.7119 24.6881 10.5957 15.9044 10.5957C7.12064 10.5957 0 17.7119 0 26.4901C0 35.2684 7.12064 42.3845 15.9044 42.3845Z" fill="#090909"/>
<path fill-rule="evenodd" clip-rule="evenodd" d="M50.8927 37.0864C56.7485 37.0864 61.4956 32.3423 61.4956 26.4901C61.4956 20.638 56.7485 15.8938 50.8927 15.8938C45.0368 15.8938 40.2897 20.638 40.2897 26.4901C40.2897 32.3423 45.0368 37.0864 50.8927 37.0864ZM50.8927 42.3845C59.6764 42.3845 66.7971 35.2684 66.7971 26.4901C66.7971 17.7119 59.6764 10.5957 50.8927 10.5957C42.1089 10.5957 34.9883 17.7119 34.9883 26.4901C34.9883 35.2684 42.1089 42.3845 50.8927 42.3845Z" fill="#090909"/>
<path fill-rule="evenodd" clip-rule="evenodd" d="M120.873 37.0864C126.729 37.0864 131.476 32.3423 131.476 26.4901C131.476 20.638 126.729 15.8938 120.873 15.8938C115.017 15.8938 110.27 20.638 110.27 26.4901C110.27 32.3423 115.017 37.0864 120.873 37.0864ZM120.873 42.3845C129.657 42.3845 136.778 35.2684 136.778 26.4901C136.778 17.7119 129.657 10.5957 120.873 10.5957C112.089 10.5957 104.969 17.7119 104.969 26.4901C104.969 35.2684 112.089 42.3845 120.873 42.3845Z" fill="#090909"/>
<path fill-rule="evenodd" clip-rule="evenodd" d="M155.865 37.0864C161.721 37.0864 166.468 32.3423 166.468 26.4901C166.468 20.638 161.721 15.8938 155.865 15.8938C150.009 15.8938 145.262 20.638 145.262 26.4901C145.262 32.3423 150.009 37.0864 155.865 37.0864ZM155.865 42.3845C164.649 42.3845 171.77 35.2684 171.77 26.4901C171.77 17.7119 164.649 10.5957 155.865 10.5957C147.082 10.5957 139.961 17.7119 139.961 26.4901C139.961 35.2684 147.082 42.3845 155.865 42.3845Z" fill="#090909"/>
<path fill-rule="evenodd" clip-rule="evenodd" d="M190.854 37.0864C196.709 37.0864 201.457 32.3423 201.457 26.4901C201.457 20.638 196.709 15.8938 190.854 15.8938C184.998 15.8938 180.251 20.638 180.251 26.4901C180.251 32.3423 184.998 37.0864 190.854 37.0864ZM190.854 42.3845C199.637 42.3845 206.758 35.2684 206.758 26.4901C206.758 17.7119 199.637 10.5957 190.854 10.5957C182.07 10.5957 174.949 17.7119 174.949 26.4901C174.949 35.2684 182.07 42.3845 190.854 42.3845Z" fill="#090909"/>
<path fill-rule="evenodd" clip-rule="evenodd" d="M85.8849 37.0864C91.7407 37.0864 96.4878 32.3423 96.4878 26.4901C96.4878 20.638 91.7407 15.8938 85.8849 15.8938C80.029 15.8938 75.2819 20.638 75.2819 26.4901C75.2819 32.3423 80.029 37.0864 85.8849 37.0864ZM85.8849 42.3845C94.6686 42.3845 101.789 35.2684 101.789 26.4901C101.789 17.7119 94.6686 10.5957 85.8849 10.5957C77.1011 10.5957 69.9805 17.7119 69.9805 26.4901C69.9805 35.2684 77.1011 42.3845 85.8849 42.3845Z" fill="#090909"/>
</svg>
