<svg width="66" height="67" viewBox="0 0 66 67" fill="none" xmlns="http://www.w3.org/2000/svg">
<path d="M0.472656 17.142C0.472656 8.04955 7.79445 0.678711 16.8263 0.678711H49.5337C58.5656 0.678711 65.8873 8.04955 65.8873 17.142V50.0684C65.8873 59.1608 58.5656 66.5317 49.5337 66.5317H16.8263C7.79445 66.5317 0.472656 59.1608 0.472656 50.0684V17.142Z" fill="#F8F8F8"/>
<path d="M3.70312 18.3525C3.70312 10.3875 10.1171 3.93066 18.029 3.93066H26.3858C29.0232 3.93066 31.1611 6.08296 31.1611 8.73794V26.7654C31.1611 29.4204 29.0232 31.5726 26.3858 31.5726H8.47843C5.8411 31.5726 3.70312 29.4204 3.70312 26.7654V18.3525Z" fill="#35A7FF"/>
<path d="M35.1992 8.73794C35.1992 6.08295 37.3372 3.93066 39.9745 3.93066H48.3313C56.2433 3.93066 62.6572 10.3875 62.6572 18.3525V26.7654C62.6572 29.4204 60.5193 31.5726 57.8819 31.5726H39.9745C37.3372 31.5726 35.1992 29.4204 35.1992 26.7654V8.73794Z" fill="#FEE101"/>
<path d="M35.1992 40.445C35.1992 37.79 37.3372 35.6377 39.9745 35.6377H57.8819C60.5193 35.6377 62.6572 37.79 62.6572 40.445V48.8579C62.6572 56.8228 56.2433 63.2797 48.3313 63.2797H39.9745C37.3372 63.2797 35.1992 61.1274 35.1992 58.4724V40.445Z" fill="#090909"/>
<path d="M3.70312 40.445C3.70312 37.79 5.8411 35.6377 8.47843 35.6377H26.3858C29.0232 35.6377 31.1611 37.79 31.1611 40.445V58.4724C31.1611 61.1274 29.0232 63.2797 26.3858 63.2797H18.029C10.1171 63.2797 3.70312 56.8228 3.70312 48.8579V40.445Z" fill="#FF3C38"/>
</svg>
