<svg width="399" height="39" viewBox="0 0 399 39" fill="none" xmlns="http://www.w3.org/2000/svg">
<path d="M27.2302 0.487637C28.0338 0.487637 28.673 0.758471 29.1479 1.30014C29.6227 1.80569 29.8601 2.45569 29.8601 3.25014V23.7793C29.8601 26.6682 29.2209 29.2501 27.9425 31.5251C26.6641 33.8001 24.9108 35.5876 22.6827 36.8876C20.4546 38.1515 17.8796 38.7835 14.9575 38.7835C12.0719 38.7835 9.4968 38.1515 7.23218 36.8876C5.00408 35.5876 3.23256 33.8001 1.91762 31.5251C0.639208 29.2501 0 26.6682 0 23.7793V3.25014C0 2.45569 0.273946 1.80569 0.821838 1.30014C1.36973 0.758471 2.08199 0.487637 2.95862 0.487637C3.65262 0.487637 4.27356 0.758471 4.82145 1.30014C5.40587 1.80569 5.69808 2.45569 5.69808 3.25014V23.7793C5.69808 25.6932 6.11813 27.3724 6.95823 28.8168C7.83486 30.2251 8.98543 31.3446 10.41 32.1751C11.8345 32.9696 13.3503 33.3668 14.9575 33.3668C16.7107 33.3668 18.3179 32.9696 19.7789 32.1751C21.24 31.3446 22.4088 30.2251 23.2854 28.8168C24.1986 27.3724 24.6552 25.6932 24.6552 23.7793V3.25014C24.6552 2.45569 24.8743 1.80569 25.3126 1.30014C25.7875 0.758471 26.4267 0.487637 27.2302 0.487637Z" fill="#F4F7FB"/>
<path d="M66.7337 0.433472C67.5008 0.433472 68.1582 0.686249 68.7061 1.1918C69.254 1.69736 69.528 2.31125 69.528 3.03347C69.528 3.43069 69.4366 3.84597 69.254 4.2793L55.3923 36.671C55.1001 37.2849 54.6983 37.7363 54.187 38.0251C53.7121 38.314 53.219 38.4585 52.7077 38.4585C52.1963 38.4224 51.7032 38.2599 51.2284 37.971C50.79 37.6821 50.443 37.2668 50.1874 36.7251L36.3257 4.2793C36.2526 4.09875 36.1978 3.91819 36.1613 3.73764C36.1248 3.52097 36.1065 3.3043 36.1065 3.08764C36.1065 2.25708 36.417 1.60708 37.0379 1.13764C37.6589 0.668194 38.2616 0.433472 38.846 0.433472C40.0148 0.433472 40.8732 1.0293 41.4211 2.22097L53.9678 31.6335H52.3789L64.2134 2.16681C64.7248 1.01125 65.5649 0.433472 66.7337 0.433472Z" fill="#F4F7FB"/>
<path d="M106.409 0.541803C108.345 0.541803 110.135 1.06542 111.779 2.11264C113.422 3.12375 114.737 4.51403 115.723 6.28347C116.71 8.05292 117.203 10.039 117.203 12.2418C117.203 14.4446 116.71 16.4487 115.723 18.2543C114.737 20.0238 113.422 21.4501 111.779 22.5335C110.135 23.5807 108.345 24.1043 106.409 24.1043H95.8349L96.2732 23.2376V35.696C96.2732 36.4904 96.0176 37.1585 95.5062 37.7001C95.0313 38.2057 94.3921 38.4585 93.5886 38.4585C92.8215 38.4585 92.1823 38.2057 91.6709 37.7001C91.1961 37.1585 90.9587 36.4904 90.9587 35.696V3.3043C90.9587 2.50986 91.2326 1.85986 91.7805 1.3543C92.3284 0.812637 92.9859 0.541803 93.7529 0.541803H106.409ZM106.409 18.9043C107.359 18.9043 108.217 18.5974 108.984 17.9835C109.788 17.3696 110.427 16.5571 110.902 15.546C111.413 14.5349 111.669 13.4335 111.669 12.2418C111.669 11.0501 111.413 9.9668 110.902 8.9918C110.427 8.0168 109.788 7.24042 108.984 6.66264C108.217 6.04875 107.359 5.7418 106.409 5.7418H95.7253L96.2732 4.92931V19.6085L95.7801 18.9043H106.409Z" fill="#F4F7FB"/>
<path d="M127.152 38.4585C126.275 38.4585 125.508 38.2057 124.851 37.7001C124.193 37.1585 123.864 36.4904 123.864 35.696V3.3043C123.864 2.50986 124.138 1.85986 124.686 1.3543C125.234 0.812637 125.892 0.541803 126.659 0.541803H142.109C144.082 0.541803 145.89 1.0293 147.533 2.0043C149.177 2.94319 150.492 4.26125 151.478 5.95847C152.501 7.61958 153.012 9.53347 153.012 11.7001C153.012 13.1446 152.72 14.5349 152.136 15.871C151.551 17.171 150.766 18.3265 149.78 19.3376C148.793 20.3487 147.679 21.1071 146.437 21.6126L145.835 20.5835C146.967 20.9807 147.953 21.5585 148.793 22.3168C149.634 23.039 150.291 23.9057 150.766 24.9168C151.277 25.8918 151.551 27.0112 151.588 28.2751C151.697 29.3946 151.789 30.3335 151.862 31.0918C151.971 31.814 152.117 32.4099 152.3 32.8793C152.483 33.3488 152.811 33.7099 153.286 33.9626C153.944 34.3237 154.345 34.8654 154.492 35.5876C154.674 36.3099 154.528 36.9599 154.053 37.5376C153.724 37.971 153.304 38.2599 152.793 38.4043C152.318 38.5126 151.825 38.5307 151.314 38.4585C150.802 38.3501 150.364 38.2057 149.999 38.0251C149.414 37.664 148.812 37.1585 148.191 36.5085C147.606 35.8224 147.131 34.8835 146.766 33.6918C146.401 32.5001 146.218 30.9293 146.218 28.9793C146.218 28.0765 146.072 27.3001 145.78 26.6501C145.488 26.0001 145.086 25.4765 144.575 25.0793C144.063 24.646 143.461 24.339 142.767 24.1585C142.073 23.9418 141.306 23.8335 140.465 23.8335H128.85L129.617 22.7501V35.696C129.617 36.4904 129.398 37.1585 128.96 37.7001C128.521 38.2057 127.919 38.4585 127.152 38.4585ZM128.905 19.121H142C142.84 19.0849 143.643 18.7599 144.41 18.146C145.214 17.496 145.853 16.6293 146.328 15.546C146.839 14.4626 147.095 13.2349 147.095 11.8626C147.095 10.1293 146.565 8.68486 145.506 7.5293C144.483 6.33764 143.26 5.7418 141.835 5.7418H129.015L129.617 4.33347V20.2585L128.905 19.121Z" fill="#F4F7FB"/>
<path d="M195.578 19.5001C195.578 22.2446 195.121 24.8085 194.208 27.1918C193.295 29.539 191.998 31.5974 190.318 33.3668C188.674 35.1362 186.72 36.5265 184.456 37.5376C182.191 38.5126 179.707 39.0001 177.004 39.0001C174.338 39.0001 171.872 38.5126 169.608 37.5376C167.343 36.5265 165.371 35.1362 163.691 33.3668C162.047 31.5974 160.768 29.539 159.855 27.1918C158.979 24.8085 158.54 22.2446 158.54 19.5001C158.54 16.7557 158.979 14.2099 159.855 11.8626C160.768 9.4793 162.047 7.40292 163.691 5.63347C165.371 3.86403 167.343 2.4918 169.608 1.5168C171.872 0.505693 174.338 0.000137329 177.004 0.000137329C179.707 0.000137329 182.191 0.505693 184.456 1.5168C186.72 2.4918 188.674 3.86403 190.318 5.63347C191.998 7.40292 193.295 9.4793 194.208 11.8626C195.121 14.2099 195.578 16.7557 195.578 19.5001ZM189.661 19.5001C189.661 16.8279 189.113 14.4265 188.017 12.296C186.958 10.1654 185.478 8.48625 183.579 7.25847C181.68 6.03069 179.488 5.41681 177.004 5.41681C174.557 5.41681 172.384 6.03069 170.484 7.25847C168.585 8.48625 167.106 10.1654 166.046 12.296C164.987 14.3904 164.458 16.7918 164.458 19.5001C164.458 22.1724 164.987 24.5737 166.046 26.7043C167.106 28.8349 168.585 30.514 170.484 31.7418C172.384 32.9696 174.557 33.5835 177.004 33.5835C179.488 33.5835 181.68 32.9696 183.579 31.7418C185.478 30.514 186.958 28.8349 188.017 26.7043C189.113 24.5737 189.661 22.1724 189.661 19.5001Z" fill="#F4F7FB"/>
<path d="M213.725 38.4585C212.848 38.4585 212.136 38.2057 211.588 37.7001C211.077 37.1585 210.821 36.4904 210.821 35.696V3.25014H216.683V35.696C216.683 36.4904 216.391 37.1585 215.807 37.7001C215.259 38.2057 214.565 38.4585 213.725 38.4585ZM201.288 5.7418C200.52 5.7418 199.863 5.50708 199.315 5.03764C198.767 4.53208 198.493 3.88208 198.493 3.08764C198.493 2.3293 198.767 1.71542 199.315 1.24597C199.863 0.776526 200.52 0.541803 201.288 0.541803H226.217C226.984 0.541803 227.623 0.794581 228.134 1.30014C228.682 1.76958 228.956 2.38347 228.956 3.14181C228.956 3.93625 228.682 4.56819 228.134 5.03764C227.623 5.50708 226.984 5.7418 226.217 5.7418H201.288Z" fill="#F4F7FB"/>
<path d="M237.949 0.541803H256.906C257.673 0.541803 258.313 0.794581 258.824 1.30014C259.372 1.80569 259.646 2.43764 259.646 3.19597C259.646 3.9543 259.372 4.56819 258.824 5.03764C258.313 5.50708 257.673 5.7418 256.906 5.7418H240.36L240.908 4.82097V16.9543L240.415 16.4126H254.441C255.208 16.4126 255.847 16.6654 256.358 17.171C256.906 17.6765 257.18 18.3265 257.18 19.121C257.18 19.8793 256.906 20.4932 256.358 20.9626C255.847 21.4321 255.208 21.6668 254.441 21.6668H240.524L240.908 21.1793V33.6918L240.524 33.2585H256.906C257.673 33.2585 258.313 33.5293 258.824 34.071C259.372 34.5765 259.646 35.1724 259.646 35.8585C259.646 36.6168 259.372 37.2487 258.824 37.7543C258.313 38.2238 257.673 38.4585 256.906 38.4585H237.949C237.182 38.4585 236.525 38.2057 235.977 37.7001C235.429 37.1585 235.155 36.4904 235.155 35.696V3.3043C235.155 2.50986 235.429 1.85986 235.977 1.3543C236.525 0.812637 237.182 0.541803 237.949 0.541803Z" fill="#F4F7FB"/>
<path d="M293.686 2.70847C294.489 3.10569 294.946 3.71958 295.055 4.55014C295.202 5.38069 295.001 6.13903 294.453 6.82514C294.051 7.36681 293.521 7.67375 292.864 7.74597C292.243 7.81819 291.622 7.69181 291.001 7.36681C289.942 6.82514 288.828 6.3918 287.659 6.0668C286.49 5.7418 285.248 5.5793 283.933 5.5793C281.851 5.5793 279.97 5.92236 278.29 6.60847C276.646 7.25847 275.222 8.21542 274.016 9.4793C272.811 10.7071 271.88 12.1696 271.222 13.8668C270.601 15.564 270.291 17.4418 270.291 19.5001C270.291 21.7751 270.638 23.7974 271.332 25.5668C272.026 27.3001 272.975 28.7807 274.181 30.0085C275.423 31.2001 276.865 32.1029 278.509 32.7168C280.189 33.2946 281.997 33.5835 283.933 33.5835C285.175 33.5835 286.38 33.439 287.549 33.1501C288.755 32.8612 289.887 32.4279 290.946 31.8501C291.604 31.5251 292.243 31.4168 292.864 31.5251C293.521 31.5974 294.051 31.9043 294.453 32.446C295.074 33.2043 295.293 33.9807 295.11 34.7751C294.964 35.5335 294.508 36.1112 293.74 36.5085C292.827 37.014 291.823 37.4474 290.727 37.8085C289.631 38.1696 288.517 38.4585 287.385 38.6751C286.253 38.8918 285.102 39.0001 283.933 39.0001C281.303 39.0001 278.82 38.5668 276.482 37.7001C274.144 36.8335 272.062 35.5696 270.236 33.9085C268.41 32.2474 266.967 30.2071 265.908 27.7876C264.885 25.3682 264.373 22.6057 264.373 19.5001C264.373 16.7196 264.848 14.1557 265.798 11.8085C266.784 9.42514 268.154 7.38486 269.907 5.68764C271.697 3.9543 273.779 2.61819 276.153 1.6793C278.527 0.704305 281.121 0.216804 283.933 0.216804C285.686 0.216804 287.385 0.433472 289.029 0.866806C290.709 1.30014 292.261 1.91403 293.686 2.70847Z" fill="#F4F7FB"/>
<path d="M313.779 38.4585C312.903 38.4585 312.19 38.2057 311.642 37.7001C311.131 37.1585 310.875 36.4904 310.875 35.696V3.25014H316.738V35.696C316.738 36.4904 316.446 37.1585 315.861 37.7001C315.313 38.2057 314.619 38.4585 313.779 38.4585ZM301.342 5.7418C300.575 5.7418 299.918 5.50708 299.37 5.03764C298.822 4.53208 298.548 3.88208 298.548 3.08764C298.548 2.3293 298.822 1.71542 299.37 1.24597C299.918 0.776526 300.575 0.541803 301.342 0.541803H326.271C327.038 0.541803 327.677 0.794581 328.189 1.30014C328.737 1.76958 329.011 2.38347 329.011 3.14181C329.011 3.93625 328.737 4.56819 328.189 5.03764C327.677 5.50708 327.038 5.7418 326.271 5.7418H301.342Z" fill="#F4F7FB"/>
<path d="M338.004 0.541803H356.961C357.728 0.541803 358.367 0.794581 358.878 1.30014C359.426 1.80569 359.7 2.43764 359.7 3.19597C359.7 3.9543 359.426 4.56819 358.878 5.03764C358.367 5.50708 357.728 5.7418 356.961 5.7418H340.414L340.962 4.82097V16.9543L340.469 16.4126H354.495C355.262 16.4126 355.902 16.6654 356.413 17.171C356.961 17.6765 357.235 18.3265 357.235 19.121C357.235 19.8793 356.961 20.4932 356.413 20.9626C355.902 21.4321 355.262 21.6668 354.495 21.6668H340.579L340.962 21.1793V33.6918L340.579 33.2585H356.961C357.728 33.2585 358.367 33.5293 358.878 34.071C359.426 34.5765 359.7 35.1724 359.7 35.8585C359.7 36.6168 359.426 37.2487 358.878 37.7543C358.367 38.2238 357.728 38.4585 356.961 38.4585H338.004C337.237 38.4585 336.579 38.2057 336.031 37.7001C335.483 37.1585 335.21 36.4904 335.21 35.696V3.3043C335.21 2.50986 335.483 1.85986 336.031 1.3543C336.579 0.812637 337.237 0.541803 338.004 0.541803Z" fill="#F4F7FB"/>
<path d="M382.673 0.541803C385.339 0.541803 387.695 1.04736 389.741 2.05847C391.786 3.03347 393.485 4.40569 394.836 6.17514C396.224 7.90847 397.265 9.93069 397.959 12.2418C398.653 14.5168 399 16.9362 399 19.5001C399 23.0029 398.379 26.1987 397.137 29.0876C395.895 31.9404 394.069 34.2154 391.658 35.9126C389.248 37.6099 386.252 38.4585 382.673 38.4585H369.304C368.537 38.4585 367.88 38.2057 367.332 37.7001C366.784 37.1585 366.51 36.4904 366.51 35.696V3.3043C366.51 2.50986 366.784 1.85986 367.332 1.3543C367.88 0.812637 368.537 0.541803 369.304 0.541803H382.673ZM382.125 33.2585C384.718 33.2585 386.819 32.6265 388.426 31.3626C390.033 30.0988 391.202 28.4376 391.932 26.3793C392.699 24.2849 393.083 21.9918 393.083 19.5001C393.083 17.6585 392.864 15.9251 392.425 14.3001C392.024 12.639 391.366 11.1765 390.453 9.91264C389.576 8.61264 388.444 7.60153 387.056 6.87931C385.704 6.12097 384.061 5.7418 382.125 5.7418H371.77L372.263 5.2543V33.8001L371.934 33.2585H382.125Z" fill="#F4F7FB"/>
</svg>
