<svg width="236" height="26" viewBox="0 0 236 26" fill="none" xmlns="http://www.w3.org/2000/svg">
<path d="M30.0919 1.20882C30.5611 1.20882 30.9952 1.37654 31.394 1.71199C31.7929 2.02508 31.9923 2.46117 31.9923 3.02026C31.9923 3.1768 31.9571 3.36689 31.8867 3.59053L24.6722 23.7176C24.5549 24.0531 24.3437 24.3103 24.0387 24.4892C23.7337 24.6681 23.417 24.7687 23.0885 24.7911C22.76 24.7911 22.4316 24.7016 22.1031 24.5227C21.7746 24.3438 21.5283 24.0755 21.364 23.7176L15.8036 11.3059L16.1203 11.4401L10.6302 23.7176C10.4425 24.0755 10.1844 24.3438 9.85596 24.5227C9.55096 24.7016 9.22249 24.7911 8.87056 24.7911C8.56556 24.7687 8.26055 24.6681 7.95555 24.4892C7.65054 24.3103 7.43938 24.0531 7.32207 23.7176L0.107532 3.59053C0.037146 3.36689 0.00195312 3.1768 0.00195312 3.02026C0.00195312 2.46117 0.21311 2.02508 0.635425 1.71199C1.05774 1.37654 1.49179 1.20882 1.93756 1.20882C2.31295 1.20882 2.65315 1.30945 2.95816 1.51072C3.28662 1.68963 3.50951 1.95799 3.62682 2.31581L9.71519 19.6251H9.08172L14.431 7.14632C14.5953 6.81086 14.8182 6.5425 15.0997 6.34123C15.4047 6.13996 15.7449 6.05051 16.1203 6.07287C16.4957 6.05051 16.8242 6.13996 17.1057 6.34123C17.4107 6.5425 17.6336 6.81086 17.7744 7.14632L22.8421 19.2561L22.3142 19.5245L28.3674 2.31581C28.4847 1.95799 28.7076 1.68963 29.0361 1.51072C29.3646 1.30945 29.7165 1.20882 30.0919 1.20882Z" fill="#F4F7FB"/>
<path d="M43.5958 5.67033L35.6774 23.7847C35.5366 24.1426 35.3254 24.4221 35.0439 24.6234C34.7624 24.8246 34.4456 24.9253 34.0937 24.9253C33.5775 24.9253 33.1904 24.7911 32.9323 24.5227C32.6742 24.232 32.5335 23.8742 32.51 23.4493C32.51 23.2927 32.5452 23.1138 32.6156 22.9126L41.5546 2.31581C41.7188 1.93563 41.9534 1.6449 42.2584 1.44363C42.5869 1.24236 42.9388 1.15291 43.3142 1.17527C43.6662 1.17527 43.9946 1.27591 44.2996 1.47718C44.6046 1.67845 44.8275 1.95799 44.9683 2.31581L53.8017 22.6107C53.8956 22.8343 53.9425 23.0579 53.9425 23.2816C53.9425 23.7736 53.7665 24.1761 53.4146 24.4892C53.0861 24.7799 52.7107 24.9253 52.2884 24.9253C51.9365 24.9253 51.608 24.8246 51.303 24.6234C51.0215 24.3997 50.8103 24.1202 50.6695 23.7847L42.6808 5.77096L43.5958 5.67033ZM37.0851 19.0213L38.6688 15.801H48.6284L49.2266 19.0213H37.0851Z" fill="#F4F7FB"/>
<path d="M63.6486 24.7911C63.0855 24.7911 62.628 24.6345 62.276 24.3215C61.9476 23.986 61.7833 23.5723 61.7833 23.0803V2.98671H65.549V23.0803C65.549 23.5723 65.3613 23.986 64.9859 24.3215C64.634 24.6345 64.1882 24.7911 63.6486 24.7911ZM55.6598 4.52979C55.1671 4.52979 54.7448 4.38443 54.3928 4.0937C54.0409 3.78061 53.8649 3.37807 53.8649 2.88607C53.8649 2.41644 54.0409 2.03626 54.3928 1.74554C54.7448 1.45481 55.1671 1.30945 55.6598 1.30945H71.6725C72.1652 1.30945 72.5758 1.46599 72.9043 1.77908C73.2562 2.06981 73.4322 2.44999 73.4322 2.91962C73.4322 3.41162 73.2562 3.80298 72.9043 4.0937C72.5758 4.38443 72.1652 4.52979 71.6725 4.52979H55.6598Z" fill="#F4F7FB"/>
<path d="M79.2088 1.30945H91.3855C91.8782 1.30945 92.2888 1.46599 92.6173 1.77908C92.9692 2.09217 93.1452 2.48353 93.1452 2.95317C93.1452 3.4228 92.9692 3.80298 92.6173 4.0937C92.2888 4.38443 91.8782 4.52979 91.3855 4.52979H80.7573L81.1092 3.95952V11.4736L80.7924 11.1382H89.8018C90.2945 11.1382 90.7051 11.2947 91.0336 11.6078C91.3855 11.9209 91.5615 12.3235 91.5615 12.8155C91.5615 13.2851 91.3855 13.6653 91.0336 13.956C90.7051 14.2467 90.2945 14.3921 89.8018 14.3921H80.8628L81.1092 14.0902V21.8391L80.8628 21.5708H91.3855C91.8782 21.5708 92.2888 21.7385 92.6173 22.0739C92.9692 22.387 93.1452 22.756 93.1452 23.1809C93.1452 23.6506 92.9692 24.0419 92.6173 24.355C92.2888 24.6457 91.8782 24.7911 91.3855 24.7911H79.2088C78.7161 24.7911 78.2938 24.6345 77.9418 24.3215C77.5899 23.986 77.4139 23.5723 77.4139 23.0803V3.02026C77.4139 2.52826 77.5899 2.12572 77.9418 1.81263C78.2938 1.47718 78.7161 1.30945 79.2088 1.30945Z" fill="#F4F7FB"/>
<path d="M99.6308 24.7911C99.0677 24.7911 98.575 24.6345 98.1527 24.3215C97.7304 23.986 97.5192 23.5723 97.5192 23.0803V3.02026C97.5192 2.52826 97.6952 2.12572 98.0471 1.81263C98.3991 1.47718 98.8214 1.30945 99.3141 1.30945H109.238C110.505 1.30945 111.667 1.61136 112.723 2.21517C113.778 2.79662 114.623 3.61289 115.256 4.66397C115.913 5.69269 116.242 6.87796 116.242 8.21976C116.242 9.1143 116.054 9.9753 115.679 10.8027C115.303 11.6078 114.799 12.3235 114.165 12.9496C113.532 13.5758 112.816 14.0454 112.019 14.3585L111.632 13.7212C112.359 13.9672 112.992 14.325 113.532 14.7946C114.072 15.2419 114.494 15.7786 114.799 16.4048C115.127 17.0086 115.303 17.7019 115.327 18.4846C115.397 19.1779 115.456 19.7593 115.503 20.2289C115.573 20.6762 115.667 21.0452 115.784 21.3359C115.902 21.6267 116.113 21.8503 116.418 22.0068C116.84 22.2305 117.098 22.5659 117.192 23.0132C117.309 23.4605 117.216 23.863 116.911 24.2208C116.699 24.4892 116.43 24.6681 116.101 24.7575C115.796 24.8246 115.479 24.8358 115.151 24.7911C114.822 24.724 114.541 24.6346 114.306 24.5227C113.931 24.2991 113.544 23.986 113.145 23.5835C112.77 23.1586 112.464 22.5771 112.23 21.8391C111.995 21.1011 111.878 20.1283 111.878 18.9207C111.878 18.3616 111.784 17.8808 111.596 17.4782C111.409 17.0757 111.151 16.7514 110.822 16.5054C110.494 16.2371 110.107 16.047 109.661 15.9352C109.215 15.801 108.722 15.7339 108.183 15.7339H100.722L101.215 15.063V23.0803C101.215 23.5723 101.074 23.986 100.792 24.3215C100.511 24.6345 100.124 24.7911 99.6308 24.7911ZM100.757 12.8155H109.168C109.708 12.7931 110.224 12.5918 110.717 12.2116C111.233 11.8091 111.643 11.2724 111.948 10.6015C112.277 9.93057 112.441 9.17021 112.441 8.3204C112.441 7.24695 112.101 6.35241 111.42 5.63678C110.764 4.89879 109.978 4.52979 109.063 4.52979H100.827L101.215 3.65761V13.5199L100.757 12.8155Z" fill="#F4F7FB"/>
<path d="M131.398 1.30945C132.642 1.30945 133.791 1.63372 134.847 2.28226C135.903 2.90844 136.747 3.76943 137.381 4.86524C138.014 5.96105 138.331 7.19104 138.331 8.55521C138.331 9.91939 138.014 11.1606 137.381 12.2787C136.747 13.3745 135.903 14.2579 134.847 14.9288C133.791 15.5773 132.642 15.9016 131.398 15.9016H124.606L124.887 15.3649V23.0803C124.887 23.5723 124.723 23.986 124.395 24.3215C124.09 24.6345 123.679 24.7911 123.163 24.7911C122.67 24.7911 122.26 24.6345 121.931 24.3215C121.626 23.986 121.474 23.5723 121.474 23.0803V3.02026C121.474 2.52826 121.65 2.12572 122.002 1.81263C122.354 1.47718 122.776 1.30945 123.269 1.30945H131.398ZM131.398 12.6813C132.008 12.6813 132.56 12.4912 133.052 12.111C133.568 11.7308 133.979 11.2276 134.284 10.6015C134.612 9.9753 134.777 9.29321 134.777 8.55521C134.777 7.81722 134.612 7.14632 134.284 6.5425C133.979 5.93869 133.568 5.45787 133.052 5.10006C132.56 4.71988 132.008 4.52979 131.398 4.52979H124.536L124.887 4.02661V13.1174L124.571 12.6813H131.398Z" fill="#F4F7FB"/>
<path d="M144.722 24.7911C144.159 24.7911 143.666 24.6345 143.244 24.3215C142.821 23.986 142.61 23.5723 142.61 23.0803V3.02026C142.61 2.52826 142.786 2.12572 143.138 1.81263C143.49 1.47718 143.912 1.30945 144.405 1.30945H154.329C155.596 1.30945 156.758 1.61136 157.813 2.21517C158.869 2.79662 159.714 3.61289 160.347 4.66397C161.004 5.69269 161.333 6.87796 161.333 8.21976C161.333 9.1143 161.145 9.9753 160.77 10.8027C160.394 11.6078 159.89 12.3235 159.256 12.9496C158.623 13.5758 157.907 14.0454 157.11 14.3585L156.722 13.7212C157.45 13.9672 158.083 14.325 158.623 14.7946C159.163 15.2419 159.585 15.7786 159.89 16.4048C160.218 17.0086 160.394 17.7019 160.418 18.4846C160.488 19.1779 160.547 19.7593 160.594 20.2289C160.664 20.6762 160.758 21.0452 160.875 21.3359C160.993 21.6267 161.204 21.8503 161.509 22.0068C161.931 22.2305 162.189 22.5659 162.283 23.0132C162.4 23.4605 162.306 23.863 162.001 24.2208C161.79 24.4892 161.52 24.6681 161.192 24.7575C160.887 24.8246 160.57 24.8358 160.242 24.7911C159.913 24.724 159.632 24.6346 159.397 24.5227C159.022 24.2991 158.635 23.986 158.236 23.5835C157.86 23.1586 157.555 22.5771 157.321 21.8391C157.086 21.1011 156.969 20.1283 156.969 18.9207C156.969 18.3616 156.875 17.8808 156.687 17.4782C156.5 17.0757 156.242 16.7514 155.913 16.5054C155.585 16.2371 155.197 16.047 154.752 15.9352C154.306 15.801 153.813 15.7339 153.274 15.7339H145.813L146.305 15.063V23.0803C146.305 23.5723 146.165 23.986 145.883 24.3215C145.602 24.6345 145.214 24.7911 144.722 24.7911ZM145.848 12.8155H154.259C154.799 12.7931 155.315 12.5918 155.807 12.2116C156.324 11.8091 156.734 11.2724 157.039 10.6015C157.368 9.93057 157.532 9.17021 157.532 8.3204C157.532 7.24695 157.192 6.35241 156.511 5.63678C155.854 4.89879 155.068 4.52979 154.153 4.52979H145.918L146.305 3.65761V13.5199L145.848 12.8155Z" fill="#F4F7FB"/>
<path d="M188.674 13.0503C188.674 14.7499 188.381 16.3377 187.794 17.8137C187.208 19.2673 186.375 20.542 185.296 21.6378C184.24 22.7337 182.985 23.5946 181.53 24.2208C180.075 24.8246 178.48 25.1265 176.744 25.1265C175.031 25.1265 173.447 24.8246 171.993 24.2208C170.538 23.5946 169.271 22.7337 168.192 21.6378C167.136 20.542 166.315 19.2673 165.728 17.8137C165.165 16.3377 164.884 14.7499 164.884 13.0503C164.884 11.3506 165.165 9.77402 165.728 8.3204C166.315 6.84441 167.136 5.55851 168.192 4.4627C169.271 3.36689 170.538 2.51708 171.993 1.91326C173.447 1.28709 175.031 0.973999 176.744 0.973999C178.48 0.973999 180.075 1.28709 181.53 1.91326C182.985 2.51708 184.24 3.36689 185.296 4.4627C186.375 5.55851 187.208 6.84441 187.794 8.3204C188.381 9.77402 188.674 11.3506 188.674 13.0503ZM184.873 13.0503C184.873 11.3954 184.521 9.90821 183.817 8.58876C183.137 7.26932 182.187 6.22941 180.967 5.46906C179.747 4.7087 178.339 4.32852 176.744 4.32852C175.172 4.32852 173.776 4.7087 172.556 5.46906C171.336 6.22941 170.385 7.26932 169.705 8.58876C169.025 9.88584 168.684 11.373 168.684 13.0503C168.684 14.7052 169.025 16.1923 169.705 17.5118C170.385 18.8312 171.336 19.8711 172.556 20.6315C173.776 21.3918 175.172 21.772 176.744 21.772C178.339 21.772 179.747 21.3918 180.967 20.6315C182.187 19.8711 183.137 18.8312 183.817 17.5118C184.521 16.1923 184.873 14.7052 184.873 13.0503Z" fill="#F4F7FB"/>
<path d="M215.447 13.0503C215.447 14.7499 215.153 16.3377 214.567 17.8137C213.98 19.2673 213.147 20.542 212.068 21.6378C211.012 22.7337 209.757 23.5946 208.303 24.2208C206.848 24.8246 205.253 25.1265 203.516 25.1265C201.804 25.1265 200.22 24.8246 198.765 24.2208C197.311 23.5946 196.044 22.7337 194.964 21.6378C193.909 20.542 193.088 19.2673 192.501 17.8137C191.938 16.3377 191.656 14.7499 191.656 13.0503C191.656 11.3506 191.938 9.77402 192.501 8.3204C193.088 6.84441 193.909 5.55851 194.964 4.4627C196.044 3.36689 197.311 2.51708 198.765 1.91326C200.22 1.28709 201.804 0.973999 203.516 0.973999C205.253 0.973999 206.848 1.28709 208.303 1.91326C209.757 2.51708 211.012 3.36689 212.068 4.4627C213.147 5.55851 213.98 6.84441 214.567 8.3204C215.153 9.77402 215.447 11.3506 215.447 13.0503ZM211.646 13.0503C211.646 11.3954 211.294 9.90821 210.59 8.58876C209.91 7.26932 208.96 6.22941 207.74 5.46906C206.52 4.7087 205.112 4.32852 203.516 4.32852C201.944 4.32852 200.548 4.7087 199.328 5.46906C198.108 6.22941 197.158 7.26932 196.478 8.58876C195.797 9.88584 195.457 11.373 195.457 13.0503C195.457 14.7052 195.797 16.1923 196.478 17.5118C197.158 18.8312 198.108 19.8711 199.328 20.6315C200.548 21.3918 201.944 21.772 203.516 21.772C205.112 21.772 206.52 21.3918 207.74 20.6315C208.96 19.8711 209.91 18.8312 210.59 17.5118C211.294 16.1923 211.646 14.7052 211.646 13.0503Z" fill="#F4F7FB"/>
<path d="M221.632 24.7911C221.069 24.7911 220.611 24.6345 220.259 24.3215C219.931 23.986 219.766 23.5723 219.766 23.0803V3.02026C219.766 2.52826 219.942 2.12572 220.294 1.81263C220.646 1.47718 221.069 1.30945 221.561 1.30945H233.456C233.973 1.30945 234.395 1.46599 234.723 1.77908C235.075 2.09217 235.251 2.48353 235.251 2.95317C235.251 3.37807 235.075 3.74707 234.723 4.06016C234.395 4.37325 233.973 4.52979 233.456 4.52979H223.18L223.426 4.19434V11.6749L223.215 11.2724H231.873C232.389 11.2724 232.811 11.4289 233.14 11.742C233.492 12.0551 233.668 12.4465 233.668 12.9161C233.668 13.341 233.492 13.71 233.14 14.0231C232.811 14.3362 232.389 14.4927 231.873 14.4927H223.145L223.426 14.2244V23.0803C223.426 23.5723 223.251 23.986 222.899 24.3215C222.547 24.6345 222.124 24.7911 221.632 24.7911Z" fill="#F4F7FB"/>
</svg>
