<svg width="148" height="109" viewBox="0 0 148 109" fill="none" xmlns="http://www.w3.org/2000/svg">
<path d="M129.5 0.974121C119.27 0.974121 111 8.49988 111 17.809C111 8.49988 102.73 0.974121 92.5 0.974121C82.2701 0.974121 74 8.49988 74 17.809C74 8.49988 65.7299 0.974121 55.5 0.974121C45.2701 0.974121 37 8.49988 37 17.809C37 8.49988 28.7299 0.974121 18.5 0.974121C8.27013 0.974121 0 8.49988 0 17.809V92.1393C0 101.448 8.27013 108.974 18.5 108.974C28.7299 108.974 37 101.448 37 92.1393C37 101.448 45.2701 108.974 55.5 108.974C65.7299 108.974 74 101.448 74 92.1393C74 101.448 82.2701 108.974 92.5 108.974C102.73 108.974 111 101.448 111 92.1393C111 101.448 119.27 108.974 129.5 108.974C139.73 108.974 148 101.448 148 92.1393V17.809C148 8.49988 139.73 0.974121 129.5 0.974121Z" fill="#FEE101"/>
</svg>
