<svg width="166" height="100" viewBox="0 0 166 100" fill="none" xmlns="http://www.w3.org/2000/svg">
<path d="M120.534 0.974121C115.248 0.974121 110.963 4.82837 110.963 9.58282L110.963 41.8655C110.963 46.6199 115.248 50.4742 120.534 50.4742L156.428 50.4742C161.714 50.4742 166 46.6199 166 41.8655L166 26.8002C166 12.5369 153.144 0.974119 137.285 0.97412L120.534 0.974121Z" fill="#333333"/>
<path d="M44.7293 1.77283C49.9303 1.77283 54.1465 5.56491 54.1465 10.2427L54.1465 42.0046C54.1465 46.6824 49.9303 50.4745 44.7293 50.4745L9.41451 50.4745C4.21353 50.4745 -0.00269099 46.6824 -0.00269122 42.0046L-0.00269194 27.1824C-0.00269262 13.1491 12.646 1.77283 28.2489 1.77283L44.7293 1.77283Z" fill="#FF3C38"/>
<path d="M49.2063 76.8204C51.9347 76.8204 54.1465 74.8311 54.1465 72.3772L54.1465 55.7152C54.1465 53.2613 51.9347 51.272 49.2063 51.272L30.6805 51.272C27.9521 51.272 25.7404 53.2613 25.7404 55.7152L25.7404 63.4908C25.7404 70.8526 32.3757 76.8204 40.5609 76.8204L49.2063 76.8204Z" fill="#333333"/>
<path d="M104.554 26.5229C107.112 26.5229 109.186 28.3879 109.186 30.6884L109.186 46.3091C109.186 48.6096 107.112 50.4746 104.554 50.4746L87.1862 50.4746C84.6284 50.4746 82.5548 48.6096 82.5548 46.3091L82.5548 39.0195C82.5548 32.1178 88.7755 26.523 96.449 26.5229L104.554 26.5229Z" fill="#35A7FF"/>
<path d="M99.036 99.9741C104.152 99.9741 108.299 96.182 108.299 91.5043L108.299 59.7423C108.299 55.0646 104.152 51.2725 99.036 51.2725L64.3002 51.2725C59.1844 51.2725 55.0373 55.0646 55.0373 59.7423L55.0373 74.5646C55.0373 88.5979 67.4787 99.9741 82.8258 99.9741L99.036 99.9741Z" fill="#FF3C38"/>
</svg>
