<svg width="129" height="142" viewBox="0 0 129 142" fill="none" xmlns="http://www.w3.org/2000/svg">
<rect x="50.7988" y="1.474" width="77" height="27" rx="13.5" stroke="#35A7FF"/>
<path d="M67.0188 19.662C66.9228 19.5233 66.8802 19.3793 66.8908 19.23C66.9015 19.07 66.9922 18.9313 67.1628 18.814C67.2695 18.7393 67.3922 18.7073 67.5308 18.718C67.6802 18.7287 67.8135 18.798 67.9308 18.926C68.2295 19.278 68.5708 19.5607 68.9548 19.774C69.3388 19.9767 69.8082 20.078 70.3628 20.078C70.6188 20.0673 70.8748 20.0247 71.1308 19.95C71.3868 19.8753 71.6002 19.7473 71.7708 19.566C71.9522 19.374 72.0428 19.1233 72.0428 18.814C72.0428 18.5153 71.9522 18.2807 71.7708 18.11C71.5895 17.9287 71.3548 17.7847 71.0668 17.678C70.7788 17.5607 70.4642 17.4593 70.1228 17.374C69.7708 17.278 69.4242 17.1713 69.0828 17.054C68.7415 16.926 68.4322 16.7713 68.1548 16.59C67.8882 16.398 67.6695 16.1633 67.4988 15.886C67.3388 15.598 67.2588 15.2513 67.2588 14.846C67.2588 14.366 67.3868 13.95 67.6428 13.598C67.9095 13.246 68.2615 12.974 68.6988 12.782C69.1468 12.59 69.6322 12.494 70.1548 12.494C70.4535 12.494 70.7628 12.5313 71.0828 12.606C71.4135 12.67 71.7335 12.7873 72.0428 12.958C72.3522 13.118 72.6242 13.342 72.8588 13.63C72.9548 13.7367 73.0082 13.87 73.0188 14.03C73.0295 14.19 72.9602 14.334 72.8108 14.462C72.6935 14.5473 72.5602 14.5847 72.4108 14.574C72.2722 14.5633 72.1548 14.51 72.0588 14.414C71.8348 14.1473 71.5522 13.9447 71.2108 13.806C70.8802 13.6567 70.5122 13.582 70.1068 13.582C69.8508 13.582 69.6002 13.6193 69.3548 13.694C69.1095 13.7687 68.9015 13.8967 68.7308 14.078C68.5708 14.2487 68.4908 14.4887 68.4908 14.798C68.5015 15.086 68.5975 15.3207 68.7788 15.502C68.9602 15.6833 69.2055 15.8327 69.5148 15.95C69.8242 16.0567 70.1655 16.1633 70.5388 16.27C70.8802 16.3553 71.2055 16.4567 71.5148 16.574C71.8348 16.6807 72.1228 16.8247 72.3788 17.006C72.6348 17.1873 72.8375 17.422 72.9868 17.71C73.1362 17.9873 73.2108 18.3393 73.2108 18.766C73.2108 19.2567 73.0722 19.6833 72.7948 20.046C72.5175 20.398 72.1495 20.67 71.6908 20.862C71.2428 21.0433 70.7575 21.134 70.2348 21.134C69.6482 21.134 69.0668 21.022 68.4908 20.798C67.9255 20.574 67.4348 20.1953 67.0188 19.662ZM82.002 12.622C82.1833 12.622 82.3326 12.686 82.45 12.814C82.578 12.9313 82.642 13.0807 82.642 13.262V20.318C82.642 20.4993 82.578 20.654 82.45 20.782C82.3326 20.91 82.1833 20.974 82.002 20.974C81.81 20.974 81.6553 20.91 81.538 20.782C81.4206 20.654 81.362 20.4993 81.362 20.318V18.798L81.666 18.766C81.666 19.0007 81.586 19.2567 81.426 19.534C81.266 19.8113 81.0473 20.0727 80.77 20.318C80.4926 20.5527 80.162 20.75 79.778 20.91C79.4046 21.0593 78.9993 21.134 78.562 21.134C77.8366 21.134 77.186 20.9473 76.61 20.574C76.034 20.19 75.5753 19.6727 75.234 19.022C74.9033 18.3713 74.738 17.63 74.738 16.798C74.738 15.9553 74.9033 15.214 75.234 14.574C75.5753 13.9233 76.034 13.4167 76.61 13.054C77.186 12.6807 77.826 12.494 78.53 12.494C78.9886 12.494 79.4153 12.5687 79.81 12.718C80.2046 12.8673 80.546 13.07 80.834 13.326C81.1326 13.582 81.362 13.8647 81.522 14.174C81.6926 14.4833 81.778 14.7927 81.778 15.102L81.362 15.006V13.262C81.362 13.0807 81.4206 12.9313 81.538 12.814C81.6553 12.686 81.81 12.622 82.002 12.622ZM78.706 19.95C79.2393 19.95 79.7086 19.8113 80.114 19.534C80.53 19.2567 80.85 18.8833 81.074 18.414C81.3086 17.934 81.426 17.3953 81.426 16.798C81.426 16.2113 81.3086 15.6833 81.074 15.214C80.85 14.734 80.53 14.3607 80.114 14.094C79.7086 13.8167 79.2393 13.678 78.706 13.678C78.1833 13.678 77.714 13.8113 77.298 14.078C76.8926 14.3447 76.5726 14.7127 76.338 15.182C76.1033 15.6513 75.986 16.19 75.986 16.798C75.986 17.3953 76.098 17.934 76.322 18.414C76.5566 18.8833 76.8766 19.2567 77.282 19.534C77.698 19.8113 78.1726 19.95 78.706 19.95ZM88.4701 9.166C88.6514 9.166 88.8381 9.18733 89.0301 9.23C89.2327 9.27267 89.4034 9.34733 89.5421 9.454C89.6914 9.56067 89.7661 9.70467 89.7661 9.886C89.7661 10.0567 89.7127 10.2007 89.6061 10.318C89.4994 10.4247 89.3714 10.478 89.2221 10.478C89.1261 10.478 88.9927 10.4513 88.8221 10.398C88.6514 10.334 88.4754 10.302 88.2941 10.302C88.0487 10.302 87.8461 10.3553 87.6861 10.462C87.5367 10.5687 87.4247 10.7127 87.3501 10.894C87.2861 11.0647 87.2541 11.2567 87.2541 11.47V20.318C87.2541 20.4993 87.1901 20.654 87.0621 20.782C86.9447 20.91 86.7954 20.974 86.6141 20.974C86.4221 20.974 86.2674 20.91 86.1501 20.782C86.0327 20.654 85.9741 20.4993 85.9741 20.318V11.486C85.9741 10.7713 86.1927 10.206 86.6301 9.79C87.0781 9.374 87.6914 9.166 88.4701 9.166ZM88.9181 12.83C89.0887 12.83 89.2327 12.8887 89.3501 13.006C89.4674 13.1127 89.5261 13.2513 89.5261 13.422C89.5261 13.5927 89.4674 13.7367 89.3501 13.854C89.2327 13.9607 89.0887 14.014 88.9181 14.014H84.9021C84.7314 14.014 84.5874 13.9553 84.4701 13.838C84.3527 13.7207 84.2941 13.582 84.2941 13.422C84.2941 13.2407 84.3527 13.0967 84.4701 12.99C84.5874 12.8833 84.7314 12.83 84.9021 12.83H88.9181ZM94.4475 21.134C93.5941 21.134 92.8475 20.9527 92.2075 20.59C91.5675 20.2273 91.0661 19.7313 90.7035 19.102C90.3515 18.462 90.1755 17.726 90.1755 16.894C90.1755 15.966 90.3568 15.1767 90.7195 14.526C91.0928 13.8647 91.5728 13.3633 92.1595 13.022C92.7568 12.67 93.3861 12.494 94.0475 12.494C94.5381 12.494 95.0128 12.5847 95.4715 12.766C95.9301 12.9473 96.3355 13.214 96.6875 13.566C97.0395 13.9073 97.3221 14.3233 97.5355 14.814C97.7488 15.294 97.8608 15.8327 97.8715 16.43C97.8715 16.6007 97.8075 16.7447 97.6795 16.862C97.5515 16.9793 97.4021 17.038 97.2315 17.038H90.9115L90.6235 15.934H96.7835L96.5275 16.158V15.806C96.4848 15.3687 96.3355 14.9953 96.0795 14.686C95.8341 14.366 95.5301 14.1207 95.1675 13.95C94.8155 13.7793 94.4421 13.694 94.0475 13.694C93.7275 13.694 93.4075 13.7527 93.0875 13.87C92.7781 13.9767 92.4955 14.158 92.2395 14.414C91.9941 14.6593 91.7915 14.9793 91.6315 15.374C91.4821 15.7687 91.4075 16.2433 91.4075 16.798C91.4075 17.4167 91.5301 17.9607 91.7755 18.43C92.0315 18.8993 92.3835 19.2727 92.8315 19.55C93.2795 19.8167 93.8021 19.95 94.3995 19.95C94.7728 19.95 95.0981 19.902 95.3755 19.806C95.6528 19.71 95.8928 19.5927 96.0955 19.454C96.2981 19.3047 96.4688 19.1553 96.6075 19.006C96.7461 18.91 96.8795 18.862 97.0075 18.862C97.1675 18.862 97.2955 18.9153 97.3915 19.022C97.4981 19.1287 97.5515 19.2567 97.5515 19.406C97.5515 19.5873 97.4661 19.7473 97.2955 19.886C96.9968 20.2167 96.5915 20.51 96.0795 20.766C95.5675 21.0113 95.0235 21.134 94.4475 21.134ZM101.203 20.318C101.203 20.4993 101.139 20.654 101.011 20.782C100.883 20.91 100.729 20.974 100.547 20.974C100.366 20.974 100.217 20.91 100.099 20.782C99.982 20.654 99.9233 20.4993 99.9233 20.318V9.774C99.9233 9.59267 99.982 9.44333 100.099 9.326C100.227 9.198 100.382 9.134 100.563 9.134C100.755 9.134 100.91 9.198 101.027 9.326C101.145 9.44333 101.203 9.59267 101.203 9.774V20.318ZM109.644 12.574C109.825 12.574 109.974 12.638 110.092 12.766C110.22 12.8833 110.284 13.0327 110.284 13.214V20.19C110.284 21.086 110.108 21.8273 109.756 22.414C109.404 23.0113 108.929 23.454 108.332 23.742C107.745 24.03 107.078 24.174 106.332 24.174C105.916 24.174 105.516 24.1313 105.132 24.046C104.748 23.9607 104.433 23.8487 104.188 23.71C103.985 23.614 103.841 23.4913 103.756 23.342C103.681 23.2033 103.67 23.054 103.724 22.894C103.798 22.702 103.905 22.5687 104.044 22.494C104.193 22.4193 104.348 22.4193 104.508 22.494C104.678 22.5687 104.924 22.67 105.244 22.798C105.574 22.9367 105.942 23.006 106.348 23.006C106.902 23.006 107.377 22.8993 107.772 22.686C108.166 22.4727 108.47 22.158 108.684 21.742C108.897 21.3367 109.004 20.83 109.004 20.222V19.086L109.196 19.486C109.025 19.8167 108.796 20.1047 108.508 20.35C108.22 20.5953 107.889 20.7873 107.516 20.926C107.142 21.0647 106.732 21.134 106.284 21.134C105.676 21.134 105.158 21.006 104.732 20.75C104.316 20.4833 103.996 20.1207 103.772 19.662C103.558 19.1927 103.452 18.654 103.452 18.046V13.214C103.452 13.0327 103.51 12.8833 103.628 12.766C103.756 12.638 103.91 12.574 104.092 12.574C104.284 12.574 104.438 12.638 104.556 12.766C104.673 12.8833 104.732 13.0327 104.732 13.214V17.758C104.732 18.4833 104.892 19.0327 105.212 19.406C105.532 19.7687 106.028 19.95 106.7 19.95C107.126 19.95 107.51 19.854 107.852 19.662C108.204 19.47 108.481 19.2087 108.684 18.878C108.897 18.5367 109.004 18.1633 109.004 17.758V13.214C109.004 13.0327 109.062 12.8833 109.18 12.766C109.297 12.638 109.452 12.574 109.644 12.574Z" fill="#35A7FF"/>
<path d="M97.0716 140.918L70.5038 140.643C70.1796 140.638 69.864 140.541 69.5953 140.365C69.3266 140.188 69.1164 139.94 68.9902 139.649L69.2778 135.968H89.8797C90.1471 134.367 91.0199 130.934 94.1075 129.539C102.937 133.408 105.747 141.002 97.0716 140.918Z" fill="white" stroke="black" stroke-width="2" stroke-miterlimit="10" stroke-linecap="round"/>
<path d="M93.7228 129.728C90.9479 131.225 90.1457 134.428 89.891 135.955H69.2891L69.7002 130.712C69.7642 130.377 69.9418 130.072 70.2048 129.846C70.5276 129.572 70.9056 129.368 71.3147 129.245C72.5205 128.85 74.4881 128.719 77.5278 129.061H77.6312C79.4399 129.267 80.507 129.171 81.1225 128.94C81.2979 128.88 81.4604 128.788 81.6018 128.67C82.0833 128.228 82.6517 127.885 83.2729 127.662C83.8941 127.439 84.5553 127.34 85.2166 127.372L85.6707 127.406C88.4407 127.633 91.1561 128.287 93.7152 129.343C93.7529 129.36 93.785 129.386 93.8078 129.42C93.8306 129.454 93.8431 129.493 93.8439 129.533C93.8447 129.574 93.8337 129.613 93.8123 129.648C93.7908 129.682 93.7598 129.71 93.7228 129.728Z" fill="black" stroke="black" stroke-width="2" stroke-miterlimit="10" stroke-linecap="round"/>
<path d="M85.0509 126.214L84.5944 126.172C83.2599 126.066 81.9835 126.643 80.9644 127.645C80.8242 127.774 80.661 127.878 80.4825 127.951L73.2579 127.912C69.9533 127.88 69.5144 128.327 69.5144 128.327C69.5144 127.416 34.8945 89.5766 34.8945 89.5766L37.7778 84.55C40.8806 87.2646 51.3392 90.2859 51.5965 90.3596L55.2114 92.7845C63.0314 98.01 85.0509 126.214 85.0509 126.214Z" fill="white" stroke="black" stroke-width="2" stroke-miterlimit="10" stroke-linecap="round"/>
<path d="M39.7027 95.7707C39.6396 96.1732 39.5564 96.5782 39.4504 96.9807L30.4297 132.734L45.0606 133.193C46.6499 133.245 48.2542 131.35 48.6629 128.942C48.6629 128.942 51.5285 113.143 51.019 111.845C51.0291 111.845 40.0104 93.8759 39.7027 95.7707Z" fill="#E03C38" stroke="black" stroke-width="2" stroke-miterlimit="10" stroke-linecap="round"/>
<path d="M72.4636 60.4645C72.0281 61.6051 71.3427 62.6399 70.4549 63.4969C69.5671 64.3539 68.4983 65.0126 67.3225 65.4273C67.3452 65.1819 67.3553 64.9119 67.3553 64.6493C67.3579 63.7791 67.2252 62.9135 66.9618 62.082C66.927 61.9834 66.8655 61.8958 66.7838 61.8285C66.7021 61.7611 66.6033 61.7164 66.4977 61.6991C63.3394 61.1149 62.237 59.2152 60.1912 56.346C60.1759 56.3239 60.1538 56.307 60.1281 56.2978C60.1024 56.2885 60.0743 56.2873 60.0479 56.2943C60.0214 56.3014 59.9979 56.3163 59.9806 56.337C59.9634 56.3577 59.9532 56.3832 59.9516 56.4098C59.846 57.5822 59.3853 58.6978 58.6277 59.6154C57.8702 60.5329 56.8499 61.2111 55.696 61.5641C55.6535 61.5767 55.6082 61.5765 55.5658 61.5635C55.5235 61.5505 55.4862 61.5254 55.4589 61.4913C55.4316 61.4573 55.4155 61.416 55.4128 61.3729C55.4101 61.3298 55.4209 61.2869 55.4437 61.2499C55.7186 60.7786 55.862 60.2456 55.8599 59.7036C55.8599 59.2898 55.7762 58.88 55.6134 58.4976C55.4506 58.1153 55.212 57.7679 54.9113 57.4752C54.6105 57.1826 54.2534 56.9504 53.8605 56.7921C53.4675 56.6337 53.0463 56.5522 52.621 56.5522C52.1956 56.5522 51.7744 56.6337 51.3814 56.7921C50.9885 56.9504 50.6314 57.1826 50.3306 57.4752C50.0299 57.7679 49.7913 58.1153 49.6285 58.4976C49.4657 58.88 49.382 59.2898 49.382 59.7036C49.382 59.7797 49.382 59.8558 49.382 59.9344C49.394 60.1079 49.4202 60.2802 49.4602 60.4498C49.4829 60.5259 49.5056 60.597 49.5283 60.6682C49.55 60.7458 49.5787 60.8213 49.614 60.894C49.6661 61.017 49.7259 61.1366 49.7931 61.2524C49.8442 61.3363 49.8761 61.43 49.8865 61.527C49.897 61.624 49.8858 61.722 49.8537 61.8144C49.7805 62.0182 49.7149 62.2243 49.6569 62.4354H47.9491C47.2334 60.9838 46.8912 59.3847 46.9523 57.7758C47.0133 56.1669 47.4756 54.5966 48.2994 53.2003C49.1232 51.8041 50.2837 50.6237 51.6808 49.7611C53.078 48.8985 54.6698 48.3795 56.3191 48.2489C58.8088 48.055 61.3869 49.108 62.0932 49.454C62.186 49.4997 62.2927 49.5111 62.3934 49.4859C63.0913 49.3168 63.8084 49.2344 64.5275 49.2405C66.6213 49.2771 68.6297 50.0544 70.1771 51.4272C71.7245 52.8001 72.705 54.6743 72.9353 56.6994C73.0715 57.973 72.9103 59.2601 72.4636 60.4645Z" fill="black" stroke="black" stroke-width="2" stroke-miterlimit="10" stroke-linecap="round"/>
<path d="M52.0139 70.8414L46.9511 72.9301L45.5586 62.4326H49.6628C49.4797 63.1315 49.3832 63.8492 49.3753 64.5704V64.6489C49.374 65.7993 49.6065 66.9387 50.0594 68.0014C50.5122 69.0641 51.1764 70.0293 52.0139 70.8414Z" fill="white" stroke="black" stroke-width="2" stroke-miterlimit="10" stroke-linecap="round"/>
<path d="M46.9516 72.9307V76.0846L45.9098 75.4391C44.1191 74.2912 42.4915 72.9188 41.0689 71.3574C40.3337 70.578 39.4265 69.9708 38.4155 69.5815C37.4045 69.1921 36.316 69.0307 35.2317 69.1093C34.1474 69.188 33.0955 69.5047 32.155 70.0356C31.2145 70.5665 30.4099 71.2979 29.8016 72.1747C29.1933 73.0516 28.7971 74.0512 28.6427 75.0984C28.4884 76.1456 28.5799 77.2132 28.9104 78.2211C29.241 79.229 29.8019 80.1509 30.5512 80.9175C31.3004 81.6842 32.2184 82.2758 33.2363 82.6477L32.1264 84.2529L28.6528 89.2771L5.35429 122.954C4.39421 122.953 3.47387 122.581 2.79522 121.92C2.11658 121.259 1.73506 120.364 1.73439 119.43C1.73375 119.23 1.75063 119.032 1.78484 118.836C8.14678 81.9507 25.2196 65.2803 36.9067 61.2698C39.4747 60.3887 42.3428 61.1545 44.704 59.942C44.7395 59.9198 44.7803 59.9066 44.8224 59.9037C44.8645 59.9008 44.9067 59.9083 44.9452 59.9254C44.9836 59.9425 45.017 59.9687 45.0423 60.0016C45.0676 60.0345 45.0839 60.0731 45.0899 60.1138L45.5591 62.4332L46.9516 72.9307Z" fill="#35A7FF" stroke="black" stroke-width="2" stroke-miterlimit="10" stroke-linecap="round"/>
<path d="M78.5734 99.7964L78.359 99.8848C74.729 101.37 71.1772 101.112 68.2813 100.322C65.8409 99.648 63.5438 98.5559 61.4981 97.0966L48.7893 90.0574C48.5371 89.9665 40.2554 86.9869 33.2427 82.6426C32.2248 82.2706 31.3067 81.6791 30.5575 80.9124C29.8083 80.1457 29.2473 79.2238 28.9168 78.216C28.5862 77.2081 28.4947 76.1405 28.6491 75.0932C28.8034 74.046 29.1996 73.0464 29.8079 72.1696C30.4163 71.2927 31.2209 70.5613 32.1614 70.0304C33.1018 69.4995 34.1537 69.1828 35.238 69.1042C36.3223 69.0255 37.4109 69.187 38.4219 69.5763C39.4329 69.9657 40.34 70.5729 41.0753 71.3523C42.4978 72.9136 44.1254 74.286 45.9161 75.434L46.9579 76.0795L55.2395 82.2155C57.0638 83.6101 58.8071 85.1023 60.4613 86.685C61.493 87.6348 63.8314 88.7099 69.0809 88.03C71.1305 87.7943 73.2082 88.047 75.1351 88.7663C76.8776 89.3775 78.471 90.3336 79.8145 91.5742C80.6394 92.3157 81.2877 93.2238 81.714 94.2348C82.5187 96.3014 81.7972 98.4195 78.5734 99.7964Z" fill="white" stroke="black" stroke-width="2" stroke-miterlimit="10" stroke-linecap="round"/>
<path d="M48.7838 90.0548C48.4735 89.9812 35.8682 86.9598 32.1348 84.2452L33.2447 82.64C40.2499 86.9843 48.5265 89.964 48.7838 90.0548Z" fill="black" stroke="black" stroke-width="2" stroke-miterlimit="10" stroke-linecap="round"/>
<path d="M61.4961 97.0979L61.4902 97.0921" stroke="black" stroke-width="2" stroke-miterlimit="10" stroke-linecap="round"/>
<path d="M92.3157 140.918L65.7479 140.643C65.4238 140.638 65.1081 140.541 64.8394 140.365C64.5707 140.188 64.3605 139.94 64.2344 139.649L64.5219 135.968H85.1238C85.3912 134.367 86.264 130.934 89.3517 129.539C98.1782 133.408 100.991 141.002 92.3157 140.918Z" fill="white" stroke="black" stroke-width="2" stroke-miterlimit="10" stroke-linecap="round"/>
<path d="M88.9624 129.728C86.1876 131.225 85.3879 134.428 85.1331 135.955H64.5312L64.9424 130.712C65.0063 130.377 65.184 130.072 65.4469 129.846C65.7697 129.572 66.1478 129.368 66.5569 129.245C67.7627 128.85 69.7278 128.719 72.7675 129.061H72.8734C74.6821 129.267 75.7492 129.171 76.3647 128.94C76.5401 128.88 76.7026 128.788 76.844 128.67C77.3238 128.232 77.8893 127.892 78.5068 127.671C79.1244 127.45 79.7813 127.351 80.4386 127.382L80.8952 127.416C83.6652 127.643 86.3806 128.297 88.9397 129.353C88.9757 129.369 89.0065 129.394 89.0288 129.426C89.0511 129.458 89.0641 129.495 89.0664 129.534C89.0688 129.572 89.0603 129.611 89.042 129.645C89.0237 129.679 88.9962 129.708 88.9624 129.728Z" fill="black" stroke="black" stroke-width="2" stroke-miterlimit="10" stroke-linecap="round"/>
<path d="M39.5036 101.608C39.5043 101.868 39.4875 102.128 39.4532 102.386L33.2678 133.128H13.0695C8.80888 133.128 5.35547 128.572 5.35547 122.954L30.1398 89.5743L38.4643 98.3046C39.1589 99.2722 39.5226 100.428 39.5036 101.608Z" fill="#FF3C38" stroke="black" stroke-width="2" stroke-miterlimit="10" stroke-linecap="round"/>
<path d="M94.0612 91.1768C94.0821 91.1963 94.0989 91.2197 94.1103 91.2456C94.1217 91.2716 94.1276 91.2995 94.1276 91.3277C94.1276 91.356 94.1217 91.3839 94.1103 91.4098C94.0989 91.4358 94.0821 91.4592 94.0612 91.4787L88.1659 96.525L80.409 103.152L76.8118 106.225C76.5289 106.467 76.1694 106.607 75.7931 106.623C75.4168 106.638 75.0463 106.528 74.7433 106.311C73.0859 105.123 69.9201 102.85 68.3132 101.689C68.2038 101.61 68.1147 101.507 68.0529 101.389C67.9911 101.271 67.9583 101.14 67.9571 101.007C67.9558 100.875 67.9862 100.743 68.0458 100.624C68.1054 100.505 68.1926 100.401 68.3006 100.319C71.1965 101.115 74.7483 101.368 78.3783 99.8826L78.5927 99.7942C81.8166 98.4173 82.538 96.2991 81.7384 94.2374C81.3121 93.2265 80.6638 92.3184 79.8389 91.5769L88.0801 85.3353L94.0612 91.1768Z" fill="#35A7FF" stroke="black" stroke-width="2" stroke-miterlimit="10" stroke-linecap="round"/>
<path d="M93.9181 91.0418L88.5501 85.8139C88.415 85.6821 88.235 85.6029 88.0441 85.5912C87.8532 85.5794 87.6644 85.6359 87.5133 85.7501L79.8194 91.5794C78.4766 90.339 76.8842 89.383 75.1426 88.7715L86.8927 80.7137C87.0055 80.6361 87.1339 80.5825 87.2694 80.5564C87.4049 80.5302 87.5445 80.5322 87.6792 80.562C87.8139 80.5919 87.9406 80.6491 88.0511 80.7297C88.1616 80.8104 88.2534 80.9128 88.3205 81.0303L94.0115 90.9731C94.0161 90.9791 94.0195 90.9859 94.0214 90.9931C94.0234 91.0003 94.0238 91.0079 94.0228 91.0153C94.0217 91.0227 94.0192 91.0298 94.0153 91.0363C94.0114 91.0427 94.0062 91.0484 94.0001 91.0529C93.994 91.0574 93.987 91.0607 93.9796 91.0626C93.9721 91.0645 93.9644 91.0649 93.9568 91.0639C93.9492 91.0629 93.9418 91.0604 93.9352 91.0566C93.9286 91.0528 93.9228 91.0478 93.9181 91.0418Z" fill="white" stroke="black" stroke-width="2" stroke-miterlimit="10" stroke-linecap="round"/>
<path d="M88.8217 99.4606C88.7463 100.377 88.4195 101.257 87.8752 102.009C87.3309 102.76 86.5892 103.356 85.7276 103.733C84.8659 104.111 83.9159 104.256 82.9768 104.154C82.0376 104.053 81.1438 103.707 80.3887 103.154L88.1456 96.5276C88.6715 97.4159 88.9073 98.4388 88.8217 99.4606Z" fill="white" stroke="black" stroke-width="2" stroke-miterlimit="10" stroke-linecap="round"/>
<path d="M67.3635 64.6493C67.3635 64.9119 67.3635 65.1696 67.3307 65.4274C67.1256 67.6729 66.0378 69.7549 64.2941 71.2395C62.5503 72.724 60.285 73.4966 57.9703 73.3963C55.6555 73.296 53.4698 72.3305 51.8686 70.701C50.2674 69.0716 49.3741 66.9037 49.375 64.6493V64.5708C49.3829 63.8496 49.4795 63.1319 49.6626 62.433C49.7206 62.2219 49.7862 62.0157 49.8593 61.812C49.8914 61.7196 49.9026 61.6215 49.8922 61.5245C49.8817 61.4275 49.8499 61.3339 49.7988 61.2499C49.7316 61.1342 49.6718 61.0145 49.6197 60.8916C49.5844 60.8189 49.5557 60.7434 49.5339 60.6658C49.5112 60.5946 49.4885 60.5234 49.4658 60.4474C49.4258 60.2778 49.3997 60.1055 49.3876 59.9319C49.3876 59.8534 49.3876 59.7773 49.3876 59.7012C49.3876 58.8654 49.7289 58.0638 50.3363 57.4728C50.9437 56.8818 51.7676 56.5498 52.6266 56.5498C53.4856 56.5498 54.3095 56.8818 54.9169 57.4728C55.5243 58.0638 55.8656 58.8654 55.8656 59.7012C55.8677 60.2431 55.7242 60.7762 55.4494 61.2475C55.4265 61.2845 55.4157 61.3274 55.4184 61.3705C55.4212 61.4136 55.4372 61.4549 55.4646 61.4889C55.4919 61.5229 55.5292 61.5481 55.5715 61.5611C55.6138 61.5741 55.6592 61.5743 55.7016 61.5617C56.8555 61.2087 57.8759 60.5305 58.6334 59.6129C59.3909 58.6954 59.8517 57.5798 59.9572 56.4074C59.9588 56.3808 59.969 56.3553 59.9863 56.3346C60.0036 56.3139 60.0271 56.299 60.0535 56.2919C60.08 56.2849 60.108 56.2861 60.1337 56.2953C60.1594 56.3046 60.1815 56.3215 60.1969 56.3436C62.2553 59.2128 63.3576 61.1125 66.5033 61.6967C66.6089 61.7139 66.7078 61.7586 66.7895 61.826C66.8711 61.8934 66.9326 61.981 66.9675 62.0795C67.232 62.9118 67.3655 63.7782 67.3635 64.6493Z" fill="white" stroke="black" stroke-width="2" stroke-miterlimit="10" stroke-linecap="round"/>
<path d="M30.1394 134.129V139.965C30.1394 140.52 29.8569 140.974 29.5088 140.974H9.63846C9.29034 140.974 9.00781 140.52 9.00781 139.965V134.129C9.00781 133.571 9.29034 133.12 9.63846 133.12H29.5088C29.8569 133.115 30.1394 133.566 30.1394 134.129Z" fill="#FEE100" stroke="black" stroke-width="2" stroke-miterlimit="10" stroke-linecap="round"/>
<path d="M51.2703 134.129V139.965C51.2703 140.52 50.9878 140.974 50.6397 140.974H30.7693C30.4212 140.974 30.1387 140.52 30.1387 139.965V134.129C30.1387 133.571 30.4212 133.12 30.7693 133.12H50.6397C50.9878 133.115 51.2703 133.567 51.2703 134.129Z" fill="#FEE100" stroke="black" stroke-width="2" stroke-miterlimit="10" stroke-linecap="round"/>
<path d="M80.2951 126.214L79.8385 126.172C78.5041 126.066 77.2276 126.643 76.206 127.645C76.0672 127.775 75.9047 127.879 75.7267 127.951L68.502 127.912C65.1975 127.88 64.7585 128.327 64.7585 128.327C64.7585 127.416 30.1387 89.5767 30.1387 89.5767L33.0144 84.55C36.1197 87.2646 46.5758 90.286 46.8331 90.3596L50.4505 92.7723C58.2856 98.01 80.2951 126.214 80.2951 126.214Z" fill="white" stroke="black" stroke-width="2" stroke-miterlimit="10" stroke-linecap="round"/>
<path d="M25.6727 77.6773C24.8191 81.4099 31.2184 85.7026 37.1235 88.7997C42.3281 91.5295 48.5691 89.321 51.5476 84.2546L53.2167 81.4154C53.6405 80.6938 53.3504 80.1882 52.7122 79.7636C47.9748 76.6808 43.4417 73.306 39.4561 69.3421L36.8149 66.7282" fill="#35A7FF"/>
<path d="M25.6727 77.6773C24.8191 81.4099 31.2184 85.7026 37.1235 88.7997C42.3281 91.5295 48.5691 89.321 51.5476 84.2546L53.2167 81.4154C53.6405 80.6938 53.3504 80.1882 52.7122 79.7636C47.9748 76.6808 43.4417 73.306 39.4561 69.3421L36.8149 66.7282" stroke="black" stroke-width="2" stroke-miterlimit="10" stroke-linecap="round"/>
<path d="M32.4601 79.8843L23.6387 74.4723L34.0645 66.2672L36.6981 68.7266L32.4601 79.8843Z" fill="#35A7FF"/>
<path d="M42.0193 9.0689C42.462 9.39637 42.5456 10.0166 42.2061 10.4542L36.6729 17.5858C36.3334 18.0234 35.6993 18.1127 35.2565 17.7852C34.8138 17.4578 34.7302 16.8375 35.0697 16.3999L39.9881 10.0608L33.5752 5.3173C33.1325 4.98983 33.0488 4.3696 33.3884 3.93197C33.7279 3.49435 34.3621 3.40505 34.8048 3.73251L42.0193 9.0689ZM10.317 60.7314C7.40856 42.3122 11.8714 29.7734 18.7731 21.6074C25.6459 13.4756 34.8483 9.78637 41.2724 8.88172L41.5366 10.8409C35.5382 11.6856 26.8248 15.1663 20.3231 22.859C13.8502 30.5176 9.47968 42.4578 12.3138 60.4062L10.317 60.7314Z" fill="black"/>
</svg>
