<svg width="319" height="113" viewBox="0 0 319 113" fill="none" xmlns="http://www.w3.org/2000/svg">
<path d="M15.5653 82.3631L4.44723 106.225C4.24957 106.697 3.95309 107.065 3.55778 107.33C3.16247 107.595 2.71775 107.728 2.22361 107.728C1.49888 107.728 0.95533 107.551 0.592963 107.198C0.230597 106.815 0.0329424 106.343 0 105.784C0 105.577 0.0494136 105.342 0.148241 105.076L12.6993 77.9441C12.9299 77.4433 13.2593 77.0603 13.6876 76.7952C14.1488 76.5301 14.6429 76.4122 15.17 76.4417C15.6641 76.4417 16.1253 76.5742 16.5536 76.8394C16.9818 77.1045 17.2948 77.4728 17.4924 77.9441L29.8952 104.679C30.027 104.973 30.0929 105.268 30.0929 105.563C30.0929 106.211 29.8458 106.741 29.3517 107.153C28.8905 107.536 28.3634 107.728 27.7705 107.728C27.2763 107.728 26.8151 107.595 26.3869 107.33C25.9916 107.036 25.6951 106.667 25.4974 106.225L14.2805 82.4956L15.5653 82.3631ZM6.42377 99.9505L8.64738 95.7083H22.6314L23.4715 99.9505H6.42377Z" fill="#F4F7FB"/>
<path d="M59.233 78.386C59.9578 78.7101 60.3695 79.2109 60.4684 79.8885C60.6001 80.566 60.419 81.1847 59.9248 81.7444C59.5625 82.1863 59.0848 82.4367 58.4918 82.4956C57.9318 82.5546 57.3718 82.4515 56.8118 82.1863C55.8564 81.7444 54.8517 81.3909 53.7975 81.1258C52.7434 80.8606 51.6233 80.7281 50.4374 80.7281C48.5597 80.7281 46.8632 81.0079 45.3478 81.5677C43.8654 82.0979 42.5806 82.8786 41.4935 83.9097C40.4064 84.9113 39.5664 86.1045 38.9734 87.4891C38.4134 88.8737 38.1334 90.4056 38.1334 92.0848C38.1334 93.9407 38.4464 95.5905 39.0723 97.034C39.6982 98.4481 40.5547 99.6559 41.6418 100.658C42.7618 101.63 44.063 102.366 45.5455 102.867C47.0608 103.338 48.6915 103.574 50.4374 103.574C51.5574 103.574 52.6445 103.456 53.6987 103.221C54.7858 102.985 55.807 102.631 56.7623 102.16C57.3553 101.895 57.9318 101.806 58.4918 101.895C59.0848 101.954 59.5625 102.204 59.9248 102.646C60.4848 103.265 60.6825 103.898 60.5178 104.546C60.386 105.165 59.9742 105.636 59.2824 105.96C58.4589 106.373 57.553 106.726 56.5647 107.021C55.5764 107.315 54.5717 107.551 53.5505 107.728C52.5292 107.905 51.4916 107.993 50.4374 107.993C48.0655 107.993 45.8255 107.639 43.7172 106.932C41.6088 106.225 39.7311 105.194 38.084 103.839C36.4369 102.484 35.1357 100.82 34.1803 98.8458C33.2579 96.872 32.7967 94.6183 32.7967 92.0848C32.7967 89.8164 33.225 87.7247 34.0815 85.8099C34.9709 83.8655 36.2063 82.2011 37.7875 80.8164C39.4017 79.4024 41.2794 78.3124 43.4207 77.5464C45.5619 76.751 47.9008 76.3533 50.4374 76.3533C52.0186 76.3533 53.5505 76.5301 55.0329 76.8836C56.5482 77.2371 57.9483 77.7379 59.233 78.386Z" fill="#F4F7FB"/>
<path d="M90.6473 78.386C91.3721 78.7101 91.7839 79.2109 91.8827 79.8885C92.0145 80.566 91.8333 81.1847 91.3391 81.7444C90.9768 82.1863 90.4991 82.4367 89.9061 82.4956C89.3461 82.5546 88.7861 82.4515 88.2261 82.1863C87.2707 81.7444 86.266 81.3909 85.2118 81.1258C84.1577 80.8606 83.0377 80.7281 81.8517 80.7281C79.974 80.7281 78.2775 81.0079 76.7621 81.5677C75.2797 82.0979 73.995 82.8786 72.9079 83.9097C71.8208 84.9113 70.9807 86.1045 70.3878 87.4891C69.8277 88.8737 69.5477 90.4056 69.5477 92.0848C69.5477 93.9407 69.8607 95.5905 70.4866 97.034C71.1125 98.4481 71.969 99.6559 73.0561 100.658C74.1761 101.63 75.4774 102.366 76.9598 102.867C78.4751 103.338 80.1058 103.574 81.8517 103.574C82.9718 103.574 84.0589 103.456 85.113 103.221C86.2001 102.985 87.2213 102.631 88.1767 102.16C88.7696 101.895 89.3461 101.806 89.9061 101.895C90.4991 101.954 90.9768 102.204 91.3391 102.646C91.8992 103.265 92.0968 103.898 91.9321 104.546C91.8003 105.165 91.3885 105.636 90.6968 105.96C89.8732 106.373 88.9673 106.726 87.979 107.021C86.9907 107.315 85.986 107.551 84.9648 107.728C83.9436 107.905 82.9059 107.993 81.8517 107.993C79.4799 107.993 77.2398 107.639 75.1315 106.932C73.0232 106.225 71.1454 105.194 69.4983 103.839C67.8512 102.484 66.55 100.82 65.5946 98.8458C64.6723 96.872 64.2111 94.6183 64.2111 92.0848C64.2111 89.8164 64.6393 87.7247 65.4958 85.8099C66.3853 83.8655 67.6206 82.2011 69.2018 80.8164C70.816 79.4024 72.6937 78.3124 74.835 77.5464C76.9762 76.751 79.3152 76.3533 81.8517 76.3533C83.433 76.3533 84.9648 76.5301 86.4472 76.8836C87.9625 77.2371 89.3626 77.7379 90.6473 78.386Z" fill="#F4F7FB"/>
<path d="M100.023 76.6184H117.12C117.812 76.6184 118.389 76.8247 118.85 77.2371C119.344 77.6495 119.591 78.1651 119.591 78.7837C119.591 79.4024 119.344 79.9032 118.85 80.2862C118.389 80.6691 117.812 80.8606 117.12 80.8606H102.197L102.692 80.1094V90.0079L102.247 89.566H114.897C115.588 89.566 116.165 89.7722 116.626 90.1846C117.12 90.5971 117.367 91.1273 117.367 91.7754C117.367 92.3941 117.12 92.8949 116.626 93.2779C116.165 93.6609 115.588 93.8524 114.897 93.8524H102.346L102.692 93.4547V103.662L102.346 103.309H117.12C117.812 103.309 118.389 103.53 118.85 103.972C119.344 104.384 119.591 104.87 119.591 105.43C119.591 106.049 119.344 106.564 118.85 106.977C118.389 107.36 117.812 107.551 117.12 107.551H100.023C99.3314 107.551 98.7384 107.345 98.2443 106.932C97.7502 106.491 97.5031 105.946 97.5031 105.297V78.8721C97.5031 78.224 97.7502 77.6937 98.2443 77.2813C98.7384 76.8394 99.3314 76.6184 100.023 76.6184Z" fill="#F4F7FB"/>
<path d="M136.356 107.993C133.985 107.993 131.876 107.698 130.032 107.109C128.187 106.52 126.424 105.548 124.744 104.193C124.382 103.957 124.102 103.677 123.904 103.353C123.74 103 123.657 102.646 123.657 102.293C123.657 101.733 123.888 101.232 124.349 100.79C124.81 100.348 125.387 100.127 126.078 100.127C126.606 100.127 127.1 100.289 127.561 100.613C128.813 101.644 130.114 102.425 131.465 102.955C132.848 103.486 134.462 103.751 136.307 103.751C137.625 103.751 138.827 103.559 139.914 103.176C141.034 102.793 141.924 102.278 142.583 101.63C143.241 100.982 143.571 100.23 143.571 99.376C143.571 98.3155 143.225 97.4464 142.533 96.7689C141.874 96.0618 140.903 95.4874 139.618 95.0455C138.366 94.5741 136.851 94.1764 135.072 93.8524C133.425 93.5872 131.942 93.219 130.625 92.7476C129.34 92.2763 128.236 91.6871 127.314 90.98C126.391 90.2435 125.683 89.3745 125.189 88.3729C124.695 87.3712 124.448 86.2076 124.448 84.8819C124.448 83.0848 124.975 81.5382 126.029 80.242C127.083 78.9458 128.516 77.9441 130.328 77.2371C132.14 76.5301 134.182 76.1765 136.455 76.1765C138.531 76.1765 140.474 76.4711 142.286 77.0603C144.098 77.6201 145.564 78.386 146.684 79.3582C147.475 79.9768 147.87 80.6397 147.87 81.3467C147.87 81.877 147.623 82.3778 147.129 82.8492C146.667 83.2911 146.124 83.512 145.498 83.512C145.037 83.512 144.641 83.3942 144.312 83.1585C143.785 82.6577 143.077 82.2158 142.187 81.8328C141.298 81.4204 140.343 81.0816 139.321 80.8164C138.333 80.5513 137.378 80.4187 136.455 80.4187C134.973 80.4187 133.705 80.6102 132.65 80.9932C131.596 81.3467 130.789 81.8475 130.229 82.4956C129.669 83.1143 129.389 83.8508 129.389 84.7051C129.389 85.7068 129.702 86.5316 130.328 87.1797C130.987 87.8279 131.893 88.3581 133.046 88.7706C134.199 89.1535 135.516 89.5071 136.999 89.8311C138.811 90.1846 140.425 90.5823 141.841 91.0242C143.291 91.4661 144.51 92.0406 145.498 92.7476C146.486 93.4252 147.244 94.2795 147.771 95.3106C148.298 96.3417 148.562 97.6232 148.562 99.1551C148.562 100.923 148.002 102.469 146.882 103.795C145.762 105.121 144.279 106.152 142.434 106.888C140.623 107.625 138.597 107.993 136.356 107.993Z" fill="#F4F7FB"/>
<path d="M165.262 107.993C162.89 107.993 160.781 107.698 158.937 107.109C157.092 106.52 155.329 105.548 153.649 104.193C153.287 103.957 153.007 103.677 152.809 103.353C152.645 103 152.562 102.646 152.562 102.293C152.562 101.733 152.793 101.232 153.254 100.79C153.715 100.348 154.292 100.127 154.983 100.127C155.511 100.127 156.005 100.289 156.466 100.613C157.718 101.644 159.019 102.425 160.37 102.955C161.753 103.486 163.367 103.751 165.212 103.751C166.53 103.751 167.732 103.559 168.819 103.176C169.939 102.793 170.829 102.278 171.488 101.63C172.146 100.982 172.476 100.23 172.476 99.376C172.476 98.3155 172.13 97.4464 171.438 96.7689C170.779 96.0618 169.808 95.4874 168.523 95.0455C167.271 94.5741 165.756 94.1764 163.977 93.8524C162.33 93.5872 160.847 93.219 159.53 92.7476C158.245 92.2763 157.141 91.6871 156.219 90.98C155.296 90.2435 154.588 89.3745 154.094 88.3729C153.6 87.3712 153.353 86.2076 153.353 84.8819C153.353 83.0848 153.88 81.5382 154.934 80.242C155.988 78.9458 157.421 77.9441 159.233 77.2371C161.045 76.5301 163.087 76.1765 165.36 76.1765C167.436 76.1765 169.379 76.4711 171.191 77.0603C173.003 77.6201 174.469 78.386 175.589 79.3582C176.38 79.9768 176.775 80.6397 176.775 81.3467C176.775 81.877 176.528 82.3778 176.034 82.8492C175.572 83.2911 175.029 83.512 174.403 83.512C173.942 83.512 173.547 83.3942 173.217 83.1585C172.69 82.6577 171.982 82.2158 171.092 81.8328C170.203 81.4204 169.248 81.0816 168.226 80.8164C167.238 80.5513 166.283 80.4187 165.36 80.4187C163.878 80.4187 162.61 80.6102 161.555 80.9932C160.501 81.3467 159.694 81.8475 159.134 82.4956C158.574 83.1143 158.294 83.8508 158.294 84.7051C158.294 85.7068 158.607 86.5316 159.233 87.1797C159.892 87.8279 160.798 88.3581 161.951 88.7706C163.104 89.1535 164.421 89.5071 165.904 89.8311C167.716 90.1846 169.33 90.5823 170.746 91.0242C172.196 91.4661 173.415 92.0406 174.403 92.7476C175.391 93.4252 176.149 94.2795 176.676 95.3106C177.203 96.3417 177.467 97.6232 177.467 99.1551C177.467 100.923 176.907 102.469 175.787 103.795C174.667 105.121 173.184 106.152 171.339 106.888C169.528 107.625 167.502 107.993 165.262 107.993Z" fill="#F4F7FB"/>
<path d="M215.069 92.0848C215.069 94.3237 214.657 96.4153 213.833 98.3597C213.01 100.275 211.84 101.954 210.325 103.397C208.842 104.841 207.08 105.975 205.038 106.8C202.995 107.595 200.755 107.993 198.317 107.993C195.912 107.993 193.689 107.595 191.646 106.8C189.604 105.975 187.825 104.841 186.31 103.397C184.827 101.954 183.674 100.275 182.851 98.3597C182.06 96.4153 181.665 94.3237 181.665 92.0848C181.665 89.8458 182.06 87.7689 182.851 85.8541C183.674 83.9097 184.827 82.2158 186.31 80.7723C187.825 79.3287 189.604 78.2093 191.646 77.4139C193.689 76.589 195.912 76.1765 198.317 76.1765C200.755 76.1765 202.995 76.589 205.038 77.4139C207.08 78.2093 208.842 79.3287 210.325 80.7723C211.84 82.2158 213.01 83.9097 213.833 85.8541C214.657 87.7689 215.069 89.8458 215.069 92.0848ZM209.732 92.0848C209.732 89.9048 209.238 87.9457 208.249 86.2076C207.294 84.4694 205.96 83.0996 204.247 82.0979C202.534 81.0963 200.557 80.5955 198.317 80.5955C196.11 80.5955 194.15 81.0963 192.437 82.0979C190.724 83.0996 189.39 84.4694 188.435 86.2076C187.479 87.9162 187.002 89.8753 187.002 92.0848C187.002 94.2648 187.479 96.2239 188.435 97.962C189.39 99.7001 190.724 101.07 192.437 102.072C194.15 103.073 196.11 103.574 198.317 103.574C200.557 103.574 202.534 103.073 204.247 102.072C205.96 101.07 207.294 99.7001 208.249 97.962C209.238 96.2239 209.732 94.2648 209.732 92.0848Z" fill="#F4F7FB"/>
<path d="M224.098 107.551C223.308 107.551 222.616 107.345 222.023 106.932C221.43 106.491 221.134 105.946 221.134 105.297V78.8721C221.134 78.224 221.381 77.6937 221.875 77.2813C222.369 76.8394 222.962 76.6184 223.654 76.6184H237.588C239.367 76.6184 240.998 77.0161 242.48 77.8116C243.963 78.5775 245.149 79.6528 246.038 81.0374C246.96 82.3925 247.422 83.9539 247.422 85.7215C247.422 86.8999 247.158 88.0341 246.631 89.1241C246.104 90.1846 245.396 91.1273 244.506 91.9522C243.617 92.7771 242.612 93.3957 241.492 93.8082L240.949 92.9686C241.97 93.2926 242.859 93.764 243.617 94.3826C244.375 94.9718 244.967 95.6789 245.396 96.5037C245.857 97.2991 246.104 98.2124 246.137 99.2435C246.236 100.157 246.318 100.923 246.384 101.541C246.483 102.131 246.615 102.617 246.779 103C246.944 103.383 247.24 103.677 247.669 103.883C248.262 104.178 248.624 104.62 248.756 105.209C248.921 105.798 248.789 106.329 248.361 106.8C248.064 107.153 247.685 107.389 247.224 107.507C246.796 107.595 246.351 107.61 245.89 107.551C245.429 107.463 245.033 107.345 244.704 107.198C244.177 106.903 243.633 106.491 243.073 105.96C242.546 105.401 242.118 104.635 241.789 103.662C241.459 102.69 241.294 101.409 241.294 99.8179C241.294 99.0815 241.163 98.4481 240.899 97.9178C240.636 97.3875 240.273 96.9604 239.812 96.6363C239.351 96.2828 238.807 96.0324 238.181 95.8851C237.555 95.7083 236.864 95.6199 236.106 95.6199H225.63L226.322 94.7361V105.297C226.322 105.946 226.124 106.491 225.729 106.932C225.334 107.345 224.79 107.551 224.098 107.551ZM225.68 91.7754H237.49C238.247 91.746 238.972 91.4809 239.664 90.98C240.388 90.4498 240.965 89.7427 241.393 88.8589C241.854 87.9751 242.085 86.9735 242.085 85.8541C242.085 84.44 241.607 83.2616 240.652 82.3189C239.73 81.3467 238.626 80.8606 237.341 80.8606H225.779L226.322 79.7117V92.7034L225.68 91.7754Z" fill="#F4F7FB"/>
<path d="M259.956 105.297C259.923 105.946 259.643 106.491 259.116 106.932C258.622 107.345 258.029 107.551 257.337 107.551C256.58 107.551 255.954 107.345 255.46 106.932C254.998 106.491 254.768 105.946 254.768 105.297V78.8721C254.768 78.224 255.015 77.6937 255.509 77.2813C256.003 76.8394 256.645 76.6184 257.436 76.6184C258.095 76.6184 258.671 76.8394 259.166 77.2813C259.693 77.6937 259.956 78.224 259.956 78.8721V105.297Z" fill="#F4F7FB"/>
<path d="M270.462 76.6184H287.559C288.25 76.6184 288.827 76.8247 289.288 77.2371C289.782 77.6495 290.029 78.1651 290.029 78.7837C290.029 79.4024 289.782 79.9032 289.288 80.2862C288.827 80.6691 288.25 80.8606 287.559 80.8606H272.636L273.13 80.1094V90.0079L272.685 89.566H285.335C286.027 89.566 286.603 89.7722 287.065 90.1846C287.559 90.5971 287.806 91.1273 287.806 91.7754C287.806 92.3941 287.559 92.8949 287.065 93.2779C286.603 93.6609 286.027 93.8524 285.335 93.8524H272.784L273.13 93.4547V103.662L272.784 103.309H287.559C288.25 103.309 288.827 103.53 289.288 103.972C289.782 104.384 290.029 104.87 290.029 105.43C290.029 106.049 289.782 106.564 289.288 106.977C288.827 107.36 288.25 107.551 287.559 107.551H270.462C269.77 107.551 269.177 107.345 268.683 106.932C268.189 106.491 267.941 105.946 267.941 105.297V78.8721C267.941 78.224 268.189 77.6937 268.683 77.2813C269.177 76.8394 269.77 76.6184 270.462 76.6184Z" fill="#F4F7FB"/>
<path d="M306.795 107.993C304.423 107.993 302.315 107.698 300.47 107.109C298.625 106.52 296.863 105.548 295.183 104.193C294.82 103.957 294.54 103.677 294.343 103.353C294.178 103 294.096 102.646 294.096 102.293C294.096 101.733 294.326 101.232 294.787 100.79C295.249 100.348 295.825 100.127 296.517 100.127C297.044 100.127 297.538 100.289 297.999 100.613C299.251 101.644 300.552 102.425 301.903 102.955C303.286 103.486 304.901 103.751 306.745 103.751C308.063 103.751 309.266 103.559 310.353 103.176C311.473 102.793 312.362 102.278 313.021 101.63C313.68 100.982 314.009 100.23 314.009 99.376C314.009 98.3155 313.663 97.4464 312.972 96.7689C312.313 96.0618 311.341 95.4874 310.056 95.0455C308.804 94.5741 307.289 94.1764 305.51 93.8524C303.863 93.5872 302.381 93.219 301.063 92.7476C299.778 92.2763 298.675 91.6871 297.752 90.98C296.83 90.2435 296.122 89.3745 295.627 88.3729C295.133 87.3712 294.886 86.2076 294.886 84.8819C294.886 83.0848 295.413 81.5382 296.467 80.242C297.522 78.9458 298.955 77.9441 300.766 77.2371C302.578 76.5301 304.621 76.1765 306.894 76.1765C308.969 76.1765 310.913 76.4711 312.724 77.0603C314.536 77.6201 316.002 78.386 317.122 79.3582C317.913 79.9768 318.308 80.6397 318.308 81.3467C318.308 81.877 318.061 82.3778 317.567 82.8492C317.106 83.2911 316.562 83.512 315.936 83.512C315.475 83.512 315.08 83.3942 314.75 83.1585C314.223 82.6577 313.515 82.2158 312.626 81.8328C311.736 81.4204 310.781 81.0816 309.76 80.8164C308.771 80.5513 307.816 80.4187 306.894 80.4187C305.411 80.4187 304.143 80.6102 303.089 80.9932C302.035 81.3467 301.228 81.8475 300.668 82.4956C300.108 83.1143 299.828 83.8508 299.828 84.7051C299.828 85.7068 300.141 86.5316 300.766 87.1797C301.425 87.8279 302.331 88.3581 303.484 88.7706C304.637 89.1535 305.955 89.5071 307.437 89.8311C309.249 90.1846 310.863 90.5823 312.28 91.0242C313.729 91.4661 314.948 92.0406 315.936 92.7476C316.925 93.4252 317.682 94.2795 318.209 95.3106C318.736 96.3417 319 97.6232 319 99.1551C319 100.923 318.44 102.469 317.32 103.795C316.2 105.121 314.717 106.152 312.873 106.888C311.061 107.625 309.035 107.993 306.795 107.993Z" fill="#F4F7FB"/>
<rect x="42.8906" y="1.474" width="96.5017" height="25.9958" rx="12.9979" stroke="#FEE101"/>
<path d="M61.8606 19.1599C61.7646 19.0212 61.722 18.8772 61.7326 18.7279C61.7433 18.5679 61.834 18.4292 62.0046 18.3119C62.1113 18.2372 62.234 18.2052 62.3726 18.2159C62.522 18.2266 62.6553 18.2959 62.7726 18.4239C63.0713 18.7759 63.4126 19.0586 63.7966 19.2719C64.1806 19.4746 64.65 19.5759 65.2046 19.5759C65.4606 19.5652 65.7166 19.5226 65.9726 19.4479C66.2286 19.3732 66.442 19.2452 66.6126 19.0639C66.794 18.8719 66.8846 18.6212 66.8846 18.3119C66.8846 18.0132 66.794 17.7786 66.6126 17.6079C66.4313 17.4266 66.1966 17.2826 65.9086 17.1759C65.6206 17.0586 65.306 16.9572 64.9646 16.8719C64.6126 16.7759 64.266 16.6692 63.9246 16.5519C63.5833 16.4239 63.274 16.2692 62.9966 16.0879C62.73 15.8959 62.5113 15.6612 62.3406 15.3839C62.1806 15.0959 62.1006 14.7492 62.1006 14.3439C62.1006 13.8639 62.2286 13.4479 62.4846 13.0959C62.7513 12.7439 63.1033 12.4719 63.5406 12.2799C63.9886 12.0879 64.474 11.9919 64.9966 11.9919C65.2953 11.9919 65.6046 12.0292 65.9246 12.1039C66.2553 12.1679 66.5753 12.2852 66.8846 12.4559C67.194 12.6159 67.466 12.8399 67.7006 13.1279C67.7966 13.2346 67.85 13.3679 67.8606 13.5279C67.8713 13.6879 67.802 13.8319 67.6526 13.9599C67.5353 14.0452 67.402 14.0826 67.2526 14.0719C67.114 14.0612 66.9966 14.0079 66.9006 13.9119C66.6766 13.6452 66.394 13.4426 66.0526 13.3039C65.722 13.1546 65.354 13.0799 64.9486 13.0799C64.6926 13.0799 64.442 13.1172 64.1966 13.1919C63.9513 13.2666 63.7433 13.3946 63.5726 13.5759C63.4126 13.7466 63.3326 13.9866 63.3326 14.2959C63.3433 14.5839 63.4393 14.8186 63.6206 14.9999C63.802 15.1812 64.0473 15.3306 64.3566 15.4479C64.666 15.5546 65.0073 15.6612 65.3806 15.7679C65.722 15.8532 66.0473 15.9546 66.3566 16.0719C66.6766 16.1786 66.9646 16.3226 67.2206 16.5039C67.4766 16.6852 67.6793 16.9199 67.8286 17.2079C67.978 17.4852 68.0526 17.8372 68.0526 18.2639C68.0526 18.7546 67.914 19.1812 67.6366 19.5439C67.3593 19.8959 66.9913 20.1679 66.5326 20.3599C66.0846 20.5412 65.5993 20.6319 65.0766 20.6319C64.49 20.6319 63.9086 20.5199 63.3326 20.2959C62.7673 20.0719 62.2766 19.6932 61.8606 19.1599ZM69.5828 12.2479H73.3428C73.5134 12.2479 73.6521 12.3066 73.7588 12.4239C73.8761 12.5412 73.9348 12.6799 73.9348 12.8399C73.9348 13.0106 73.8761 13.1546 73.7588 13.2719C73.6521 13.3786 73.5134 13.4319 73.3428 13.4319H69.5828C69.4228 13.4319 69.2841 13.3732 69.1668 13.2559C69.0494 13.1386 68.9908 12.9946 68.9908 12.8239C68.9908 12.6639 69.0494 12.5306 69.1668 12.4239C69.2841 12.3066 69.4228 12.2479 69.5828 12.2479ZM71.2628 10.0719C71.4441 10.0719 71.5934 10.1359 71.7108 10.2639C71.8281 10.3812 71.8868 10.5306 71.8868 10.7119V18.4399C71.8868 18.6959 71.9241 18.8879 71.9988 19.0159C72.0734 19.1439 72.1694 19.2346 72.2868 19.2879C72.4148 19.3306 72.5374 19.3519 72.6548 19.3519C72.7614 19.3519 72.8521 19.3359 72.9268 19.3039C73.0121 19.2612 73.1081 19.2399 73.2148 19.2399C73.3214 19.2399 73.4174 19.2932 73.5028 19.3999C73.5988 19.4959 73.6468 19.6239 73.6468 19.7839C73.6468 19.9759 73.5348 20.1412 73.3108 20.2799C73.0868 20.4079 72.8361 20.4719 72.5588 20.4719C72.4094 20.4719 72.2228 20.4612 71.9988 20.4399C71.7854 20.4186 71.5721 20.3492 71.3588 20.2319C71.1454 20.1146 70.9641 19.9226 70.8148 19.6559C70.6761 19.3786 70.6068 18.9946 70.6068 18.5039V10.7119C70.6068 10.5306 70.6708 10.3812 70.7988 10.2639C70.9268 10.1359 71.0814 10.0719 71.2628 10.0719ZM81.9073 12.0719C82.0886 12.0719 82.2379 12.1359 82.3553 12.2639C82.4833 12.3812 82.5473 12.5306 82.5473 12.7119V19.6879C82.5473 20.5839 82.3713 21.3252 82.0193 21.9119C81.6673 22.5092 81.1926 22.9519 80.5953 23.2399C80.0086 23.5279 79.3419 23.6719 78.5953 23.6719C78.1793 23.6719 77.7793 23.6292 77.3953 23.5439C77.0113 23.4586 76.6966 23.3466 76.4513 23.2079C76.2486 23.1119 76.1046 22.9892 76.0193 22.8399C75.9446 22.7012 75.9339 22.5519 75.9873 22.3919C76.0619 22.1999 76.1686 22.0666 76.3073 21.9919C76.4566 21.9172 76.6113 21.9172 76.7713 21.9919C76.9419 22.0666 77.1873 22.1679 77.5073 22.2959C77.8379 22.4346 78.2059 22.5039 78.6113 22.5039C79.1659 22.5039 79.6406 22.3972 80.0353 22.1839C80.4299 21.9706 80.7339 21.6559 80.9473 21.2399C81.1606 20.8346 81.2673 20.3279 81.2673 19.7199V18.5839L81.4593 18.9839C81.2886 19.3146 81.0593 19.6026 80.7713 19.8479C80.4833 20.0932 80.1526 20.2852 79.7793 20.4239C79.4059 20.5626 78.9953 20.6319 78.5473 20.6319C77.9393 20.6319 77.4219 20.5039 76.9953 20.2479C76.5793 19.9812 76.2593 19.6186 76.0353 19.1599C75.8219 18.6906 75.7153 18.1519 75.7153 17.5439V12.7119C75.7153 12.5306 75.7739 12.3812 75.8913 12.2639C76.0193 12.1359 76.1739 12.0719 76.3553 12.0719C76.5473 12.0719 76.7019 12.1359 76.8193 12.2639C76.9366 12.3812 76.9953 12.5306 76.9953 12.7119V17.2559C76.9953 17.9812 77.1553 18.5306 77.4753 18.9039C77.7953 19.2666 78.2913 19.4479 78.9633 19.4479C79.3899 19.4479 79.7739 19.3519 80.1153 19.1599C80.4673 18.9679 80.7446 18.7066 80.9473 18.3759C81.1606 18.0346 81.2673 17.6612 81.2673 17.2559V12.7119C81.2673 12.5306 81.3259 12.3812 81.4433 12.2639C81.5606 12.1359 81.7153 12.0719 81.9073 12.0719ZM86.3264 19.8159C86.3264 19.9972 86.2624 20.1519 86.1344 20.2799C86.0064 20.4079 85.8517 20.4719 85.6704 20.4719C85.489 20.4719 85.3397 20.4079 85.2224 20.2799C85.105 20.1519 85.0464 19.9972 85.0464 19.8159V9.27189C85.0464 9.09056 85.105 8.94122 85.2224 8.82389C85.3504 8.69589 85.505 8.63189 85.6864 8.63189C85.8784 8.63189 86.033 8.69589 86.1504 8.82389C86.2677 8.94122 86.3264 9.09056 86.3264 9.27189V19.8159ZM90.041 19.8159C90.041 19.9972 89.977 20.1519 89.849 20.2799C89.7317 20.4079 89.5823 20.4719 89.401 20.4719C89.209 20.4719 89.0543 20.4079 88.937 20.2799C88.8197 20.1519 88.761 19.9972 88.761 19.8159V12.7119C88.761 12.5306 88.8197 12.3812 88.937 12.2639C89.065 12.1359 89.2197 12.0719 89.401 12.0719C89.5823 12.0719 89.7317 12.1359 89.849 12.2639C89.977 12.3812 90.041 12.5306 90.041 12.7119V19.8159ZM89.401 10.9999C89.1343 10.9999 88.937 10.9466 88.809 10.8399C88.681 10.7332 88.617 10.5679 88.617 10.3439V10.1199C88.617 9.89589 88.6863 9.73056 88.825 9.62389C88.9637 9.51722 89.161 9.46389 89.417 9.46389C89.673 9.46389 89.865 9.51722 89.993 9.62389C90.121 9.73056 90.185 9.89589 90.185 10.1199V10.3439C90.185 10.5679 90.1157 10.7332 89.977 10.8399C89.849 10.9466 89.657 10.9999 89.401 10.9999ZM91.8763 19.1599C91.7803 19.0212 91.7376 18.8772 91.7483 18.7279C91.7589 18.5679 91.8496 18.4292 92.0203 18.3119C92.1269 18.2372 92.2496 18.2052 92.3883 18.2159C92.5376 18.2266 92.6709 18.2959 92.7883 18.4239C93.0869 18.7759 93.4283 19.0586 93.8123 19.2719C94.1963 19.4746 94.6656 19.5759 95.2203 19.5759C95.4763 19.5652 95.7323 19.5226 95.9883 19.4479C96.2443 19.3732 96.4576 19.2452 96.6283 19.0639C96.8096 18.8719 96.9003 18.6212 96.9003 18.3119C96.9003 18.0132 96.8096 17.7786 96.6283 17.6079C96.4469 17.4266 96.2123 17.2826 95.9243 17.1759C95.6363 17.0586 95.3216 16.9572 94.9803 16.8719C94.6283 16.7759 94.2816 16.6692 93.9403 16.5519C93.5989 16.4239 93.2896 16.2692 93.0123 16.0879C92.7456 15.8959 92.5269 15.6612 92.3563 15.3839C92.1963 15.0959 92.1163 14.7492 92.1163 14.3439C92.1163 13.8639 92.2443 13.4479 92.5003 13.0959C92.7669 12.7439 93.1189 12.4719 93.5563 12.2799C94.0043 12.0879 94.4896 11.9919 95.0123 11.9919C95.3109 11.9919 95.6203 12.0292 95.9403 12.1039C96.2709 12.1679 96.5909 12.2852 96.9003 12.4559C97.2096 12.6159 97.4816 12.8399 97.7163 13.1279C97.8123 13.2346 97.8656 13.3679 97.8763 13.5279C97.8869 13.6879 97.8176 13.8319 97.6683 13.9599C97.5509 14.0452 97.4176 14.0826 97.2683 14.0719C97.1296 14.0612 97.0123 14.0079 96.9163 13.9119C96.6923 13.6452 96.4096 13.4426 96.0683 13.3039C95.7376 13.1546 95.3696 13.0799 94.9643 13.0799C94.7083 13.0799 94.4576 13.1172 94.2123 13.1919C93.9669 13.2666 93.7589 13.3946 93.5883 13.5759C93.4283 13.7466 93.3483 13.9866 93.3483 14.2959C93.3589 14.5839 93.4549 14.8186 93.6363 14.9999C93.8176 15.1812 94.0629 15.3306 94.3723 15.4479C94.6816 15.5546 95.0229 15.6612 95.3963 15.7679C95.7376 15.8532 96.0629 15.9546 96.3723 16.0719C96.6923 16.1786 96.9803 16.3226 97.2363 16.5039C97.4923 16.6852 97.6949 16.9199 97.8443 17.2079C97.9936 17.4852 98.0683 17.8372 98.0683 18.2639C98.0683 18.7546 97.9296 19.1812 97.6523 19.5439C97.3749 19.8959 97.0069 20.1679 96.5483 20.3599C96.1003 20.5412 95.6149 20.6319 95.0923 20.6319C94.5056 20.6319 93.9243 20.5199 93.3483 20.2959C92.7829 20.0719 92.2923 19.6932 91.8763 19.1599ZM103.918 12.0719C104.622 12.0719 105.177 12.2266 105.582 12.5359C105.998 12.8346 106.292 13.2399 106.462 13.7519C106.644 14.2532 106.734 14.8132 106.734 15.4319V19.8159C106.734 19.9972 106.67 20.1519 106.542 20.2799C106.425 20.4079 106.276 20.4719 106.094 20.4719C105.913 20.4719 105.758 20.4079 105.63 20.2799C105.513 20.1519 105.454 19.9972 105.454 19.8159V15.4319C105.454 15.0266 105.396 14.6639 105.278 14.3439C105.161 14.0132 104.964 13.7519 104.686 13.5599C104.42 13.3572 104.052 13.2559 103.582 13.2559C103.145 13.2559 102.745 13.3572 102.382 13.5599C102.02 13.7519 101.732 14.0132 101.518 14.3439C101.305 14.6639 101.198 15.0266 101.198 15.4319V19.8159C101.198 19.9972 101.134 20.1519 101.006 20.2799C100.889 20.4079 100.74 20.4719 100.558 20.4719C100.377 20.4719 100.222 20.4079 100.094 20.2799C99.977 20.1519 99.9184 19.9972 99.9184 19.8159V9.27189C99.9184 9.09056 99.977 8.94122 100.094 8.82389C100.222 8.69589 100.377 8.63189 100.558 8.63189C100.75 8.63189 100.905 8.69589 101.022 8.82389C101.14 8.94122 101.198 9.09056 101.198 9.27189V14.0559L100.878 14.4079C100.932 14.1306 101.049 13.8532 101.23 13.5759C101.412 13.2879 101.641 13.0319 101.918 12.8079C102.196 12.5839 102.505 12.4079 102.846 12.2799C103.188 12.1412 103.545 12.0719 103.918 12.0719ZM110.514 19.8159C110.514 19.9972 110.45 20.1519 110.322 20.2799C110.194 20.4079 110.039 20.4719 109.858 20.4719C109.677 20.4719 109.527 20.4079 109.41 20.2799C109.293 20.1519 109.234 19.9972 109.234 19.8159V9.27189C109.234 9.09056 109.293 8.94122 109.41 8.82389C109.538 8.69589 109.693 8.63189 109.874 8.63189C110.066 8.63189 110.221 8.69589 110.338 8.82389C110.455 8.94122 110.514 9.09056 110.514 9.27189V19.8159ZM118.954 12.0719C119.135 12.0719 119.285 12.1359 119.402 12.2639C119.53 12.3812 119.594 12.5306 119.594 12.7119V19.6879C119.594 20.5839 119.418 21.3252 119.066 21.9119C118.714 22.5092 118.239 22.9519 117.642 23.2399C117.055 23.5279 116.389 23.6719 115.642 23.6719C115.226 23.6719 114.826 23.6292 114.442 23.5439C114.058 23.4586 113.743 23.3466 113.498 23.2079C113.295 23.1119 113.151 22.9892 113.066 22.8399C112.991 22.7012 112.981 22.5519 113.034 22.3919C113.109 22.1999 113.215 22.0666 113.354 21.9919C113.503 21.9172 113.658 21.9172 113.818 21.9919C113.989 22.0666 114.234 22.1679 114.554 22.2959C114.885 22.4346 115.253 22.5039 115.658 22.5039C116.213 22.5039 116.687 22.3972 117.082 22.1839C117.477 21.9706 117.781 21.6559 117.994 21.2399C118.207 20.8346 118.314 20.3279 118.314 19.7199V18.5839L118.506 18.9839C118.335 19.3146 118.106 19.6026 117.818 19.8479C117.53 20.0932 117.199 20.2852 116.826 20.4239C116.453 20.5626 116.042 20.6319 115.594 20.6319C114.986 20.6319 114.469 20.5039 114.042 20.2479C113.626 19.9812 113.306 19.6186 113.082 19.1599C112.869 18.6906 112.762 18.1519 112.762 17.5439V12.7119C112.762 12.5306 112.821 12.3812 112.938 12.2639C113.066 12.1359 113.221 12.0719 113.402 12.0719C113.594 12.0719 113.749 12.1359 113.866 12.2639C113.983 12.3812 114.042 12.5306 114.042 12.7119V17.2559C114.042 17.9812 114.202 18.5306 114.522 18.9039C114.842 19.2666 115.338 19.4479 116.01 19.4479C116.437 19.4479 116.821 19.3519 117.162 19.1599C117.514 18.9679 117.791 18.7066 117.994 18.3759C118.207 18.0346 118.314 17.6612 118.314 17.2559V12.7119C118.314 12.5306 118.373 12.3812 118.49 12.2639C118.607 12.1359 118.762 12.0719 118.954 12.0719Z" fill="#FEE101"/>
<path d="M148.428 29.3957C148.616 28.8747 149.195 28.5839 149.721 28.7461L158.297 31.3901C158.824 31.5524 159.098 32.1063 158.91 32.6273C158.722 33.1483 158.143 33.4391 157.617 33.2769L149.994 30.9267L147.273 38.4736C147.085 38.9947 146.506 39.2855 145.98 39.1232C145.453 38.961 145.179 38.4071 145.367 37.8861L148.428 29.3957ZM231.987 67.0702C175.146 72.9307 152.52 38.3316 148.467 30.1488L150.295 29.2302C154.142 36.9968 176.143 70.8493 231.856 65.1051L231.987 67.0702Z" fill="black"/>
<path d="M249.025 95.1542H241.057V105.03H249.025V95.1542Z" fill="white" stroke="black" stroke-width="2" stroke-miterlimit="10" stroke-linecap="round"/>
<path d="M263.488 94.9903H255.52V104.866H263.488V94.9903Z" fill="white" stroke="black" stroke-width="2" stroke-miterlimit="10" stroke-linecap="round"/>
<path d="M259.504 25.8106C259.504 25.8106 267.153 31.8228 266.499 37.2332C265.846 42.6437 260.627 42.6437 260.627 42.6437" fill="#35A7FF"/>
<path d="M259.504 25.8106C259.504 25.8106 267.153 31.8228 266.499 37.2332C265.846 42.6437 260.627 42.6437 260.627 42.6437" stroke="black" stroke-width="2" stroke-miterlimit="10" stroke-linecap="round"/>
<path d="M239.819 26.8374C239.819 26.8374 233.218 37.5849 234.686 40.5991C236.154 43.6134 242.379 44.7585 242.379 44.7585" fill="#35A7FF"/>
<path d="M239.819 26.8374C239.819 26.8374 233.218 37.5849 234.686 40.5991C236.154 43.6134 242.379 44.7585 242.379 44.7585" stroke="black" stroke-width="2" stroke-miterlimit="10" stroke-linecap="round"/>
<path d="M260.813 100.337H257.177C255.397 100.337 253.919 99.2785 253.787 97.9092L250.713 66.2427H250.208V97.7136C250.208 99.163 248.686 100.337 246.809 100.337H243.216C241.339 100.337 239.816 99.163 239.816 97.7136V57.1293H261.111L264.206 97.5656C264.321 99.0666 262.768 100.337 260.813 100.337Z" fill="#FF3C38" stroke="black" stroke-width="2" stroke-miterlimit="10"/>
<path d="M248.037 17.6943L248.526 24.0067H252.855L252.475 16.7584L248.037 17.6943Z" fill="white" stroke="black" stroke-width="2" stroke-miterlimit="10" stroke-linecap="round"/>
<path d="M245.849 8.28622C245.389 8.81118 245.068 9.41472 244.909 10.0552C244.751 10.6957 244.757 11.3578 244.928 11.996C245.059 11.905 245.194 11.8207 245.334 11.7379C245.8 11.4649 246.31 11.2499 246.847 11.0994C246.91 11.0831 246.977 11.0815 247.041 11.0949C247.105 11.1083 247.163 11.1362 247.21 11.1755C248.596 12.322 249.989 12.1916 252.229 12.1603C252.246 12.1601 252.262 12.1645 252.276 12.1727C252.289 12.181 252.299 12.1927 252.305 12.2063C252.31 12.2198 252.31 12.2343 252.305 12.2478C252.299 12.2613 252.289 12.273 252.275 12.2812C251.689 12.6771 251.251 13.2105 251.017 13.8155C250.783 14.4204 250.762 15.0705 250.957 15.6853C250.966 15.7076 250.983 15.7271 251.005 15.7412C251.027 15.7553 251.054 15.7633 251.081 15.7642C251.109 15.765 251.136 15.7588 251.159 15.7461C251.183 15.7335 251.201 15.7151 251.211 15.6935C251.373 15.4288 251.61 15.2024 251.9 15.0347C252.199 14.8551 252.549 14.7465 252.914 14.7197C253.279 14.693 253.646 14.7492 253.977 14.8825C254.266 15.0037 254.515 15.1861 254.697 15.4123C255.304 16.1635 255.041 17.2162 254.105 17.7623C254.063 17.7854 254.02 17.8058 253.977 17.8289C253.879 17.8801 253.778 17.9255 253.673 17.9647L253.533 18.0041C253.484 18.0192 253.434 18.0306 253.382 18.038C253.299 18.0553 253.214 18.0676 253.128 18.0747C253.066 18.08 253.005 18.096 252.95 18.122C252.895 18.1479 252.847 18.1831 252.809 18.2255C252.724 18.3206 252.635 18.413 252.542 18.4972L253.122 19.2171C254.326 19.0351 255.45 18.5788 256.373 17.8968C258.678 16.2083 259.321 13.3883 257.894 11.2543C257.153 10.1458 255.712 9.39059 255.285 9.20177C255.23 9.17715 255.187 9.13534 255.167 9.08495C255.019 8.73982 254.817 8.41316 254.566 8.11371C253.081 6.32065 250.093 5.78952 247.708 6.90882C246.98 7.2498 246.346 7.71947 245.849 8.28622Z" fill="black" stroke="black" stroke-width="2" stroke-miterlimit="10" stroke-linecap="round"/>
<path d="M245.336 11.7422C245.195 11.8251 245.061 11.9093 244.93 12.0003C242.668 13.5706 242.096 16.2901 243.692 18.2679C244.1 18.7683 244.624 19.1927 245.231 19.5152C245.839 19.8377 246.517 20.0516 247.225 20.1438C248.705 20.3375 250.215 20.0409 251.445 19.3152L251.488 19.2907C251.872 19.0623 252.224 18.797 252.537 18.5002C252.63 18.4105 252.719 18.3181 252.804 18.2285C252.842 18.1861 252.89 18.1509 252.945 18.125C253 18.099 253.061 18.0829 253.124 18.0777C253.209 18.0705 253.294 18.0583 253.378 18.041C253.429 18.0335 253.479 18.0222 253.528 18.0071L253.668 17.9677C253.773 17.9285 253.875 17.8831 253.972 17.8318C254.015 17.8087 254.058 17.7884 254.1 17.7653C255.036 17.2219 255.299 16.1665 254.692 15.4153C254.51 15.1891 254.261 15.0066 253.972 14.8855C253.641 14.7522 253.274 14.696 252.909 14.7227C252.544 14.7494 252.194 14.8581 251.895 15.0376C251.606 15.2067 251.371 15.434 251.211 15.6992C251.201 15.7208 251.182 15.7392 251.159 15.7518C251.136 15.7644 251.109 15.7707 251.081 15.7699C251.053 15.769 251.027 15.7609 251.005 15.7469C250.983 15.7328 250.966 15.7133 250.957 15.691C250.762 15.0762 250.783 14.4261 251.017 13.8212C251.251 13.2162 251.689 12.6828 252.275 12.2869C252.289 12.2787 252.299 12.267 252.304 12.2535C252.31 12.24 252.31 12.2255 252.304 12.212C252.299 12.1984 252.289 12.1867 252.276 12.1784C252.262 12.1702 252.246 12.1658 252.229 12.166C249.992 12.1973 248.596 12.3277 247.209 11.1812C247.163 11.1419 247.104 11.114 247.041 11.1006C246.977 11.0872 246.91 11.0888 246.847 11.1051C246.31 11.2553 245.801 11.4698 245.336 11.7422Z" fill="white" stroke="black" stroke-width="2" stroke-miterlimit="10" stroke-linecap="round"/>
<path d="M258.772 57.6606H241.719C241.102 57.6607 240.491 57.5542 239.925 57.3475C239.358 57.1408 238.846 56.8382 238.421 56.4582C237.996 56.0782 237.666 55.6287 237.452 55.1369C237.237 54.6452 237.143 54.1215 237.174 53.5977L238.516 31.0757C238.516 28.9338 239.516 26.8796 241.297 25.3649C243.078 23.8503 245.494 22.9991 248.013 22.9988H252.452C254.971 22.9988 257.387 23.8496 259.169 25.364C260.95 26.8784 261.951 28.9325 261.951 31.0744L263.317 53.5977C263.348 54.1215 263.254 54.6452 263.039 55.1369C262.825 55.6287 262.495 56.0782 262.07 56.4582C261.645 56.8382 261.133 57.1408 260.566 57.3475C259.999 57.5542 259.389 57.6607 258.772 57.6606Z" fill="#35A7FF" stroke="black" stroke-width="2" stroke-miterlimit="10" stroke-linecap="round"/>
<path d="M247.005 35.9932V23.454C245.623 23.385 244.251 23.6836 243.078 24.3084V35.7609L247.005 35.9932Z" fill="#FF3C38" stroke="black" stroke-width="2" stroke-miterlimit="10"/>
<path d="M256.997 37.9174L257.053 24.2276C255.7 23.8201 254.157 23.0051 252.756 23.1871L252.857 38.5857L256.997 37.9174Z" fill="#FF3C38" stroke="black" stroke-width="2" stroke-miterlimit="10"/>
<path d="M250.449 30.4057C253.134 30.4057 255.71 31.3128 257.609 32.9273C259.507 34.5419 260.574 36.7318 260.574 39.0151V45.6101C260.574 46.5558 260.132 47.4627 259.346 48.1314C258.559 48.8001 257.493 49.1758 256.381 49.1758H244.516C243.404 49.1758 242.337 48.8001 241.551 48.1314C240.764 47.4627 240.322 46.5558 240.322 45.6101V39.0151C240.322 37.8844 240.584 36.7648 241.093 35.7201C241.602 34.6755 242.348 33.7263 243.288 32.9269C244.229 32.1274 245.345 31.4932 246.574 31.0607C247.802 30.6281 249.119 30.4055 250.449 30.4057Z" fill="#FF3C38" stroke="black" stroke-width="2" stroke-miterlimit="10"/>
<path d="M254.523 45.7462V35.3845C254.523 34.8758 254.039 34.4635 253.44 34.4635H246.735C246.137 34.4635 245.652 34.8758 245.652 35.3845V45.7462C245.652 46.2549 246.137 46.6672 246.735 46.6672H253.44C254.039 46.6672 254.523 46.2549 254.523 45.7462Z" fill="#FEE100" stroke="black" stroke-width="2" stroke-miterlimit="10" stroke-linecap="round"/>
<path d="M249.859 108.612H239.83L240.742 105.049C240.831 104.702 241.056 104.392 241.381 104.17C241.705 103.947 242.11 103.826 242.527 103.826H247.447C247.885 103.826 248.309 103.96 248.641 104.203C248.973 104.447 249.191 104.783 249.255 105.152L249.859 108.612Z" fill="black" stroke="black" stroke-width="2" stroke-miterlimit="10" stroke-linecap="round"/>
<path d="M247.845 111.974H241.752C241.417 111.975 241.086 111.912 240.783 111.789C240.481 111.667 240.214 111.488 240.004 111.267C239.794 111.045 239.644 110.786 239.567 110.509C239.491 110.231 239.488 109.943 239.56 109.665L239.83 108.612H249.859L250.064 109.79C250.111 110.061 250.09 110.338 250 110.601C249.911 110.864 249.755 111.108 249.544 111.315C249.334 111.523 249.073 111.689 248.779 111.803C248.486 111.916 248.167 111.975 247.845 111.974Z" fill="white" stroke="black" stroke-width="2" stroke-miterlimit="10" stroke-linecap="round"/>
<path d="M264.596 108.174L254.574 108.508L255.322 104.917C255.394 104.568 255.604 104.25 255.918 104.017C256.232 103.783 256.63 103.648 257.047 103.634L261.964 103.471C262.402 103.456 262.832 103.575 263.175 103.808C263.518 104.04 263.751 104.369 263.832 104.735L264.596 108.174Z" fill="black" stroke="black" stroke-width="2" stroke-miterlimit="10" stroke-linecap="round"/>
<path d="M262.734 111.6L256.646 111.803C256.31 111.815 255.976 111.763 255.667 111.651C255.359 111.538 255.084 111.368 254.863 111.153C254.643 110.938 254.482 110.683 254.393 110.408C254.304 110.133 254.289 109.844 254.349 109.563L254.571 108.503L264.592 108.169L264.851 109.339C264.912 109.608 264.904 109.886 264.827 110.153C264.75 110.42 264.606 110.669 264.405 110.884C264.204 111.099 263.95 111.274 263.662 111.398C263.373 111.522 263.057 111.591 262.734 111.6Z" fill="white" stroke="black" stroke-width="2" stroke-miterlimit="10" stroke-linecap="round"/>
<path d="M250.715 66.2428C250.715 66.2428 250.715 66.4207 247.84 65.7198L250.715 66.2428Z" fill="white"/>
<path d="M250.715 66.2428C250.715 66.2428 250.715 66.4207 247.84 65.7198" stroke="black" stroke-width="2" stroke-miterlimit="10" stroke-linecap="round"/>
</svg>
