<svg width="302" height="143" viewBox="0 0 302 143" fill="none" xmlns="http://www.w3.org/2000/svg">
<rect x="5.01953" y="2.474" width="167.345" height="30.7078" rx="15.3539" stroke="#FEE101"/>
<path d="M31.0554 15.6039H34.8154C34.9861 15.6039 35.1247 15.6625 35.2314 15.7799C35.3487 15.8972 35.4074 16.0359 35.4074 16.1959C35.4074 16.3665 35.3487 16.5105 35.2314 16.6279C35.1247 16.7345 34.9861 16.7879 34.8154 16.7879H31.0554C30.8954 16.7879 30.7567 16.7292 30.6394 16.6119C30.5221 16.4945 30.4634 16.3505 30.4634 16.1799C30.4634 16.0199 30.5221 15.8865 30.6394 15.7799C30.7567 15.6625 30.8954 15.6039 31.0554 15.6039ZM32.7354 13.4279C32.9167 13.4279 33.0661 13.4919 33.1834 13.6199C33.3007 13.7372 33.3594 13.8865 33.3594 14.0679V21.7959C33.3594 22.0519 33.3967 22.2439 33.4714 22.3719C33.5461 22.4999 33.6421 22.5905 33.7594 22.6439C33.8874 22.6865 34.0101 22.7079 34.1274 22.7079C34.2341 22.7079 34.3247 22.6919 34.3994 22.6599C34.4847 22.6172 34.5807 22.5959 34.6874 22.5959C34.7941 22.5959 34.8901 22.6492 34.9754 22.7559C35.0714 22.8519 35.1194 22.9799 35.1194 23.1399C35.1194 23.3319 35.0074 23.4972 34.7834 23.6359C34.5594 23.7639 34.3087 23.8279 34.0314 23.8279C33.8821 23.8279 33.6954 23.8172 33.4714 23.7959C33.2581 23.7745 33.0447 23.7052 32.8314 23.5879C32.6181 23.4705 32.4367 23.2785 32.2874 23.0119C32.1487 22.7345 32.0794 22.3505 32.0794 21.8599V14.0679C32.0794 13.8865 32.1434 13.7372 32.2714 13.6199C32.3994 13.4919 32.5541 13.4279 32.7354 13.4279ZM37.8279 23.8279C37.6466 23.8279 37.4919 23.7639 37.3639 23.6359C37.2466 23.5079 37.1879 23.3532 37.1879 23.1719V16.1959C37.1879 16.0145 37.2466 15.8652 37.3639 15.7479C37.4919 15.6199 37.6466 15.5559 37.8279 15.5559C38.0199 15.5559 38.1746 15.6199 38.2919 15.7479C38.4092 15.8652 38.4679 16.0145 38.4679 16.1959V18.3079L38.2759 17.9719C38.3399 17.6412 38.4519 17.3212 38.6119 17.0119C38.7826 16.6919 38.9959 16.4092 39.2519 16.1639C39.5079 15.9079 39.8012 15.7105 40.1319 15.5719C40.4626 15.4225 40.8252 15.3479 41.2199 15.3479C41.4546 15.3479 41.6679 15.4065 41.8599 15.5239C42.0626 15.6305 42.1639 15.7852 42.1639 15.9879C42.1639 16.2119 42.1052 16.3772 41.9879 16.4839C41.8706 16.5905 41.7372 16.6439 41.5879 16.6439C41.4492 16.6439 41.3159 16.6172 41.1879 16.5639C41.0599 16.4999 40.8999 16.4679 40.7079 16.4679C40.4412 16.4679 40.1746 16.5425 39.9079 16.6919C39.6519 16.8305 39.4119 17.0332 39.1879 17.2999C38.9746 17.5665 38.7986 17.8705 38.6599 18.2119C38.5319 18.5425 38.4679 18.8999 38.4679 19.2839V23.1719C38.4679 23.3532 38.4039 23.5079 38.2759 23.6359C38.1586 23.7639 38.0092 23.8279 37.8279 23.8279ZM50.2383 15.4759C50.4196 15.4759 50.5689 15.5399 50.6863 15.6679C50.8143 15.7852 50.8783 15.9345 50.8783 16.1159V23.1719C50.8783 23.3532 50.8143 23.5079 50.6863 23.6359C50.5689 23.7639 50.4196 23.8279 50.2383 23.8279C50.0463 23.8279 49.8916 23.7639 49.7743 23.6359C49.6569 23.5079 49.5983 23.3532 49.5983 23.1719V21.6519L49.9023 21.6199C49.9023 21.8545 49.8223 22.1105 49.6623 22.3879C49.5023 22.6652 49.2836 22.9265 49.0063 23.1719C48.7289 23.4065 48.3983 23.6039 48.0143 23.7639C47.6409 23.9132 47.2356 23.9879 46.7983 23.9879C46.0729 23.9879 45.4223 23.8012 44.8463 23.4279C44.2703 23.0439 43.8116 22.5265 43.4703 21.8759C43.1396 21.2252 42.9743 20.4839 42.9743 19.6519C42.9743 18.8092 43.1396 18.0679 43.4703 17.4279C43.8116 16.7772 44.2703 16.2705 44.8463 15.9079C45.4223 15.5345 46.0623 15.3479 46.7663 15.3479C47.2249 15.3479 47.6516 15.4225 48.0463 15.5719C48.4409 15.7212 48.7823 15.9239 49.0703 16.1799C49.3689 16.4359 49.5983 16.7185 49.7583 17.0279C49.9289 17.3372 50.0143 17.6465 50.0143 17.9559L49.5983 17.8599V16.1159C49.5983 15.9345 49.6569 15.7852 49.7743 15.6679C49.8916 15.5399 50.0463 15.4759 50.2383 15.4759ZM46.9423 22.8039C47.4756 22.8039 47.9449 22.6652 48.3503 22.3879C48.7663 22.1105 49.0863 21.7372 49.3103 21.2679C49.5449 20.7879 49.6623 20.2492 49.6623 19.6519C49.6623 19.0652 49.5449 18.5372 49.3103 18.0679C49.0863 17.5879 48.7663 17.2145 48.3503 16.9479C47.9449 16.6705 47.4756 16.5319 46.9423 16.5319C46.4196 16.5319 45.9503 16.6652 45.5343 16.9319C45.1289 17.1985 44.8089 17.5665 44.5743 18.0359C44.3396 18.5052 44.2223 19.0439 44.2223 19.6519C44.2223 20.2492 44.3343 20.7879 44.5583 21.2679C44.7929 21.7372 45.1129 22.1105 45.5183 22.3879C45.9343 22.6652 46.4089 22.8039 46.9423 22.8039ZM57.3624 15.3479C58.0877 15.3479 58.6584 15.4972 59.0744 15.7959C59.4904 16.0945 59.7837 16.4945 59.9544 16.9959C60.1357 17.4972 60.2264 18.0572 60.2264 18.6759V23.1719C60.2264 23.3532 60.1624 23.5079 60.0344 23.6359C59.9171 23.7639 59.7677 23.8279 59.5864 23.8279C59.4051 23.8279 59.2504 23.7639 59.1224 23.6359C59.0051 23.5079 58.9464 23.3532 58.9464 23.1719V18.7079C58.9464 18.3025 58.8824 17.9399 58.7544 17.6199C58.6371 17.2892 58.4344 17.0279 58.1464 16.8359C57.8691 16.6332 57.4851 16.5319 56.9944 16.5319C56.5464 16.5319 56.1357 16.6332 55.7624 16.8359C55.3891 17.0279 55.0904 17.2892 54.8664 17.6199C54.6424 17.9399 54.5304 18.3025 54.5304 18.7079V23.1719C54.5304 23.3532 54.4664 23.5079 54.3384 23.6359C54.2211 23.7639 54.0717 23.8279 53.8904 23.8279C53.7091 23.8279 53.5544 23.7639 53.4264 23.6359C53.3091 23.5079 53.2504 23.3532 53.2504 23.1719V16.1959C53.2504 16.0145 53.3091 15.8652 53.4264 15.7479C53.5544 15.6199 53.7091 15.5559 53.8904 15.5559C54.0824 15.5559 54.2371 15.6199 54.3544 15.7479C54.4717 15.8652 54.5304 16.0145 54.5304 16.1959V17.3319L54.2104 17.6839C54.2637 17.4065 54.3864 17.1292 54.5784 16.8519C54.7704 16.5639 55.0104 16.3079 55.2984 16.0839C55.5864 15.8599 55.9064 15.6839 56.2584 15.5559C56.6104 15.4172 56.9784 15.3479 57.3624 15.3479ZM62.1302 22.5159C62.0342 22.3772 61.9915 22.2332 62.0022 22.0839C62.0128 21.9239 62.1035 21.7852 62.2742 21.6679C62.3808 21.5932 62.5035 21.5612 62.6422 21.5719C62.7915 21.5825 62.9248 21.6519 63.0422 21.7799C63.3408 22.1319 63.6822 22.4145 64.0662 22.6279C64.4502 22.8305 64.9195 22.9319 65.4742 22.9319C65.7302 22.9212 65.9862 22.8785 66.2422 22.8039C66.4982 22.7292 66.7115 22.6012 66.8822 22.4199C67.0635 22.2279 67.1542 21.9772 67.1542 21.6679C67.1542 21.3692 67.0635 21.1345 66.8822 20.9639C66.7008 20.7825 66.4662 20.6385 66.1782 20.5319C65.8902 20.4145 65.5755 20.3132 65.2342 20.2279C64.8822 20.1319 64.5355 20.0252 64.1942 19.9079C63.8528 19.7799 63.5435 19.6252 63.2662 19.4439C62.9995 19.2519 62.7808 19.0172 62.6102 18.7399C62.4502 18.4519 62.3702 18.1052 62.3702 17.6999C62.3702 17.2199 62.4982 16.8039 62.7542 16.4519C63.0208 16.0999 63.3728 15.8279 63.8102 15.6359C64.2582 15.4439 64.7435 15.3479 65.2662 15.3479C65.5648 15.3479 65.8742 15.3852 66.1942 15.4599C66.5248 15.5239 66.8448 15.6412 67.1542 15.8119C67.4635 15.9719 67.7355 16.1959 67.9702 16.4839C68.0662 16.5905 68.1195 16.7239 68.1302 16.8839C68.1408 17.0439 68.0715 17.1879 67.9222 17.3159C67.8048 17.4012 67.6715 17.4385 67.5222 17.4279C67.3835 17.4172 67.2662 17.3639 67.1702 17.2679C66.9462 17.0012 66.6635 16.7985 66.3222 16.6599C65.9915 16.5105 65.6235 16.4359 65.2182 16.4359C64.9622 16.4359 64.7115 16.4732 64.4662 16.5479C64.2208 16.6225 64.0128 16.7505 63.8422 16.9319C63.6822 17.1025 63.6022 17.3425 63.6022 17.6519C63.6128 17.9399 63.7088 18.1745 63.8902 18.3559C64.0715 18.5372 64.3168 18.6865 64.6262 18.8039C64.9355 18.9105 65.2768 19.0172 65.6502 19.1239C65.9915 19.2092 66.3168 19.3105 66.6262 19.4279C66.9462 19.5345 67.2342 19.6785 67.4902 19.8599C67.7462 20.0412 67.9488 20.2759 68.0982 20.5639C68.2475 20.8412 68.3222 21.1932 68.3222 21.6199C68.3222 22.1105 68.1835 22.5372 67.9062 22.8999C67.6288 23.2519 67.2608 23.5239 66.8022 23.7159C66.3542 23.8972 65.8688 23.9879 65.3462 23.9879C64.7595 23.9879 64.1782 23.8759 63.6022 23.6519C63.0368 23.4279 62.5462 23.0492 62.1302 22.5159ZM74.2523 15.4279C74.9776 15.4279 75.6283 15.6092 76.2043 15.9719C76.7803 16.3345 77.2336 16.8359 77.5643 17.4759C77.9056 18.1159 78.0763 18.8519 78.0763 19.6839C78.0763 20.5052 77.9056 21.2412 77.5643 21.8919C77.2336 22.5319 76.7803 23.0385 76.2043 23.4119C75.6389 23.7745 74.9989 23.9559 74.2843 23.9559C73.8896 23.9559 73.5163 23.8972 73.1643 23.7799C72.8229 23.6519 72.5083 23.4919 72.2203 23.2999C71.9429 23.0972 71.7083 22.8732 71.5163 22.6279C71.3243 22.3719 71.1856 22.1212 71.1003 21.8759L71.4523 21.6519V26.3719C71.4523 26.5532 71.3936 26.7079 71.2763 26.8359C71.1589 26.9639 71.0043 27.0279 70.8123 27.0279C70.6309 27.0279 70.4763 26.9639 70.3483 26.8359C70.2309 26.7185 70.1723 26.5639 70.1723 26.3719V16.1479C70.1723 15.9665 70.2309 15.8172 70.3483 15.6999C70.4763 15.5719 70.6309 15.5079 70.8123 15.5079C71.0043 15.5079 71.1589 15.5719 71.2763 15.6999C71.3936 15.8172 71.4523 15.9665 71.4523 16.1479V17.5719L71.2123 17.4439C71.2869 17.1772 71.4149 16.9212 71.5963 16.6759C71.7883 16.4305 72.0176 16.2172 72.2843 16.0359C72.5616 15.8439 72.8656 15.6945 73.1963 15.5879C73.5376 15.4812 73.8896 15.4279 74.2523 15.4279ZM74.1083 16.6119C73.5749 16.6119 73.1003 16.7452 72.6843 17.0119C72.2789 17.2785 71.9589 17.6412 71.7243 18.0999C71.5003 18.5585 71.3883 19.0865 71.3883 19.6839C71.3883 20.2705 71.5003 20.7985 71.7243 21.2679C71.9589 21.7372 72.2789 22.1052 72.6843 22.3719C73.1003 22.6385 73.5749 22.7719 74.1083 22.7719C74.6416 22.7719 75.1109 22.6385 75.5163 22.3719C75.9216 22.1052 76.2416 21.7372 76.4763 21.2679C76.7109 20.7985 76.8283 20.2705 76.8283 19.6839C76.8283 19.0865 76.7109 18.5585 76.4763 18.0999C76.2416 17.6412 75.9216 17.2785 75.5163 17.0119C75.1109 16.7452 74.6416 16.6119 74.1083 16.6119ZM87.8564 19.6679C87.8564 20.4999 87.6697 21.2412 87.2964 21.8919C86.9337 22.5425 86.4377 23.0545 85.8084 23.4279C85.1897 23.8012 84.4911 23.9879 83.7124 23.9879C82.9337 23.9879 82.2297 23.8012 81.6004 23.4279C80.9711 23.0545 80.4697 22.5425 80.0964 21.8919C79.7337 21.2412 79.5524 20.4999 79.5524 19.6679C79.5524 18.8359 79.7337 18.0945 80.0964 17.4439C80.4697 16.7932 80.9711 16.2812 81.6004 15.9079C82.2297 15.5345 82.9337 15.3479 83.7124 15.3479C84.4911 15.3479 85.1897 15.5345 85.8084 15.9079C86.4377 16.2812 86.9337 16.7932 87.2964 17.4439C87.6697 18.0945 87.8564 18.8359 87.8564 19.6679ZM86.5764 19.6679C86.5764 19.0492 86.4484 18.5052 86.1924 18.0359C85.9471 17.5665 85.6057 17.1985 85.1684 16.9319C84.7417 16.6652 84.2564 16.5319 83.7124 16.5319C83.1684 16.5319 82.6777 16.6652 82.2404 16.9319C81.8137 17.1985 81.4724 17.5665 81.2164 18.0359C80.9604 18.5052 80.8324 19.0492 80.8324 19.6679C80.8324 20.2759 80.9604 20.8145 81.2164 21.2839C81.4724 21.7532 81.8137 22.1265 82.2404 22.4039C82.6777 22.6705 83.1684 22.8039 83.7124 22.8039C84.2564 22.8039 84.7417 22.6705 85.1684 22.4039C85.6057 22.1265 85.9471 21.7532 86.1924 21.2839C86.4484 20.8145 86.5764 20.2759 86.5764 19.6679ZM90.4217 23.8279C90.2403 23.8279 90.0857 23.7639 89.9577 23.6359C89.8403 23.5079 89.7817 23.3532 89.7817 23.1719V16.1959C89.7817 16.0145 89.8403 15.8652 89.9577 15.7479C90.0857 15.6199 90.2403 15.5559 90.4217 15.5559C90.6137 15.5559 90.7683 15.6199 90.8857 15.7479C91.003 15.8652 91.0617 16.0145 91.0617 16.1959V18.3079L90.8697 17.9719C90.9337 17.6412 91.0457 17.3212 91.2057 17.0119C91.3763 16.6919 91.5897 16.4092 91.8457 16.1639C92.1017 15.9079 92.395 15.7105 92.7257 15.5719C93.0563 15.4225 93.419 15.3479 93.8137 15.3479C94.0483 15.3479 94.2617 15.4065 94.4537 15.5239C94.6563 15.6305 94.7577 15.7852 94.7577 15.9879C94.7577 16.2119 94.699 16.3772 94.5817 16.4839C94.4643 16.5905 94.331 16.6439 94.1817 16.6439C94.043 16.6439 93.9097 16.6172 93.7817 16.5639C93.6537 16.4999 93.4937 16.4679 93.3017 16.4679C93.035 16.4679 92.7683 16.5425 92.5017 16.6919C92.2457 16.8305 92.0057 17.0332 91.7817 17.2999C91.5683 17.5665 91.3923 17.8705 91.2537 18.2119C91.1257 18.5425 91.0617 18.8999 91.0617 19.2839V23.1719C91.0617 23.3532 90.9977 23.5079 90.8697 23.6359C90.7523 23.7639 90.603 23.8279 90.4217 23.8279ZM95.8835 15.6039H99.6435C99.8142 15.6039 99.9529 15.6625 100.06 15.7799C100.177 15.8972 100.236 16.0359 100.236 16.1959C100.236 16.3665 100.177 16.5105 100.06 16.6279C99.9529 16.7345 99.8142 16.7879 99.6435 16.7879H95.8835C95.7235 16.7879 95.5849 16.7292 95.4675 16.6119C95.3502 16.4945 95.2915 16.3505 95.2915 16.1799C95.2915 16.0199 95.3502 15.8865 95.4675 15.7799C95.5849 15.6625 95.7235 15.6039 95.8835 15.6039ZM97.5635 13.4279C97.7449 13.4279 97.8942 13.4919 98.0115 13.6199C98.1289 13.7372 98.1875 13.8865 98.1875 14.0679V21.7959C98.1875 22.0519 98.2249 22.2439 98.2995 22.3719C98.3742 22.4999 98.4702 22.5905 98.5875 22.6439C98.7155 22.6865 98.8382 22.7079 98.9555 22.7079C99.0622 22.7079 99.1529 22.6919 99.2275 22.6599C99.3129 22.6172 99.4089 22.5959 99.5155 22.5959C99.6222 22.5959 99.7182 22.6492 99.8035 22.7559C99.8995 22.8519 99.9475 22.9799 99.9475 23.1399C99.9475 23.3319 99.8355 23.4972 99.6115 23.6359C99.3875 23.7639 99.1369 23.8279 98.8595 23.8279C98.7102 23.8279 98.5235 23.8172 98.2995 23.7959C98.0862 23.7745 97.8729 23.7052 97.6595 23.5879C97.4462 23.4705 97.2649 23.2785 97.1155 23.0119C96.9769 22.7345 96.9075 22.3505 96.9075 21.8599V14.0679C96.9075 13.8865 96.9715 13.7372 97.0995 13.6199C97.2275 13.4919 97.3822 13.4279 97.5635 13.4279ZM108.832 15.4759C109.013 15.4759 109.163 15.5399 109.28 15.6679C109.408 15.7852 109.472 15.9345 109.472 16.1159V23.1719C109.472 23.3532 109.408 23.5079 109.28 23.6359C109.163 23.7639 109.013 23.8279 108.832 23.8279C108.64 23.8279 108.485 23.7639 108.368 23.6359C108.251 23.5079 108.192 23.3532 108.192 23.1719V21.6519L108.496 21.6199C108.496 21.8545 108.416 22.1105 108.256 22.3879C108.096 22.6652 107.877 22.9265 107.6 23.1719C107.323 23.4065 106.992 23.6039 106.608 23.7639C106.235 23.9132 105.829 23.9879 105.392 23.9879C104.667 23.9879 104.016 23.8012 103.44 23.4279C102.864 23.0439 102.405 22.5265 102.064 21.8759C101.733 21.2252 101.568 20.4839 101.568 19.6519C101.568 18.8092 101.733 18.0679 102.064 17.4279C102.405 16.7772 102.864 16.2705 103.44 15.9079C104.016 15.5345 104.656 15.3479 105.36 15.3479C105.819 15.3479 106.245 15.4225 106.64 15.5719C107.035 15.7212 107.376 15.9239 107.664 16.1799C107.963 16.4359 108.192 16.7185 108.352 17.0279C108.523 17.3372 108.608 17.6465 108.608 17.9559L108.192 17.8599V16.1159C108.192 15.9345 108.251 15.7852 108.368 15.6679C108.485 15.5399 108.64 15.4759 108.832 15.4759ZM105.536 22.8039C106.069 22.8039 106.539 22.6652 106.944 22.3879C107.36 22.1105 107.68 21.7372 107.904 21.2679C108.139 20.7879 108.256 20.2492 108.256 19.6519C108.256 19.0652 108.139 18.5372 107.904 18.0679C107.68 17.5879 107.36 17.2145 106.944 16.9479C106.539 16.6705 106.069 16.5319 105.536 16.5319C105.013 16.5319 104.544 16.6652 104.128 16.9319C103.723 17.1985 103.403 17.5665 103.168 18.0359C102.933 18.5052 102.816 19.0439 102.816 19.6519C102.816 20.2492 102.928 20.7879 103.152 21.2679C103.387 21.7372 103.707 22.1105 104.112 22.3879C104.528 22.6652 105.003 22.8039 105.536 22.8039ZM115.924 15.3479C116.649 15.3479 117.3 15.5345 117.876 15.9079C118.452 16.2705 118.905 16.7719 119.236 17.4119C119.577 18.0519 119.748 18.7932 119.748 19.6359C119.748 20.4785 119.577 21.2252 119.236 21.8759C118.905 22.5265 118.452 23.0439 117.876 23.4279C117.311 23.8012 116.671 23.9879 115.956 23.9879C115.561 23.9879 115.188 23.9292 114.836 23.8119C114.495 23.6839 114.18 23.5185 113.892 23.3159C113.615 23.1025 113.38 22.8732 113.188 22.6279C112.996 22.3719 112.857 22.1212 112.772 21.8759L113.124 21.6519V23.2519C113.124 23.4332 113.065 23.5879 112.948 23.7159C112.831 23.8439 112.676 23.9079 112.484 23.9079C112.303 23.9079 112.148 23.8492 112.02 23.7319C111.903 23.6039 111.844 23.4439 111.844 23.2519V12.6439C111.844 12.4625 111.903 12.3079 112.02 12.1799C112.148 12.0519 112.303 11.9879 112.484 11.9879C112.676 11.9879 112.831 12.0519 112.948 12.1799C113.065 12.3079 113.124 12.4625 113.124 12.6439V17.5719L112.884 17.4439C112.959 17.1772 113.087 16.9212 113.268 16.6759C113.46 16.4199 113.689 16.1959 113.956 16.0039C114.233 15.8012 114.537 15.6412 114.868 15.5239C115.209 15.4065 115.561 15.3479 115.924 15.3479ZM115.78 16.5319C115.247 16.5319 114.772 16.6652 114.356 16.9319C113.951 17.1985 113.631 17.5665 113.396 18.0359C113.172 18.5052 113.06 19.0385 113.06 19.6359C113.06 20.2332 113.172 20.7719 113.396 21.2519C113.631 21.7319 113.951 22.1105 114.356 22.3879C114.772 22.6652 115.247 22.8039 115.78 22.8039C116.313 22.8039 116.783 22.6652 117.188 22.3879C117.593 22.1105 117.913 21.7319 118.148 21.2519C118.383 20.7719 118.5 20.2332 118.5 19.6359C118.5 19.0385 118.383 18.5052 118.148 18.0359C117.913 17.5665 117.593 17.1985 117.188 16.9319C116.783 16.6652 116.313 16.5319 115.78 16.5319ZM122.904 23.1719C122.904 23.3532 122.84 23.5079 122.712 23.6359C122.595 23.7639 122.446 23.8279 122.264 23.8279C122.072 23.8279 121.918 23.7639 121.8 23.6359C121.683 23.5079 121.624 23.3532 121.624 23.1719V16.0679C121.624 15.8865 121.683 15.7372 121.8 15.6199C121.928 15.4919 122.083 15.4279 122.264 15.4279C122.446 15.4279 122.595 15.4919 122.712 15.6199C122.84 15.7372 122.904 15.8865 122.904 16.0679V23.1719ZM122.264 14.3559C121.998 14.3559 121.8 14.3025 121.672 14.1959C121.544 14.0892 121.48 13.9239 121.48 13.6999V13.4759C121.48 13.2519 121.55 13.0865 121.688 12.9799C121.827 12.8732 122.024 12.8199 122.28 12.8199C122.536 12.8199 122.728 12.8732 122.856 12.9799C122.984 13.0865 123.048 13.2519 123.048 13.4759V13.6999C123.048 13.9239 122.979 14.0892 122.84 14.1959C122.712 14.3025 122.52 14.3559 122.264 14.3559ZM126.612 23.1719C126.612 23.3532 126.548 23.5079 126.42 23.6359C126.292 23.7639 126.137 23.8279 125.956 23.8279C125.774 23.8279 125.625 23.7639 125.508 23.6359C125.39 23.5079 125.332 23.3532 125.332 23.1719V12.6279C125.332 12.4465 125.39 12.2972 125.508 12.1799C125.636 12.0519 125.79 11.9879 125.972 11.9879C126.164 11.9879 126.318 12.0519 126.436 12.1799C126.553 12.2972 126.612 12.4465 126.612 12.6279V23.1719ZM130.326 23.1719C130.326 23.3532 130.262 23.5079 130.134 23.6359C130.017 23.7639 129.867 23.8279 129.686 23.8279C129.494 23.8279 129.339 23.7639 129.222 23.6359C129.105 23.5079 129.046 23.3532 129.046 23.1719V16.0679C129.046 15.8865 129.105 15.7372 129.222 15.6199C129.35 15.4919 129.505 15.4279 129.686 15.4279C129.867 15.4279 130.017 15.4919 130.134 15.6199C130.262 15.7372 130.326 15.8865 130.326 16.0679V23.1719ZM129.686 14.3559C129.419 14.3559 129.222 14.3025 129.094 14.1959C128.966 14.0892 128.902 13.9239 128.902 13.6999V13.4759C128.902 13.2519 128.971 13.0865 129.11 12.9799C129.249 12.8732 129.446 12.8199 129.702 12.8199C129.958 12.8199 130.15 12.8732 130.278 12.9799C130.406 13.0865 130.47 13.2519 130.47 13.4759V13.6999C130.47 13.9239 130.401 14.0892 130.262 14.1959C130.134 14.3025 129.942 14.3559 129.686 14.3559ZM132.305 15.6039H136.065C136.236 15.6039 136.375 15.6625 136.481 15.7799C136.599 15.8972 136.657 16.0359 136.657 16.1959C136.657 16.3665 136.599 16.5105 136.481 16.6279C136.375 16.7345 136.236 16.7879 136.065 16.7879H132.305C132.145 16.7879 132.007 16.7292 131.889 16.6119C131.772 16.4945 131.713 16.3505 131.713 16.1799C131.713 16.0199 131.772 15.8865 131.889 15.7799C132.007 15.6625 132.145 15.6039 132.305 15.6039ZM133.985 13.4279C134.167 13.4279 134.316 13.4919 134.433 13.6199C134.551 13.7372 134.609 13.8865 134.609 14.0679V21.7959C134.609 22.0519 134.647 22.2439 134.721 22.3719C134.796 22.4999 134.892 22.5905 135.009 22.6439C135.137 22.6865 135.26 22.7079 135.377 22.7079C135.484 22.7079 135.575 22.6919 135.649 22.6599C135.735 22.6172 135.831 22.5959 135.937 22.5959C136.044 22.5959 136.14 22.6492 136.225 22.7559C136.321 22.8519 136.369 22.9799 136.369 23.1399C136.369 23.3319 136.257 23.4972 136.033 23.6359C135.809 23.7639 135.559 23.8279 135.281 23.8279C135.132 23.8279 134.945 23.8172 134.721 23.7959C134.508 23.7745 134.295 23.7052 134.081 23.5879C133.868 23.4705 133.687 23.2785 133.537 23.0119C133.399 22.7345 133.329 22.3505 133.329 21.8599V14.0679C133.329 13.8865 133.393 13.7372 133.521 13.6199C133.649 13.4919 133.804 13.4279 133.985 13.4279ZM144.63 15.4279C144.811 15.4279 144.961 15.4919 145.078 15.6199C145.206 15.7372 145.27 15.8865 145.27 16.0679V23.0439C145.27 23.9399 145.094 24.6812 144.742 25.2679C144.39 25.8652 143.915 26.3079 143.318 26.5959C142.731 26.8839 142.065 27.0279 141.318 27.0279C140.902 27.0279 140.502 26.9852 140.118 26.8999C139.734 26.8145 139.419 26.7025 139.174 26.5639C138.971 26.4679 138.827 26.3452 138.742 26.1959C138.667 26.0572 138.657 25.9079 138.71 25.7479C138.785 25.5559 138.891 25.4225 139.03 25.3479C139.179 25.2732 139.334 25.2732 139.494 25.3479C139.665 25.4225 139.91 25.5239 140.23 25.6519C140.561 25.7905 140.929 25.8599 141.334 25.8599C141.889 25.8599 142.363 25.7532 142.758 25.5399C143.153 25.3265 143.457 25.0119 143.67 24.5959C143.883 24.1905 143.99 23.6839 143.99 23.0759V21.9399L144.182 22.3399C144.011 22.6705 143.782 22.9585 143.494 23.2039C143.206 23.4492 142.875 23.6412 142.502 23.7799C142.129 23.9185 141.718 23.9879 141.27 23.9879C140.662 23.9879 140.145 23.8599 139.718 23.6039C139.302 23.3372 138.982 22.9745 138.758 22.5159C138.545 22.0465 138.438 21.5079 138.438 20.8999V16.0679C138.438 15.8865 138.497 15.7372 138.614 15.6199C138.742 15.4919 138.897 15.4279 139.078 15.4279C139.27 15.4279 139.425 15.4919 139.542 15.6199C139.659 15.7372 139.718 15.8865 139.718 16.0679V20.6119C139.718 21.3372 139.878 21.8865 140.198 22.2599C140.518 22.6225 141.014 22.8039 141.686 22.8039C142.113 22.8039 142.497 22.7079 142.838 22.5159C143.19 22.3239 143.467 22.0625 143.67 21.7319C143.883 21.3905 143.99 21.0172 143.99 20.6119V16.0679C143.99 15.8865 144.049 15.7372 144.166 15.6199C144.283 15.4919 144.438 15.4279 144.63 15.4279Z" fill="#FEE101"/>
<path d="M28.9709 101.469C29.7651 101.891 30.2164 102.543 30.3247 103.425C30.4691 104.307 30.2705 105.112 29.729 105.84C29.3319 106.415 28.8085 106.741 28.1586 106.818C27.5449 106.895 26.9312 106.76 26.3175 106.415C25.2706 105.84 24.1695 105.38 23.0143 105.035C21.8591 104.69 20.6316 104.517 19.332 104.517C17.2742 104.517 15.4151 104.882 13.7544 105.61C12.1299 106.3 10.7219 107.316 9.53062 108.658C8.33929 109.962 7.41872 111.515 6.76891 113.317C6.15519 115.119 5.84834 117.113 5.84834 119.298C5.84834 121.713 6.19129 123.861 6.87721 125.739C7.56312 127.58 8.50175 129.152 9.69307 130.455C10.9205 131.721 12.3465 132.679 13.971 133.331C15.6317 133.944 17.4186 134.251 19.332 134.251C20.5594 134.251 21.7508 134.098 22.906 133.791C24.0973 133.484 25.2164 133.024 26.2634 132.411C26.9132 132.066 27.5449 131.951 28.1586 132.066C28.8085 132.142 29.3319 132.468 29.729 133.043C30.3428 133.848 30.5594 134.673 30.3789 135.516C30.2344 136.321 29.7832 136.935 29.0251 137.357C28.1225 137.893 27.1298 138.354 26.0468 138.737C24.9637 139.12 23.8626 139.427 22.7435 139.657C21.6244 139.887 20.4872 140.002 19.332 140.002C16.7327 140.002 14.2779 139.542 11.9674 138.622C9.65697 137.702 7.59922 136.36 5.79418 134.596C3.98914 132.832 2.56316 130.666 1.51623 128.097C0.505412 125.528 0 122.595 0 119.298C0 116.346 0.469311 113.623 1.40793 111.131C2.38265 108.601 3.73644 106.435 5.46928 104.632C7.23822 102.792 9.29596 101.373 11.6425 100.377C13.9891 99.3414 16.5522 98.8238 19.332 98.8238C21.0648 98.8238 22.7435 99.0538 24.3681 99.5139C26.0287 99.974 27.563 100.626 28.9709 101.469Z" fill="#F4F7FB"/>
<path d="M71.0325 119.298C71.0325 122.212 70.5812 124.934 69.6787 127.465C68.7762 129.957 67.4946 132.142 65.834 134.021C64.2094 135.9 62.278 137.376 60.0398 138.449C57.8015 139.485 55.3467 140.002 52.6752 140.002C50.0398 140.002 47.603 139.485 45.3648 138.449C43.1265 137.376 41.1771 135.9 39.5164 134.021C37.8919 132.142 36.6284 129.957 35.7259 127.465C34.8594 124.934 34.4262 122.212 34.4262 119.298C34.4262 116.384 34.8594 113.681 35.7259 111.189C36.6284 108.658 37.8919 106.454 39.5164 104.575C41.1771 102.696 43.1265 101.239 45.3648 100.204C47.603 99.1305 50.0398 98.5938 52.6752 98.5938C55.3467 98.5938 57.8015 99.1305 60.0398 100.204C62.278 101.239 64.2094 102.696 65.834 104.575C67.4946 106.454 68.7762 108.658 69.6787 111.189C70.5812 113.681 71.0325 116.384 71.0325 119.298ZM65.1841 119.298C65.1841 116.461 64.6426 113.911 63.5596 111.649C62.5127 109.387 61.0506 107.604 59.1734 106.3C57.2961 104.997 55.1301 104.345 52.6752 104.345C50.2564 104.345 48.1084 104.997 46.2312 106.3C44.354 107.604 42.8919 109.387 41.845 111.649C40.798 113.873 40.2746 116.422 40.2746 119.298C40.2746 122.135 40.798 124.685 41.845 126.947C42.8919 129.209 44.354 130.992 46.2312 132.296C48.1084 133.599 50.2564 134.251 52.6752 134.251C55.1301 134.251 57.2961 133.599 59.1734 132.296C61.0506 130.992 62.5127 129.209 63.5596 126.947C64.6426 124.685 65.1841 122.135 65.1841 119.298Z" fill="#F4F7FB"/>
<path d="M80.495 99.1114C80.9282 99.1114 81.3794 99.2264 81.8488 99.4564C82.3181 99.6865 82.6791 100.012 82.9318 100.434L96.6862 122.691L94.3577 122.576L108.383 100.434C108.96 99.5523 109.701 99.1114 110.603 99.1114C111.325 99.1114 111.957 99.3989 112.498 99.974C113.076 100.511 113.365 101.201 113.365 102.044V136.494C113.365 137.337 113.112 138.047 112.607 138.622C112.101 139.159 111.433 139.427 110.603 139.427C109.737 139.427 109.033 139.159 108.491 138.622C107.986 138.047 107.733 137.337 107.733 136.494V107.336L109.466 107.738L97.5526 127.005C97.2999 127.35 96.975 127.656 96.5779 127.925C96.1808 128.155 95.7656 128.251 95.3324 128.212C94.9353 128.251 94.5202 128.155 94.0869 127.925C93.6898 127.656 93.3649 127.35 93.1122 127.005L81.6322 108.026L82.9318 105.725V136.494C82.9318 137.337 82.6791 138.047 82.1737 138.622C81.7044 139.159 81.0726 139.427 80.2784 139.427C79.5203 139.427 78.8885 139.159 78.3831 138.622C77.9138 138.047 77.6791 137.337 77.6791 136.494V102.044C77.6791 101.239 77.9499 100.549 78.4914 99.974C79.069 99.3989 79.7369 99.1114 80.495 99.1114Z" fill="#F4F7FB"/>
<path d="M137.476 99.1689C139.39 99.1689 141.159 99.7248 142.783 100.837C144.408 101.91 145.707 103.386 146.682 105.265C147.657 107.144 148.144 109.253 148.144 111.591C148.144 113.93 147.657 116.058 146.682 117.975C145.707 119.854 144.408 121.368 142.783 122.519C141.159 123.631 139.39 124.186 137.476 124.186H127.025L127.458 123.266V136.494C127.458 137.337 127.206 138.047 126.7 138.622C126.231 139.159 125.599 139.427 124.805 139.427C124.047 139.427 123.415 139.159 122.91 138.622C122.44 138.047 122.206 137.337 122.206 136.494V102.102C122.206 101.258 122.477 100.568 123.018 100.032C123.56 99.4564 124.209 99.1689 124.968 99.1689H137.476ZM137.476 118.665C138.415 118.665 139.263 118.339 140.022 117.688C140.816 117.036 141.448 116.173 141.917 115.1C142.422 114.026 142.675 112.857 142.675 111.591C142.675 110.326 142.422 109.176 141.917 108.141C141.448 107.105 140.816 106.281 140.022 105.668C139.263 105.016 138.415 104.69 137.476 104.69H126.917L127.458 103.827V119.413L126.971 118.665H137.476Z" fill="#F4F7FB"/>
<path d="M166.098 106.645L153.914 137.702C153.697 138.315 153.372 138.794 152.939 139.14C152.506 139.485 152.019 139.657 151.477 139.657C150.683 139.657 150.087 139.427 149.69 138.967C149.293 138.469 149.076 137.855 149.04 137.127C149.04 136.858 149.094 136.552 149.203 136.206L162.957 100.894C163.21 100.242 163.571 99.744 164.04 99.3989C164.546 99.0538 165.087 98.9005 165.665 98.9388C166.206 98.9388 166.712 99.1114 167.181 99.4564C167.65 99.8015 167.993 100.281 168.21 100.894L181.802 135.689C181.946 136.072 182.018 136.456 182.018 136.839C182.018 137.683 181.748 138.373 181.206 138.909C180.701 139.408 180.123 139.657 179.473 139.657C178.932 139.657 178.426 139.485 177.957 139.14C177.524 138.756 177.199 138.277 176.982 137.702L164.69 106.818L166.098 106.645ZM156.08 129.535L158.517 124.014H173.842L174.762 129.535H156.08Z" fill="#F4F7FB"/>
<path d="M213.952 101.469C214.747 101.891 215.198 102.543 215.306 103.425C215.451 104.307 215.252 105.112 214.711 105.84C214.313 106.415 213.79 106.741 213.14 106.818C212.526 106.895 211.913 106.76 211.299 106.415C210.252 105.84 209.151 105.38 207.996 105.035C206.841 104.69 205.613 104.517 204.313 104.517C202.256 104.517 200.397 104.882 198.736 105.61C197.111 106.3 195.703 107.316 194.512 108.658C193.321 109.962 192.4 111.515 191.75 113.317C191.137 115.119 190.83 117.113 190.83 119.298C190.83 121.713 191.173 123.861 191.859 125.739C192.545 127.58 193.483 129.152 194.675 130.455C195.902 131.721 197.328 132.679 198.953 133.331C200.613 133.944 202.4 134.251 204.313 134.251C205.541 134.251 206.732 134.098 207.887 133.791C209.079 133.484 210.198 133.024 211.245 132.411C211.895 132.066 212.526 131.951 213.14 132.066C213.79 132.142 214.313 132.468 214.711 133.043C215.324 133.848 215.541 134.673 215.36 135.516C215.216 136.321 214.765 136.935 214.007 137.357C213.104 137.893 212.111 138.354 211.028 138.737C209.945 139.12 208.844 139.427 207.725 139.657C206.606 139.887 205.469 140.002 204.313 140.002C201.714 140.002 199.259 139.542 196.949 138.622C194.638 137.702 192.581 136.36 190.776 134.596C188.971 132.832 187.545 130.666 186.498 128.097C185.487 125.528 184.982 122.595 184.982 119.298C184.982 116.346 185.451 113.623 186.389 111.131C187.364 108.601 188.718 106.435 190.451 104.632C192.22 102.792 194.277 101.373 196.624 100.377C198.971 99.3414 201.534 98.8238 204.313 98.8238C206.046 98.8238 207.725 99.0538 209.35 99.5139C211.01 99.974 212.544 100.626 213.952 101.469Z" fill="#F4F7FB"/>
<path d="M233.812 139.427C232.946 139.427 232.242 139.159 231.7 138.622C231.195 138.047 230.942 137.337 230.942 136.494V102.044H236.736V136.494C236.736 137.337 236.447 138.047 235.87 138.622C235.328 139.159 234.642 139.427 233.812 139.427ZM221.52 104.69C220.762 104.69 220.112 104.441 219.57 103.942C219.029 103.406 218.758 102.715 218.758 101.872C218.758 101.067 219.029 100.415 219.57 99.9165C220.112 99.4181 220.762 99.1689 221.52 99.1689H246.158C246.917 99.1689 247.548 99.4373 248.054 99.974C248.595 100.472 248.866 101.124 248.866 101.929C248.866 102.773 248.595 103.444 248.054 103.942C247.548 104.441 246.917 104.69 246.158 104.69H221.52Z" fill="#F4F7FB"/>
<path d="M285.504 17.9814L286.077 26.6254H291.137L290.691 16.6998L285.504 17.9814Z" fill="white" stroke="black" stroke-width="2" stroke-miterlimit="10" stroke-linecap="round"/>
<path d="M278.985 7.15164C278.824 8.05747 278.861 8.98744 279.096 9.87735C279.33 10.7673 279.755 11.5959 280.343 12.306C280.428 12.12 280.529 11.9563 280.623 11.7852C280.956 11.2157 281.374 10.6996 281.862 10.2543C281.922 10.2024 281.995 10.1678 282.074 10.1544C282.152 10.1409 282.233 10.1491 282.307 10.1781C284.547 10.976 285.983 10.1464 288.401 9.04152C288.419 9.03285 288.44 9.03007 288.459 9.03354C288.479 9.03702 288.498 9.04658 288.512 9.06091C288.526 9.07524 288.535 9.09361 288.539 9.11347C288.542 9.13334 288.539 9.1537 288.53 9.17173C288.146 9.97732 288.01 10.8783 288.14 11.7607C288.27 12.643 288.66 13.4672 289.26 14.1289C289.282 14.1527 289.311 14.1693 289.344 14.1764C289.376 14.1835 289.409 14.1809 289.44 14.1689C289.47 14.1568 289.496 14.136 289.515 14.109C289.533 14.082 289.543 14.0501 289.544 14.0173C289.55 13.6071 289.664 13.2057 289.874 12.8529C290.093 12.4793 290.41 12.1722 290.791 11.9644C291.172 11.7566 291.602 11.6561 292.036 11.6736C292.45 11.6903 292.853 11.8135 293.205 12.0314C293.557 12.2493 293.847 12.5544 294.045 12.9169C294.244 13.2794 294.345 13.6869 294.338 14.0998C294.332 14.5127 294.218 14.9169 294.008 15.2729C293.978 15.3231 293.944 15.3696 293.911 15.418C293.838 15.5308 293.757 15.6372 293.666 15.7361L293.537 15.8533C293.494 15.8953 293.447 15.9339 293.397 15.9686C293.316 16.0291 293.231 16.085 293.143 16.136C293.079 16.1719 293.023 16.2211 292.979 16.2805C292.935 16.3399 292.904 16.408 292.889 16.4801C292.858 16.6401 292.818 16.8001 292.775 16.96L293.864 17.5962C294.879 16.9152 295.713 15.9986 296.294 14.9253C296.875 13.852 297.185 12.6541 297.198 11.4348C297.211 10.2156 296.927 9.01137 296.369 7.92596C295.811 6.84056 294.997 5.90646 293.997 5.20409C292.482 4.14755 290.43 3.87225 289.846 3.83319C289.769 3.82801 289.697 3.79568 289.642 3.74204C289.261 3.37364 288.833 3.05488 288.371 2.79338C287.021 2.0347 285.44 1.79204 283.923 2.11078C282.407 2.42953 281.059 3.28785 280.132 4.52515C279.556 5.30385 279.165 6.20153 278.985 7.15164Z" fill="black" stroke="black" stroke-width="2" stroke-miterlimit="10" stroke-linecap="round"/>
<path d="M280.641 11.7912C280.539 11.9623 280.455 12.1334 280.361 12.312C279.611 13.8584 279.492 15.6345 280.029 17.2667C280.566 18.8989 281.718 20.2598 283.242 21.063C284.766 21.8663 286.543 22.0493 288.2 21.5734C289.856 21.0976 291.263 20 292.124 18.5118L292.156 18.4597C292.422 17.9848 292.63 17.4803 292.778 16.9567C292.82 16.7967 292.86 16.6368 292.891 16.4768C292.907 16.4042 292.938 16.3358 292.983 16.2763C293.028 16.2169 293.085 16.1679 293.151 16.1327C293.239 16.0817 293.323 16.0258 293.405 15.9653C293.455 15.9306 293.501 15.892 293.545 15.8499L293.674 15.7328C293.765 15.637 293.848 15.5337 293.922 15.424C293.956 15.3756 293.989 15.3291 294.019 15.2789C294.186 15.0082 294.298 14.707 294.346 14.393C294.395 14.0789 294.381 13.7583 294.304 13.4499C294.227 13.1415 294.088 12.8516 293.897 12.597C293.706 12.3425 293.466 12.1285 293.191 11.9676C292.916 11.8066 292.612 11.702 292.295 11.6599C291.979 11.6177 291.658 11.6388 291.35 11.722C291.042 11.8052 290.754 11.9488 290.502 12.1443C290.251 12.3398 290.041 12.5834 289.885 12.8607C289.675 13.2135 289.561 13.615 289.555 14.0252C289.555 14.0579 289.545 14.0898 289.526 14.1168C289.508 14.1438 289.482 14.1647 289.451 14.1767C289.42 14.1887 289.387 14.1913 289.355 14.1842C289.323 14.1771 289.294 14.1606 289.271 14.1368C288.671 13.475 288.281 12.6509 288.151 11.7685C288.021 10.8861 288.157 9.98515 288.541 9.17956C288.55 9.16153 288.553 9.14117 288.55 9.1213C288.547 9.10144 288.537 9.08307 288.523 9.06874C288.509 9.05441 288.491 9.04485 288.471 9.04137C288.451 9.0379 288.43 9.04068 288.412 9.04935C285.993 10.1561 284.562 10.982 282.322 10.184C282.248 10.1551 282.167 10.1469 282.089 10.1603C282.011 10.1738 281.937 10.2083 281.877 10.2603C281.391 10.7059 280.974 11.222 280.641 11.7912Z" fill="white" stroke="black" stroke-width="2" stroke-miterlimit="10" stroke-linecap="round"/>
<path d="M297.067 119.846H287.754V133.369H297.067V119.846Z" fill="white" stroke="black" stroke-width="2" stroke-miterlimit="10" stroke-linecap="round"/>
<path d="M280.198 118.231L270.938 117.245L269.495 130.692L278.755 131.678L280.198 118.231Z" fill="white" stroke="black" stroke-width="2" stroke-miterlimit="10" stroke-linecap="round"/>
<path d="M263.223 131.37C263.223 131.37 259.125 132.088 257.112 135.258C256.894 135.596 256.766 135.984 256.741 136.385C256.716 136.786 256.794 137.187 256.968 137.55C257.142 137.912 257.407 138.224 257.736 138.456C258.066 138.688 258.449 138.833 258.85 138.876L277.979 140.912C278.203 140.936 278.431 140.909 278.643 140.833C278.856 140.756 279.048 140.633 279.206 140.472C279.364 140.311 279.483 140.116 279.555 139.902C279.626 139.688 279.648 139.461 279.618 139.238L279.456 138.011" fill="white"/>
<path d="M263.223 131.37C263.223 131.37 259.125 132.088 257.112 135.258C256.894 135.596 256.766 135.984 256.741 136.385C256.716 136.786 256.794 137.187 256.968 137.55C257.142 137.912 257.407 138.224 257.736 138.456C258.066 138.688 258.449 138.833 258.85 138.876L277.979 140.912C278.203 140.936 278.431 140.909 278.643 140.833C278.856 140.756 279.048 140.633 279.206 140.472C279.364 140.311 279.483 140.116 279.555 139.902C279.626 139.688 279.648 139.461 279.618 139.238L279.456 138.011" stroke="black" stroke-width="2" stroke-miterlimit="10" stroke-linecap="round"/>
<path d="M263.223 131.369L268.387 129.881C269.029 129.696 269.704 129.652 270.364 129.754C271.025 129.855 271.655 130.099 272.211 130.468L274.694 132.117L277.276 132.42C277.837 132.486 278.356 132.75 278.738 133.165C279.12 133.58 279.34 134.117 279.358 134.68L279.461 138.004L265.588 136.527C265.588 136.527 266.315 133.649 263.223 131.369Z" fill="black" stroke="black" stroke-width="2" stroke-miterlimit="10" stroke-linecap="round"/>
<path d="M272.832 71.1339C272.832 71.1339 268.969 110.302 268.965 119.683C268.964 120.244 269.137 120.792 269.459 121.253C269.782 121.713 270.239 122.063 270.768 122.256L275.713 124.06C280.49 125.9 280.729 123.798 280.981 121.339L285.679 75.4047L272.832 71.1339Z" fill="#FF3C38" stroke="black" stroke-width="2" stroke-miterlimit="10" stroke-linecap="round"/>
<path d="M280.076 75.5415L285.664 125.257C285.698 125.556 285.796 125.844 285.95 126.103C286.104 126.361 286.311 126.584 286.558 126.757C286.806 126.93 287.087 127.048 287.383 127.105C287.679 127.162 287.985 127.155 288.278 127.085L296.419 125.123C297.026 124.977 297.565 124.631 297.95 124.141C298.334 123.651 298.542 123.046 298.538 122.424L298.26 75.5489L280.076 75.5415Z" fill="#FF3C38" stroke="black" stroke-width="2" stroke-miterlimit="10" stroke-linecap="round"/>
<path d="M298.948 57.7732L298.867 71.0154C298.859 72.4565 298.279 73.8359 297.253 74.852C296.227 75.8681 294.839 76.4382 293.393 76.4377C294.379 71.0191 293.02 69.0772 293.02 69.0772L294.172 57.7732C295.755 57.5369 297.364 57.5369 298.948 57.7732Z" fill="#35A7FF" stroke="black" stroke-width="2" stroke-miterlimit="10" stroke-linecap="round"/>
<path d="M289.836 55.7849L290.685 43.3519" stroke="black" stroke-width="2" stroke-miterlimit="10" stroke-linecap="round"/>
<path d="M281.786 134.054C281.786 134.054 277.787 135.201 276.123 138.566C275.944 138.925 275.859 139.324 275.877 139.725C275.896 140.126 276.017 140.516 276.229 140.857C276.441 141.198 276.736 141.48 277.088 141.675C277.44 141.871 277.836 141.974 278.239 141.974H297.47C297.695 141.974 297.918 141.923 298.121 141.824C298.324 141.726 298.502 141.583 298.642 141.406C298.781 141.23 298.879 141.024 298.927 140.804C298.976 140.584 298.973 140.357 298.92 140.138L298.629 138.933" fill="white"/>
<path d="M281.786 134.054C281.786 134.054 277.787 135.201 276.123 138.566C275.944 138.925 275.859 139.324 275.877 139.725C275.896 140.126 276.017 140.516 276.229 140.857C276.441 141.198 276.736 141.48 277.088 141.675C277.44 141.871 277.836 141.974 278.239 141.974H297.47C297.695 141.974 297.918 141.923 298.121 141.824C298.324 141.726 298.502 141.583 298.642 141.406C298.781 141.23 298.879 141.024 298.927 140.804C298.976 140.584 298.973 140.357 298.92 140.138L298.629 138.933" stroke="black" stroke-width="2" stroke-miterlimit="10" stroke-linecap="round"/>
<path d="M281.785 134.054L286.759 132.026C287.378 131.775 288.045 131.662 288.713 131.694C289.381 131.726 290.034 131.903 290.626 132.212L293.27 133.587L295.865 133.617C296.43 133.623 296.974 133.831 297.398 134.203C297.821 134.576 298.097 135.087 298.174 135.644L298.634 138.939H284.681C284.681 138.939 285.103 135.996 281.785 134.054Z" fill="black" stroke="black" stroke-width="2" stroke-miterlimit="10" stroke-linecap="round"/>
<path d="M299.099 33.1762L299.052 42.0099L298.972 57.7745C297.644 57.5382 296.285 57.5382 294.958 57.7745C294.958 57.7745 289.84 58.8422 289.84 55.7823L289.683 57.7745L288.828 68.6041C288.038 71.1624 287.471 73.7837 287.133 76.4389H276.903C274.808 76.4389 273.075 74.9359 272.315 72.8693C271.878 71.6559 271.789 70.3449 272.06 69.084C272.06 69.084 276.402 26.5523 282.736 25.8492C285.518 25.5238 288.317 25.3518 291.119 25.334C295.363 25.3191 298.961 28.6022 299.091 32.8303C299.097 32.9419 299.099 33.059 299.099 33.1762Z" fill="#35A7FF" stroke="black" stroke-width="2" stroke-miterlimit="10" stroke-linecap="round"/>
<path d="M289.836 55.7838L290.368 46.6042" stroke="black" stroke-width="2" stroke-miterlimit="10" stroke-linecap="round"/>
<path d="M299.734 68.7037H280.051C279.352 68.7037 278.785 69.2684 278.785 69.9649V81.12C278.785 81.8166 279.352 82.3812 280.051 82.3812H299.734C300.433 82.3812 301 81.8166 301 81.12V69.9649C301 69.2684 300.433 68.7037 299.734 68.7037Z" fill="#FEE100" stroke="black" stroke-width="2" stroke-miterlimit="10" stroke-linecap="round"/>
<path d="M298.877 68.0844H279.194C278.494 68.0844 277.928 68.6491 277.928 69.3456V80.5007C277.928 81.1973 278.494 81.7619 279.194 81.7619H298.877C299.576 81.7619 300.142 81.1973 300.142 80.5007V69.3456C300.142 68.6491 299.576 68.0844 298.877 68.0844Z" fill="#FEE100" stroke="black" stroke-width="2" stroke-miterlimit="10" stroke-linecap="round"/>
<path d="M294.544 77.0593C294.544 77.0593 298.381 85.7833 290.19 85.229C286.006 84.9444 285.565 80.6122 286.137 76.4418C286.68 72.45 288.151 68.607 288.151 68.607L289.832 55.7852C289.832 58.8451 295.433 57.7773 295.433 57.7773L294.281 69.0813C294.281 69.0813 295.64 71.0233 294.654 76.4418C294.626 76.6427 294.587 76.8492 294.544 77.0593Z" fill="white" stroke="black" stroke-width="2" stroke-miterlimit="10" stroke-linecap="round"/>
<path d="M124.416 51.681C124.482 51.1327 124.98 50.7417 125.528 50.8077L134.464 51.8831C135.012 51.9491 135.403 52.4471 135.337 52.9954C135.271 53.5437 134.773 53.9347 134.225 53.8687L126.282 52.9128L125.327 60.8555C125.261 61.4039 124.763 61.7949 124.214 61.7289C123.666 61.6629 123.275 61.1649 123.341 60.6166L124.416 51.681ZM262.498 80.0262C222.252 96.4982 190.111 92.6061 166.851 83.0625C143.627 73.5332 129.316 58.3955 124.622 52.4181L126.195 51.183C130.736 56.9654 144.785 71.8469 167.61 81.2122C190.401 90.5633 221.997 94.4415 261.74 78.1752L262.498 80.0262Z" fill="black"/>
</svg>
