<svg width="301" height="123" viewBox="0 0 301 123" fill="none" xmlns="http://www.w3.org/2000/svg">
<path d="M3.12295 122.418C2.19763 122.418 1.43755 122.104 0.842701 121.474C0.2809 120.807 0 119.993 0 119.03V86.9184C0 85.9555 0.2809 85.1592 0.842701 84.5296C1.43755 83.8629 2.16458 83.5296 3.02381 83.5296H19.1343C19.9935 83.5296 20.704 83.8444 21.2658 84.474C21.8606 85.0666 22.1581 85.8444 22.1581 86.8073C22.1581 87.6221 21.8606 88.3444 21.2658 88.974C20.704 89.6036 19.9935 89.9184 19.1343 89.9184H5.75019L6.19633 89.2518V100.418L5.84933 99.6962H16.9036C17.7628 99.6962 18.4733 100.011 19.0351 100.641C19.63 101.233 19.9274 102.011 19.9274 102.974C19.9274 103.789 19.63 104.511 19.0351 105.141C18.4733 105.77 17.7628 106.085 16.9036 106.085H5.75019L6.19633 105.585V119.03C6.19633 119.993 5.88238 120.807 5.25449 121.474C4.65964 122.104 3.94913 122.418 3.12295 122.418Z" fill="#F4F7FB"/>
<path d="M34.0314 119.03C34.0314 119.993 33.7175 120.807 33.0896 121.474C32.4617 122.104 31.7346 122.418 30.9084 122.418C29.9831 122.418 29.2396 122.104 28.6778 121.474C28.116 120.807 27.8351 119.993 27.8351 119.03V86.9184C27.8351 85.9555 28.1325 85.1592 28.7273 84.5296C29.3222 83.8629 30.0823 83.5296 31.0076 83.5296C31.8007 83.5296 32.4947 83.8629 33.0896 84.5296C33.7175 85.1592 34.0314 85.9555 34.0314 86.9184V119.03Z" fill="#F4F7FB"/>
<path d="M53.2346 122.418C52.3093 122.418 51.5492 122.104 50.9543 121.474C50.3595 120.807 50.0621 119.993 50.0621 119.03V86.8073H56.5063V119.03C56.5063 119.993 56.1923 120.807 55.5644 121.474C54.9696 122.104 54.193 122.418 53.2346 122.418ZM42.2795 89.9184C41.4203 89.9184 40.6932 89.6221 40.0984 89.0296C39.5366 88.437 39.2557 87.6592 39.2557 86.6962C39.2557 85.7333 39.5366 84.974 40.0984 84.4184C40.6932 83.8259 41.4203 83.5296 42.2795 83.5296H64.2888C65.1481 83.5296 65.8586 83.8259 66.4204 84.4184C67.0152 85.011 67.3127 85.7888 67.3127 86.7518C67.3127 87.7147 67.0152 88.4925 66.4204 89.0851C65.8586 89.6407 65.1481 89.9184 64.2888 89.9184H42.2795Z" fill="#F4F7FB"/>
<path d="M89.5327 122.418C88.6074 122.418 87.8473 122.104 87.2524 121.474C86.6906 120.807 86.4097 119.993 86.4097 119.03V86.9184C86.4097 85.9555 86.6906 85.1592 87.2524 84.5296C87.8473 83.8629 88.5743 83.5296 89.4335 83.5296H105.544C106.403 83.5296 107.114 83.8444 107.676 84.474C108.27 85.0666 108.568 85.8444 108.568 86.8073C108.568 87.6221 108.27 88.3444 107.676 88.974C107.114 89.6036 106.403 89.9184 105.544 89.9184H92.1599L92.6061 89.2518V100.418L92.2591 99.6962H103.313C104.173 99.6962 104.883 100.011 105.445 100.641C106.04 101.233 106.337 102.011 106.337 102.974C106.337 103.789 106.04 104.511 105.445 105.141C104.883 105.77 104.173 106.085 103.313 106.085H92.1599L92.6061 105.585V119.03C92.6061 119.993 92.2921 120.807 91.6642 121.474C91.0694 122.104 90.3589 122.418 89.5327 122.418Z" fill="#F4F7FB"/>
<path d="M145.733 102.974C145.733 105.752 145.32 108.344 144.493 110.752C143.667 113.159 142.494 115.289 140.974 117.141C139.487 118.955 137.702 120.381 135.62 121.418C133.571 122.455 131.324 122.974 128.879 122.974C126.433 122.974 124.186 122.455 122.137 121.418C120.088 120.381 118.304 118.955 116.783 117.141C115.296 115.289 114.14 113.159 113.313 110.752C112.487 108.344 112.074 105.752 112.074 102.974C112.074 100.196 112.487 97.6036 113.313 95.1962C114.14 92.7888 115.296 90.6777 116.783 88.8629C118.304 87.011 120.088 85.5666 122.137 84.5296C124.186 83.4925 126.433 82.974 128.879 82.974C131.324 82.974 133.571 83.4925 135.62 84.5296C137.702 85.5666 139.487 87.011 140.974 88.8629C142.494 90.6777 143.667 92.7888 144.493 95.1962C145.32 97.6036 145.733 100.196 145.733 102.974ZM139.288 102.974C139.288 100.493 138.842 98.2518 137.95 96.2518C137.058 94.2147 135.835 92.6036 134.282 91.4184C132.729 90.2333 130.928 89.6407 128.879 89.6407C126.83 89.6407 125.029 90.2333 123.475 91.4184C121.922 92.6036 120.699 94.1962 119.807 96.1962C118.948 98.1962 118.518 100.455 118.518 102.974C118.518 105.455 118.948 107.715 119.807 109.752C120.699 111.752 121.922 113.344 123.475 114.53C125.029 115.715 126.83 116.307 128.879 116.307C130.928 116.307 132.729 115.715 134.282 114.53C135.835 113.344 137.058 111.752 137.95 109.752C138.842 107.715 139.288 105.455 139.288 102.974Z" fill="#F4F7FB"/>
<path d="M154.992 122.418C154.067 122.418 153.24 122.104 152.513 121.474C151.786 120.807 151.423 119.993 151.423 119.03V86.9184C151.423 85.9555 151.704 85.1592 152.265 84.5296C152.86 83.8629 153.587 83.5296 154.447 83.5296H168.723C170.441 83.5296 172.044 84.0481 173.531 85.0851C175.051 86.0851 176.274 87.4925 177.2 89.3073C178.125 91.0851 178.587 93.1407 178.587 95.474C178.587 96.8814 178.323 98.2518 177.794 99.5851C177.299 100.918 176.605 102.122 175.712 103.196C174.853 104.27 173.878 105.104 172.788 105.696L172.837 104.418C173.763 104.974 174.523 105.641 175.118 106.418C175.745 107.159 176.225 107.974 176.555 108.863C176.919 109.715 177.133 110.641 177.2 111.641C177.332 112.567 177.414 113.381 177.447 114.085C177.513 114.789 177.613 115.381 177.745 115.863C177.91 116.344 178.207 116.715 178.637 116.974C179.364 117.455 179.81 118.159 179.975 119.085C180.174 119.974 179.992 120.77 179.43 121.474C179.067 121.955 178.604 122.27 178.042 122.418C177.48 122.53 176.919 122.53 176.357 122.418C175.795 122.27 175.332 122.085 174.969 121.863C174.407 121.493 173.845 120.955 173.283 120.252C172.722 119.511 172.259 118.53 171.895 117.307C171.565 116.085 171.4 114.511 171.4 112.585C171.4 111.955 171.301 111.381 171.102 110.863C170.904 110.307 170.623 109.844 170.26 109.474C169.896 109.067 169.433 108.77 168.872 108.585C168.31 108.363 167.649 108.252 166.889 108.252H156.876L157.619 106.974V119.03C157.619 119.993 157.388 120.807 156.925 121.474C156.462 122.104 155.818 122.418 154.992 122.418ZM156.925 102.53H168.475C169.07 102.53 169.648 102.233 170.21 101.641C170.772 101.011 171.234 100.178 171.598 99.1407C171.962 98.0666 172.143 96.8999 172.143 95.6407C172.143 94.011 171.747 92.6592 170.954 91.5851C170.194 90.474 169.367 89.9184 168.475 89.9184H157.024L157.619 88.1407V103.863L156.925 102.53Z" fill="#F4F7FB"/>
<path d="M212.087 92.2518L201.38 120.474C201.149 121.178 200.785 121.733 200.289 122.141C199.827 122.511 199.314 122.696 198.753 122.696C197.86 122.696 197.199 122.418 196.77 121.863C196.34 121.307 196.125 120.622 196.125 119.807C196.125 119.474 196.175 119.122 196.274 118.752L208.617 85.5296C208.882 84.7888 209.278 84.2147 209.807 83.8073C210.369 83.3999 210.964 83.2333 211.591 83.3073C212.186 83.3073 212.732 83.511 213.227 83.9184C213.756 84.2888 214.136 84.8259 214.367 85.5296L226.562 118.085C226.727 118.567 226.81 119.011 226.81 119.418C226.81 120.418 226.512 121.215 225.917 121.807C225.356 122.4 224.728 122.696 224.034 122.696C223.439 122.696 222.894 122.493 222.398 122.085C221.935 121.678 221.572 121.122 221.307 120.418L210.65 92.5851L212.087 92.2518ZM202.917 113.696L205.643 107.307H219.027L219.969 113.696H202.917Z" fill="#F4F7FB"/>
<path d="M250.141 115.918C251 115.918 251.711 116.233 252.273 116.863C252.868 117.455 253.165 118.233 253.165 119.196C253.165 120.122 252.868 120.9 252.273 121.53C251.711 122.122 251 122.418 250.141 122.418H234.031C233.171 122.418 232.444 122.104 231.85 121.474C231.288 120.807 231.007 119.993 231.007 119.03V86.9184C231.007 85.9555 231.304 85.1592 231.899 84.5296C232.494 83.8629 233.254 83.5296 234.179 83.5296C234.973 83.5296 235.667 83.8629 236.261 84.5296C236.889 85.1592 237.203 85.9555 237.203 86.9184V116.863L236.113 115.918H250.141Z" fill="#F4F7FB"/>
<path d="M277.976 115.918C278.835 115.918 279.546 116.233 280.108 116.863C280.703 117.455 281 118.233 281 119.196C281 120.122 280.703 120.9 280.108 121.53C279.546 122.122 278.835 122.418 277.976 122.418H261.866C261.007 122.418 260.279 122.104 259.685 121.474C259.123 120.807 258.842 119.993 258.842 119.03V86.9184C258.842 85.9555 259.139 85.1592 259.734 84.5296C260.329 83.8629 261.089 83.5296 262.014 83.5296C262.808 83.5296 263.502 83.8629 264.096 84.5296C264.724 85.1592 265.038 85.9555 265.038 86.9184V116.863L263.948 115.918H277.976Z" fill="#F4F7FB"/>
<rect x="82.5" y="1.474" width="88" height="27" rx="13.5" stroke="#35A7FF"/>
<path d="M106 12.622C106.181 12.622 106.331 12.686 106.448 12.814C106.576 12.9313 106.64 13.0807 106.64 13.262V20.318C106.64 20.4993 106.576 20.654 106.448 20.782C106.331 20.91 106.181 20.974 106 20.974C105.808 20.974 105.653 20.91 105.536 20.782C105.419 20.654 105.36 20.4993 105.36 20.318V18.798L105.664 18.766C105.664 19.0007 105.584 19.2567 105.424 19.534C105.264 19.8113 105.045 20.0727 104.768 20.318C104.491 20.5527 104.16 20.75 103.776 20.91C103.403 21.0593 102.997 21.134 102.56 21.134C101.835 21.134 101.184 20.9473 100.608 20.574C100.032 20.19 99.5733 19.6727 99.232 19.022C98.9013 18.3713 98.736 17.63 98.736 16.798C98.736 15.9553 98.9013 15.214 99.232 14.574C99.5733 13.9233 100.032 13.4167 100.608 13.054C101.184 12.6807 101.824 12.494 102.528 12.494C102.987 12.494 103.413 12.5687 103.808 12.718C104.203 12.8673 104.544 13.07 104.832 13.326C105.131 13.582 105.36 13.8647 105.52 14.174C105.691 14.4833 105.776 14.7927 105.776 15.102L105.36 15.006V13.262C105.36 13.0807 105.419 12.9313 105.536 12.814C105.653 12.686 105.808 12.622 106 12.622ZM102.704 19.95C103.237 19.95 103.707 19.8113 104.112 19.534C104.528 19.2567 104.848 18.8833 105.072 18.414C105.307 17.934 105.424 17.3953 105.424 16.798C105.424 16.2113 105.307 15.6833 105.072 15.214C104.848 14.734 104.528 14.3607 104.112 14.094C103.707 13.8167 103.237 13.678 102.704 13.678C102.181 13.678 101.712 13.8113 101.296 14.078C100.891 14.3447 100.571 14.7127 100.336 15.182C100.101 15.6513 99.984 16.19 99.984 16.798C99.984 17.3953 100.096 17.934 100.32 18.414C100.555 18.8833 100.875 19.2567 101.28 19.534C101.696 19.8113 102.171 19.95 102.704 19.95ZM113.124 12.494C113.849 12.494 114.42 12.6433 114.836 12.942C115.252 13.2407 115.545 13.6407 115.716 14.142C115.897 14.6433 115.988 15.2033 115.988 15.822V20.318C115.988 20.4993 115.924 20.654 115.796 20.782C115.679 20.91 115.529 20.974 115.348 20.974C115.167 20.974 115.012 20.91 114.884 20.782C114.767 20.654 114.708 20.4993 114.708 20.318V15.854C114.708 15.4487 114.644 15.086 114.516 14.766C114.399 14.4353 114.196 14.174 113.908 13.982C113.631 13.7793 113.247 13.678 112.756 13.678C112.308 13.678 111.897 13.7793 111.524 13.982C111.151 14.174 110.852 14.4353 110.628 14.766C110.404 15.086 110.292 15.4487 110.292 15.854V20.318C110.292 20.4993 110.228 20.654 110.1 20.782C109.983 20.91 109.833 20.974 109.652 20.974C109.471 20.974 109.316 20.91 109.188 20.782C109.071 20.654 109.012 20.4993 109.012 20.318V13.342C109.012 13.1607 109.071 13.0113 109.188 12.894C109.316 12.766 109.471 12.702 109.652 12.702C109.844 12.702 109.999 12.766 110.116 12.894C110.233 13.0113 110.292 13.1607 110.292 13.342V14.478L109.972 14.83C110.025 14.5527 110.148 14.2753 110.34 13.998C110.532 13.71 110.772 13.454 111.06 13.23C111.348 13.006 111.668 12.83 112.02 12.702C112.372 12.5633 112.74 12.494 113.124 12.494ZM124.47 12.574C124.651 12.574 124.8 12.638 124.918 12.766C125.046 12.8833 125.11 13.0327 125.11 13.214V20.19C125.11 21.086 124.934 21.8273 124.582 22.414C124.23 23.0113 123.755 23.454 123.158 23.742C122.571 24.03 121.904 24.174 121.158 24.174C120.742 24.174 120.342 24.1313 119.958 24.046C119.574 23.9607 119.259 23.8487 119.014 23.71C118.811 23.614 118.667 23.4913 118.582 23.342C118.507 23.2033 118.496 23.054 118.55 22.894C118.624 22.702 118.731 22.5687 118.87 22.494C119.019 22.4193 119.174 22.4193 119.334 22.494C119.504 22.5687 119.75 22.67 120.07 22.798C120.4 22.9367 120.768 23.006 121.174 23.006C121.728 23.006 122.203 22.8993 122.598 22.686C122.992 22.4727 123.296 22.158 123.51 21.742C123.723 21.3367 123.83 20.83 123.83 20.222V19.086L124.022 19.486C123.851 19.8167 123.622 20.1047 123.334 20.35C123.046 20.5953 122.715 20.7873 122.342 20.926C121.968 21.0647 121.558 21.134 121.11 21.134C120.502 21.134 119.984 21.006 119.558 20.75C119.142 20.4833 118.822 20.1207 118.598 19.662C118.384 19.1927 118.278 18.654 118.278 18.046V13.214C118.278 13.0327 118.336 12.8833 118.454 12.766C118.582 12.638 118.736 12.574 118.918 12.574C119.11 12.574 119.264 12.638 119.382 12.766C119.499 12.8833 119.558 13.0327 119.558 13.214V17.758C119.558 18.4833 119.718 19.0327 120.038 19.406C120.358 19.7687 120.854 19.95 121.526 19.95C121.952 19.95 122.336 19.854 122.678 19.662C123.03 19.47 123.307 19.2087 123.51 18.878C123.723 18.5367 123.83 18.1633 123.83 17.758V13.214C123.83 13.0327 123.888 12.8833 124.006 12.766C124.123 12.638 124.278 12.574 124.47 12.574ZM135.259 16.814C135.259 17.646 135.072 18.3873 134.699 19.038C134.336 19.6887 133.84 20.2007 133.211 20.574C132.592 20.9473 131.893 21.134 131.115 21.134C130.336 21.134 129.632 20.9473 129.003 20.574C128.373 20.2007 127.872 19.6887 127.499 19.038C127.136 18.3873 126.955 17.646 126.955 16.814C126.955 15.982 127.136 15.2407 127.499 14.59C127.872 13.9393 128.373 13.4273 129.003 13.054C129.632 12.6807 130.336 12.494 131.115 12.494C131.893 12.494 132.592 12.6807 133.211 13.054C133.84 13.4273 134.336 13.9393 134.699 14.59C135.072 15.2407 135.259 15.982 135.259 16.814ZM133.979 16.814C133.979 16.1953 133.851 15.6513 133.595 15.182C133.349 14.7127 133.008 14.3447 132.571 14.078C132.144 13.8113 131.659 13.678 131.115 13.678C130.571 13.678 130.08 13.8113 129.643 14.078C129.216 14.3447 128.875 14.7127 128.619 15.182C128.363 15.6513 128.235 16.1953 128.235 16.814C128.235 17.422 128.363 17.9607 128.619 18.43C128.875 18.8993 129.216 19.2727 129.643 19.55C130.08 19.8167 130.571 19.95 131.115 19.95C131.659 19.95 132.144 19.8167 132.571 19.55C133.008 19.2727 133.349 18.8993 133.595 18.43C133.851 17.9607 133.979 17.422 133.979 16.814ZM141.296 12.494C142.021 12.494 142.592 12.6433 143.008 12.942C143.424 13.2407 143.717 13.6407 143.888 14.142C144.069 14.6433 144.16 15.2033 144.16 15.822V20.318C144.16 20.4993 144.096 20.654 143.968 20.782C143.851 20.91 143.701 20.974 143.52 20.974C143.339 20.974 143.184 20.91 143.056 20.782C142.939 20.654 142.88 20.4993 142.88 20.318V15.854C142.88 15.4487 142.816 15.086 142.688 14.766C142.571 14.4353 142.368 14.174 142.08 13.982C141.803 13.7793 141.419 13.678 140.928 13.678C140.48 13.678 140.069 13.7793 139.696 13.982C139.323 14.174 139.024 14.4353 138.8 14.766C138.576 15.086 138.464 15.4487 138.464 15.854V20.318C138.464 20.4993 138.4 20.654 138.272 20.782C138.155 20.91 138.005 20.974 137.824 20.974C137.643 20.974 137.488 20.91 137.36 20.782C137.243 20.654 137.184 20.4993 137.184 20.318V13.342C137.184 13.1607 137.243 13.0113 137.36 12.894C137.488 12.766 137.643 12.702 137.824 12.702C138.016 12.702 138.171 12.766 138.288 12.894C138.405 13.0113 138.464 13.1607 138.464 13.342V14.478L138.144 14.83C138.197 14.5527 138.32 14.2753 138.512 13.998C138.704 13.71 138.944 13.454 139.232 13.23C139.52 13.006 139.84 12.83 140.192 12.702C140.544 12.5633 140.912 12.494 141.296 12.494ZM150.352 21.134C149.498 21.134 148.752 20.9527 148.112 20.59C147.472 20.2273 146.97 19.7313 146.608 19.102C146.256 18.462 146.08 17.726 146.08 16.894C146.08 15.966 146.261 15.1767 146.624 14.526C146.997 13.8647 147.477 13.3633 148.064 13.022C148.661 12.67 149.29 12.494 149.952 12.494C150.442 12.494 150.917 12.5847 151.376 12.766C151.834 12.9473 152.24 13.214 152.592 13.566C152.944 13.9073 153.226 14.3233 153.44 14.814C153.653 15.294 153.765 15.8327 153.776 16.43C153.776 16.6007 153.712 16.7447 153.584 16.862C153.456 16.9793 153.306 17.038 153.136 17.038H146.816L146.528 15.934H152.688L152.432 16.158V15.806C152.389 15.3687 152.24 14.9953 151.984 14.686C151.738 14.366 151.434 14.1207 151.072 13.95C150.72 13.7793 150.346 13.694 149.952 13.694C149.632 13.694 149.312 13.7527 148.992 13.87C148.682 13.9767 148.4 14.158 148.144 14.414C147.898 14.6593 147.696 14.9793 147.536 15.374C147.386 15.7687 147.312 16.2433 147.312 16.798C147.312 17.4167 147.434 17.9607 147.68 18.43C147.936 18.8993 148.288 19.2727 148.736 19.55C149.184 19.8167 149.706 19.95 150.304 19.95C150.677 19.95 151.002 19.902 151.28 19.806C151.557 19.71 151.797 19.5927 152 19.454C152.202 19.3047 152.373 19.1553 152.512 19.006C152.65 18.91 152.784 18.862 152.912 18.862C153.072 18.862 153.2 18.9153 153.296 19.022C153.402 19.1287 153.456 19.2567 153.456 19.406C153.456 19.5873 153.37 19.7473 153.2 19.886C152.901 20.2167 152.496 20.51 151.984 20.766C151.472 21.0113 150.928 21.134 150.352 21.134Z" fill="#35A7FF"/>
<path d="M247.61 7.87612C247.612 7.88107 247.614 7.88649 247.614 7.89197C247.614 7.89745 247.612 7.90286 247.61 7.90782C247.612 7.92889 247.612 7.95015 247.61 7.97122L245.697 12.4675L242.918 19.0771L242.859 19.4893C242.859 19.5844 242.822 19.6795 242.801 19.764C242.741 19.7719 242.681 19.7675 242.623 19.7511C242.566 19.7348 242.512 19.7068 242.466 19.6689C241.69 19.0402 239.708 17.36 238.911 16.7101C238.767 16.5889 238.668 16.4228 238.63 16.2387C238.592 16.0546 238.618 15.8633 238.704 15.6957L239.798 13.5823L240.734 11.7701L242.121 9.03849L243.922 5.55666C243.929 5.54386 243.938 5.53254 243.949 5.52342C243.96 5.51429 243.973 5.50754 243.987 5.50358C244.001 5.49962 244.016 5.49854 244.03 5.5004C244.045 5.50225 244.058 5.50702 244.071 5.51439L244.145 5.56194L247.413 7.50627L247.536 7.62779C247.55 7.64661 247.561 7.66816 247.567 7.69119C247.573 7.71557 247.573 7.74079 247.567 7.76516C247.586 7.80044 247.6 7.83766 247.61 7.87612Z" fill="#35A7FF"/>
<path d="M242.7 20.6016C242.419 20.6008 242.147 20.5038 241.929 20.3269C241.515 19.994 240.776 19.3758 240.054 18.7682C239.331 18.1606 238.72 17.6692 238.364 17.3839C238.078 17.149 237.881 16.8242 237.805 16.463C237.73 16.1019 237.781 15.726 237.949 15.3973L243.215 5.18962C243.269 5.08331 243.344 4.98881 243.435 4.91168C243.527 4.83456 243.633 4.77636 243.747 4.74052C243.936 4.67447 244.142 4.67447 244.331 4.74052L244.39 4.77222L244.443 4.80392L244.528 4.85147L247.605 6.68485H248.184V7.17621C248.228 7.24031 248.263 7.30952 248.29 7.38227C248.324 7.46181 248.347 7.54525 248.359 7.63059L248.466 7.8525L248.333 8.12196L248.285 8.24876L246.335 12.8296L243.625 19.2754L243.577 19.5872C243.577 19.7245 243.529 19.8408 243.502 19.9464L243.369 20.4748L242.838 20.5488L242.7 20.6016ZM244.294 6.56861L239.368 16.0789C239.756 16.4329 240.431 16.9824 241.079 17.5424L242.254 18.5199L246.691 8.00572L244.294 6.56861Z" fill="#1D1D1B"/>
<path d="M241.695 20.7296L241.988 19.6095C241.988 19.5408 242.019 19.4721 242.03 19.3981L244.156 19.694L243.513 20.2805C243.321 20.4507 243.082 20.5593 242.827 20.5922L241.695 20.7296ZM242.662 19.0177C242.589 19.0276 242.521 19.0589 242.466 19.1075L242.705 19.3664L242.662 19.0177Z" fill="#1D1D1B"/>
<path d="M250.17 7.6672L247.588 14.335L245.031 21.082C245.019 21.1124 244.999 21.1394 244.975 21.161C244.95 21.1825 244.92 21.198 244.888 21.2062C244.856 21.2144 244.823 21.2151 244.79 21.2082C244.758 21.2013 244.728 21.1871 244.702 21.1665L243.002 19.6924L242.932 19.629C242.883 19.5846 242.847 19.5281 242.826 19.4653C242.826 19.3596 242.874 19.1271 242.874 19.1218L247.577 8.02647C247.579 8.0054 247.579 7.98414 247.577 7.96307C247.579 7.95812 247.58 7.9527 247.58 7.94722C247.58 7.94174 247.579 7.93632 247.577 7.93137C247.579 7.92095 247.579 7.91009 247.577 7.89967C247.582 7.87885 247.582 7.85709 247.577 7.83627C247.582 7.8119 247.582 7.78667 247.577 7.7623C247.571 7.73927 247.56 7.71772 247.545 7.6989L247.423 7.57738L244.155 5.63305C244.15 5.62831 244.148 5.6224 244.147 5.61607C244.146 5.60975 244.147 5.60331 244.15 5.5976C244.153 5.59189 244.157 5.58718 244.163 5.58408C244.168 5.58097 244.175 5.57963 244.181 5.58021L249.846 7.09129C249.962 7.13016 250.06 7.21064 250.12 7.31708C250.18 7.42353 250.198 7.54832 250.17 7.6672Z" fill="white"/>
<path d="M244.835 22.0075C244.598 22.0066 244.368 21.9224 244.187 21.7698L242.396 20.2111C242.239 20.0687 242.125 19.8858 242.066 19.6828L242.029 19.5613V19.3182C242.029 19.2443 242.029 19.1122 242.066 19.0382V18.9695L246.69 8.00624L243.916 6.35251H243.804L243.156 5.7132L243.411 5.18485C243.485 5.01865 243.612 4.8814 243.772 4.79445C243.933 4.70749 244.118 4.67572 244.298 4.70405H244.378L250.043 6.21514C250.222 6.25894 250.39 6.34037 250.535 6.45396C250.681 6.56756 250.8 6.71071 250.885 6.87381C250.97 7.03691 251.019 7.21619 251.028 7.39965C251.038 7.58312 251.008 7.76651 250.941 7.93756L248.358 14.6053L245.802 21.3471C245.745 21.5014 245.651 21.6395 245.528 21.7491C245.404 21.8587 245.256 21.9366 245.095 21.9758C245.011 21.9981 244.923 22.0088 244.835 22.0075ZM243.687 19.2337L244.564 20.0262L246.823 14.0664L249.283 7.72622L248.316 7.47261C248.337 7.52181 248.353 7.57319 248.364 7.62583C248.368 7.65913 248.368 7.69292 248.364 7.72622L248.427 7.84246L248.337 8.14362C248.327 8.20039 248.309 8.25551 248.284 8.3074L243.687 19.2337Z" fill="#1D1D1B"/>
<path d="M242.827 20.2529C242.664 20.2506 242.505 20.1988 242.372 20.1043C242.239 20.0099 242.138 19.8774 242.083 19.7245C242.006 19.4911 242.006 19.2394 242.083 19.006C242.14 18.8178 242.265 18.6575 242.435 18.5559C242.604 18.4544 242.805 18.419 242.999 18.4565C243.193 18.494 243.366 18.6018 243.484 18.759C243.603 18.9161 243.658 19.1115 243.64 19.3071C243.67 19.486 243.637 19.6695 243.547 19.8272C243.457 19.9849 243.316 20.1072 243.146 20.1736C243.046 20.2212 242.938 20.2482 242.827 20.2529Z" fill="#1D1D1B"/>
<path d="M255.065 100.465L251.935 102.98L249.581 103.434C248.652 103.616 247.807 104.092 247.174 104.792L244.357 101.289L251.356 95.8785L255.065 100.465Z" fill="white"/>
<path d="M247.138 105.987L243.232 101.127L251.474 94.7388L256.172 100.582L252.266 103.689L249.716 104.18C248.958 104.33 248.27 104.719 247.755 105.29L247.138 105.987ZM245.486 101.391L247.266 103.599C247.899 103.109 248.64 102.776 249.429 102.627L251.591 102.21L253.945 100.334L251.225 96.9526L245.486 101.391Z" fill="#1D1D1B"/>
<path d="M260.507 106.6L246.212 117.975C245.912 118.212 245.556 118.369 245.178 118.431C244.8 118.493 244.412 118.458 244.051 118.33C243.691 118.203 243.368 117.986 243.115 117.7C242.862 117.414 242.686 117.069 242.604 116.697C241.833 113.215 244.124 110.003 244.124 110.003C247.748 109.474 249.188 111.91 249.188 111.91L259.555 103.662L260.491 104.381C260.661 104.512 260.799 104.679 260.894 104.871C260.989 105.062 261.04 105.273 261.041 105.487C261.043 105.7 260.995 105.912 260.903 106.105C260.81 106.297 260.675 106.467 260.507 106.6Z" fill="white"/>
<path d="M244.802 119.258C244.454 119.257 244.109 119.198 243.782 119.083C243.29 118.914 242.851 118.621 242.506 118.233C242.162 117.845 241.924 117.376 241.815 116.87C240.976 113.087 243.362 109.689 243.463 109.547L243.659 109.272L243.994 109.219C246.816 108.812 248.495 109.99 249.308 110.804L259.548 102.657L260.983 103.756C261.247 103.962 261.461 104.225 261.607 104.525C261.754 104.826 261.831 105.155 261.831 105.489C261.831 105.823 261.754 106.152 261.607 106.452C261.461 106.753 261.247 107.016 260.983 107.222L246.688 118.597C246.152 119.022 245.487 119.254 244.802 119.258ZM244.563 110.746C244.074 111.56 242.793 114.001 243.351 116.558C243.406 116.799 243.522 117.023 243.687 117.207C243.853 117.392 244.062 117.532 244.297 117.615C244.529 117.699 244.78 117.723 245.024 117.682C245.268 117.641 245.498 117.538 245.689 117.382L259.984 106.007C260.058 105.949 260.118 105.875 260.159 105.791C260.2 105.707 260.222 105.614 260.222 105.521C260.222 105.427 260.2 105.335 260.159 105.25C260.118 105.166 260.058 105.092 259.984 105.035L259.548 104.702L248.952 113.129L248.484 112.342C248.442 112.241 247.331 110.498 244.563 110.746Z" fill="#1D1D1B"/>
<path d="M259.543 103.665L249.176 111.913C249.176 111.913 247.735 109.483 244.111 110.006L246.598 105.557C246.757 105.271 246.95 105.005 247.172 104.764C247.806 104.065 248.65 103.589 249.579 103.407L251.934 102.952L252.364 102.868L254.309 101.351C254.734 101.024 255.262 100.858 255.799 100.884C256.336 100.911 256.846 101.127 257.237 101.494L259.543 103.665Z" fill="#1D1D1B"/>
<path d="M248.96 113.099L248.492 112.312C248.444 112.238 247.248 110.352 244.241 110.785L242.646 111.018L245.915 105.169C246.101 104.828 246.33 104.513 246.595 104.228C247.343 103.406 248.342 102.849 249.438 102.643L252.036 102.115L253.827 100.715C254.401 100.266 255.118 100.039 255.848 100.074C256.577 100.109 257.269 100.404 257.797 100.905L260.767 103.7L248.96 113.099ZM245.505 109.147C246.935 109.196 248.291 109.788 249.294 110.801L258.328 103.61L256.686 102.067C256.435 101.828 256.106 101.686 255.758 101.669C255.411 101.651 255.068 101.759 254.794 101.972L252.701 103.605L249.725 104.181C248.968 104.33 248.28 104.719 247.764 105.29C247.581 105.485 247.424 105.701 247.296 105.935L245.505 109.147Z" fill="#1D1D1B"/>
<path d="M220.232 101.227L218.106 107.012L214.344 105.654L212.75 103.89C212.112 103.193 211.263 102.722 210.332 102.548L211.889 98.2891L220.232 101.227Z" fill="white"/>
<path d="M218.594 108.027L213.896 106.331L212.148 104.424C211.629 103.852 210.934 103.465 210.171 103.325L209.252 103.151L211.378 97.2807L221.24 100.747L218.594 108.027ZM214.805 104.973L217.632 105.998L219.226 101.708L212.35 99.2779L211.356 101.999C212.107 102.287 212.78 102.744 213.322 103.336L214.805 104.973Z" fill="#1D1D1B"/>
<path d="M217.698 112.487L217.565 113.654C217.542 113.867 217.47 114.072 217.356 114.253C217.241 114.434 217.086 114.587 216.904 114.7C216.721 114.813 216.515 114.883 216.3 114.905C216.086 114.927 215.87 114.901 215.668 114.827L198.461 108.603C198.102 108.471 197.782 108.25 197.532 107.961C197.283 107.673 197.111 107.325 197.033 106.952C196.956 106.579 196.975 106.193 197.089 105.829C197.203 105.465 197.408 105.136 197.685 104.873C200.273 102.411 204.221 102.681 204.221 102.681C206.554 105.486 205.221 107.964 205.221 107.964L217.698 112.487Z" fill="white"/>
<path d="M216.154 115.706C215.895 115.706 215.638 115.661 215.394 115.573L198.188 109.349C197.701 109.172 197.267 108.874 196.928 108.484C196.589 108.094 196.355 107.624 196.248 107.12C196.142 106.615 196.167 106.092 196.32 105.599C196.473 105.106 196.75 104.661 197.125 104.304C199.936 101.625 204.092 101.879 204.267 101.889L204.612 101.916L204.83 102.174C206.642 104.357 206.509 106.401 206.228 107.495L218.556 111.96L218.354 113.751C218.294 114.289 218.037 114.787 217.631 115.148C217.225 115.51 216.699 115.71 216.154 115.711V115.706ZM203.826 103.464C202.869 103.464 200.106 103.659 198.235 105.445C198.054 105.617 197.92 105.832 197.846 106.069C197.772 106.307 197.759 106.559 197.81 106.803C197.859 107.044 197.97 107.268 198.132 107.453C198.294 107.638 198.502 107.778 198.735 107.86L215.936 114.073C216.026 114.105 216.122 114.116 216.217 114.105C216.312 114.094 216.403 114.062 216.483 114.011C216.564 113.96 216.631 113.892 216.681 113.811C216.731 113.73 216.762 113.639 216.771 113.545L216.834 113.016L204.081 108.404L204.517 107.595C204.554 107.521 205.468 105.677 203.826 103.464Z" fill="#1D1D1B"/>
<path d="M218.365 109.396L217.695 112.487L205.239 107.969C205.239 107.969 206.573 105.486 204.24 102.686L209.352 102.485C209.989 102.457 210.623 102.57 211.211 102.813C211.799 103.057 212.325 103.427 212.753 103.896L214.347 105.66L214.64 105.977L216.951 106.844C217.454 107.032 217.873 107.392 218.132 107.86C218.391 108.328 218.474 108.873 218.365 109.396Z" fill="#1D1D1B"/>
<path d="M218.28 113.543L204.081 108.402L204.516 107.593C204.554 107.514 205.547 105.517 203.602 103.182L202.582 101.951L209.304 101.686C209.69 101.669 210.077 101.696 210.457 101.766C211.56 101.973 212.567 102.529 213.327 103.351L215.107 105.29L217.233 106.088C217.916 106.342 218.485 106.831 218.835 107.468C219.185 108.104 219.294 108.844 219.14 109.554L218.28 113.543ZM206.233 107.493L217.11 111.429L217.583 109.231C217.657 108.893 217.605 108.54 217.438 108.236C217.271 107.933 217 107.699 216.675 107.578L214.188 106.674L212.147 104.423C211.628 103.851 210.933 103.465 210.17 103.324C209.908 103.276 209.64 103.258 209.373 103.271L205.685 103.414C206.381 104.656 206.577 106.114 206.233 107.493Z" fill="#1D1D1B"/>
<path d="M262.537 74.0334H253.184C252.994 74.1109 252.78 74.1109 252.589 74.0334H243.237C243.068 74.0314 242.903 74.0853 242.769 74.1866C242.629 74.2959 242.518 74.4368 242.444 74.5976C242.37 74.7585 242.335 74.9346 242.344 75.1112V77.9168C242.332 78.0445 242.346 78.1733 242.385 78.2957C242.423 78.4181 242.486 78.5317 242.569 78.6299C242.652 78.7281 242.754 78.8091 242.868 78.868C242.983 78.927 243.108 78.9628 243.237 78.9735H252.589C252.78 78.8959 252.994 78.8959 253.184 78.9735H262.537C262.666 78.9628 262.791 78.927 262.905 78.868C263.02 78.8091 263.122 78.7281 263.205 78.6299C263.288 78.5317 263.35 78.4181 263.389 78.2957C263.428 78.1733 263.441 78.0445 263.43 77.9168V75.1112C263.444 74.9818 263.433 74.8508 263.396 74.7259C263.358 74.601 263.296 74.4849 263.213 74.3844C263.13 74.2838 263.027 74.2009 262.911 74.1407C262.795 74.0804 262.668 74.0439 262.537 74.0334ZM252.292 77.8111H243.529V75.2116H252.292V77.8111ZM262.245 77.8111H253.482V75.2116H262.245V77.8111Z" fill="#1D1D1B" stroke="#1D1D1B" stroke-miterlimit="10"/>
<path d="M252.294 75.2088H243.531V77.8083H252.294V75.2088Z" fill="#FEE100"/>
<path d="M262.245 75.2088H253.482V77.8083H262.245V75.2088Z" fill="#FEE100"/>
<path d="M273.728 27.2902L273.59 27.3536C273.487 27.4043 273.38 27.4467 273.271 27.4804L273.127 27.5121H272.968C272.881 27.5174 272.794 27.5174 272.707 27.5121C272.643 27.5107 272.58 27.5232 272.521 27.5487C272.462 27.5743 272.41 27.6123 272.367 27.66C272.277 27.7657 272.181 27.8661 272.08 27.9665C271.739 28.2947 271.359 28.5803 270.948 28.8171L270.906 28.8435C270.476 29.0786 270.017 29.2562 269.54 29.3719C268.559 29.6361 267.525 29.6361 266.543 29.3719C265.942 29.2056 265.372 28.9452 264.853 28.6005C264.081 28.0812 263.447 27.3825 263.007 26.5649C262.567 25.7473 262.334 24.8354 262.328 23.9082C262.322 22.9809 262.544 22.0663 262.974 21.2433C263.404 20.4204 264.029 19.714 264.795 19.1853C264.938 19.0902 265.082 19.0004 265.231 18.9158C265.728 18.632 266.265 18.4253 266.825 18.3029C266.904 18.2868 266.987 18.2979 267.059 18.3346C267.108 18.3625 267.153 18.3982 267.191 18.4403L267.441 18.7098C267.811 19.0063 268.196 19.2832 268.594 19.5393L268.77 19.6185C269.71 20.0148 270.805 20.0623 272.234 20.1944C272.252 20.1958 272.268 20.2025 272.282 20.2135C272.295 20.2246 272.305 20.2395 272.31 20.2562C272.314 20.273 272.314 20.2907 272.308 20.3071C272.302 20.3234 272.291 20.3376 272.277 20.3476C271.642 20.7833 271.152 21.3965 270.868 22.1094C270.584 22.8224 270.52 23.6031 270.683 24.3525C270.689 24.3797 270.704 24.4042 270.725 24.4232C270.745 24.4421 270.771 24.4546 270.799 24.4591C270.827 24.4636 270.855 24.4599 270.881 24.4485C270.906 24.437 270.928 24.4184 270.943 24.3948C271.125 24.1152 271.373 23.8846 271.666 23.7238C271.99 23.5371 272.36 23.4423 272.735 23.4498C273.109 23.4572 273.475 23.5666 273.791 23.7661C274.081 23.9468 274.322 24.1953 274.493 24.4899C274.763 24.9627 274.833 25.5222 274.69 26.0467C274.547 26.5711 274.201 27.0181 273.728 27.2902Z" fill="white"/>
<path d="M268.075 30.4239C267.486 30.4235 266.9 30.3435 266.332 30.1861C265.65 29.999 265.003 29.7047 264.414 29.3143C263.533 28.7226 262.811 27.9265 262.309 26.9947C261.808 26.063 261.542 25.0238 261.535 23.967C261.528 22.9103 261.781 21.8678 262.27 20.9297C262.76 19.9917 263.472 19.1864 264.345 18.5835C264.515 18.4726 264.674 18.3722 264.839 18.2824C265.4 17.9584 266.008 17.7214 266.641 17.5797C266.898 17.5277 267.165 17.5611 267.401 17.6748C267.544 17.7514 267.673 17.8514 267.783 17.9707C267.847 18.0446 267.916 18.1186 267.985 18.1873C268.15 18.3194 268.793 18.8002 268.947 18.8847L269.096 18.9534C269.955 19.2318 270.85 19.3848 271.753 19.4078L272.311 19.4553C272.491 19.4739 272.661 19.5466 272.799 19.6636C272.936 19.7806 273.035 19.9365 273.081 20.1105C273.128 20.2791 273.122 20.4579 273.064 20.623C273.006 20.7882 272.899 20.9319 272.757 21.0351C272.102 21.4878 271.641 22.1684 271.466 22.9424C272.116 22.6317 272.861 22.5766 273.551 22.7882C274.24 22.9998 274.824 23.4624 275.186 24.0837C275.562 24.7405 275.662 25.5191 275.463 26.2489C275.264 26.9787 274.782 27.6004 274.123 27.9776L273.91 28.078C273.783 28.1386 273.652 28.1898 273.517 28.2312L273.299 28.2841C273.213 28.3038 273.126 28.3179 273.039 28.3263H272.858C272.789 28.4056 272.715 28.4795 272.64 28.5535C272.253 28.9311 271.821 29.2611 271.354 29.5362L271.306 29.5679C270.997 29.7424 270.673 29.8909 270.339 30.0118V30.0646L269.749 30.2284C269.202 30.3643 268.639 30.43 268.075 30.4239ZM266.742 19.1911C266.353 19.2995 265.98 19.4557 265.631 19.6561C265.493 19.7301 265.365 19.8146 265.238 19.8991C264.579 20.3535 264.041 20.9609 263.671 21.6686C263.302 22.3762 263.111 23.1629 263.117 23.9602C263.122 24.7576 263.323 25.5417 263.701 26.2445C264.08 26.9473 264.626 27.5477 265.291 27.9935C265.737 28.2916 266.229 28.5164 266.747 28.6592C267.522 28.8727 268.337 28.8945 269.122 28.7226L269.33 28.6697C269.739 28.5624 270.134 28.4044 270.504 28.1995C270.875 27.9818 271.22 27.7211 271.53 27.4228L271.763 27.1745C271.879 27.0382 272.024 26.9291 272.188 26.8551C272.352 26.7811 272.53 26.744 272.709 26.7466H272.874H272.964H273.06C273.115 26.7296 273.168 26.7084 273.219 26.6832L273.363 26.6198C273.646 26.4474 273.851 26.1731 273.935 25.8541C274.019 25.5351 273.976 25.1961 273.815 24.9079C273.708 24.7284 273.561 24.5763 273.384 24.4641C273.19 24.3422 272.966 24.2752 272.737 24.2706C272.507 24.2659 272.281 24.3237 272.082 24.4377C271.891 24.5413 271.731 24.6947 271.62 24.8815C271.521 25.0469 271.372 25.1778 271.195 25.2563C271.019 25.3348 270.822 25.357 270.631 25.32C270.45 25.2866 270.282 25.1998 270.15 25.0707C270.019 24.9417 269.929 24.7764 269.893 24.5962C269.754 23.9668 269.749 23.3155 269.878 22.6841C270.007 22.0526 270.267 21.4549 270.642 20.9294C269.892 20.8689 269.155 20.7017 268.453 20.4328L268.256 20.3429C267.775 20.0362 267.317 19.6954 266.885 19.3232L266.742 19.1911Z" fill="#1D1D1B"/>
<path d="M242.758 19.8017C242.375 21.7091 241.578 22.2744 241.578 22.2744L241.004 26.8605H236.594L237.083 21.4502C236.793 19.7793 236.701 18.0807 236.806 16.3886C237.014 13.8895 237.928 11.4643 240.717 11.8025L239.782 13.6147L238.687 15.7281C238.602 15.8958 238.576 16.0871 238.614 16.2711C238.651 16.4552 238.75 16.6213 238.895 16.7426C239.692 17.3924 241.674 19.0726 242.45 19.7013C242.536 19.773 242.646 19.8089 242.758 19.8017Z" fill="white"/>
<path d="M241.707 27.6551H235.697L236.229 21.484C235.939 19.7794 235.848 18.0473 235.958 16.322C236.138 14.161 236.771 12.6235 237.833 11.7623C238.249 11.445 238.726 11.2171 239.235 11.0934C239.743 10.9697 240.272 10.9528 240.788 11.0438L241.925 11.1811L239.369 16.1212C239.757 16.4752 240.432 17.0247 241.08 17.5847C241.729 18.1448 242.393 18.6837 242.807 19.0219L243.759 18.8951L243.541 19.9835C243.392 20.9705 242.974 21.8985 242.334 22.6675L241.707 27.6551ZM237.456 26.07H240.315L240.847 21.8432L241.133 21.6425C241.481 21.2459 241.726 20.7706 241.846 20.2582C241.42 19.9095 240.74 19.3389 240.071 18.7788C239.401 18.2188 238.721 17.6693 238.365 17.384C238.079 17.149 237.882 16.8242 237.807 16.4631C237.731 16.1019 237.782 15.726 237.95 15.3974L239.321 12.7556C239.157 12.8199 239.004 12.911 238.87 13.0251C238.163 13.5957 237.717 14.7951 237.573 16.4858C237.479 18.1073 237.569 19.7342 237.839 21.336V21.447L237.456 26.07Z" fill="#1D1D1B"/>
<path d="M242.817 20.3226C242.605 20.3226 242.402 20.2391 242.253 20.0904C242.104 19.9418 242.02 19.7402 242.02 19.53C242.023 19.4538 242.032 19.3778 242.046 19.3028C242.094 19.0989 242.221 18.9218 242.398 18.8093C242.576 18.6968 242.791 18.6577 242.997 18.7005C243.099 18.7213 243.196 18.7618 243.282 18.8199C243.367 18.878 243.441 18.9524 243.498 19.0388C243.555 19.1253 243.594 19.2221 243.613 19.3236C243.632 19.4252 243.63 19.5294 243.608 19.6304C243.583 19.8214 243.488 19.9967 243.343 20.1239C243.197 20.2511 243.01 20.3217 242.817 20.3226Z" fill="#1D1D1B"/>
<path d="M240.872 28.647H240.75C240.541 28.6145 240.354 28.5011 240.23 28.3317C240.105 28.1624 240.053 27.9508 240.085 27.7435L240.112 27.5744C240.128 27.4704 240.165 27.3704 240.219 27.2804C240.274 27.1903 240.347 27.1119 240.432 27.0496C240.517 26.9873 240.614 26.9423 240.717 26.9173C240.82 26.8922 240.927 26.8875 241.031 26.9034C241.136 26.9194 241.237 26.9557 241.327 27.0103C241.418 27.0648 241.497 27.1366 241.559 27.2215C241.622 27.3064 241.667 27.4027 241.692 27.5049C241.718 27.6072 241.722 27.7134 241.706 27.8175V27.9865C241.675 28.1802 241.572 28.3552 241.418 28.4774C241.263 28.5995 241.069 28.66 240.872 28.647Z" fill="#1D1D1B"/>
<path d="M291.419 68.6331C291.438 68.8183 291.417 69.0053 291.359 69.182C291.3 69.3588 291.205 69.5214 291.079 69.6593C290.953 69.7972 290.8 69.9073 290.629 69.9827C290.458 70.058 290.273 70.0969 290.085 70.0967H281.716C281.423 70.0971 281.139 70.0022 280.906 69.8267C280.672 69.6511 280.504 69.4045 280.425 69.1245C278.501 61.9918 278.437 55.4878 275.387 47.906L260.508 73.7951C259.884 73.7321 259.283 73.5298 258.749 73.2034C254.689 70.7096 255.56 61.3683 253.137 57.7808C250.432 53.7548 244.353 54.4258 244.353 54.4258L244.412 54.299L248.785 44.8151C246.48 46.3098 243.684 46.8642 240.979 46.3632C234.225 45.0212 234.9 26.8882 234.9 26.8882H236.595L236.526 27.6384C237.987 27.6384 239.523 27.686 240.926 27.7124L241.032 26.8882H242.355C242.355 28.9012 243.705 36.2928 245.735 34.9455C246.67 34.3221 249.332 33.5454 251.931 32.8902C255.718 31.936 259.656 31.7207 263.526 32.2562H263.627C265.078 32.457 266.693 32.6895 268.341 32.9536C271.411 33.4779 274.348 34.6001 276.981 36.2558C284.421 41.011 290.798 62.0869 291.419 68.6331Z" fill="#FF3C38"/>
<path d="M260.937 74.6155L260.405 74.5574C259.664 74.4804 258.951 74.2384 258.317 73.8494C255.623 72.1957 254.911 68.2119 254.22 64.3391C253.779 61.8559 253.359 59.51 252.461 58.1732C250.064 54.6016 244.49 55.1564 244.426 55.1669L243.034 55.3149L247.104 46.4861C245.123 47.2948 242.948 47.5133 240.844 47.1149C233.639 45.683 234.058 28.76 234.127 26.8315L234.159 26.0707H237.465L237.396 26.8315C238.331 26.8315 239.277 26.8632 240.185 26.8791H240.223L240.329 26.0707H243.151V26.8632C243.151 29.2038 244.399 34.0065 245.25 34.2865C245.25 34.2865 245.25 34.2865 245.292 34.2601C246.164 33.6789 248.273 32.9709 251.733 32.0992C255.62 31.1144 259.664 30.8936 263.636 31.4493H263.737C265.549 31.7029 267.053 31.9248 268.467 32.152C271.656 32.6921 274.705 33.8577 277.437 35.581C285.354 40.6373 291.678 62.5004 292.236 68.5236C292.267 68.8188 292.234 69.1171 292.141 69.3991C292.048 69.681 291.897 69.9403 291.696 70.1601C291.496 70.3799 291.251 70.5553 290.978 70.6748C290.704 70.7943 290.409 70.8552 290.11 70.8536H281.714C281.247 70.8563 280.791 70.7056 280.418 70.4247C280.046 70.1439 279.776 69.7487 279.652 69.3003C278.903 66.5159 278.425 63.7949 277.968 61.169C277.325 57.5022 276.661 53.7298 275.237 49.7249L260.937 74.6155ZM245.627 53.566C247.71 53.5977 251.664 54.0944 253.816 57.312C254.879 58.9288 255.341 61.4332 255.819 64.0802C256.446 67.5937 257.095 71.2182 259.183 72.5021C259.469 72.6792 259.781 72.8111 260.108 72.8931L275.518 46.0635L276.129 47.5851C278.037 52.3403 278.786 56.6886 279.541 60.9101C279.998 63.499 280.466 66.1936 281.199 68.8935C281.231 69.0078 281.301 69.1079 281.397 69.1779C281.494 69.2479 281.611 69.2836 281.73 69.2792H290.1C290.175 69.2797 290.249 69.2645 290.318 69.2344C290.387 69.2044 290.448 69.1602 290.498 69.1048C290.55 69.0479 290.59 68.981 290.614 68.9083C290.639 68.8356 290.648 68.7586 290.642 68.6821C290.063 62.4582 283.734 41.5144 276.565 36.923C274.018 35.3257 271.176 34.2481 268.206 33.7529C266.798 33.5257 265.305 33.3091 263.503 33.0555H263.402C259.636 32.5305 255.802 32.7387 252.115 33.6684C247.864 34.7251 246.568 35.3485 246.164 35.618C245.92 35.7897 245.634 35.8902 245.336 35.908C245.038 35.9257 244.741 35.86 244.479 35.7184C242.784 34.8149 241.928 30.5564 241.652 28.2263L241.615 28.5275L240.127 28.48C238.942 28.48 237.688 28.4324 236.487 28.4218H235.669C235.669 34.0065 236.593 44.6845 241.131 45.5879C243.64 46.06 246.234 45.5406 248.364 44.1403L250.601 42.7454L245.627 53.566Z" fill="#1D1D1B"/>
<path d="M241.6 28.4774H240.128C238.943 28.4774 237.689 28.4299 236.488 28.4193H235.627L235.84 26.0945H241.908L241.6 28.4774Z" fill="#1D1D1B"/>
<path d="M244.41 55.0683C244.226 55.0678 244.047 55.0036 243.904 54.8865C243.762 54.7694 243.665 54.6069 243.63 54.4265C243.595 54.2462 243.624 54.0593 243.712 53.8979C243.8 53.7364 243.942 53.6104 244.113 53.5413C244.166 53.5173 244.221 53.4979 244.277 53.4832C244.479 53.4158 244.699 53.4301 244.89 53.5231C245.081 53.6161 245.228 53.7802 245.298 53.9799C245.333 54.0763 245.348 54.1786 245.343 54.2811C245.338 54.3835 245.313 54.4839 245.268 54.5763C245.224 54.6688 245.161 54.7516 245.084 54.8197C245.007 54.8878 244.917 54.94 244.819 54.9732H244.766H244.708C244.616 55.0235 244.515 55.0558 244.41 55.0683Z" fill="#1D1D1B"/>
<path d="M240.339 75.2289L243.4 79.3184L252.036 90.8628C252.602 91.6171 252.848 92.5622 252.721 93.4949C252.594 94.4276 252.103 95.2734 251.355 95.8505L244.357 101.261C243.716 101.757 242.904 101.983 242.097 101.89C241.29 101.797 240.552 101.393 240.042 100.764C236.806 96.7751 230.445 88.3532 228.048 81.1835L222.203 100.246C222.143 100.441 222.044 100.621 221.912 100.777C221.78 100.932 221.618 101.06 221.435 101.152C221.253 101.243 221.053 101.298 220.849 101.311C220.645 101.324 220.44 101.296 220.247 101.229L211.888 98.2914L211.198 98.0484C210.911 97.9492 210.661 97.7667 210.48 97.5246C210.299 97.2825 210.195 96.9919 210.183 96.6905C209.933 91.1481 212.005 84.8185 214.513 79.3184C216.732 74.4816 219.371 69.8463 222.399 65.465C225.747 60.4668 239.67 55.8332 244.41 54.2587L244.352 54.3855C244.352 54.3855 250.431 53.7145 253.136 57.7406C255.538 61.3281 254.687 70.6693 258.747 73.1631C257.534 73.6508 256.249 73.9398 254.942 74.019C251.954 74.265 248.952 74.3162 245.956 74.1722C244.022 74.0983 242.284 73.9926 241.062 73.9028C240.902 73.8898 240.741 73.9235 240.6 73.9996C240.459 74.0757 240.343 74.1911 240.266 74.3316C240.189 74.4722 240.156 74.6318 240.169 74.7911C240.182 74.9505 240.241 75.1026 240.339 75.2289Z" fill="#35A7FF"/>
<path d="M242.441 102.695C241.859 102.696 241.283 102.568 240.757 102.32C240.231 102.071 239.768 101.708 239.401 101.258C236.261 97.3796 230.899 90.2733 228.109 83.6319L222.933 100.476C222.842 100.773 222.69 101.048 222.489 101.285C222.287 101.522 222.04 101.717 221.761 101.856C221.482 101.996 221.177 102.078 220.866 102.098C220.554 102.118 220.241 102.074 219.947 101.971L210.913 98.8009C210.476 98.6503 210.094 98.3721 209.818 98.0026C209.542 97.6332 209.385 97.1895 209.367 96.7297C209.149 91.8531 210.626 85.8827 213.767 78.9983C216.014 74.1223 218.681 69.4485 221.738 65.0287C224.905 60.3475 236.064 56.2158 244.157 53.516L245.906 52.9401L245.629 53.5635C247.707 53.5952 251.661 54.0919 253.813 57.3095C254.876 58.9263 255.338 61.4306 255.816 64.0777C256.443 67.5912 257.092 71.2157 259.18 72.4996L260.408 73.2551L259.111 73.8839C257.814 74.4197 256.437 74.7358 255.035 74.8191C252.011 75.0723 248.974 75.1253 245.943 74.9776C243.706 74.893 241.894 74.7715 241.017 74.7028L240.353 75.2312L240.99 74.7556L252.681 90.3895C253.372 91.3099 253.672 92.4631 253.517 93.6012C253.362 94.7394 252.764 95.7716 251.852 96.4761L244.854 101.886C244.164 102.419 243.314 102.704 242.441 102.695ZM228.019 78.5703L228.805 80.9321C231.228 88.1705 237.908 96.8618 240.666 100.264C241.046 100.725 241.591 101.021 242.186 101.089C242.781 101.157 243.38 100.992 243.855 100.629L250.853 95.2187C251.435 94.7682 251.817 94.1089 251.916 93.3821C252.016 92.6552 251.825 91.9186 251.384 91.33L239.694 75.6961C239.509 75.4475 239.4 75.1515 239.379 74.8431C239.359 74.5347 239.427 74.227 239.577 73.9562C239.727 73.6854 239.952 73.4631 240.225 73.3154C240.498 73.1677 240.808 73.101 241.118 73.123C241.989 73.1864 243.775 73.308 245.985 73.3925C248.942 73.5405 251.905 73.4911 254.855 73.2446C255.632 73.1721 256.405 73.0485 257.166 72.8747C255.402 70.9093 254.807 67.5912 254.227 64.3577C253.786 61.8745 253.367 59.5286 252.469 58.1919C250.072 54.6202 244.498 55.175 244.434 55.1856L244.041 55.2278C238.971 56.9185 226.127 61.3355 223.061 65.9163C220.053 70.2608 217.43 74.8572 215.223 79.6535C212.183 86.3107 210.754 92.0327 210.972 96.661C210.977 96.8037 211.026 96.9415 211.111 97.0564C211.196 97.1713 211.314 97.2581 211.45 97.3056L220.484 100.476C220.56 100.503 220.641 100.518 220.723 100.518C220.88 100.517 221.033 100.464 221.157 100.369C221.282 100.274 221.372 100.14 221.414 99.9897L228.019 78.5703Z" fill="#1D1D1B"/>
<path d="M228.047 81.968C227.943 81.9687 227.839 81.9488 227.742 81.9096C227.646 81.8703 227.558 81.8124 227.484 81.7393C227.41 81.6661 227.351 81.5791 227.311 81.4832C227.271 81.3873 227.25 81.2845 227.25 81.1807C227.25 81.024 227.297 80.8707 227.384 80.7404C227.472 80.6101 227.596 80.5085 227.742 80.4485C227.888 80.3885 228.048 80.3728 228.203 80.4034C228.357 80.434 228.499 80.5095 228.611 80.6203C228.722 80.7311 228.798 80.8724 228.829 81.0261C228.86 81.1798 228.844 81.3392 228.784 81.484C228.723 81.6288 228.621 81.7526 228.49 81.8397C228.359 81.9268 228.205 81.9732 228.047 81.9732V81.968Z" fill="#1D1D1B"/>
<path d="M228.049 81.9685C227.873 81.9702 227.701 81.9127 227.561 81.8054C227.421 81.698 227.322 81.547 227.279 81.3767C227.056 80.711 226.88 80.0981 226.748 79.4958C226.542 78.6595 226.407 77.8077 226.344 76.9491C225.642 66.4403 239.735 60.3061 240.335 60.0419C240.432 60.001 240.535 59.9793 240.64 59.9781C240.745 59.977 240.849 59.9963 240.946 60.0351C241.043 60.0738 241.132 60.1312 241.207 60.204C241.281 60.2768 241.341 60.3636 241.382 60.4593C241.423 60.5551 241.445 60.658 241.446 60.7621C241.448 60.8662 241.428 60.9695 241.389 61.0662C241.35 61.1628 241.292 61.2509 241.219 61.3254C241.146 61.3998 241.059 61.4592 240.962 61.5002C240.824 61.5583 227.306 67.4441 227.938 76.8223C227.993 77.5938 228.113 78.3591 228.299 79.1101C228.432 79.6807 228.602 80.2672 228.831 80.9012L228.873 81.0227V81.1548C228.876 81.2629 228.857 81.3705 228.816 81.4709C228.776 81.5713 228.715 81.6624 228.638 81.7386C228.561 81.8148 228.469 81.8745 228.368 81.9141C228.266 81.9536 228.158 81.9721 228.049 81.9685Z" fill="#1D1D1B"/>
<path d="M269.278 29.4417L268.311 32.9446C266.664 32.6804 265.048 32.448 263.598 32.2472L264.591 28.6544C265.11 28.9992 265.68 29.2595 266.281 29.4258C267.261 29.6952 268.296 29.7007 269.278 29.4417Z" fill="white"/>
<path d="M268.892 33.8376L268.185 33.7266C266.783 33.4994 265.289 33.2828 263.488 33.0292L262.59 32.9077L264.115 27.3864L265.034 27.994C265.483 28.2912 265.976 28.5159 266.496 28.6597C267.34 28.8869 268.229 28.8869 269.073 28.6597L270.417 28.3005L268.892 33.8376ZM264.609 31.5868C265.752 31.7506 266.767 31.8985 267.734 32.0517L268.185 30.4139C267.469 30.4556 266.751 30.3788 266.06 30.1867C265.725 30.0962 265.397 29.9778 265.082 29.8327L264.609 31.5868Z" fill="#1D1D1B"/>
<path d="M266.42 79.5722H242.849C242.776 79.5722 242.706 79.5449 242.655 79.4964C242.603 79.4478 242.574 79.382 242.574 79.3134C242.574 79.2447 242.603 79.1789 242.655 79.1304C242.706 79.0818 242.776 79.0546 242.849 79.0546H266.42C266.493 79.0546 266.563 79.0818 266.615 79.1304C266.666 79.1789 266.695 79.2447 266.695 79.3134C266.695 79.382 266.666 79.4478 266.615 79.4964C266.563 79.5449 266.493 79.5722 266.42 79.5722Z" fill="#1D1D1B"/>
<path d="M214.498 80.1115H181.594C181.383 80.1115 181.18 80.028 181.03 79.8794C180.881 79.7308 180.797 79.5292 180.797 79.319C180.797 79.1088 180.881 78.9072 181.03 78.7586C181.18 78.61 181.383 78.5265 181.594 78.5265H214.498C214.71 78.5265 214.912 78.61 215.062 78.7586C215.211 78.9072 215.295 79.1088 215.295 79.319C215.295 79.5292 215.211 79.7308 215.062 79.8794C214.912 80.028 214.71 80.1115 214.498 80.1115Z" fill="#1D1D1B"/>
<path d="M299.066 78.6282C294.283 78.7497 286.073 78.8977 284.952 78.5278C283.697 78.1104 283.102 72.4676 282.9 70.0742H289.468L289.835 71.5377C290.152 72.6046 290.804 73.5429 291.694 74.2158C292.585 74.8886 293.669 75.261 294.788 75.2785C296.456 75.2821 298.098 75.6921 299.57 76.4725C299.794 76.5918 299.971 76.7808 300.075 77.0103C300.18 77.2398 300.205 77.4971 300.148 77.7424C300.09 77.9877 299.953 78.2074 299.757 78.3675C299.562 78.5276 299.319 78.6192 299.066 78.6282Z" fill="white"/>
<path d="M290.392 79.5518C287.161 79.5518 285.253 79.4619 284.701 79.277C284.148 79.0921 282.82 78.6536 282.108 70.1366L282.033 69.2806H290.089L290.621 71.3412C290.888 72.2318 291.432 73.0154 292.175 73.58C292.917 74.1447 293.82 74.4614 294.755 74.4849H294.904C296.665 74.5014 298.397 74.94 299.952 75.7635C300.335 75.9628 300.64 76.2827 300.82 76.6731C301 77.0635 301.045 77.5023 300.947 77.9207C300.849 78.339 300.614 78.7132 300.279 78.9845C299.944 79.2558 299.528 79.4088 299.096 79.4197C295.55 79.5113 292.649 79.5553 290.392 79.5518ZM285.248 77.7818C285.928 77.9614 289.893 78.0671 299.065 77.8346C299.146 77.8346 299.225 77.8059 299.287 77.7537C299.349 77.7015 299.391 77.6291 299.405 77.5493C299.425 77.4763 299.419 77.3982 299.387 77.3294C299.355 77.2606 299.299 77.2055 299.229 77.1742C297.875 76.4457 296.359 76.066 294.819 76.0699H294.766C293.475 76.0462 292.226 75.6114 291.203 74.8297C290.18 74.048 289.435 72.9604 289.08 71.7269L288.867 70.8657H283.792C284.233 75.7001 284.913 77.4912 285.238 77.7818H285.248Z" fill="#1D1D1B"/>
<path d="M275.387 48.6721C275.221 48.6738 275.058 48.6238 274.922 48.5291C274.786 48.4344 274.683 48.2996 274.627 48.1438C273.979 46.0938 273.219 43.7954 273.081 43.5048C272.999 43.3186 272.992 43.1081 273.061 42.9168C273.131 42.7254 273.271 42.568 273.454 42.477C273.637 42.3861 273.848 42.3685 274.044 42.4281C274.24 42.4876 274.405 42.6196 274.505 42.7969C274.755 43.2882 275.823 46.6485 276.147 47.6682C276.178 47.7681 276.189 47.8732 276.179 47.9773C276.17 48.0814 276.139 48.1826 276.09 48.2749C276.04 48.3672 275.973 48.4489 275.892 48.5153C275.81 48.5817 275.717 48.6314 275.616 48.6615C275.541 48.6767 275.464 48.6802 275.387 48.6721Z" fill="#1D1D1B"/>
<path d="M248.817 45.5042C248.693 45.5051 248.571 45.4761 248.461 45.4197C248.274 45.3256 248.131 45.1619 248.065 44.964C247.998 44.7662 248.013 44.5502 248.105 44.363L250.762 39.0794C250.862 38.9022 251.028 38.7702 251.223 38.7107C251.419 38.6511 251.63 38.6687 251.813 38.7596C251.996 38.8506 252.137 39.008 252.206 39.1994C252.276 39.3907 252.269 39.6012 252.186 39.7874L249.529 45.0709C249.462 45.2015 249.36 45.3112 249.235 45.3877C249.109 45.4641 248.964 45.5045 248.817 45.5042Z" fill="#1D1D1B"/>
<path d="M276.301 27.7019C275.637 28.1893 274.887 28.5478 274.09 28.7586C273.758 28.8424 273.408 28.8147 273.094 28.68C272.78 28.5453 272.519 28.311 272.352 28.0137C272.453 27.9133 272.549 27.8129 272.639 27.7072C272.682 27.6595 272.734 27.6215 272.793 27.5959C272.852 27.5704 272.915 27.5579 272.979 27.5593C273.066 27.5646 273.153 27.5646 273.24 27.5593H273.399L273.543 27.5276C273.652 27.4939 273.759 27.4515 273.862 27.4008L274 27.3374C274.476 27.067 274.825 26.6199 274.971 26.094C275.116 25.5681 275.046 25.0064 274.776 24.5318C274.605 24.2372 274.364 23.9887 274.074 23.808C273.758 23.6085 273.392 23.4991 273.017 23.4917C272.643 23.4842 272.273 23.579 271.949 23.7657C271.639 23.9391 271.38 24.1906 271.199 24.4949C271.184 24.5184 271.163 24.5371 271.137 24.5485C271.111 24.56 271.083 24.5636 271.055 24.5591C271.027 24.5546 271.002 24.5421 270.981 24.5232C270.96 24.5043 270.946 24.4797 270.939 24.4526C270.776 23.7031 270.841 22.9224 271.124 22.2095C271.408 21.4965 271.898 20.8833 272.533 20.4477C272.547 20.4376 272.558 20.4235 272.564 20.4071C272.57 20.3908 272.571 20.373 272.566 20.3563C272.561 20.3395 272.551 20.3246 272.538 20.3136C272.525 20.3025 272.508 20.2958 272.491 20.2945C271.061 20.1624 269.966 20.1148 269.026 19.7186L268.85 19.6393C268.612 19.5269 268.386 19.3906 268.176 19.2325C268.069 19.1479 267.963 19.0581 267.857 18.963L267.697 18.8098L267.448 18.5403C267.413 18.4954 267.367 18.4606 267.315 18.44C267.243 18.4033 267.16 18.3921 267.081 18.4083C266.521 18.5307 265.984 18.7373 265.487 19.0211C265.338 19.1057 265.194 19.1955 265.051 19.2906C264.919 18.5102 264.959 17.7106 265.168 16.947C265.377 16.1835 265.751 15.4742 266.263 14.8683C266.838 14.1945 267.566 13.6673 268.388 13.3308C269.382 12.921 270.476 12.8121 271.532 13.018C272.588 13.2238 273.559 13.7352 274.324 14.4879C274.964 15.1416 275.433 15.9417 275.69 16.8179C275.705 16.8816 275.745 16.9367 275.801 16.9711C276.853 17.6872 277.713 18.6463 278.309 19.7661C278.94 21.1174 279.085 22.6432 278.719 24.0879C278.353 25.5325 277.5 26.8085 276.301 27.7019Z" fill="#1D1D1B"/>
<path d="M273.706 29.3318C273.337 29.3278 272.975 29.2282 272.656 29.0429C272.338 28.8576 272.073 28.593 271.889 28.2751L271.687 27.9264L271.974 27.6411C272.064 27.5513 272.154 27.4615 272.234 27.3664C272.326 27.2606 272.441 27.1761 272.569 27.1186C272.698 27.0611 272.837 27.0321 272.978 27.0335H273.175H273.281L273.424 27.0018C273.49 26.9807 273.554 26.9542 273.616 26.9225L273.754 26.8591C274.097 26.6498 274.344 26.3158 274.443 25.9281C274.542 25.5404 274.486 25.1295 274.285 24.7827C274.153 24.567 273.971 24.3859 273.754 24.2544C273.58 24.1478 273.387 24.0768 273.185 24.0457C272.983 24.0146 272.777 24.0239 272.579 24.0732C272.381 24.1224 272.195 24.2105 272.031 24.3324C271.868 24.4543 271.731 24.6074 271.628 24.7827C271.556 24.8999 271.45 24.9925 271.324 25.0481C271.197 25.1038 271.057 25.12 270.921 25.0944C270.789 25.0707 270.668 25.0074 270.573 24.913C270.478 24.8186 270.414 24.6975 270.39 24.5661C270.243 23.8944 270.257 23.1978 270.43 22.5324C270.604 21.867 270.932 21.2515 271.389 20.7356C270.5 20.6967 269.623 20.5184 268.791 20.2072L268.605 20.1227C268.331 19.9941 268.071 19.8383 267.829 19.6577C267.701 19.5573 267.584 19.457 267.473 19.3566L267.292 19.1822L267.069 18.9445C266.601 19.0559 266.152 19.2338 265.735 19.4728C265.597 19.5521 265.459 19.6366 265.326 19.7264L264.646 20.1808L264.507 19.3724C264.368 18.5491 264.403 17.706 264.611 16.8971C264.819 16.0881 265.194 15.3314 265.714 14.6754L265.841 14.5222C266.476 13.7828 267.28 13.2049 268.185 12.8367C269.282 12.3989 270.484 12.2922 271.642 12.5299C272.8 12.7677 273.862 13.3393 274.694 14.1734C275.372 14.8696 275.874 15.715 276.161 16.6408C277.257 17.4054 278.155 18.4176 278.781 19.5943C279.465 21.0583 279.62 22.7124 279.219 24.2768C278.818 25.8413 277.886 27.2201 276.581 28.18C275.865 28.7056 275.055 29.0911 274.195 29.316C274.033 29.3414 273.869 29.3467 273.706 29.3318ZM273.111 28.0796C273.232 28.1669 273.371 28.2268 273.518 28.2551C273.665 28.2834 273.816 28.2794 273.961 28.2434C274.691 28.0498 275.378 27.7218 275.986 27.2765C277.093 26.4617 277.884 25.2912 278.223 23.9634C278.562 22.6355 278.428 21.232 277.846 19.9906C277.293 18.9588 276.498 18.0744 275.529 17.4122C275.363 17.3061 275.244 17.1421 275.194 16.9526C274.964 16.1582 274.54 15.4323 273.961 14.8392C273.28 14.1607 272.413 13.6956 271.469 13.5012C270.524 13.3069 269.543 13.3918 268.647 13.7455C267.931 14.0375 267.292 14.4873 266.777 15.0611L266.707 15.1403C265.95 16.0364 265.539 17.1717 265.549 18.3421C266.007 18.1082 266.493 17.9307 266.994 17.8138C267.192 17.7711 267.398 17.7972 267.579 17.8878C267.706 17.9401 267.816 18.026 267.898 18.1361V18.1625C267.962 18.2365 268.031 18.3104 268.094 18.3738C268.134 18.4187 268.177 18.4611 268.222 18.5006L268.52 18.749C268.696 18.8833 268.887 18.9985 269.088 19.0924L269.258 19.1664C270.141 19.4613 271.064 19.6234 271.995 19.6472L272.526 19.6947C272.651 19.7052 272.77 19.7534 272.867 19.8327C272.963 19.9121 273.034 20.0189 273.068 20.1389C273.102 20.2589 273.098 20.3864 273.057 20.5043C273.017 20.6222 272.941 20.725 272.84 20.799C272.407 21.0975 272.05 21.4912 271.796 21.9493C271.541 22.4075 271.397 22.9179 271.373 23.4407C271.469 23.3677 271.57 23.3023 271.676 23.2452C272.082 23.0132 272.544 22.8956 273.012 22.9049C273.48 22.9142 273.937 23.0501 274.333 23.2981C274.715 23.5348 275.028 23.8662 275.243 24.2597C275.457 24.6531 275.565 25.0952 275.556 25.5426C275.547 25.9901 275.421 26.4274 275.191 26.812C274.961 27.1965 274.634 27.515 274.243 27.7362L274.057 27.8207C273.937 27.8796 273.812 27.9291 273.685 27.9687L273.493 28.0109C273.42 28.0285 273.345 28.0409 273.27 28.0479C273.218 28.0628 273.165 28.0734 273.111 28.0796Z" fill="#1D1D1B"/>
<path d="M175.067 10.9297C174.832 11.4292 175.047 12.0228 175.548 12.2557L183.714 16.0502C184.215 16.2831 184.811 16.067 185.047 15.5675C185.282 15.068 185.066 14.4743 184.565 14.2415L177.307 10.8685L180.713 3.6334C180.948 3.13392 180.732 2.54024 180.231 2.30739C179.73 2.07454 179.133 2.29068 178.898 2.79016L175.067 10.9297ZM228.065 40.3318C220.888 23.5189 210.699 14.9521 200.79 11.1447C190.916 7.3508 181.415 8.31962 175.634 10.4137L176.315 12.2889C181.685 10.3437 190.684 9.40263 200.065 13.0068C209.41 16.5975 219.228 24.7367 226.22 41.1163L228.065 40.3318Z" fill="black"/>
</svg>
