<svg width="69" height="26" viewBox="0 0 69 26" fill="none" xmlns="http://www.w3.org/2000/svg">
<path d="M10.8797 5.54801L3.26754 23.9668C3.13221 24.3307 2.92922 24.6149 2.65856 24.8196C2.38791 25.0242 2.08342 25.1265 1.7451 25.1265C1.24889 25.1265 0.876742 24.9901 0.628641 24.7172C0.380539 24.4216 0.245211 24.0578 0.222656 23.6257C0.222656 23.4666 0.256488 23.2847 0.324152 23.08L8.91749 2.13712C9.07537 1.75055 9.30092 1.45494 9.59413 1.25028C9.9099 1.04563 10.2482 0.954671 10.6091 0.97741C10.9474 0.97741 11.2632 1.07974 11.5564 1.28439C11.8496 1.48904 12.0639 1.77329 12.1992 2.13712L20.691 22.773C20.7813 23.0004 20.8264 23.2278 20.8264 23.4552C20.8264 23.9555 20.6572 24.3648 20.3189 24.6831C20.0031 24.9787 19.6422 25.1265 19.2363 25.1265C18.8979 25.1265 18.5822 25.0242 18.289 24.8196C18.0183 24.5922 17.8153 24.3079 17.68 23.9668L10.0001 5.65034L10.8797 5.54801ZM4.62082 19.1234L6.14326 15.8489H15.7177L16.2929 19.1234H4.62082Z" fill="#F4F7FB"/>
<path d="M41.8902 1.11385C42.3413 1.11385 42.7022 1.27302 42.9729 1.59137C43.2661 1.88698 43.4127 2.26218 43.4127 2.71697V23.2506C43.4127 23.7508 43.2435 24.1715 42.9052 24.5126C42.5894 24.8309 42.1835 24.9901 41.6873 24.9901C41.4617 24.9901 41.2136 24.9446 40.9429 24.8537C40.6948 24.7627 40.5031 24.6376 40.3678 24.4785L26.4628 6.29841L27.241 5.85499V23.4211C27.241 23.8531 27.0944 24.2283 26.8012 24.5467C26.5079 24.8423 26.1358 24.9901 25.6847 24.9901C25.211 24.9901 24.8276 24.8423 24.5344 24.5467C24.2638 24.2283 24.1284 23.8531 24.1284 23.4211V2.8534C24.1284 2.3304 24.2976 1.90972 24.6359 1.59137C24.9742 1.27302 25.3802 1.11385 25.8539 1.11385C26.102 1.11385 26.3613 1.17069 26.632 1.28439C26.9252 1.37535 27.1395 1.52315 27.2748 1.72781L40.8414 19.5327L40.334 20.0102V2.71697C40.334 2.26218 40.4806 1.88698 40.7738 1.59137C41.067 1.27302 41.4391 1.11385 41.8902 1.11385Z" fill="#F4F7FB"/>
<path d="M58.9212 1.11385C60.5677 1.11385 62.0225 1.4322 63.2856 2.0689C64.5486 2.68286 65.5974 3.54695 66.432 4.66118C67.289 5.75266 67.9318 7.02606 68.3604 8.48138C68.7889 9.91395 69.0032 11.4375 69.0032 13.052C69.0032 15.2577 68.6198 17.2701 67.8529 19.0893C67.086 20.8857 65.9583 22.3182 64.4697 23.387C62.9811 24.4557 61.1316 24.9901 58.9212 24.9901H50.6662C50.1926 24.9901 49.7866 24.8309 49.4483 24.5126C49.1099 24.1715 48.9408 23.7508 48.9408 23.2506V2.8534C48.9408 2.35314 49.1099 1.94383 49.4483 1.62548C49.7866 1.28439 50.1926 1.11385 50.6662 1.11385H58.9212ZM58.5829 21.7157C60.1843 21.7157 61.4812 21.3177 62.4736 20.5218C63.466 19.726 64.1878 18.68 64.6388 17.3838C65.1125 16.0649 65.3493 14.621 65.3493 13.052C65.3493 11.8923 65.214 10.8008 64.9433 9.77752C64.6952 8.73151 64.2893 7.81057 63.7254 7.01469C63.1841 6.19608 62.4849 5.55938 61.6278 5.10459C60.7933 4.62707 59.7783 4.3883 58.5829 4.3883H52.1887L52.4932 4.08132V22.0567L52.2902 21.7157H58.5829Z" fill="#F4F7FB"/>
</svg>
