<svg width="21" height="20" viewBox="0 0 21 20" fill="none" xmlns="http://www.w3.org/2000/svg">
<path fill-rule="evenodd" clip-rule="evenodd" d="M0.335938 3.2C0.335938 1.43269 1.76863 0 3.53594 0H17.1359C18.9032 0 20.3359 1.43269 20.3359 3.2V20H3.53594C1.76863 20 0.335938 18.5673 0.335938 16.8V3.2ZM4.53594 7.3C4.53594 6.25066 5.3866 5.4 6.43594 5.4H14.2359C15.2853 5.4 16.1359 6.25066 16.1359 7.3C16.1359 8.34934 15.2853 9.2 14.2359 9.2H6.43594C5.3866 9.2 4.53594 8.34934 4.53594 7.3ZM6.43594 11.6C5.3866 11.6 4.53594 12.4507 4.53594 13.5C4.53594 14.5493 5.3866 15.4 6.43594 15.4H14.2359C15.2853 15.4 16.1359 14.5493 16.1359 13.5C16.1359 12.4507 15.2853 11.6 14.2359 11.6H6.43594Z" fill="#C30045"/>
</svg>
