<svg width="249" height="42" viewBox="0 0 249 42" fill="none" xmlns="http://www.w3.org/2000/svg">
                <path
                  d="M28.9709 3.46934C29.7651 3.89109 30.2164 4.54289 30.3247 5.42474C30.4691 6.30658 30.2705 7.11175 29.729 7.84023C29.3319 8.41535 28.8085 8.74125 28.1586 8.81793C27.5449 8.89461 26.9312 8.76042 26.3175 8.41535C25.2706 7.84023 24.1695 7.38013 23.0143 7.03506C21.8591 6.68999 20.6316 6.51746 19.332 6.51746C17.2742 6.51746 15.4151 6.8817 13.7544 7.61018C12.1299 8.30032 10.7219 9.31636 9.53062 10.6583C8.33929 11.9619 7.41872 13.5147 6.76891 15.3168C6.15519 17.1188 5.84834 19.1125 5.84834 21.298C5.84834 23.7135 6.19129 25.8606 6.87721 27.7393C7.56312 29.5797 8.50175 31.1517 9.69307 32.4553C10.9205 33.7205 12.3465 34.679 13.971 35.3308C15.6317 35.9443 17.4186 36.251 19.332 36.251C20.5594 36.251 21.7508 36.0977 22.906 35.7909C24.0973 35.4842 25.2164 35.0241 26.2634 34.4107C26.9132 34.0656 27.5449 33.9506 28.1586 34.0656C28.8085 34.1423 29.3319 34.4682 29.729 35.0433C30.3428 35.8484 30.5594 36.6728 30.3789 37.5163C30.2344 38.3215 29.7832 38.9349 29.0251 39.3567C28.1225 39.8934 27.1298 40.3535 26.0468 40.7369C24.9637 41.1204 23.8626 41.4271 22.7435 41.6571C21.6244 41.8872 20.4872 42.0022 19.332 42.0022C16.7327 42.0022 14.2779 41.5421 11.9674 40.6219C9.65697 39.7017 7.59922 38.3598 5.79418 36.5961C3.98914 34.8324 2.56316 32.6661 1.51623 30.0973C0.505412 27.5284 0 24.5953 0 21.298C0 18.3457 0.469311 15.6235 1.40793 13.1313C2.38265 10.6008 3.73644 8.43452 5.46928 6.63248C7.23822 4.79211 9.29596 3.37348 11.6425 2.37661C13.9891 1.3414 16.5522 0.823797 19.332 0.823797C21.0648 0.823797 22.7435 1.05384 24.3681 1.51394C26.0287 1.97403 27.563 2.62583 28.9709 3.46934Z"
                  fill="#F4F7FB" />
                <path
                  d="M71.0325 21.298C71.0325 24.2119 70.5812 26.9341 69.6787 29.4646C68.7762 31.9568 67.4946 34.1423 65.834 36.021C64.2094 37.8997 62.278 39.3758 60.0398 40.4494C57.8015 41.4846 55.3467 42.0022 52.6752 42.0022C50.0398 42.0022 47.603 41.4846 45.3648 40.4494C43.1265 39.3758 41.1771 37.8997 39.5164 36.021C37.8919 34.1423 36.6284 31.9568 35.7259 29.4646C34.8594 26.9341 34.4262 24.2119 34.4262 21.298C34.4262 18.384 34.8594 15.681 35.7259 13.1888C36.6284 10.6583 37.8919 8.45369 39.5164 6.57497C41.1771 4.69626 43.1265 3.23929 45.3648 2.20408C47.603 1.13053 50.0398 0.59375 52.6752 0.59375C55.3467 0.59375 57.8015 1.13053 60.0398 2.20408C62.278 3.23929 64.2094 4.69626 65.834 6.57497C67.4946 8.45369 68.7762 10.6583 69.6787 13.1888C70.5812 15.681 71.0325 18.384 71.0325 21.298ZM65.1841 21.298C65.1841 18.4607 64.6426 15.911 63.5596 13.6489C62.5127 11.3868 61.0506 9.60392 59.1734 8.30032C57.2961 6.99672 55.1301 6.34493 52.6752 6.34493C50.2564 6.34493 48.1084 6.99672 46.2312 8.30032C44.354 9.60392 42.8919 11.3868 41.845 13.6489C40.798 15.8727 40.2746 18.4224 40.2746 21.298C40.2746 24.1352 40.798 26.6849 41.845 28.947C42.8919 31.2092 44.354 32.992 46.2312 34.2956C48.1084 35.5992 50.2564 36.251 52.6752 36.251C55.1301 36.251 57.2961 35.5992 59.1734 34.2956C61.0506 32.992 62.5127 31.2092 63.5596 28.947C64.6426 26.6849 65.1841 24.1352 65.1841 21.298Z"
                  fill="#F4F7FB" />
                <path
                  d="M80.495 1.11136C80.9282 1.11136 81.3794 1.22638 81.8488 1.45643C82.3181 1.68647 82.6791 2.01237 82.9318 2.43413L96.6862 24.6912L94.3577 24.5761L108.383 2.43413C108.96 1.55228 109.701 1.11136 110.603 1.11136C111.325 1.11136 111.957 1.39891 112.498 1.97403C113.076 2.51081 113.365 3.20095 113.365 4.04445V38.494C113.365 39.3375 113.112 40.0468 112.607 40.6219C112.101 41.1587 111.433 41.4271 110.603 41.4271C109.737 41.4271 109.033 41.1587 108.491 40.6219C107.986 40.0468 107.733 39.3375 107.733 38.494V9.33554L109.466 9.73812L97.5526 29.0046C97.2999 29.3496 96.975 29.6564 96.5779 29.9247C96.1808 30.1548 95.7656 30.2506 95.3324 30.2123C94.9353 30.2506 94.5202 30.1548 94.0869 29.9247C93.6898 29.6564 93.3649 29.3496 93.1122 29.0046L81.6322 10.0257L82.9318 7.72521V38.494C82.9318 39.3375 82.6791 40.0468 82.1737 40.6219C81.7044 41.1587 81.0726 41.4271 80.2784 41.4271C79.5203 41.4271 78.8885 41.1587 78.3831 40.6219C77.9138 40.0468 77.6791 39.3375 77.6791 38.494V4.04445C77.6791 3.23929 77.9499 2.54915 78.4914 1.97403C79.069 1.39891 79.7369 1.11136 80.495 1.11136Z"
                  fill="#F4F7FB" />
                <path
                  d="M137.476 1.16887C139.39 1.16887 141.159 1.72481 142.783 2.83671C144.408 3.91026 145.707 5.3864 146.682 7.26511C147.657 9.14383 148.144 11.2526 148.144 13.5914C148.144 15.9302 147.657 18.0581 146.682 19.9752C145.707 21.8539 144.408 23.3684 142.783 24.5186C141.159 25.6305 139.39 26.1865 137.476 26.1865H127.025L127.458 25.2663V38.494C127.458 39.3375 127.206 40.0468 126.7 40.6219C126.231 41.1587 125.599 41.4271 124.805 41.4271C124.047 41.4271 123.415 41.1587 122.91 40.6219C122.44 40.0468 122.206 39.3375 122.206 38.494V4.10197C122.206 3.25846 122.477 2.56832 123.018 2.03154C123.56 1.45643 124.209 1.16887 124.968 1.16887H137.476ZM137.476 20.6653C138.415 20.6653 139.263 20.3394 140.022 19.6876C140.816 19.0358 141.448 18.1732 141.917 17.0996C142.422 16.0261 142.675 14.8567 142.675 13.5914C142.675 12.3261 142.422 11.1759 141.917 10.1407C141.448 9.10549 140.816 8.28115 140.022 7.6677C139.263 7.01589 138.415 6.68999 137.476 6.68999H126.917L127.458 5.82732V21.413L126.971 20.6653H137.476Z"
                  fill="#F4F7FB" />
                <path
                  d="M166.098 8.64539L153.914 39.7017C153.697 40.3152 153.372 40.7945 152.939 41.1395C152.506 41.4846 152.019 41.6571 151.477 41.6571C150.683 41.6571 150.087 41.4271 149.69 40.967C149.293 40.4686 149.076 39.8551 149.04 39.1266C149.04 38.8582 149.094 38.5515 149.203 38.2064L162.957 2.89422C163.21 2.24242 163.571 1.74398 164.04 1.39891C164.546 1.05384 165.087 0.900479 165.665 0.938819C166.206 0.938819 166.712 1.11135 167.181 1.45643C167.65 1.8015 167.993 2.28076 168.21 2.89422L181.802 37.6888C181.946 38.0722 182.018 38.4556 182.018 38.8391C182.018 39.6826 181.748 40.3727 181.206 40.9095C180.701 41.4079 180.123 41.6571 179.473 41.6571C178.932 41.6571 178.426 41.4846 177.957 41.1395C177.524 40.7561 177.199 40.2769 176.982 39.7017L164.69 8.81793L166.098 8.64539ZM156.08 31.5351L158.517 26.0139H173.842L174.762 31.5351H156.08Z"
                  fill="#F4F7FB" />
                <path
                  d="M213.952 3.46934C214.747 3.89109 215.198 4.54289 215.306 5.42474C215.451 6.30658 215.252 7.11175 214.711 7.84023C214.313 8.41535 213.79 8.74125 213.14 8.81793C212.526 8.89461 211.913 8.76042 211.299 8.41535C210.252 7.84023 209.151 7.38013 207.996 7.03506C206.841 6.68999 205.613 6.51746 204.313 6.51746C202.256 6.51746 200.397 6.8817 198.736 7.61018C197.111 8.30032 195.703 9.31636 194.512 10.6583C193.321 11.9619 192.4 13.5147 191.75 15.3168C191.137 17.1188 190.83 19.1125 190.83 21.298C190.83 23.7135 191.173 25.8606 191.859 27.7393C192.545 29.5797 193.483 31.1517 194.675 32.4553C195.902 33.7205 197.328 34.679 198.953 35.3308C200.613 35.9443 202.4 36.251 204.313 36.251C205.541 36.251 206.732 36.0977 207.887 35.7909C209.079 35.4842 210.198 35.0241 211.245 34.4107C211.895 34.0656 212.526 33.9506 213.14 34.0656C213.79 34.1423 214.313 34.4682 214.711 35.0433C215.324 35.8484 215.541 36.6728 215.36 37.5163C215.216 38.3215 214.765 38.9349 214.007 39.3567C213.104 39.8934 212.111 40.3535 211.028 40.7369C209.945 41.1204 208.844 41.4271 207.725 41.6571C206.606 41.8872 205.469 42.0022 204.313 42.0022C201.714 42.0022 199.259 41.5421 196.949 40.6219C194.638 39.7017 192.581 38.3598 190.776 36.5961C188.971 34.8324 187.545 32.6661 186.498 30.0973C185.487 27.5284 184.982 24.5953 184.982 21.298C184.982 18.3457 185.451 15.6235 186.389 13.1313C187.364 10.6008 188.718 8.43452 190.451 6.63248C192.22 4.79211 194.277 3.37348 196.624 2.37661C198.971 1.3414 201.534 0.823797 204.313 0.823797C206.046 0.823797 207.725 1.05384 209.35 1.51394C211.01 1.97403 212.544 2.62583 213.952 3.46934Z"
                  fill="#F4F7FB" />
                <path
                  d="M233.812 41.4271C232.946 41.4271 232.242 41.1587 231.7 40.6219C231.195 40.0468 230.942 39.3375 230.942 38.494V4.04445H236.736V38.494C236.736 39.3375 236.447 40.0468 235.87 40.6219C235.328 41.1587 234.642 41.4271 233.812 41.4271ZM221.52 6.68999C220.762 6.68999 220.112 6.44078 219.57 5.94234C219.029 5.40557 218.758 4.71542 218.758 3.87192C218.758 3.06676 219.029 2.41496 219.57 1.91652C220.112 1.41808 220.762 1.16887 221.52 1.16887H246.158C246.917 1.16887 247.548 1.43725 248.054 1.97403C248.595 2.47247 248.866 3.12427 248.866 3.92943C248.866 4.77294 248.595 5.44391 248.054 5.94234C247.548 6.44078 246.917 6.68999 246.158 6.68999H221.52Z"
                  fill="#F4F7FB" />
              </svg>
