<svg width="375" height="434" viewBox="0 0 375 434" fill="none" xmlns="http://www.w3.org/2000/svg">
<path d="M421.867 38.5816C421.867 31.5174 415.623 25.7908 407.921 25.7908H355.621C347.918 25.7908 341.674 31.5174 341.674 38.5816V86.5476C341.674 93.6118 347.918 99.3385 355.621 99.3385H380.027C403.135 99.3385 421.867 82.1585 421.867 60.966V38.5816Z" fill="#FEE101"/>
<path d="M297.062 7.49372C297.062 3.89305 300.171 0.974121 304.005 0.974121H330.037C333.871 0.974121 336.979 3.89305 336.979 7.49372V31.9424C336.979 35.5431 333.871 38.462 330.037 38.462H317.889C306.387 38.462 297.062 29.7052 297.062 18.9032V7.49372Z" fill="#090909"/>
<path d="M368.477 109.359C368.477 105.964 371.613 103.212 375.481 103.212H401.748C405.617 103.212 408.753 105.964 408.753 109.359V132.411C408.753 135.806 405.617 138.558 401.748 138.558H389.49C377.885 138.558 368.477 130.302 368.477 120.117V109.359Z" fill="#35A7FF"/>
<path d="M20.7344 56.3191C20.7344 62.3889 15.4703 67.3093 8.97672 67.3093H-35.1145C-41.6081 67.3093 -46.8722 62.3889 -46.8722 56.3191V15.1056C-46.8722 9.03591 -41.6081 4.11543 -35.1145 4.11543H-14.5386C4.94212 4.11543 20.7344 18.8769 20.7344 37.086V56.3191Z" fill="#35A7FF"/>
<path d="M131.852 9.38974C131.852 6.30345 134.512 3.80151 137.793 3.80151H160.073C163.354 3.80151 166.014 6.30345 166.014 9.38974V30.3458C166.014 33.4321 163.354 35.934 160.073 35.934H149.676C139.832 35.934 131.852 28.4282 131.852 19.1693V9.38974Z" fill="#090909"/>
<path d="M13.2461 126.729C13.2461 129.713 15.9061 132.131 19.1875 132.131H41.4676C44.7489 132.131 47.409 129.713 47.409 126.729V106.472C47.409 103.488 44.7489 101.07 41.4676 101.07H31.0702C21.2262 101.07 13.2461 108.326 13.2461 117.276V126.729Z" fill="#FF3C38"/>
<path d="M380.117 459.454C380.117 466.45 374.013 472.121 366.483 472.121H315.356C307.826 472.121 301.722 466.45 301.722 459.454V411.954C301.722 404.959 307.826 399.287 315.356 399.287H339.216C361.805 399.287 380.117 416.301 380.117 437.287V459.454Z" fill="#FF3C38"/>
<path d="M-46 270.116C-46 263.738 -40.5399 258.567 -33.8046 258.567H11.9284C18.6637 258.567 24.1238 263.738 24.1238 270.116V313.425C24.1238 319.803 18.6637 324.974 11.9284 324.974H-9.41367C-29.6197 324.974 -46 309.462 -46 290.327V270.116Z" fill="#F5F5F5"/>
<path d="M47.1172 342.193C47.1172 339.21 49.7772 336.792 53.0586 336.792H75.3387C78.62 336.792 81.2801 339.21 81.2801 342.193V362.451C81.2801 365.434 78.62 367.853 75.3387 367.853H64.9413C55.0973 367.853 47.1172 360.597 47.1172 351.647V342.193Z" fill="#FEE101"/>
</svg>
