<svg width="343" height="190" viewBox="0 0 343 190" fill="none" xmlns="http://www.w3.org/2000/svg">
<path d="M30.6372 0C35.6915 0 40.1573 1.03412 44.0345 3.10236C47.9118 5.09674 51.1313 7.90365 53.6931 11.5231C56.3241 15.0686 58.2973 19.2051 59.6128 23.9325C60.9283 28.5861 61.586 33.5351 61.586 38.7796C61.586 45.9446 60.409 52.4817 58.055 58.3909C55.7009 64.2263 52.2391 68.8799 47.6695 72.3516C43.0998 75.8233 37.4224 77.5591 30.6372 77.5591H5.29661C3.84264 77.5591 2.59638 77.0421 1.55783 76.0079C0.519275 74.9 0 73.5334 0 71.9084V5.65074C0 4.02569 0.519275 2.69611 1.55783 1.66198C2.59638 0.553993 3.84264 0 5.29661 0H30.6372ZM29.5987 66.9224C34.5145 66.9224 38.4956 65.6298 41.542 63.0445C44.5884 60.4592 46.804 57.0614 48.1887 52.851C49.6427 48.5668 50.3697 43.8763 50.3697 38.7796C50.3697 35.0124 49.9543 31.4669 49.1234 28.1429C48.3618 24.7451 47.1156 21.7535 45.3846 19.1682C43.723 16.509 41.5766 14.4408 38.9456 12.9635C36.3839 11.4123 33.2682 10.6367 29.5987 10.6367H9.97008L10.9048 9.63949V68.0304L10.2816 66.9224H29.5987Z" fill="#FEE101"/>
<path d="M79.6381 0H115.572C117.026 0 118.238 0.517061 119.207 1.55118C120.245 2.5853 120.765 3.87796 120.765 5.42914C120.765 6.98032 120.245 8.23604 119.207 9.1963C118.238 10.1566 117.026 10.6367 115.572 10.6367H84.2078L85.2463 8.7531V33.572L84.3116 32.464H110.899C112.352 32.464 113.564 32.9811 114.533 34.0152C115.572 35.0493 116.091 36.3789 116.091 38.004C116.091 39.5552 115.572 40.8109 114.533 41.7711C113.564 42.7314 112.352 43.2115 110.899 43.2115H84.5193L85.2463 42.2143V67.8088L84.5193 66.9224H115.572C117.026 66.9224 118.238 67.4764 119.207 68.5844C120.245 69.6186 120.765 70.8373 120.765 72.2408C120.765 73.792 120.245 75.0846 119.207 76.1188C118.238 77.079 117.026 77.5591 115.572 77.5591H79.6381C78.1842 77.5591 76.9379 77.0421 75.8994 76.0079C74.8608 74.9 74.3415 73.5334 74.3415 71.9084V5.65074C74.3415 4.02569 74.8608 2.69611 75.8994 1.66198C76.9379 0.553993 78.1842 0 79.6381 0Z" fill="#FEE101"/>
<path d="M102.59 190C97.605 190 93.1739 189.261 89.2967 187.784C85.4194 186.307 81.7152 183.869 78.1842 180.471C77.4226 179.88 76.8341 179.179 76.4186 178.366C76.0725 177.48 75.8994 176.593 75.8994 175.707C75.8994 174.303 76.384 173.048 77.3533 171.94C78.3226 170.832 79.5343 170.278 80.9883 170.278C82.096 170.278 83.1346 170.684 84.1039 171.497C86.7349 174.082 89.4697 176.039 92.3085 177.369C95.2164 178.699 98.609 179.363 102.486 179.363C105.256 179.363 107.783 178.883 110.068 177.923C112.422 176.963 114.291 175.67 115.676 174.045C117.061 172.42 117.753 170.536 117.753 168.394C117.753 165.735 117.026 163.556 115.572 161.857C114.187 160.084 112.145 158.644 109.445 157.536C106.814 156.354 103.629 155.357 99.8899 154.544C96.428 153.88 93.3124 152.956 90.5429 151.774C87.8427 150.593 85.5233 149.115 83.5846 147.342C81.646 145.496 80.1574 143.317 79.1189 140.805C78.0803 138.294 77.5611 135.376 77.5611 132.052C77.5611 127.546 78.6688 123.668 80.8844 120.418C83.1 117.168 86.1118 114.657 89.9198 112.884C93.7278 111.111 98.0205 110.225 102.798 110.225C107.16 110.225 111.245 110.964 115.053 112.441C118.861 113.844 121.942 115.765 124.296 118.202C125.957 119.754 126.788 121.416 126.788 123.188C126.788 124.518 126.269 125.774 125.23 126.956C124.261 128.063 123.119 128.617 121.803 128.617C120.834 128.617 120.003 128.322 119.311 127.731C118.203 126.475 116.714 125.367 114.845 124.407C112.976 123.373 110.968 122.524 108.821 121.859C106.744 121.194 104.736 120.862 102.798 120.862C99.6822 120.862 97.0165 121.342 94.801 122.302C92.5854 123.188 90.8891 124.444 89.7121 126.069C88.535 127.62 87.9465 129.467 87.9465 131.609C87.9465 134.12 88.6043 136.189 89.9198 137.814C91.3045 139.439 93.2085 140.768 95.6318 141.803C98.0551 142.763 100.825 143.649 103.94 144.462C107.748 145.348 111.141 146.345 114.118 147.453C117.164 148.561 119.726 150.002 121.803 151.774C123.88 153.473 125.473 155.615 126.581 158.201C127.688 160.786 128.242 163.999 128.242 167.84C128.242 172.272 127.065 176.15 124.711 179.474C122.357 182.798 119.242 185.383 115.364 187.23C111.556 189.077 107.298 190 102.59 190Z" fill="#FEE101"/>
<path d="M164.691 188.892C163.03 188.892 161.68 188.375 160.641 187.341C159.672 186.233 159.187 184.866 159.187 183.241V116.873H170.3V183.241C170.3 184.866 169.746 186.233 168.638 187.341C167.599 188.375 166.284 188.892 164.691 188.892ZM141.116 121.97C139.662 121.97 138.416 121.489 137.377 120.529C136.339 119.495 135.82 118.165 135.82 116.54C135.82 114.989 136.339 113.734 137.377 112.773C138.416 111.813 139.662 111.333 141.116 111.333H188.37C189.824 111.333 191.036 111.85 192.005 112.884C193.044 113.844 193.563 115.1 193.563 116.651C193.563 118.276 193.044 119.569 192.005 120.529C191.036 121.489 189.824 121.97 188.37 121.97H141.116Z" fill="#FEE101"/>
<path d="M216.218 183.241C216.149 184.866 215.56 186.233 214.453 187.341C213.414 188.375 212.168 188.892 210.714 188.892C209.121 188.892 207.806 188.375 206.767 187.341C205.798 186.233 205.313 184.866 205.313 183.241V116.984C205.313 115.359 205.833 114.029 206.871 112.995C207.91 111.887 209.26 111.333 210.921 111.333C212.306 111.333 213.518 111.887 214.556 112.995C215.664 114.029 216.218 115.359 216.218 116.984V183.241Z" fill="#FEE101"/>
<path d="M250.033 190C245.948 190 242.21 189.003 238.817 187.008C235.424 185.014 232.69 182.244 230.613 178.699C229.989 177.591 229.678 176.556 229.678 175.596C229.678 174.045 230.232 172.752 231.34 171.718C232.447 170.684 233.555 170.167 234.663 170.167C235.632 170.167 236.498 170.462 237.259 171.053C238.09 171.57 238.852 172.235 239.544 173.048C240.929 174.968 242.487 176.446 244.218 177.48C245.948 178.44 247.887 178.92 250.033 178.92C252.526 178.92 254.776 178.329 256.784 177.147C258.792 175.892 260.384 174.23 261.561 172.161C262.738 170.019 263.327 167.693 263.327 165.181V116.984C263.327 115.359 263.881 114.029 264.989 112.995C266.096 111.887 267.377 111.333 268.831 111.333C270.424 111.333 271.704 111.887 272.674 112.995C273.643 114.029 274.128 115.359 274.128 116.984V165.181C274.128 169.687 273.055 173.823 270.908 177.591C268.831 181.358 265.958 184.386 262.288 186.676C258.688 188.892 254.603 190 250.033 190Z" fill="#FEE101"/>
<path d="M331.206 178.034C332.66 178.034 333.871 178.551 334.841 179.585C335.879 180.619 336.399 181.912 336.399 183.463C336.399 185.014 335.879 186.307 334.841 187.341C333.871 188.375 332.66 188.892 331.206 188.892H296.311C294.787 188.892 293.506 188.375 292.468 187.341C291.499 186.233 291.014 184.866 291.014 183.241V116.984C291.014 115.359 291.533 114.029 292.572 112.995C293.61 111.887 294.96 111.333 296.622 111.333C298.007 111.333 299.219 111.887 300.257 112.995C301.365 114.029 301.919 115.359 301.919 116.984V179.917L299.738 178.034H331.206Z" fill="#FEE101"/>
<path d="M284.149 21.4559C284.146 21.462 284.145 21.4687 284.145 21.4755C284.145 21.4823 284.146 21.489 284.149 21.4951C284.146 21.5212 284.146 21.5476 284.149 21.5737L286.338 27.1436L289.519 35.3317L289.586 35.8422C289.586 35.96 289.629 36.0778 289.653 36.1826C289.721 36.1923 289.79 36.1869 289.856 36.1666C289.922 36.1464 289.983 36.1117 290.036 36.0648C290.924 35.2859 293.192 33.2045 294.105 32.3994C294.27 32.2492 294.383 32.0435 294.426 31.8154C294.469 31.5874 294.439 31.3504 294.342 31.1428L293.089 28.5247L292.019 26.2797L290.431 22.8958L288.37 18.5825C288.362 18.5667 288.351 18.5526 288.339 18.5413C288.326 18.53 288.311 18.5217 288.295 18.5168C288.279 18.5119 288.262 18.5105 288.246 18.5128C288.229 18.5151 288.214 18.521 288.199 18.5302L288.114 18.5891L284.374 20.9977L284.234 21.1482C284.217 21.1715 284.205 21.1982 284.198 21.2268C284.191 21.257 284.191 21.2882 284.198 21.3184C284.177 21.3621 284.16 21.4082 284.149 21.4559Z" fill="#35A7FF"/>
<path d="M289.766 37.2237C290.087 37.2227 290.399 37.1026 290.648 36.8834C291.122 36.471 291.967 35.7053 292.794 34.9526C293.622 34.1999 294.321 33.5912 294.728 33.2377C295.056 32.9467 295.281 32.5443 295.367 32.0969C295.454 31.6495 295.396 31.1838 295.203 30.7767L289.176 18.1314C289.114 17.9997 289.028 17.8826 288.924 17.7871C288.82 17.6915 288.698 17.6194 288.568 17.575C288.351 17.4932 288.115 17.4932 287.899 17.575L287.832 17.6143L287.771 17.6536L287.674 17.7125L284.152 19.9837H283.489V20.5924C283.439 20.6718 283.399 20.7575 283.368 20.8476C283.33 20.9462 283.303 21.0495 283.289 21.1553L283.167 21.4302L283.319 21.764L283.374 21.9211L285.606 27.5957L288.708 35.5809L288.762 35.9671C288.762 36.1372 288.817 36.2812 288.847 36.4121L289 37.0667L289.608 37.1583L289.766 37.2237ZM287.941 19.8397L293.579 31.621C293.135 32.0596 292.363 32.7403 291.621 33.4341L290.277 34.6449L285.198 21.62L287.941 19.8397Z" fill="#1D1D1B"/>
<path d="M290.918 37.3804L290.583 35.9928C290.583 35.9077 290.547 35.8227 290.535 35.731L288.102 36.0976L288.838 36.8241C289.057 37.0349 289.331 37.1695 289.623 37.2102L290.918 37.3804ZM289.811 35.2598C289.895 35.272 289.973 35.3108 290.036 35.371L289.762 35.6917L289.811 35.2598Z" fill="#1D1D1B"/>
<path d="M281.216 21.2008L284.172 29.4608L287.097 37.819C287.112 37.8566 287.134 37.8901 287.162 37.9168C287.191 37.9436 287.225 37.9628 287.261 37.9729C287.298 37.9831 287.336 37.9839 287.373 37.9754C287.41 37.9669 287.445 37.9492 287.474 37.9237L289.42 36.0976L289.499 36.0191C289.556 35.964 289.598 35.894 289.621 35.8162C289.621 35.6853 289.566 35.3973 289.566 35.3908L284.184 21.6458C284.181 21.6197 284.181 21.5934 284.184 21.5673C284.181 21.5612 284.18 21.5544 284.18 21.5477C284.18 21.5409 284.181 21.5342 284.184 21.528C284.181 21.5151 284.181 21.5017 284.184 21.4887C284.178 21.463 284.178 21.436 284.184 21.4102C284.178 21.38 284.178 21.3488 284.184 21.3186C284.191 21.29 284.204 21.2633 284.221 21.24L284.36 21.0895L288.101 18.6809C288.106 18.675 288.109 18.6677 288.11 18.6598C288.111 18.652 288.11 18.644 288.106 18.6369C288.103 18.6299 288.098 18.624 288.091 18.6202C288.085 18.6163 288.078 18.6147 288.07 18.6154L281.587 20.4873C281.454 20.5355 281.342 20.6352 281.274 20.767C281.205 20.8989 281.185 21.0535 281.216 21.2008Z" fill="white"/>
<path d="M287.324 38.9646C287.596 38.9634 287.859 38.8591 288.066 38.6701L290.116 36.7393C290.295 36.5628 290.426 36.3363 290.493 36.0847L290.535 35.9342V35.6331C290.535 35.5415 290.535 35.3779 290.493 35.2862V35.2011L285.202 21.6198L288.376 19.5712H288.504L289.246 18.7792L288.954 18.1247C288.869 17.9188 288.724 17.7488 288.54 17.6411C288.357 17.5334 288.145 17.494 287.938 17.5291H287.847L281.364 19.401C281.159 19.4553 280.966 19.5562 280.8 19.6969C280.634 19.8376 280.498 20.0149 280.4 20.217C280.303 20.419 280.247 20.6411 280.236 20.8684C280.225 21.0957 280.259 21.3229 280.336 21.5348L283.292 29.7948L286.217 38.1465C286.282 38.3377 286.39 38.5087 286.531 38.6445C286.672 38.7803 286.842 38.8767 287.026 38.9254C287.123 38.953 287.223 38.9662 287.324 38.9646ZM288.638 35.5284L287.634 36.5102L285.049 29.1272L282.234 21.273L283.341 20.9588C283.316 21.0197 283.298 21.0834 283.286 21.1486C283.28 21.1898 283.28 21.2317 283.286 21.273L283.213 21.4169L283.316 21.79C283.328 21.8604 283.348 21.9286 283.377 21.9929L288.638 35.5284Z" fill="#1D1D1B"/>
<path d="M289.621 36.7913C289.808 36.7884 289.99 36.7243 290.142 36.6073C290.294 36.4903 290.41 36.3262 290.473 36.1368C290.561 35.8476 290.561 35.5357 290.473 35.2466C290.408 35.0136 290.264 34.8149 290.071 34.6891C289.877 34.5634 289.647 34.5194 289.425 34.5659C289.203 34.6124 289.005 34.7459 288.87 34.9406C288.734 35.1354 288.67 35.3774 288.691 35.6197C288.657 35.8412 288.695 36.0687 288.797 36.264C288.9 36.4593 289.062 36.6108 289.257 36.6931C289.371 36.7521 289.495 36.7855 289.621 36.7913Z" fill="#1D1D1B"/>
<path d="M275.613 136.155L279.195 139.27L281.889 139.833C282.952 140.059 283.919 140.649 284.644 141.515L287.867 137.176L279.858 130.474L275.613 136.155Z" fill="white"/>
<path d="M284.69 143L289.16 136.979L279.727 129.065L274.351 136.304L278.821 140.153L281.74 140.762C282.607 140.947 283.394 141.429 283.985 142.136L284.69 143ZM286.582 137.306L284.544 140.042C283.82 139.434 282.971 139.021 282.069 138.837L279.594 138.32L276.899 135.997L280.013 131.808L286.582 137.306Z" fill="#1D1D1B"/>
<path d="M269.384 143.76L285.744 157.852C286.088 158.145 286.495 158.339 286.927 158.416C287.36 158.493 287.804 158.45 288.217 158.292C288.63 158.133 288.998 157.865 289.288 157.511C289.578 157.156 289.779 156.729 289.873 156.268C290.755 151.955 288.134 147.975 288.134 147.975C283.986 147.321 282.338 150.338 282.338 150.338L270.473 140.121L269.402 141.011C269.208 141.173 269.05 141.381 268.941 141.618C268.832 141.855 268.774 142.116 268.772 142.381C268.77 142.646 268.825 142.907 268.931 143.146C269.037 143.385 269.192 143.595 269.384 143.76Z" fill="white"/>
<path d="M287.358 159.436C287.756 159.435 288.151 159.362 288.526 159.22C289.088 159.01 289.591 158.647 289.985 158.167C290.38 157.686 290.652 157.105 290.776 156.478C291.737 151.791 289.006 147.583 288.891 147.406L288.666 147.066L288.282 147C285.053 146.496 283.131 147.956 282.201 148.964L270.481 138.871L268.839 140.232C268.537 140.488 268.293 140.814 268.125 141.186C267.957 141.558 267.869 141.966 267.869 142.379C267.869 142.793 267.957 143.201 268.125 143.573C268.293 143.945 268.537 144.271 268.839 144.526L285.199 158.618C285.813 159.144 286.573 159.432 287.358 159.436ZM287.632 148.892C288.191 149.9 289.657 152.924 289.018 156.092C288.955 156.39 288.823 156.667 288.634 156.896C288.444 157.125 288.204 157.299 287.936 157.401C287.67 157.506 287.383 157.535 287.104 157.484C286.824 157.434 286.562 157.305 286.342 157.113L269.983 143.021C269.898 142.949 269.829 142.858 269.782 142.753C269.735 142.649 269.711 142.535 269.711 142.419C269.711 142.303 269.735 142.188 269.782 142.084C269.829 141.98 269.898 141.888 269.983 141.816L270.481 141.404L282.608 151.844L283.143 150.868C283.192 150.744 284.463 148.584 287.632 148.892Z" fill="#1D1D1B"/>
<path d="M270.487 140.12L282.353 150.337C282.353 150.337 284.001 147.327 288.148 147.975L285.302 142.464C285.12 142.109 284.9 141.78 284.645 141.482C283.92 140.615 282.954 140.025 281.89 139.8L279.196 139.237L278.704 139.132L276.478 137.254C275.991 136.848 275.386 136.643 274.772 136.675C274.157 136.708 273.574 136.975 273.127 137.43L270.487 140.12Z" fill="#1D1D1B"/>
<path d="M282.603 151.81L283.138 150.835C283.193 150.743 284.561 148.407 288.004 148.943L289.828 149.231L286.088 141.986C285.874 141.564 285.613 141.173 285.309 140.821C284.453 139.802 283.31 139.112 282.056 138.857L279.082 138.203L277.032 136.468C276.375 135.913 275.554 135.631 274.72 135.674C273.885 135.718 273.093 136.083 272.489 136.704L269.09 140.166L282.603 151.81ZM286.556 146.914C284.92 146.975 283.369 147.708 282.22 148.963L271.881 140.055L273.76 138.144C274.048 137.847 274.425 137.672 274.822 137.65C275.22 137.628 275.612 137.762 275.925 138.026L278.322 140.048L281.727 140.762C282.594 140.947 283.381 141.429 283.971 142.136C284.18 142.377 284.36 142.646 284.507 142.935L286.556 146.914Z" fill="#1D1D1B"/>
<path d="M315.482 137.103L317.915 144.27L322.221 142.588L324.045 140.402C324.775 139.539 325.747 138.955 326.812 138.739L325.031 133.464L315.482 137.103Z" fill="white"/>
<path d="M317.355 145.527L322.731 143.426L324.732 141.063C325.327 140.354 326.122 139.876 326.995 139.702L328.047 139.486L325.614 132.214L314.327 136.508L317.355 145.527ZM321.691 141.744L318.456 143.013L316.632 137.699L324.501 134.688L325.639 138.059C324.779 138.415 324.009 138.982 323.388 139.715L321.691 141.744Z" fill="#1D1D1B"/>
<path d="M318.382 151.051L318.534 152.498C318.561 152.761 318.643 153.015 318.774 153.239C318.905 153.464 319.082 153.653 319.291 153.793C319.5 153.933 319.736 154.02 319.982 154.047C320.227 154.075 320.474 154.042 320.706 153.951L340.398 146.241C340.809 146.077 341.175 145.803 341.461 145.445C341.747 145.087 341.944 144.657 342.032 144.195C342.121 143.733 342.099 143.254 341.969 142.803C341.838 142.353 341.603 141.945 341.286 141.62C338.324 138.57 333.806 138.903 333.806 138.903C331.136 142.379 332.662 145.449 332.662 145.449L318.382 151.051Z" fill="white"/>
<path d="M320.144 155.037C320.441 155.038 320.735 154.982 321.014 154.874L340.706 147.163C341.264 146.944 341.76 146.575 342.148 146.091C342.536 145.608 342.804 145.027 342.926 144.401C343.047 143.776 343.019 143.128 342.844 142.517C342.668 141.907 342.351 141.355 341.923 140.913C338.706 137.594 333.95 137.909 333.749 137.922L333.354 137.954L333.104 138.275C331.03 140.978 331.182 143.511 331.505 144.866L317.395 150.397L317.626 152.616C317.695 153.283 317.99 153.899 318.454 154.347C318.919 154.795 319.52 155.043 320.144 155.044V155.037ZM334.254 139.872C335.348 139.872 338.511 140.114 340.652 142.327C340.859 142.539 341.012 142.805 341.098 143.1C341.183 143.394 341.197 143.707 341.138 144.009C341.082 144.307 340.956 144.584 340.77 144.814C340.585 145.043 340.347 145.217 340.08 145.318L320.394 153.015C320.291 153.054 320.181 153.068 320.072 153.055C319.964 153.041 319.86 153.002 319.768 152.939C319.676 152.875 319.598 152.791 319.541 152.69C319.484 152.59 319.449 152.477 319.439 152.36L319.366 151.706L333.962 145.992L333.463 144.99C333.421 144.899 332.374 142.615 334.254 139.872Z" fill="#1D1D1B"/>
<path d="M317.612 147.221L318.378 151.05L332.634 145.454C332.634 145.454 331.107 142.378 333.777 138.909L327.927 138.66C327.199 138.626 326.472 138.765 325.8 139.067C325.127 139.369 324.524 139.827 324.034 140.408L322.21 142.594L321.875 142.987L319.23 144.06C318.654 144.293 318.175 144.739 317.878 145.319C317.582 145.899 317.487 146.573 317.612 147.221Z" fill="#1D1D1B"/>
<path d="M317.71 152.36L333.961 145.991L333.462 144.99C333.419 144.892 332.282 142.418 334.508 139.525L335.676 138L327.982 137.672C327.54 137.651 327.098 137.684 326.663 137.771C325.4 138.028 324.249 138.716 323.379 139.734L321.341 142.136L318.909 143.125C318.126 143.439 317.475 144.046 317.075 144.834C316.674 145.622 316.55 146.54 316.725 147.418L317.71 152.36ZM331.498 144.866L319.048 149.742L318.507 147.019C318.423 146.6 318.482 146.163 318.673 145.787C318.864 145.41 319.174 145.121 319.547 144.97L322.393 143.851L324.729 141.063C325.323 140.354 326.118 139.875 326.991 139.701C327.292 139.641 327.598 139.619 327.903 139.636L332.124 139.813C331.328 141.351 331.104 143.157 331.498 144.866Z" fill="#1D1D1B"/>
<path d="M267.065 103.415H277.768C277.987 103.511 278.231 103.511 278.45 103.415H289.153C289.346 103.413 289.535 103.479 289.689 103.605C289.849 103.74 289.976 103.915 290.061 104.114C290.146 104.313 290.185 104.531 290.175 104.75V108.226C290.188 108.384 290.173 108.544 290.128 108.695C290.084 108.847 290.012 108.988 289.918 109.109C289.823 109.231 289.706 109.331 289.575 109.404C289.444 109.477 289.301 109.522 289.153 109.535H278.45C278.231 109.439 277.987 109.439 277.768 109.535H267.065C266.917 109.522 266.774 109.477 266.643 109.404C266.512 109.331 266.395 109.231 266.301 109.109C266.206 108.988 266.134 108.847 266.09 108.695C266.045 108.544 266.03 108.384 266.043 108.226V104.75C266.026 104.59 266.039 104.428 266.082 104.273C266.125 104.118 266.196 103.974 266.291 103.85C266.386 103.725 266.504 103.623 266.637 103.548C266.77 103.473 266.915 103.428 267.065 103.415ZM278.79 108.095H288.819V104.875H278.79V108.095ZM267.399 108.095H277.428V104.875H267.399V108.095Z" fill="#1D1D1B" stroke="#1D1D1B" stroke-miterlimit="10"/>
<path d="M278.788 104.875H288.816V108.095H278.788V104.875Z" fill="#FEE100"/>
<path d="M267.397 104.875H277.426V108.095H267.397V104.875Z" fill="#FEE100"/>
<path d="M254.254 45.5095L254.412 45.5881C254.53 45.6509 254.652 45.7035 254.777 45.7451L254.942 45.7844H255.124C255.223 45.791 255.323 45.791 255.422 45.7844C255.495 45.7827 255.568 45.7982 255.635 45.8298C255.703 45.8615 255.763 45.9085 255.811 45.9677C255.915 46.0986 256.024 46.2229 256.14 46.3473C256.53 46.7539 256.965 47.1077 257.435 47.4011L257.484 47.4338C257.976 47.725 258.501 47.9451 259.047 48.0883C260.17 48.4156 261.354 48.4156 262.477 48.0883C263.165 47.8824 263.817 47.5598 264.411 47.1327C265.295 46.4894 266.02 45.6239 266.524 44.6111C267.027 43.5983 267.294 42.4686 267.301 41.3199C267.307 40.1712 267.054 39.0381 266.562 38.0187C266.07 36.9992 265.355 36.1242 264.478 35.4692C264.313 35.3514 264.149 35.2401 263.979 35.1354C263.41 34.7838 262.795 34.5278 262.154 34.3761C262.064 34.3561 261.969 34.37 261.887 34.4154C261.83 34.45 261.779 34.4942 261.735 34.5463L261.449 34.8801C261.026 35.2475 260.586 35.5905 260.129 35.9077L259.929 36.0059C258.852 36.4968 257.599 36.5557 255.963 36.7193C255.943 36.721 255.924 36.7293 255.909 36.743C255.894 36.7566 255.882 36.7751 255.877 36.7959C255.872 36.8166 255.873 36.8386 255.879 36.8589C255.886 36.8791 255.898 36.8967 255.915 36.9091C256.641 37.4488 257.202 38.2084 257.527 39.0916C257.852 39.9748 257.926 40.9419 257.739 41.8704C257.731 41.904 257.715 41.9344 257.691 41.9579C257.667 41.9813 257.638 41.9968 257.606 42.0024C257.574 42.008 257.542 42.0034 257.513 41.9892C257.483 41.9751 257.458 41.952 257.441 41.9227C257.234 41.5764 256.949 41.2908 256.614 41.0915C256.243 40.8602 255.82 40.7428 255.391 40.752C254.962 40.7613 254.544 40.8968 254.181 41.1439C253.85 41.3677 253.574 41.6756 253.379 42.0406C253.07 42.6262 252.989 43.3194 253.153 43.9691C253.317 44.6188 253.713 45.1725 254.254 45.5095Z" fill="white"/>
<path d="M260.726 49.3912C261.4 49.3907 262.071 49.2916 262.721 49.0966C263.501 48.8648 264.242 48.5002 264.916 48.0167C265.924 47.2837 266.751 46.2974 267.325 45.1432C267.899 43.989 268.203 42.7016 268.211 41.3925C268.219 40.0833 267.93 38.7919 267.37 37.6298C266.809 36.4678 265.994 35.4702 264.995 34.7234C264.801 34.5859 264.618 34.4616 264.43 34.3503C263.788 33.9489 263.092 33.6554 262.368 33.4798C262.074 33.4154 261.768 33.4568 261.498 33.5976C261.334 33.6925 261.186 33.8164 261.06 33.9641C260.987 34.0558 260.908 34.1474 260.829 34.2325C260.641 34.3961 259.905 34.9917 259.728 35.0965L259.558 35.1815C258.575 35.5264 257.551 35.716 256.517 35.7444L255.879 35.8033C255.673 35.8264 255.478 35.9164 255.32 36.0613C255.163 36.2063 255.05 36.3994 254.997 36.6149C254.943 36.8238 254.95 37.0453 255.016 37.2499C255.083 37.4545 255.205 37.6326 255.368 37.7604C256.118 38.3212 256.645 39.1643 256.846 40.1232C256.101 39.7382 255.249 39.6699 254.46 39.9321C253.67 40.1942 253.002 40.7674 252.589 41.5369C252.157 42.3506 252.043 43.3151 252.271 44.2192C252.499 45.1234 253.05 45.8934 253.805 46.3607L254.048 46.4851C254.194 46.5601 254.344 46.6236 254.498 46.6749L254.748 46.7404C254.846 46.7648 254.945 46.7823 255.046 46.7927H255.252C255.331 46.8909 255.417 46.9825 255.502 47.0742C255.945 47.542 256.439 47.9507 256.973 48.2916L257.028 48.3309C257.382 48.547 257.752 48.7309 258.135 48.8807V48.9461L258.81 49.149C259.436 49.3174 260.08 49.3988 260.726 49.3912ZM262.252 35.4761C262.697 35.6103 263.124 35.8038 263.523 36.0521C263.682 36.1437 263.828 36.2484 263.973 36.3531C264.728 36.916 265.343 37.6684 265.766 38.5451C266.189 39.4218 266.407 40.3962 266.401 41.384C266.395 42.3718 266.165 43.3431 265.732 44.2138C265.298 45.0844 264.674 45.8281 263.913 46.3804C263.402 46.7497 262.839 47.0282 262.246 47.2051C261.36 47.4696 260.426 47.4966 259.528 47.2836L259.291 47.2182C258.822 47.0851 258.37 46.8894 257.947 46.6356C257.521 46.366 257.127 46.043 256.773 45.6735L256.505 45.3659C256.372 45.197 256.206 45.0618 256.019 44.9702C255.832 44.8785 255.628 44.8326 255.423 44.8357H255.234H255.131H255.021C254.959 44.8147 254.898 44.7884 254.839 44.7572L254.675 44.6786C254.351 44.4651 254.116 44.1253 254.02 43.7301C253.924 43.3349 253.973 42.915 254.158 42.558C254.279 42.3356 254.448 42.1473 254.65 42.0082C254.872 41.8571 255.128 41.7743 255.391 41.7685C255.654 41.7627 255.913 41.8343 256.14 41.9755C256.36 42.1039 256.542 42.2939 256.669 42.5253C256.783 42.7302 256.953 42.8923 257.155 42.9895C257.358 43.0868 257.583 43.1144 257.801 43.0685C258.009 43.0271 258.2 42.9196 258.351 42.7597C258.502 42.5999 258.604 42.3951 258.646 42.1718C258.805 41.3922 258.811 40.5853 258.663 39.8031C258.516 39.0209 258.218 38.2805 257.788 37.6294C258.647 37.5545 259.49 37.3473 260.294 37.0142L260.519 36.9029C261.07 36.523 261.594 36.1008 262.088 35.6397L262.252 35.4761Z" fill="#1D1D1B"/>
<path d="M289.699 36.2348C290.137 38.5976 291.049 39.298 291.049 39.298L291.706 44.9792H296.754L296.194 38.2769C296.525 36.2071 296.632 34.1028 296.511 32.0066C296.273 28.9107 295.227 25.9065 292.035 26.3254L293.105 28.5704L294.358 31.1885C294.455 31.3961 294.485 31.6331 294.442 31.8611C294.399 32.0892 294.286 32.2949 294.121 32.4451C293.208 33.2502 290.94 35.3316 290.052 36.1105C289.954 36.1992 289.827 36.2438 289.699 36.2348Z" fill="white"/>
<path d="M290.903 45.962H297.781L297.173 38.3172C297.505 36.2056 297.609 34.0598 297.483 31.9225C297.276 29.2455 296.553 27.3409 295.336 26.274C294.861 25.8809 294.315 25.5987 293.733 25.4454C293.151 25.2921 292.545 25.2712 291.955 25.3839L290.653 25.5541L293.579 31.6738C293.135 32.1123 292.362 32.793 291.62 33.4868C290.879 34.1806 290.118 34.8482 289.644 35.2671L288.555 35.1101L288.805 36.4584C288.975 37.6811 289.453 38.8307 290.185 39.7833L290.903 45.962ZM295.768 43.9984H292.496L291.888 38.7623L291.56 38.5136C291.162 38.0222 290.882 37.4334 290.745 36.7987C291.231 36.3667 292.01 35.6598 292.776 34.9661C293.542 34.2723 294.321 33.5916 294.728 33.2381C295.056 32.9471 295.281 32.5447 295.367 32.0973C295.453 31.6499 295.395 31.1843 295.203 30.7771L293.634 27.5045C293.822 27.5842 293.997 27.697 294.15 27.8383C294.959 28.5452 295.47 30.031 295.634 32.1254C295.742 34.1342 295.64 36.1496 295.33 38.1339V38.2714L295.768 43.9984Z" fill="#1D1D1B"/>
<path d="M289.631 36.876C289.873 36.876 290.105 36.7726 290.276 36.5885C290.447 36.4044 290.543 36.1546 290.543 35.8943C290.539 35.7998 290.529 35.7057 290.513 35.6128C290.457 35.3602 290.313 35.1408 290.109 35.0014C289.906 34.862 289.66 34.8137 289.424 34.8667C289.307 34.8924 289.197 34.9426 289.099 35.0145C289 35.0865 288.916 35.1787 288.851 35.2858C288.786 35.3929 288.741 35.5128 288.72 35.6386C288.698 35.7643 288.7 35.8935 288.725 36.0186C288.754 36.2552 288.862 36.4724 289.028 36.63C289.195 36.7876 289.409 36.875 289.631 36.876Z" fill="#1D1D1B"/>
<path d="M291.859 47.1909H291.999C292.237 47.1506 292.451 47.0102 292.594 46.8004C292.736 46.5906 292.796 46.3285 292.759 46.0717L292.729 45.8622C292.71 45.7333 292.668 45.6095 292.606 45.498C292.543 45.3864 292.46 45.2893 292.362 45.2121C292.265 45.1349 292.154 45.0792 292.036 45.0481C291.918 45.0171 291.796 45.0112 291.676 45.031C291.557 45.0508 291.442 45.0957 291.338 45.1633C291.234 45.231 291.144 45.3199 291.072 45.425C291.001 45.5302 290.949 45.6495 290.92 45.7762C290.891 45.9028 290.886 46.0344 290.904 46.1633V46.3728C290.94 46.6126 291.058 46.8295 291.234 46.9808C291.411 47.1321 291.634 47.2071 291.859 47.1909Z" fill="#1D1D1B"/>
<path d="M234.008 96.7254C233.987 96.9548 234.011 97.1864 234.078 97.4053C234.145 97.6243 234.254 97.8257 234.398 97.9965C234.542 98.1674 234.717 98.3038 234.913 98.3972C235.109 98.4905 235.321 98.5386 235.535 98.5384H245.114C245.448 98.5389 245.774 98.4214 246.041 98.2039C246.308 97.9865 246.501 97.681 246.591 97.3341C248.793 88.498 248.866 80.4409 252.357 71.0485L269.386 103.12C270.099 103.042 270.788 102.791 271.399 102.387C276.045 99.2976 275.048 87.7257 277.821 83.2815C280.917 78.2941 287.874 79.1253 287.874 79.1253L287.807 78.9682L282.802 67.2196C285.44 69.0713 288.64 69.7581 291.736 69.1373C299.466 67.4749 298.693 45.0117 298.693 45.0117H296.753L296.832 45.9411C295.16 45.9411 293.402 46 291.797 46.0328L291.675 45.0117H290.161C290.161 47.5054 288.616 56.6622 286.293 54.9932C285.222 54.2208 282.176 53.2587 279.202 52.4471C274.867 51.265 270.36 50.9982 265.931 51.6616H265.816C264.155 51.9104 262.307 52.1984 260.421 52.5256C256.907 53.1751 253.546 54.5653 250.532 56.6164C242.018 62.507 234.72 88.6159 234.008 96.7254Z" fill="#FF3C38"/>
<path d="M268.895 104.134L269.503 104.062C270.351 103.967 271.168 103.667 271.894 103.185C274.977 101.137 275.792 96.2016 276.583 91.404C277.087 88.3277 277.568 85.4217 278.596 83.7657C281.338 79.3412 287.718 80.0284 287.791 80.0415L289.385 80.2248L284.726 69.2877C286.993 70.2895 289.482 70.5602 291.89 70.0666C300.137 68.2929 299.657 47.3286 299.577 44.9396L299.541 43.9971H295.758L295.837 44.9396C294.767 44.9396 293.684 44.9789 292.644 44.9985H292.602L292.48 43.9971H289.251V44.9789C289.251 47.8784 287.822 53.828 286.848 54.1749C286.848 54.1749 286.848 54.1749 286.8 54.1421C285.802 53.4222 283.388 52.5451 279.429 51.4651C274.98 50.2452 270.352 49.9717 265.806 50.6601H265.69C263.616 50.9743 261.895 51.2492 260.278 51.5306C256.628 52.1997 253.138 53.6437 250.012 55.7784C240.95 62.0422 233.713 89.1262 233.074 96.5878C233.039 96.9535 233.076 97.323 233.182 97.6723C233.289 98.0216 233.463 98.3428 233.692 98.6151C233.922 98.8874 234.202 99.1046 234.514 99.2526C234.827 99.4006 235.165 99.4761 235.507 99.4742H245.116C245.651 99.4775 246.172 99.2908 246.599 98.9429C247.026 98.595 247.334 98.1054 247.476 97.5499C248.333 94.1006 248.88 90.7298 249.403 87.4769C250.139 82.9345 250.9 78.2612 252.529 73.2999L268.895 104.134ZM286.417 78.0583C284.033 78.0976 279.508 78.7128 277.045 82.6989C275.828 84.7017 275.299 87.8041 274.752 91.0833C274.034 95.4358 273.292 99.9258 270.902 101.516C270.575 101.736 270.218 101.899 269.844 102.001L252.207 68.7641L251.508 70.6491C249.324 76.5398 248.467 81.9265 247.603 87.1561C247.08 90.3633 246.545 93.7013 245.706 97.0459C245.669 97.1875 245.589 97.3116 245.479 97.3983C245.368 97.485 245.234 97.5292 245.098 97.5237H235.519C235.433 97.5244 235.348 97.5056 235.269 97.4683C235.191 97.4311 235.12 97.3764 235.063 97.3077C235.004 97.2372 234.958 97.1544 234.93 97.0643C234.902 96.9742 234.891 96.8789 234.899 96.7841C235.562 89.0739 242.805 63.1287 251.009 57.4409C253.924 55.4622 257.176 54.1273 260.576 53.5138C262.187 53.2324 263.896 52.964 265.958 52.6498H266.073C270.384 51.9995 274.771 52.2574 278.991 53.4091C283.856 54.7181 285.34 55.4904 285.802 55.8243C286.081 56.037 286.409 56.1615 286.75 56.1835C287.091 56.2055 287.43 56.1241 287.73 55.9486C289.67 54.8294 290.65 49.5539 290.966 46.6675L291.008 47.0406L292.711 46.9817C294.067 46.9817 295.503 46.9228 296.877 46.9097H297.814C297.814 53.828 296.756 67.0558 291.562 68.175C288.691 68.7598 285.721 68.1164 283.285 66.3817L280.724 64.6537L286.417 78.0583Z" fill="#1D1D1B"/>
<path d="M291.024 46.9812H292.708C294.064 46.9812 295.5 46.9223 296.874 46.9092H297.859L297.616 44.0293H290.671L291.024 46.9812Z" fill="#1D1D1B"/>
<path d="M287.809 79.9188C288.02 79.9183 288.225 79.8387 288.388 79.6937C288.551 79.5486 288.662 79.3472 288.702 79.1238C288.742 78.9004 288.709 78.669 288.608 78.4689C288.508 78.2689 288.345 78.1128 288.149 78.0273C288.089 77.9975 288.025 77.9734 287.961 77.9553C287.73 77.8717 287.478 77.8895 287.26 78.0047C287.041 78.1198 286.873 78.3232 286.793 78.5705C286.753 78.6899 286.735 78.8168 286.741 78.9436C286.747 79.0705 286.776 79.1949 286.827 79.3094C286.878 79.424 286.949 79.5265 287.038 79.6109C287.126 79.6953 287.229 79.7599 287.341 79.801H287.401H287.468C287.574 79.8633 287.689 79.9033 287.809 79.9188Z" fill="#1D1D1B"/>
<path d="M292.467 104.894L288.964 109.96L279.081 124.261C278.433 125.196 278.151 126.366 278.297 127.522C278.442 128.677 279.004 129.725 279.859 130.44L287.869 137.142C288.603 137.757 289.532 138.037 290.455 137.922C291.379 137.807 292.224 137.306 292.807 136.527C296.511 131.585 303.791 121.152 306.534 112.27L313.224 135.885C313.292 136.126 313.406 136.35 313.557 136.543C313.707 136.735 313.893 136.893 314.102 137.007C314.311 137.121 314.539 137.188 314.773 137.204C315.006 137.221 315.241 137.186 315.462 137.103L325.028 133.464L325.819 133.163C326.147 133.04 326.433 132.814 326.64 132.514C326.847 132.214 326.966 131.854 326.981 131.481C327.266 124.615 324.894 116.773 322.024 109.96C319.484 103.968 316.465 98.2259 312.999 92.7984C309.167 86.6066 293.233 80.8665 287.808 78.916L287.875 79.0731C287.875 79.0731 280.918 78.2419 277.822 83.2293C275.073 87.6735 276.046 99.2454 271.4 102.335C272.789 102.939 274.259 103.297 275.754 103.395C279.175 103.7 282.61 103.763 286.038 103.585C288.252 103.493 290.241 103.362 291.64 103.251C291.823 103.235 292.007 103.277 292.169 103.371C292.33 103.465 292.463 103.608 292.551 103.782C292.639 103.956 292.677 104.154 292.662 104.352C292.647 104.549 292.579 104.737 292.467 104.894Z" fill="#35A7FF"/>
<path d="M290.065 138.923C290.731 138.925 291.39 138.766 291.992 138.458C292.594 138.15 293.124 137.701 293.544 137.143C297.138 132.339 303.274 123.536 306.467 115.308L312.391 136.174C312.496 136.542 312.669 136.883 312.899 137.177C313.13 137.471 313.414 137.712 313.733 137.885C314.052 138.058 314.401 138.159 314.757 138.184C315.114 138.208 315.472 138.155 315.809 138.027L326.148 134.099C326.648 133.913 327.085 133.568 327.4 133.111C327.716 132.653 327.896 132.103 327.917 131.534C328.167 125.493 326.476 118.096 322.882 109.568C320.309 103.528 317.257 97.7377 313.759 92.2625C310.134 86.4635 297.363 81.3451 288.1 78.0005L286.1 77.2871L286.416 78.0594C284.038 78.0987 279.513 78.714 277.05 82.7C275.834 84.7028 275.305 87.8052 274.757 91.0844C274.04 95.437 273.298 99.927 270.907 101.517L269.503 102.453L270.987 103.232C272.47 103.896 274.047 104.288 275.651 104.391C279.112 104.705 282.588 104.77 286.057 104.587C288.617 104.482 290.691 104.332 291.695 104.247L292.455 104.901L291.725 104.312L278.345 123.679C277.555 124.82 277.211 126.248 277.388 127.658C277.566 129.068 278.25 130.347 279.294 131.22L287.304 137.922C288.093 138.582 289.066 138.935 290.065 138.923ZM306.571 109.038L305.67 111.964C302.897 120.931 295.253 131.697 292.096 135.912C291.661 136.483 291.038 136.849 290.357 136.933C289.676 137.018 288.991 136.814 288.447 136.364L280.438 129.662C279.771 129.104 279.334 128.287 279.221 127.387C279.107 126.486 279.325 125.574 279.829 124.845L293.209 105.477C293.42 105.169 293.545 104.803 293.569 104.421C293.593 104.039 293.514 103.657 293.342 103.322C293.171 102.986 292.914 102.711 292.601 102.528C292.289 102.345 291.934 102.262 291.579 102.29C290.582 102.368 288.538 102.519 286.008 102.624C282.625 102.807 279.234 102.746 275.858 102.44C274.968 102.351 274.084 102.197 273.212 101.982C275.232 99.5473 275.913 95.437 276.576 91.4313C277.08 88.355 277.561 85.449 278.589 83.793C281.332 79.3685 287.711 80.0557 287.784 80.0688L288.234 80.1212C294.036 82.2156 308.736 87.6874 312.245 93.3621C315.688 98.7441 318.689 104.438 321.215 110.38C324.694 118.627 326.33 125.715 326.081 131.449C326.074 131.625 326.019 131.796 325.921 131.938C325.823 132.081 325.688 132.188 325.533 132.247L315.194 136.174C315.107 136.209 315.014 136.226 314.921 136.227C314.741 136.225 314.566 136.16 314.423 136.042C314.281 135.924 314.178 135.759 314.13 135.572L306.571 109.038Z" fill="#1D1D1B"/>
<path d="M306.533 113.245C306.653 113.246 306.771 113.221 306.882 113.173C306.992 113.124 307.093 113.052 307.178 112.962C307.263 112.871 307.33 112.763 307.376 112.645C307.422 112.526 307.445 112.398 307.445 112.27C307.445 112.076 307.392 111.886 307.292 111.724C307.191 111.563 307.049 111.437 306.882 111.363C306.715 111.289 306.532 111.269 306.355 111.307C306.178 111.345 306.016 111.438 305.888 111.576C305.76 111.713 305.674 111.888 305.638 112.078C305.603 112.269 305.621 112.466 305.69 112.646C305.759 112.825 305.876 112.978 306.026 113.086C306.176 113.194 306.353 113.252 306.533 113.252V113.245Z" fill="#1D1D1B"/>
<path d="M306.534 113.246C306.737 113.248 306.933 113.177 307.093 113.044C307.253 112.911 307.367 112.724 307.416 112.513C307.672 111.688 307.872 110.929 308.024 110.182C308.26 109.146 308.414 108.091 308.487 107.028C309.289 94.0092 293.161 86.4103 292.474 86.083C292.363 86.0323 292.245 86.0054 292.125 86.004C292.005 86.0025 291.886 86.0265 291.775 86.0745C291.664 86.1225 291.562 86.1936 291.477 86.2838C291.391 86.374 291.323 86.4814 291.275 86.6001C291.228 86.7187 291.203 86.8461 291.202 86.9751C291.201 87.1041 291.223 87.2321 291.268 87.3519C291.312 87.4716 291.378 87.5807 291.462 87.6729C291.546 87.7652 291.646 87.8388 291.756 87.8895C291.914 87.9615 307.386 95.2528 306.662 106.871C306.6 107.826 306.461 108.774 306.249 109.705C306.097 110.412 305.902 111.138 305.64 111.923L305.592 112.074V112.238C305.588 112.372 305.61 112.505 305.657 112.629C305.703 112.754 305.772 112.866 305.861 112.961C305.949 113.055 306.054 113.129 306.17 113.178C306.286 113.227 306.41 113.25 306.534 113.246Z" fill="#1D1D1B"/>
<path d="M259.342 48.1735L260.449 52.5129C262.335 52.1857 264.183 51.8977 265.844 51.649L264.706 47.1982C264.113 47.6253 263.46 47.9479 262.772 48.1538C261.651 48.4876 260.467 48.4943 259.342 48.1735Z" fill="white"/>
<path d="M259.791 53.6196L260.6 53.4822C262.205 53.2007 263.914 52.9324 265.976 52.6182L267.004 52.4677L265.258 45.6279L264.206 46.3806C263.693 46.7488 263.128 47.0272 262.534 47.2053C261.568 47.4867 260.55 47.4867 259.584 47.2053L258.046 46.7602L259.791 53.6196ZM264.693 50.8314C263.385 51.0343 262.224 51.2175 261.117 51.4073L260.6 49.3783C261.42 49.43 262.242 49.3349 263.033 49.0969C263.416 48.9849 263.791 48.8382 264.152 48.6584L264.693 50.8314Z" fill="#1D1D1B"/>
<path d="M262.619 110.276H289.596C289.679 110.276 289.759 110.242 289.818 110.182C289.877 110.122 289.91 110.04 289.91 109.955C289.91 109.87 289.877 109.789 289.818 109.729C289.759 109.669 289.679 109.635 289.596 109.635H262.619C262.535 109.635 262.455 109.669 262.397 109.729C262.338 109.789 262.304 109.87 262.304 109.955C262.304 110.04 262.338 110.122 262.397 110.182C262.455 110.242 262.535 110.276 262.619 110.276Z" fill="#1D1D1B"/>
<path d="M225.257 109.103C230.731 109.253 240.127 109.436 241.41 108.978C242.846 108.461 243.527 101.471 243.758 98.5059H236.241L235.821 100.319C235.458 101.64 234.713 102.803 233.693 103.636C232.674 104.47 231.433 104.931 230.153 104.953C228.244 104.957 226.364 105.465 224.68 106.432C224.424 106.58 224.221 106.814 224.102 107.098C223.982 107.383 223.953 107.701 224.019 108.005C224.085 108.309 224.242 108.581 224.465 108.78C224.689 108.978 224.968 109.091 225.257 109.103Z" fill="white"/>
<path d="M235.183 110.248C238.881 110.248 241.064 110.137 241.697 109.908C242.329 109.679 243.85 109.136 244.665 98.5847L244.75 97.5244H235.53L234.922 100.077C234.616 101.18 233.993 102.151 233.143 102.85C232.294 103.55 231.26 103.942 230.19 103.971H230.02C228.004 103.992 226.022 104.535 224.243 105.555C223.805 105.802 223.455 106.199 223.249 106.682C223.043 107.166 222.992 107.709 223.104 108.228C223.216 108.746 223.485 109.209 223.868 109.546C224.251 109.882 224.727 110.071 225.222 110.085C229.28 110.198 232.601 110.253 235.183 110.248ZM241.071 108.056C240.292 108.278 235.755 108.409 225.258 108.121C225.165 108.121 225.075 108.085 225.004 108.021C224.932 107.956 224.885 107.866 224.869 107.768C224.845 107.677 224.852 107.58 224.889 107.495C224.926 107.41 224.99 107.342 225.07 107.303C226.62 106.4 228.355 105.93 230.117 105.935H230.178C231.655 105.906 233.084 105.367 234.255 104.399C235.427 103.43 236.279 102.083 236.686 100.555L236.929 99.488H242.737C242.232 105.477 241.454 107.696 241.083 108.056H241.071Z" fill="#1D1D1B"/>
<path d="M252.358 71.9978C252.548 72 252.734 71.938 252.89 71.8207C253.046 71.7033 253.164 71.5364 253.227 71.3433C253.969 68.8038 254.839 65.9566 254.997 65.5966C255.091 65.3659 255.1 65.1051 255.02 64.8681C254.94 64.6311 254.779 64.4361 254.57 64.3234C254.361 64.2107 254.119 64.189 253.895 64.2627C253.671 64.3365 253.482 64.5 253.367 64.7196C253.081 65.3283 251.859 69.491 251.488 70.7542C251.452 70.878 251.44 71.0081 251.451 71.1371C251.462 71.2661 251.497 71.3914 251.554 71.5058C251.61 71.6202 251.687 71.7214 251.781 71.8036C251.874 71.8858 251.981 71.9473 252.096 71.9847C252.182 72.0035 252.27 72.0079 252.358 71.9978Z" fill="#1D1D1B"/>
<path d="M282.767 68.0711C282.909 68.0722 283.049 68.0363 283.175 67.9664C283.389 67.8498 283.552 67.647 283.629 67.402C283.705 67.1569 283.688 66.8893 283.582 66.6573L280.542 60.1121C280.427 59.8926 280.238 59.729 280.014 59.6553C279.79 59.5815 279.548 59.6033 279.339 59.716C279.129 59.8286 278.968 60.0237 278.889 60.2607C278.809 60.4977 278.817 60.7585 278.912 60.9892L281.952 67.5344C282.029 67.6962 282.146 67.832 282.289 67.9268C282.433 68.0215 282.599 68.0715 282.767 68.0711Z" fill="#1D1D1B"/>
<path d="M251.311 46.0203C252.07 46.624 252.929 47.0681 253.841 47.3293C254.221 47.4331 254.622 47.3988 254.981 47.2319C255.341 47.065 255.639 46.7748 255.83 46.4065C255.714 46.2821 255.605 46.1577 255.501 46.0268C255.453 45.9677 255.393 45.9206 255.326 45.889C255.258 45.8573 255.185 45.8418 255.112 45.8436C255.013 45.8501 254.913 45.8501 254.814 45.8436H254.632L254.467 45.8043C254.342 45.7626 254.22 45.7101 254.103 45.6472L253.944 45.5687C253.399 45.2338 253 44.6799 252.833 44.0284C252.667 43.3769 252.747 42.681 253.057 42.0932C253.252 41.7282 253.528 41.4203 253.859 41.1965C254.222 40.9494 254.64 40.8139 255.069 40.8046C255.498 40.7954 255.921 40.9128 256.292 41.1441C256.647 41.3589 256.942 41.6705 257.15 42.0474C257.167 42.0766 257.192 42.0997 257.221 42.1138C257.25 42.128 257.283 42.1326 257.315 42.127C257.346 42.1214 257.376 42.1059 257.399 42.0825C257.423 42.059 257.44 42.0286 257.447 41.995C257.634 41.0665 257.56 40.0994 257.235 39.2162C256.91 38.333 256.349 37.5734 255.623 37.0337C255.607 37.0213 255.594 37.0037 255.588 36.9835C255.581 36.9632 255.58 36.9412 255.585 36.9205C255.591 36.8997 255.602 36.8813 255.617 36.8676C255.633 36.8539 255.652 36.8456 255.672 36.8439C257.308 36.6803 258.56 36.6214 259.637 36.1305L259.838 36.0323C260.11 35.8931 260.369 35.7242 260.61 35.5283C260.732 35.4236 260.853 35.3123 260.975 35.1945L261.157 35.0047L261.443 34.6709C261.482 34.6152 261.535 34.5722 261.595 34.5466C261.678 34.5011 261.772 34.4873 261.863 34.5073C262.503 34.6589 263.119 34.9149 263.687 35.2665C263.858 35.3713 264.022 35.4825 264.186 35.6003C264.337 34.6336 264.292 33.643 264.052 32.6971C263.813 31.7512 263.385 30.8726 262.799 30.122C262.141 29.2873 261.307 28.6342 260.367 28.2173C259.229 27.7096 257.977 27.5748 256.769 27.8298C255.56 28.0848 254.449 28.7183 253.573 29.6507C252.841 30.4605 252.304 31.4518 252.01 32.5372C251.993 32.6161 251.947 32.6843 251.883 32.727C250.68 33.614 249.694 34.8022 249.012 36.1894C248.29 37.8634 248.125 39.7535 248.543 41.5432C248.962 43.3328 249.939 44.9134 251.311 46.0203Z" fill="#1D1D1B"/>
<path d="M254.279 48.0367C254.702 48.0316 255.116 47.9083 255.48 47.6787C255.845 47.4492 256.148 47.1214 256.359 46.7276L256.59 46.2956L256.262 45.9422C256.158 45.8309 256.055 45.7196 255.964 45.6018C255.858 45.4708 255.727 45.3661 255.58 45.2949C255.433 45.2237 255.274 45.1878 255.112 45.1895H254.887H254.766L254.602 45.1502C254.526 45.1241 254.453 45.0913 254.383 45.052L254.224 44.9735C253.832 44.7142 253.549 44.3004 253.435 43.8201C253.322 43.3399 253.387 42.8309 253.616 42.4012C253.768 42.134 253.976 41.9096 254.224 41.7467C254.423 41.6147 254.645 41.5268 254.876 41.4882C255.107 41.4497 255.342 41.4612 255.569 41.5222C255.796 41.5832 256.009 41.6924 256.196 41.8434C256.382 41.9943 256.539 42.184 256.657 42.4012C256.74 42.5464 256.861 42.661 257.006 42.73C257.15 42.799 257.311 42.819 257.466 42.7874C257.617 42.758 257.757 42.6796 257.865 42.5626C257.974 42.4456 258.047 42.2957 258.074 42.1329C258.243 41.3008 258.227 40.4378 258.028 39.6136C257.83 38.7893 257.454 38.0268 256.931 37.3876C257.948 37.3395 258.952 37.1186 259.905 36.7331L260.118 36.6284C260.431 36.4691 260.728 36.2761 261.006 36.0524C261.152 35.928 261.285 35.8037 261.413 35.6793L261.62 35.4633L261.875 35.1688C262.411 35.3068 262.925 35.5272 263.402 35.8233C263.56 35.9215 263.718 36.0262 263.87 36.1375L264.648 36.7004L264.807 35.6989C264.966 34.6791 264.926 33.6346 264.688 32.6325C264.45 31.6304 264.02 30.6929 263.426 29.8803L263.28 29.6904C262.553 28.7745 261.634 28.0586 260.598 27.6025C259.342 27.0602 257.966 26.928 256.641 27.2225C255.316 27.517 254.101 28.2251 253.148 29.2585C252.373 30.1208 251.797 31.1682 251.469 32.3151C250.215 33.2622 249.188 34.5161 248.471 35.9738C247.688 37.7875 247.511 39.8365 247.969 41.7745C248.428 43.7126 249.495 45.4206 250.989 46.6098C251.808 47.2609 252.735 47.7384 253.72 48.017C253.905 48.0485 254.093 48.0551 254.279 48.0367ZM254.96 46.4854C254.822 46.5936 254.663 46.6678 254.495 46.7029C254.327 46.7379 254.153 46.7329 253.987 46.6883C253.152 46.4485 252.366 46.0422 251.67 45.4906C250.402 44.4812 249.498 43.0312 249.11 41.3862C248.722 39.7413 248.875 38.0026 249.542 36.4647C250.174 35.1865 251.084 34.091 252.193 33.2707C252.383 33.1392 252.519 32.936 252.576 32.7012C252.84 31.7171 253.324 30.818 253.987 30.0832C254.767 29.2427 255.759 28.6665 256.84 28.4257C257.92 28.185 259.043 28.2901 260.069 28.7283C260.888 29.09 261.62 29.6473 262.21 30.3581L262.289 30.4562C263.156 31.5662 263.626 32.9728 263.615 34.4226C263.09 34.1328 262.534 33.913 261.96 33.7681C261.734 33.7152 261.498 33.7476 261.291 33.8597C261.146 33.9246 261.02 34.031 260.926 34.1674V34.2001C260.854 34.2917 260.774 34.3834 260.701 34.4619C260.656 34.5175 260.607 34.57 260.556 34.619L260.215 34.9266C260.013 35.0931 259.795 35.2357 259.564 35.352L259.37 35.4437C258.359 35.8091 257.303 36.0098 256.238 36.0393L255.629 36.0982C255.486 36.1112 255.35 36.1709 255.24 36.2692C255.129 36.3675 255.049 36.4998 255.01 36.6485C254.971 36.7971 254.975 36.955 255.021 37.1011C255.068 37.2472 255.155 37.3746 255.271 37.4661C255.765 37.836 256.174 38.3236 256.465 38.8912C256.756 39.4588 256.922 40.0911 256.949 40.7387C256.84 40.6483 256.724 40.5673 256.602 40.4966C256.138 40.2092 255.609 40.0634 255.074 40.075C254.538 40.0865 254.015 40.2549 253.562 40.562C253.124 40.8554 252.766 41.2658 252.52 41.7533C252.275 42.2407 252.151 42.7884 252.162 43.3426C252.172 43.8969 252.316 44.4387 252.58 44.9151C252.843 45.3914 253.217 45.7859 253.665 46.06L253.878 46.1647C254.015 46.2376 254.157 46.2989 254.304 46.348L254.522 46.4004C254.606 46.4221 254.692 46.4374 254.778 46.4462C254.838 46.4646 254.899 46.4777 254.96 46.4854Z" fill="#1D1D1B"/>
</svg>
