<svg width="81" height="81" viewBox="0 0 81 81" fill="none" xmlns="http://www.w3.org/2000/svg">
<circle cx="40.75" cy="40.875" r="39.5" fill="white" stroke="#E1EFFF"/>
<mask id="mask0_748_17251" style="mask-type:alpha" maskUnits="userSpaceOnUse" x="0" y="0" width="81" height="81">
<circle cx="40.75" cy="40.875" r="39.5" fill="#D9D9D9" stroke="#E1EFFF"/>
</mask>
<g mask="url(#mask0_748_17251)">
<rect x="16.25" y="10.375" width="5" height="5" stroke="#E1EFFF"/>
<rect x="16.25" y="5.375" width="5" height="5" stroke="#E1EFFF"/>
<rect x="16.25" y="0.375" width="5" height="5" stroke="#E1EFFF"/>
<rect x="16.25" y="15.375" width="5" height="5" stroke="#E1EFFF"/>
<rect x="16.25" y="20.375" width="5" height="5" stroke="#E1EFFF"/>
<rect x="16.25" y="25.375" width="5" height="5" stroke="#E1EFFF"/>
<rect x="16.25" y="30.375" width="5" height="5" stroke="#E1EFFF"/>
<rect x="16.25" y="35.375" width="5" height="5" stroke="#E1EFFF"/>
<rect x="16.25" y="40.375" width="5" height="5" stroke="#E1EFFF"/>
<rect x="16.25" y="45.375" width="5" height="5" stroke="#E1EFFF"/>
<rect x="16.25" y="50.375" width="5" height="5" stroke="#E1EFFF"/>
<rect x="16.25" y="55.375" width="5" height="5" stroke="#E1EFFF"/>
<rect x="16.25" y="60.375" width="5" height="5" stroke="#E1EFFF"/>
<rect x="16.25" y="65.375" width="5" height="5" stroke="#E1EFFF"/>
<rect x="16.25" y="70.375" width="5" height="5" stroke="#E1EFFF"/>
<rect x="16.25" y="75.375" width="5" height="5" stroke="#E1EFFF"/>
<rect x="11.25" y="10.375" width="5" height="5" stroke="#E1EFFF"/>
<rect x="11.25" y="5.375" width="5" height="5" stroke="#E1EFFF"/>
<rect x="11.25" y="0.375" width="5" height="5" stroke="#E1EFFF"/>
<rect x="11.25" y="15.375" width="5" height="5" stroke="#E1EFFF"/>
<rect x="11.25" y="20.375" width="5" height="5" stroke="#E1EFFF"/>
<rect x="11.25" y="25.375" width="5" height="5" stroke="#E1EFFF"/>
<rect x="11.25" y="30.375" width="5" height="5" stroke="#E1EFFF"/>
<rect x="11.25" y="35.375" width="5" height="5" stroke="#E1EFFF"/>
<rect x="11.25" y="40.375" width="5" height="5" stroke="#E1EFFF"/>
<rect x="11.25" y="45.375" width="5" height="5" stroke="#E1EFFF"/>
<rect x="11.25" y="50.375" width="5" height="5" stroke="#E1EFFF"/>
<rect x="11.25" y="55.375" width="5" height="5" stroke="#E1EFFF"/>
<rect x="11.25" y="60.375" width="5" height="5" stroke="#E1EFFF"/>
<rect x="11.25" y="65.375" width="5" height="5" stroke="#E1EFFF"/>
<rect x="11.25" y="70.375" width="5" height="5" stroke="#E1EFFF"/>
<rect x="11.25" y="75.375" width="5" height="5" stroke="#E1EFFF"/>
<rect x="21.25" y="10.375" width="5" height="5" stroke="#E1EFFF"/>
<rect x="21.25" y="5.375" width="5" height="5" stroke="#E1EFFF"/>
<rect x="21.25" y="0.375" width="5" height="5" stroke="#E1EFFF"/>
<rect x="21.25" y="15.375" width="5" height="5" stroke="#E1EFFF"/>
<rect x="21.25" y="20.375" width="5" height="5" stroke="#E1EFFF"/>
<rect x="21.25" y="25.375" width="5" height="5" stroke="#E1EFFF"/>
<rect x="21.25" y="30.375" width="5" height="5" stroke="#E1EFFF"/>
<rect x="21.25" y="35.375" width="5" height="5" stroke="#E1EFFF"/>
<rect x="21.25" y="40.375" width="5" height="5" stroke="#E1EFFF"/>
<rect x="21.25" y="45.375" width="5" height="5" stroke="#E1EFFF"/>
<rect x="21.25" y="50.375" width="5" height="5" stroke="#E1EFFF"/>
<rect x="21.25" y="55.375" width="5" height="5" stroke="#E1EFFF"/>
<rect x="21.25" y="60.375" width="5" height="5" stroke="#E1EFFF"/>
<rect x="21.25" y="65.375" width="5" height="5" stroke="#E1EFFF"/>
<rect x="21.25" y="70.375" width="5" height="5" stroke="#E1EFFF"/>
<rect x="21.25" y="75.375" width="5" height="5" stroke="#E1EFFF"/>
<rect x="26.25" y="10.375" width="5" height="5" stroke="#E1EFFF"/>
<rect x="26.25" y="5.375" width="5" height="5" stroke="#E1EFFF"/>
<rect x="26.25" y="0.375" width="5" height="5" stroke="#E1EFFF"/>
<rect x="26.25" y="15.375" width="5" height="5" stroke="#E1EFFF"/>
<rect x="26.25" y="20.375" width="5" height="5" stroke="#E1EFFF"/>
<rect x="26.25" y="25.375" width="5" height="5" stroke="#E1EFFF"/>
<rect x="26.25" y="30.375" width="5" height="5" stroke="#E1EFFF"/>
<rect x="26.25" y="35.375" width="5" height="5" stroke="#E1EFFF"/>
<rect x="26.25" y="40.375" width="5" height="5" stroke="#E1EFFF"/>
<rect x="26.25" y="45.375" width="5" height="5" stroke="#E1EFFF"/>
<rect x="26.25" y="50.375" width="5" height="5" stroke="#E1EFFF"/>
<rect x="26.25" y="55.375" width="5" height="5" stroke="#E1EFFF"/>
<rect x="26.25" y="60.375" width="5" height="5" stroke="#E1EFFF"/>
<rect x="26.25" y="65.375" width="5" height="5" stroke="#E1EFFF"/>
<rect x="26.25" y="70.375" width="5" height="5" stroke="#E1EFFF"/>
<rect x="26.25" y="75.375" width="5" height="5" stroke="#E1EFFF"/>
<rect x="31.25" y="10.375" width="5" height="5" stroke="#E1EFFF"/>
<rect x="31.25" y="5.375" width="5" height="5" stroke="#E1EFFF"/>
<rect x="31.25" y="0.375" width="5" height="5" stroke="#E1EFFF"/>
<rect x="31.25" y="15.375" width="5" height="5" stroke="#E1EFFF"/>
<rect x="31.25" y="20.375" width="5" height="5" stroke="#E1EFFF"/>
<rect x="31.25" y="25.375" width="5" height="5" stroke="#E1EFFF"/>
<rect x="31.25" y="30.375" width="5" height="5" stroke="#E1EFFF"/>
<rect x="31.25" y="35.375" width="5" height="5" stroke="#E1EFFF"/>
<rect x="31.25" y="40.375" width="5" height="5" stroke="#E1EFFF"/>
<rect x="31.25" y="45.375" width="5" height="5" stroke="#E1EFFF"/>
<rect x="31.25" y="50.375" width="5" height="5" stroke="#E1EFFF"/>
<rect x="31.25" y="55.375" width="5" height="5" stroke="#E1EFFF"/>
<rect x="31.25" y="60.375" width="5" height="5" stroke="#E1EFFF"/>
<rect x="31.25" y="65.375" width="5" height="5" stroke="#E1EFFF"/>
<rect x="31.25" y="70.375" width="5" height="5" stroke="#E1EFFF"/>
<rect x="31.25" y="75.375" width="5" height="5" stroke="#E1EFFF"/>
<rect x="36.25" y="10.375" width="5" height="5" stroke="#E1EFFF"/>
<rect x="36.25" y="5.375" width="5" height="5" stroke="#E1EFFF"/>
<rect x="36.25" y="0.375" width="5" height="5" stroke="#E1EFFF"/>
<rect x="36.25" y="15.375" width="5" height="5" stroke="#E1EFFF"/>
<rect x="36.25" y="20.375" width="5" height="5" stroke="#E1EFFF"/>
<rect x="36.25" y="25.375" width="5" height="5" stroke="#E1EFFF"/>
<rect x="36.25" y="30.375" width="5" height="5" stroke="#E1EFFF"/>
<rect x="36.25" y="35.375" width="5" height="5" stroke="#E1EFFF"/>
<rect x="36.25" y="40.375" width="5" height="5" stroke="#E1EFFF"/>
<rect x="36.25" y="45.375" width="5" height="5" stroke="#E1EFFF"/>
<rect x="36.25" y="50.375" width="5" height="5" stroke="#E1EFFF"/>
<rect x="36.25" y="55.375" width="5" height="5" stroke="#E1EFFF"/>
<rect x="36.25" y="60.375" width="5" height="5" stroke="#E1EFFF"/>
<rect x="36.25" y="65.375" width="5" height="5" stroke="#E1EFFF"/>
<rect x="36.25" y="70.375" width="5" height="5" stroke="#E1EFFF"/>
<rect x="36.25" y="75.375" width="5" height="5" stroke="#E1EFFF"/>
<rect x="41.25" y="10.375" width="5" height="5" stroke="#E1EFFF"/>
<rect x="41.25" y="5.375" width="5" height="5" stroke="#E1EFFF"/>
<rect x="41.25" y="0.375" width="5" height="5" stroke="#E1EFFF"/>
<rect x="41.25" y="15.375" width="5" height="5" stroke="#E1EFFF"/>
<rect x="41.25" y="20.375" width="5" height="5" stroke="#E1EFFF"/>
<rect x="41.25" y="25.375" width="5" height="5" stroke="#E1EFFF"/>
<rect x="41.25" y="30.375" width="5" height="5" stroke="#E1EFFF"/>
<rect x="41.25" y="35.375" width="5" height="5" stroke="#E1EFFF"/>
<rect x="41.25" y="40.375" width="5" height="5" stroke="#E1EFFF"/>
<rect x="41.25" y="45.375" width="5" height="5" stroke="#E1EFFF"/>
<rect x="41.25" y="50.375" width="5" height="5" stroke="#E1EFFF"/>
<rect x="41.25" y="55.375" width="5" height="5" stroke="#E1EFFF"/>
<rect x="41.25" y="60.375" width="5" height="5" stroke="#E1EFFF"/>
<rect x="41.25" y="65.375" width="5" height="5" stroke="#E1EFFF"/>
<rect x="41.25" y="70.375" width="5" height="5" stroke="#E1EFFF"/>
<rect x="41.25" y="75.375" width="5" height="5" stroke="#E1EFFF"/>
<rect x="46.25" y="10.375" width="5" height="5" stroke="#E1EFFF"/>
<rect x="46.25" y="5.375" width="5" height="5" stroke="#E1EFFF"/>
<rect x="46.25" y="0.375" width="5" height="5" stroke="#E1EFFF"/>
<rect x="46.25" y="15.375" width="5" height="5" stroke="#E1EFFF"/>
<rect x="46.25" y="20.375" width="5" height="5" stroke="#E1EFFF"/>
<rect x="46.25" y="25.375" width="5" height="5" stroke="#E1EFFF"/>
<rect x="46.25" y="30.375" width="5" height="5" stroke="#E1EFFF"/>
<rect x="46.25" y="35.375" width="5" height="5" stroke="#E1EFFF"/>
<rect x="46.25" y="40.375" width="5" height="5" stroke="#E1EFFF"/>
<rect x="46.25" y="45.375" width="5" height="5" stroke="#E1EFFF"/>
<rect x="46.25" y="50.375" width="5" height="5" stroke="#E1EFFF"/>
<rect x="46.25" y="55.375" width="5" height="5" stroke="#E1EFFF"/>
<rect x="46.25" y="60.375" width="5" height="5" stroke="#E1EFFF"/>
<rect x="46.25" y="65.375" width="5" height="5" stroke="#E1EFFF"/>
<rect x="46.25" y="70.375" width="5" height="5" stroke="#E1EFFF"/>
<rect x="46.25" y="75.375" width="5" height="5" stroke="#E1EFFF"/>
<rect x="51.25" y="10.375" width="5" height="5" stroke="#E1EFFF"/>
<rect x="51.25" y="5.375" width="5" height="5" stroke="#E1EFFF"/>
<rect x="51.25" y="0.375" width="5" height="5" stroke="#E1EFFF"/>
<rect x="51.25" y="15.375" width="5" height="5" stroke="#E1EFFF"/>
<rect x="51.25" y="20.375" width="5" height="5" stroke="#E1EFFF"/>
<rect x="51.25" y="25.375" width="5" height="5" stroke="#E1EFFF"/>
<rect x="51.25" y="30.375" width="5" height="5" stroke="#E1EFFF"/>
<rect x="51.25" y="35.375" width="5" height="5" stroke="#E1EFFF"/>
<rect x="51.25" y="40.375" width="5" height="5" stroke="#E1EFFF"/>
<rect x="51.25" y="45.375" width="5" height="5" stroke="#E1EFFF"/>
<rect x="51.25" y="50.375" width="5" height="5" stroke="#E1EFFF"/>
<rect x="51.25" y="55.375" width="5" height="5" stroke="#E1EFFF"/>
<rect x="51.25" y="60.375" width="5" height="5" stroke="#E1EFFF"/>
<rect x="51.25" y="65.375" width="5" height="5" stroke="#E1EFFF"/>
<rect x="51.25" y="70.375" width="5" height="5" stroke="#E1EFFF"/>
<rect x="51.25" y="75.375" width="5" height="5" stroke="#E1EFFF"/>
<rect x="56.25" y="10.375" width="5" height="5" stroke="#E1EFFF"/>
<rect x="56.25" y="5.375" width="5" height="5" stroke="#E1EFFF"/>
<rect x="56.25" y="0.375" width="5" height="5" stroke="#E1EFFF"/>
<rect x="56.25" y="15.375" width="5" height="5" stroke="#E1EFFF"/>
<rect x="56.25" y="20.375" width="5" height="5" stroke="#E1EFFF"/>
<rect x="56.25" y="25.375" width="5" height="5" stroke="#E1EFFF"/>
<rect x="56.25" y="30.375" width="5" height="5" stroke="#E1EFFF"/>
<rect x="56.25" y="35.375" width="5" height="5" stroke="#E1EFFF"/>
<rect x="56.25" y="40.375" width="5" height="5" stroke="#E1EFFF"/>
<rect x="56.25" y="45.375" width="5" height="5" stroke="#E1EFFF"/>
<rect x="56.25" y="50.375" width="5" height="5" stroke="#E1EFFF"/>
<rect x="56.25" y="55.375" width="5" height="5" stroke="#E1EFFF"/>
<rect x="56.25" y="60.375" width="5" height="5" stroke="#E1EFFF"/>
<rect x="56.25" y="65.375" width="5" height="5" stroke="#E1EFFF"/>
<rect x="56.25" y="70.375" width="5" height="5" stroke="#E1EFFF"/>
<rect x="56.25" y="75.375" width="5" height="5" stroke="#E1EFFF"/>
<rect x="61.25" y="10.375" width="5" height="5" stroke="#E1EFFF"/>
<rect x="61.25" y="5.375" width="5" height="5" stroke="#E1EFFF"/>
<rect x="61.25" y="0.375" width="5" height="5" stroke="#E1EFFF"/>
<rect x="61.25" y="15.375" width="5" height="5" stroke="#E1EFFF"/>
<rect x="61.25" y="20.375" width="5" height="5" stroke="#E1EFFF"/>
<rect x="61.25" y="25.375" width="5" height="5" stroke="#E1EFFF"/>
<rect x="61.25" y="30.375" width="5" height="5" stroke="#E1EFFF"/>
<rect x="61.25" y="35.375" width="5" height="5" stroke="#E1EFFF"/>
<rect x="61.25" y="40.375" width="5" height="5" stroke="#E1EFFF"/>
<rect x="61.25" y="45.375" width="5" height="5" stroke="#E1EFFF"/>
<rect x="61.25" y="50.375" width="5" height="5" stroke="#E1EFFF"/>
<rect x="61.25" y="55.375" width="5" height="5" stroke="#E1EFFF"/>
<rect x="61.25" y="60.375" width="5" height="5" stroke="#E1EFFF"/>
<rect x="61.25" y="65.375" width="5" height="5" stroke="#E1EFFF"/>
<rect x="61.25" y="70.375" width="5" height="5" stroke="#E1EFFF"/>
<rect x="61.25" y="75.375" width="5" height="5" stroke="#E1EFFF"/>
<rect x="66.25" y="10.375" width="5" height="5" stroke="#E1EFFF"/>
<rect x="66.25" y="5.375" width="5" height="5" stroke="#E1EFFF"/>
<rect x="66.25" y="0.375" width="5" height="5" stroke="#E1EFFF"/>
<rect x="66.25" y="15.375" width="5" height="5" stroke="#E1EFFF"/>
<rect x="66.25" y="20.375" width="5" height="5" stroke="#E1EFFF"/>
<rect x="66.25" y="25.375" width="5" height="5" stroke="#E1EFFF"/>
<rect x="66.25" y="30.375" width="5" height="5" stroke="#E1EFFF"/>
<rect x="66.25" y="35.375" width="5" height="5" stroke="#E1EFFF"/>
<rect x="66.25" y="40.375" width="5" height="5" stroke="#E1EFFF"/>
<rect x="66.25" y="45.375" width="5" height="5" stroke="#E1EFFF"/>
<rect x="66.25" y="50.375" width="5" height="5" stroke="#E1EFFF"/>
<rect x="66.25" y="55.375" width="5" height="5" stroke="#E1EFFF"/>
<rect x="66.25" y="60.375" width="5" height="5" stroke="#E1EFFF"/>
<rect x="66.25" y="65.375" width="5" height="5" stroke="#E1EFFF"/>
<rect x="66.25" y="70.375" width="5" height="5" stroke="#E1EFFF"/>
<rect x="66.25" y="75.375" width="5" height="5" stroke="#E1EFFF"/>
<rect x="71.25" y="10.375" width="5" height="5" stroke="#E1EFFF"/>
<rect x="71.25" y="5.375" width="5" height="5" stroke="#E1EFFF"/>
<rect x="71.25" y="0.375" width="5" height="5" stroke="#E1EFFF"/>
<rect x="71.25" y="15.375" width="5" height="5" stroke="#E1EFFF"/>
<rect x="71.25" y="20.375" width="5" height="5" stroke="#E1EFFF"/>
<rect x="71.25" y="25.375" width="5" height="5" stroke="#E1EFFF"/>
<rect x="76.25" y="25.375" width="5" height="5" stroke="#E1EFFF"/>
<rect x="76.25" y="30.375" width="5" height="5" stroke="#E1EFFF"/>
<rect x="76.25" y="35.375" width="5" height="5" stroke="#E1EFFF"/>
<rect x="76.25" y="40.375" width="5" height="5" stroke="#E1EFFF"/>
<rect x="76.25" y="45.375" width="5" height="5" stroke="#E1EFFF"/>
<rect x="76.25" y="50.375" width="5" height="5" stroke="#E1EFFF"/>
<rect x="76.25" y="55.375" width="5" height="5" stroke="#E1EFFF"/>
<rect x="6.25" y="55.375" width="5" height="5" stroke="#E1EFFF"/>
<rect x="6.25" y="50.375" width="5" height="5" stroke="#E1EFFF"/>
<rect x="6.25" y="45.375" width="5" height="5" stroke="#E1EFFF"/>
<rect x="6.25" y="40.375" width="5" height="5" stroke="#E1EFFF"/>
<rect x="6.25" y="35.375" width="5" height="5" stroke="#E1EFFF"/>
<rect x="6.25" y="30.375" width="5" height="5" stroke="#E1EFFF"/>
<rect x="6.25" y="25.375" width="5" height="5" stroke="#E1EFFF"/>
<rect x="6.25" y="20.375" width="5" height="5" stroke="#E1EFFF"/>
<rect x="6.25" y="15.375" width="5" height="5" stroke="#E1EFFF"/>
<rect x="6.25" y="10.375" width="5" height="5" stroke="#E1EFFF"/>
<rect x="1.25" y="10.375" width="5" height="5" stroke="#E1EFFF"/>
<rect x="1.25" y="15.375" width="5" height="5" stroke="#E1EFFF"/>
<rect x="1.25" y="20.375" width="5" height="5" stroke="#E1EFFF"/>
<rect x="1.25" y="25.375" width="5" height="5" stroke="#E1EFFF"/>
<rect x="1.25" y="30.375" width="5" height="5" stroke="#E1EFFF"/>
<rect x="1.25" y="35.375" width="5" height="5" stroke="#E1EFFF"/>
<rect x="1.25" y="40.375" width="5" height="5" stroke="#E1EFFF"/>
<rect x="1.25" y="45.375" width="5" height="5" stroke="#E1EFFF"/>
<rect x="1.25" y="50.375" width="5" height="5" stroke="#E1EFFF"/>
<rect x="1.25" y="55.375" width="5" height="5" stroke="#E1EFFF"/>
<rect x="1.25" y="60.375" width="5" height="5" stroke="#E1EFFF"/>
<rect x="71.25" y="30.375" width="5" height="5" stroke="#E1EFFF"/>
<rect x="71.25" y="35.375" width="5" height="5" stroke="#E1EFFF"/>
<rect x="71.25" y="40.375" width="5" height="5" stroke="#E1EFFF"/>
<rect x="71.25" y="45.375" width="5" height="5" stroke="#E1EFFF"/>
<rect x="71.25" y="50.375" width="5" height="5" stroke="#E1EFFF"/>
<rect x="71.25" y="55.375" width="5" height="5" stroke="#E1EFFF"/>
<rect x="71.25" y="60.375" width="5" height="5" stroke="#E1EFFF"/>
<rect x="71.25" y="65.375" width="5" height="5" stroke="#E1EFFF"/>
<rect x="71.25" y="70.375" width="5" height="5" stroke="#E1EFFF"/>
<rect x="71.25" y="75.375" width="5" height="5" stroke="#E1EFFF"/>
</g>
</svg>
