<svg width="104" height="77" viewBox="0 0 104 77" fill="none" xmlns="http://www.w3.org/2000/svg">
<mask id="path-1-inside-1_748_17495" fill="white">
<path fill-rule="evenodd" clip-rule="evenodd" d="M74.2512 16.5079C70.8551 7.37861 62.062 0.875 51.75 0.875C41.5125 0.875 32.7722 7.28488 29.3233 16.3102C27.8428 16.0246 26.3139 15.875 24.75 15.875C11.4952 15.875 0.75 26.6202 0.75 39.875C0.75 53.1298 11.4952 63.875 24.75 63.875C26.5938 63.875 28.389 63.6671 30.1135 63.2734C33.9882 71.321 42.2205 76.875 51.75 76.875C61.3671 76.875 69.663 71.2185 73.4922 63.051C75.4873 63.5884 77.5852 63.875 79.75 63.875C93.0048 63.875 103.75 53.1298 103.75 39.875C103.75 26.6202 93.0048 15.875 79.75 15.875C77.8579 15.875 76.017 16.0939 74.2512 16.5079Z"/>
</mask>
<path fill-rule="evenodd" clip-rule="evenodd" d="M74.2512 16.5079C70.8551 7.37861 62.062 0.875 51.75 0.875C41.5125 0.875 32.7722 7.28488 29.3233 16.3102C27.8428 16.0246 26.3139 15.875 24.75 15.875C11.4952 15.875 0.75 26.6202 0.75 39.875C0.75 53.1298 11.4952 63.875 24.75 63.875C26.5938 63.875 28.389 63.6671 30.1135 63.2734C33.9882 71.321 42.2205 76.875 51.75 76.875C61.3671 76.875 69.663 71.2185 73.4922 63.051C75.4873 63.5884 77.5852 63.875 79.75 63.875C93.0048 63.875 103.75 53.1298 103.75 39.875C103.75 26.6202 93.0048 15.875 79.75 15.875C77.8579 15.875 76.017 16.0939 74.2512 16.5079Z" fill="#E1EFFF"/>
<path d="M74.2512 16.5079L73.3139 16.8565L73.6213 17.6826L74.4794 17.4815L74.2512 16.5079ZM29.3233 16.3102L29.1339 17.2921L29.9579 17.4511L30.2575 16.6672L29.3233 16.3102ZM30.1135 63.2734L31.0145 62.8396L30.6685 62.121L29.8909 62.2985L30.1135 63.2734ZM73.4922 63.051L73.7523 62.0854L72.9427 61.8673L72.5868 62.6265L73.4922 63.051ZM75.1884 16.1592C71.6514 6.6511 62.4933 -0.125 51.75 -0.125V1.875C61.6308 1.875 70.0588 8.10611 73.3139 16.8565L75.1884 16.1592ZM51.75 -0.125C41.0844 -0.125 31.9811 6.5535 28.3892 15.9533L30.2575 16.6672C33.5632 8.01625 41.9407 1.875 51.75 1.875V-0.125ZM29.5128 15.3283C27.9702 15.0307 26.3778 14.875 24.75 14.875V16.875C26.25 16.875 27.7155 17.0185 29.1339 17.2921L29.5128 15.3283ZM24.75 14.875C10.9429 14.875 -0.25 26.0679 -0.25 39.875H1.75C1.75 27.1725 12.0475 16.875 24.75 16.875V14.875ZM-0.25 39.875C-0.25 53.6821 10.9429 64.875 24.75 64.875V62.875C12.0475 62.875 1.75 52.5775 1.75 39.875H-0.25ZM24.75 64.875C26.6692 64.875 28.539 64.6586 30.3361 64.2483L29.8909 62.2985C28.239 62.6756 26.5184 62.875 24.75 62.875V64.875ZM29.2125 63.7072C33.2475 72.0878 41.8219 77.875 51.75 77.875V75.875C42.6191 75.875 34.7289 70.5542 31.0145 62.8396L29.2125 63.7072ZM51.75 77.875C61.7693 77.875 70.4099 71.981 74.3976 63.4755L72.5868 62.6265C68.916 70.456 60.9648 75.875 51.75 75.875V77.875ZM79.75 62.875C77.6738 62.875 75.6633 62.6002 73.7523 62.0854L73.2321 64.0166C75.3112 64.5766 77.4965 64.875 79.75 64.875V62.875ZM102.75 39.875C102.75 52.5775 92.4526 62.875 79.75 62.875V64.875C93.5571 64.875 104.75 53.6821 104.75 39.875H102.75ZM79.75 16.875C92.4526 16.875 102.75 27.1725 102.75 39.875H104.75C104.75 26.0679 93.5571 14.875 79.75 14.875V16.875ZM74.4794 17.4815C76.171 17.085 77.9353 16.875 79.75 16.875V14.875C77.7806 14.875 75.8631 15.1029 74.023 15.5343L74.4794 17.4815Z" fill="#E1EFFF" mask="url(#path-1-inside-1_748_17495)"/>
</svg>
