<svg width="36" height="14" viewBox="0 0 36 14" fill="none" xmlns="http://www.w3.org/2000/svg">
<path fill-rule="evenodd" clip-rule="evenodd" d="M3.25472 1.31544C2.43688 1.31674 1.77519 1.90473 1.7736 2.63137V11.368C1.77519 12.0944 2.43688 12.6825 3.25472 12.6839H18.665V1.31544H3.25472ZM3.25475 0.333008H32.7478C34.1766 0.333225 35.3341 1.36153 35.3346 2.63143V11.368C35.3341 12.6375 34.1766 13.6659 32.7478 13.6663H3.25475C1.82589 13.6659 0.668458 12.6375 0.667969 11.368V2.63143C0.668458 1.36153 1.82589 0.333225 3.25475 0.333008Z" fill="#0F3365"/>
<path fill-rule="evenodd" clip-rule="evenodd" d="M21.1883 9.9394H19.8945V5.26997H21.0878V5.87048H21.1023C21.361 5.40416 21.9075 5.19336 22.497 5.19336C23.5323 5.19336 24.0997 6.06854 24.0997 6.87321C24.0997 7.857 23.5032 8.67461 22.3889 8.67461C21.9361 8.67461 21.4472 8.52792 21.2027 8.1319H21.1883V9.9394ZM21.9796 7.7931C22.4681 7.7931 22.7629 7.42919 22.7629 6.89887C22.7629 6.45791 22.4826 6.07484 21.9796 6.07484C21.5049 6.07484 21.1883 6.44539 21.1883 6.94349C21.1883 7.42919 21.5481 7.7931 21.9796 7.7931ZM29.0577 9.9394C29.3239 9.99066 29.5897 10.0162 29.8629 10.0162C30.9821 10.0162 31.2948 9.29406 31.6342 8.51028L31.6342 8.51022C31.6546 8.46312 31.6751 8.41579 31.6959 8.36838L33.0692 5.26998H31.7752L31.0058 7.44172H30.9915L30.1863 5.26998H28.7922L30.3083 8.67462C30.2154 8.96845 29.9709 9.13463 29.655 9.13463C29.4748 9.13463 29.3165 9.1158 29.1444 9.06422L29.0577 9.9394ZM28.5753 8.70626C28.5179 8.44442 28.5032 8.18269 28.5032 7.92064V6.68143C28.5032 5.66575 27.6767 5.30183 26.7206 5.30183C26.1668 5.30183 25.6853 5.37181 25.2252 5.5382L25.2465 6.3174C25.6063 6.13871 26.0231 6.0683 26.4398 6.0683C26.9073 6.0683 27.2885 6.18964 27.2956 6.64334C27.1303 6.61755 26.9005 6.59818 26.6919 6.59818C26.0017 6.59818 24.7581 6.71995 24.7581 7.73552C24.7581 8.45759 25.4195 8.78331 26.16 8.78331C26.6919 8.78331 27.0513 8.59776 27.3459 8.18269H27.36C27.36 8.28397 27.3676 8.38533 27.3752 8.48786C27.3807 8.55995 27.3861 8.63262 27.389 8.70626H28.5753ZM25.9655 7.65246C25.9655 7.33306 26.3105 7.21171 26.7491 7.21171C26.8866 7.21171 27.0204 7.2181 27.1455 7.22407L27.1456 7.22407C27.1971 7.22653 27.2472 7.22892 27.2955 7.23076C27.2955 7.62025 26.9866 8.01681 26.4973 8.01681C26.1956 8.01681 25.9655 7.88209 25.9655 7.65246Z" fill="#FFFFFE"/>
<path fill-rule="evenodd" clip-rule="evenodd" d="M8.65011 8.59681H9.94399V5.269H8.65011V8.59681ZM8.65011 4.726H9.94399V3.88281H8.65011V4.726ZM13.1085 5.19235C13.2593 5.19235 13.4174 5.2115 13.5469 5.23033L13.482 6.18855C13.3385 6.15035 13.1946 6.15035 13.0438 6.15035C12.44 6.15035 12.102 6.54006 12.102 7.19182V8.59677H10.8081V5.26896H11.9871V5.88198H12.0013C12.2242 5.4606 12.5478 5.19235 13.1085 5.19235ZM17.9528 6.93629C17.9528 8.03501 17.011 8.6736 15.7748 8.6736C14.5385 8.6736 13.5967 8.03501 13.5967 6.93629C13.5967 5.83094 14.5385 5.19235 15.7748 5.19235C17.011 5.19235 17.9528 5.83094 17.9528 6.93629ZM14.9338 6.93644C14.9338 7.42834 15.1781 7.86887 15.7748 7.86887C16.3714 7.86887 16.6159 7.42834 16.6159 6.93644C16.6159 6.43812 16.3714 5.99737 15.7748 5.99737C15.1781 5.99737 14.9338 6.43812 14.9338 6.93644ZM6.58519 5.26896H7.75719V8.2075C7.75719 9.57425 7.00959 10.0152 5.49996 10.0152C4.88184 10.0152 4.37141 9.89997 4.06939 9.80453L4.13425 8.89735C4.52952 9.06984 4.86018 9.17192 5.39937 9.17192C6.14709 9.17192 6.54946 8.85904 6.54946 8.2075V8.02826H6.53489C6.22602 8.41841 5.79476 8.59677 5.27724 8.59677C4.24916 8.59677 3.60938 7.90746 3.60938 6.92334C3.60938 5.93313 4.13425 5.19235 5.29865 5.19235C5.85204 5.19235 6.29785 5.4606 6.57112 5.86925H6.58519V5.26896ZM5.67989 6.07382C5.19822 6.07382 4.94661 6.45069 4.94661 6.90406C4.94661 7.42132 5.29171 7.71548 5.67989 7.71548C6.13978 7.71548 6.50654 7.3706 6.50654 6.85934C6.50654 6.48867 6.26203 6.07382 5.67989 6.07382Z" fill="#D8232A"/>
</svg>
