<svg width="22" height="20" viewBox="0 0 22 20" fill="none" xmlns="http://www.w3.org/2000/svg">
<path fill-rule="evenodd" clip-rule="evenodd" d="M0 0.733398H10.9929C18.4628 0.733398 21.3333 4.81923 21.3333 9.98372C21.3333 16.1615 17.3211 19.2667 10.9929 19.2667H0V0.733398ZM1.04378 1.84475V18.2208H10.9928C16.9949 18.2208 20.2568 15.4097 20.2568 10.0164C20.2568 4.45969 16.7339 1.84475 10.9928 1.84475H1.04378ZM3.97955 10.3104C5.07849 10.3104 5.96936 9.41775 5.96936 8.31655C5.96936 7.21536 5.07849 6.32267 3.97955 6.32267C2.88061 6.32267 1.98975 7.21536 1.98975 8.31655C1.98975 9.41775 2.88061 10.3104 3.97955 10.3104ZM2.38135 11.1606H5.57808V16.848H2.38135V11.1606Z" fill="black"/>
<path fill-rule="evenodd" clip-rule="evenodd" d="M16.6355 6.48587H17.5489V9.23155H18.8863C18.5275 4.23049 14.5805 3.11914 10.9923 3.11914H7.17578V6.48587H7.73032C8.77415 6.48587 9.39393 7.17229 9.39393 8.31632C9.39393 9.46035 8.77415 10.1468 7.76294 10.1468H7.17578V16.8475H10.9923C16.8312 16.8475 18.821 14.1345 18.9189 10.1468H16.6355V6.48587ZM12.2318 9.23141V10.1466H9.94841V6.48573H12.1666V7.40096H10.8618V7.82588H12.1013V8.74111H10.8944V9.23141H12.2318ZM12.6232 10.1466L13.7323 6.48573H15.0371L16.1461 10.1466H15.2002L15.0045 9.46022H13.7975L13.6018 10.1466H12.6232ZM14.0686 8.51242H14.0584V8.5451L14.0686 8.51242ZM14.0686 8.51242H14.7108L14.4172 7.49913H14.3846L14.0686 8.51242ZM7.17578 9.23152V7.40107H7.73032C8.08914 7.40107 8.48057 7.49913 8.48057 8.31629C8.48057 9.13346 8.12176 9.23152 7.73032 9.23152H7.17578Z" fill="#D50072"/>
</svg>
