<svg width="300" height="37" viewBox="0 0 300 37" fill="none" xmlns="http://www.w3.org/2000/svg">
<path d="M17.6648 31.1978C18.3038 31.1978 18.8363 31.4303 19.2624 31.8953C19.7188 32.3603 19.947 32.9416 19.947 33.639C19.947 34.3365 19.7188 34.9178 19.2624 35.3827C18.8363 35.8477 18.3038 36.0802 17.6648 36.0802H2.32791C1.65845 36.0802 1.09549 35.8477 0.639036 35.3827C0.213012 34.8845 0 34.2701 0 33.5394V3.74692C0 3.01622 0.228227 2.41838 0.684681 1.95339C1.14113 1.45519 1.73452 1.20609 2.46485 1.20609C3.07346 1.20609 3.60599 1.45519 4.06244 1.95339C4.54932 2.41838 4.79277 3.01622 4.79277 3.74692V32.0448L3.83421 31.1978H17.6648Z" fill="#F4F7FB"/>
<path d="M29.978 33.5394C29.9475 34.2701 29.6889 34.8845 29.202 35.3827C28.7455 35.8477 28.1978 36.0802 27.5588 36.0802C26.8589 36.0802 26.2807 35.8477 25.8242 35.3827C25.3982 34.8845 25.1852 34.2701 25.1852 33.5394V3.74692C25.1852 3.01622 25.4134 2.41838 25.8699 1.95339C26.3263 1.45519 26.9197 1.20609 27.65 1.20609C28.2587 1.20609 28.7912 1.45519 29.2476 1.95339C29.7345 2.41838 29.978 3.01622 29.978 3.74692V33.5394Z" fill="#F4F7FB"/>
<path d="M52.1891 36.5784C49.8764 36.5784 47.7158 36.13 45.7074 35.2333C43.699 34.3033 41.9341 33.0246 40.4126 31.3971C38.9215 29.7365 37.7499 27.8267 36.8979 25.6678C36.0458 23.5089 35.6198 21.1674 35.6198 18.6432C35.6198 16.1189 36.0458 13.7774 36.8979 11.6185C37.7499 9.45963 38.9215 7.56647 40.4126 5.93901C41.9341 4.27833 43.699 2.99961 45.7074 2.10285C47.7158 1.17287 49.8764 0.707886 52.1891 0.707886C53.6802 0.707886 55.1256 0.890559 56.5254 1.25591C57.9252 1.62126 59.188 2.15267 60.314 2.85015C60.7095 3.08265 60.9986 3.39818 61.1812 3.79674C61.3638 4.16209 61.4551 4.52743 61.4551 4.89278C61.4551 5.59027 61.2421 6.20471 60.8161 6.73613C60.4205 7.23433 59.9184 7.48343 59.3098 7.48343C59.0967 7.48343 58.8685 7.45022 58.6251 7.38379C58.4121 7.31737 58.2143 7.23433 58.0317 7.13469C57.1796 6.6697 56.2667 6.32096 55.293 6.08847C54.3192 5.82276 53.2846 5.68991 52.1891 5.68991C49.9981 5.68991 48.0201 6.27114 46.2552 7.43361C44.4902 8.56287 43.0904 10.1073 42.0558 12.0669C41.0516 14.0265 40.5495 16.2186 40.5495 18.6432C40.5495 21.0345 41.0516 23.2266 42.0558 25.2194C43.0904 27.179 44.4902 28.7401 46.2552 29.9025C48.0201 31.0318 49.9981 31.5964 52.1891 31.5964C53.2541 31.5964 54.3801 31.4636 55.5668 31.1978C56.7536 30.8989 57.7578 30.517 58.5794 30.052L58.2143 31.3971V21.9313L58.9446 22.6288H52.965C52.2956 22.6288 51.7326 22.3963 51.2762 21.9313C50.8501 21.4663 50.6371 20.8685 50.6371 20.1378C50.6371 19.4071 50.8501 18.8092 51.2762 18.3442C51.7326 17.8792 52.2956 17.6468 52.965 17.6468H60.8617C61.5007 17.6468 62.0333 17.8959 62.4593 18.3941C62.9157 18.859 63.144 19.4569 63.144 20.1876V31.2477C63.144 31.7791 63.0222 32.2275 62.7788 32.5928C62.5354 32.9582 62.2615 33.2571 61.9572 33.4896C60.5878 34.4196 59.0663 35.1669 57.3927 35.7315C55.7494 36.2961 54.0149 36.5784 52.1891 36.5784Z" fill="#F4F7FB"/>
<path d="M71.6016 1.20609C72.2102 1.20609 72.7427 1.45519 73.1992 1.95339C73.686 2.41838 73.9295 3.01622 73.9295 3.74692V33.5394C73.899 34.2701 73.6404 34.8845 73.1535 35.3827C72.6971 35.8477 72.1493 36.0802 71.5103 36.0802C70.8104 36.0802 70.2322 35.8477 69.7757 35.3827C69.3497 34.8845 69.1367 34.2701 69.1367 33.5394V3.74692C69.1367 3.01622 69.3649 2.41838 69.8214 1.95339C70.2778 1.45519 70.8712 1.20609 71.6016 1.20609ZM92.1876 1.20609C92.918 1.20609 93.4961 1.45519 93.9222 1.95339C94.3482 2.41838 94.5612 3.01622 94.5612 3.74692V33.5394C94.5612 34.2701 94.333 34.8845 93.8765 35.3827C93.4505 35.8477 92.8723 36.0802 92.142 36.0802C91.5029 36.0802 90.9552 35.8477 90.4988 35.3827C90.0423 34.8845 89.8141 34.2701 89.8141 33.5394V3.74692C89.8141 3.01622 90.0423 2.41838 90.4988 1.95339C90.9856 1.45519 91.5486 1.20609 92.1876 1.20609ZM71.419 16.0525H92.2333L92.1876 20.8352H71.3733L71.419 16.0525Z" fill="#F4F7FB"/>
<path d="M112.351 36.0802C111.621 36.0802 111.028 35.8477 110.571 35.3827C110.145 34.8845 109.932 34.2701 109.932 33.5394V3.6971H114.816V33.5394C114.816 34.2701 114.573 34.8845 114.086 35.3827C113.63 35.8477 113.051 36.0802 112.351 36.0802ZM101.99 5.98883C101.351 5.98883 100.803 5.77294 100.347 5.34116C99.8903 4.87617 99.6621 4.27833 99.6621 3.54764C99.6621 2.85015 99.8903 2.28553 100.347 1.85375C100.803 1.42197 101.351 1.20609 101.99 1.20609H122.759C123.398 1.20609 123.93 1.43858 124.356 1.90357C124.813 2.33535 125.041 2.89997 125.041 3.59746C125.041 4.32815 124.813 4.90939 124.356 5.34116C123.93 5.77294 123.398 5.98883 122.759 5.98883H101.99Z" fill="#F4F7FB"/>
<path d="M166.939 1.05663C167.548 1.05663 168.111 1.30573 168.628 1.80393C169.145 2.26892 169.404 2.91658 169.404 3.74692C169.404 3.97941 169.358 4.26173 169.267 4.59386L159.91 34.486C159.758 34.9842 159.484 35.3661 159.088 35.6318C158.692 35.8976 158.282 36.047 157.856 36.0802C157.43 36.0802 157.004 35.9474 156.578 35.6817C156.152 35.416 155.832 35.0174 155.619 34.486L148.407 16.0525L148.818 16.2518L141.697 34.486C141.454 35.0174 141.119 35.416 140.693 35.6817C140.297 35.9474 139.871 36.0802 139.415 36.0802C139.019 36.047 138.624 35.8976 138.228 35.6318C137.833 35.3661 137.559 34.9842 137.407 34.486L128.049 4.59386C127.958 4.26173 127.912 3.97941 127.912 3.74692C127.912 2.91658 128.186 2.26892 128.734 1.80393C129.282 1.30573 129.845 1.05663 130.423 1.05663C130.91 1.05663 131.351 1.20609 131.746 1.50501C132.173 1.77072 132.462 2.16928 132.614 2.70069L140.51 28.4079H139.689L146.627 9.8748C146.84 9.3766 147.129 8.97804 147.494 8.67912C147.89 8.3802 148.331 8.24734 148.818 8.28056C149.305 8.24734 149.731 8.3802 150.096 8.67912C150.492 8.97804 150.781 9.3766 150.963 9.8748L157.536 27.8599L156.851 28.2585L164.702 2.70069C164.855 2.16928 165.144 1.77072 165.57 1.50501C165.996 1.20609 166.452 1.05663 166.939 1.05663Z" fill="#F4F7FB"/>
<path d="M176.396 1.20609H192.189C192.828 1.20609 193.36 1.43858 193.786 1.90357C194.243 2.36856 194.471 2.94979 194.471 3.64728C194.471 4.34476 194.243 4.90939 193.786 5.34116C193.36 5.77294 192.828 5.98883 192.189 5.98883H178.404L178.86 5.14188V16.3016L178.45 15.8034H190.135C190.774 15.8034 191.306 16.0359 191.732 16.5009C192.189 16.9659 192.417 17.5637 192.417 18.2944C192.417 18.9919 192.189 19.5565 191.732 19.9883C191.306 20.4201 190.774 20.636 190.135 20.636H178.541L178.86 20.1876V31.696L178.541 31.2975H192.189C192.828 31.2975 193.36 31.5466 193.786 32.0448C194.243 32.5098 194.471 33.0578 194.471 33.6889C194.471 34.3863 194.243 34.9676 193.786 35.4326C193.36 35.8643 192.828 36.0802 192.189 36.0802H176.396C175.756 36.0802 175.209 35.8477 174.752 35.3827C174.296 34.8845 174.068 34.2701 174.068 33.5394V3.74692C174.068 3.01622 174.296 2.41838 174.752 1.95339C175.209 1.45519 175.756 1.20609 176.396 1.20609Z" fill="#F4F7FB"/>
<path d="M204.937 33.5394C204.907 34.2701 204.648 34.8845 204.161 35.3827C203.705 35.8477 203.157 36.0802 202.518 36.0802C201.818 36.0802 201.24 35.8477 200.783 35.3827C200.357 34.8845 200.144 34.2701 200.144 33.5394V3.74692C200.144 3.01622 200.373 2.41838 200.829 1.95339C201.285 1.45519 201.879 1.20609 202.609 1.20609C203.218 1.20609 203.75 1.45519 204.207 1.95339C204.694 2.41838 204.937 3.01622 204.937 3.74692V33.5394Z" fill="#F4F7FB"/>
<path d="M227.148 36.5784C224.835 36.5784 222.675 36.13 220.667 35.2333C218.658 34.3033 216.893 33.0246 215.372 31.3971C213.881 29.7365 212.709 27.8267 211.857 25.6678C211.005 23.5089 210.579 21.1674 210.579 18.6432C210.579 16.1189 211.005 13.7774 211.857 11.6185C212.709 9.45963 213.881 7.56647 215.372 5.93901C216.893 4.27833 218.658 2.99961 220.667 2.10285C222.675 1.17287 224.835 0.707886 227.148 0.707886C228.639 0.707886 230.085 0.890559 231.485 1.25591C232.884 1.62126 234.147 2.15267 235.273 2.85015C235.669 3.08265 235.958 3.39818 236.14 3.79674C236.323 4.16209 236.414 4.52743 236.414 4.89278C236.414 5.59027 236.201 6.20471 235.775 6.73613C235.38 7.23433 234.877 7.48343 234.269 7.48343C234.056 7.48343 233.828 7.45022 233.584 7.38379C233.371 7.31737 233.173 7.23433 232.991 7.13469C232.139 6.6697 231.226 6.32096 230.252 6.08847C229.278 5.82276 228.244 5.68991 227.148 5.68991C224.957 5.68991 222.979 6.27114 221.214 7.43361C219.449 8.56287 218.05 10.1073 217.015 12.0669C216.011 14.0265 215.509 16.2186 215.509 18.6432C215.509 21.0345 216.011 23.2266 217.015 25.2194C218.05 27.179 219.449 28.7401 221.214 29.9025C222.979 31.0318 224.957 31.5964 227.148 31.5964C228.213 31.5964 229.339 31.4636 230.526 31.1978C231.713 30.8989 232.717 30.517 233.539 30.052L233.173 31.3971V21.9313L233.904 22.6288H227.924C227.255 22.6288 226.692 22.3963 226.235 21.9313C225.809 21.4663 225.596 20.8685 225.596 20.1378C225.596 19.4071 225.809 18.8092 226.235 18.3442C226.692 17.8792 227.255 17.6468 227.924 17.6468H235.821C236.46 17.6468 236.992 17.8959 237.418 18.3941C237.875 18.859 238.103 19.4569 238.103 20.1876V31.2477C238.103 31.7791 237.981 32.2275 237.738 32.5928C237.494 32.9582 237.221 33.2571 236.916 33.4896C235.547 34.4196 234.025 35.1669 232.352 35.7315C230.709 36.2961 228.974 36.5784 227.148 36.5784Z" fill="#F4F7FB"/>
<path d="M246.561 1.20609C247.169 1.20609 247.702 1.45519 248.158 1.95339C248.645 2.41838 248.889 3.01622 248.889 3.74692V33.5394C248.858 34.2701 248.6 34.8845 248.113 35.3827C247.656 35.8477 247.108 36.0802 246.469 36.0802C245.769 36.0802 245.191 35.8477 244.735 35.3827C244.309 34.8845 244.096 34.2701 244.096 33.5394V3.74692C244.096 3.01622 244.324 2.41838 244.781 1.95339C245.237 1.45519 245.83 1.20609 246.561 1.20609ZM267.147 1.20609C267.877 1.20609 268.455 1.45519 268.881 1.95339C269.307 2.41838 269.52 3.01622 269.52 3.74692V33.5394C269.52 34.2701 269.292 34.8845 268.836 35.3827C268.41 35.8477 267.831 36.0802 267.101 36.0802C266.462 36.0802 265.914 35.8477 265.458 35.3827C265.001 34.8845 264.773 34.2701 264.773 33.5394V3.74692C264.773 3.01622 265.001 2.41838 265.458 1.95339C265.945 1.45519 266.508 1.20609 267.147 1.20609ZM246.378 16.0525H267.192L267.147 20.8352H246.332L246.378 16.0525Z" fill="#F4F7FB"/>
<path d="M287.311 36.0802C286.58 36.0802 285.987 35.8477 285.53 35.3827C285.104 34.8845 284.891 34.2701 284.891 33.5394V3.6971H289.775V33.5394C289.775 34.2701 289.532 34.8845 289.045 35.3827C288.589 35.8477 288.01 36.0802 287.311 36.0802ZM276.949 5.98883C276.31 5.98883 275.762 5.77294 275.306 5.34116C274.849 4.87617 274.621 4.27833 274.621 3.54764C274.621 2.85015 274.849 2.28553 275.306 1.85375C275.762 1.42197 276.31 1.20609 276.949 1.20609H297.718C298.357 1.20609 298.889 1.43858 299.315 1.90357C299.772 2.33535 300 2.89997 300 3.59746C300 4.32815 299.772 4.90939 299.315 5.34116C298.889 5.77294 298.357 5.98883 297.718 5.98883H276.949Z" fill="#F4F7FB"/>
</svg>
