<svg width="120" height="26" viewBox="0 0 120 26" fill="none" xmlns="http://www.w3.org/2000/svg">
<path fill-rule="evenodd" clip-rule="evenodd" d="M21.2988 12.9869L21.2988 24.6752C21.2988 25.3925 20.7174 25.9739 20.0001 25.9739C19.2829 25.9739 18.7014 25.3925 18.7014 24.6752L18.7014 12.9869L21.2988 12.9869Z" fill="white"/>
<path fill-rule="evenodd" clip-rule="evenodd" d="M72.7266 12.9869L72.7266 24.6752C72.7266 25.3925 72.1451 25.9739 71.4279 25.9739C70.7106 25.9739 70.1292 25.3925 70.1292 24.6752L70.1292 12.9869L72.7266 12.9869Z" fill="white"/>
<path fill-rule="evenodd" clip-rule="evenodd" d="M107.012 12.9869L107.012 24.6752C107.012 25.3925 106.43 25.9739 105.713 25.9739C104.996 25.9739 104.414 25.3925 104.414 24.6752L104.414 12.9869L107.012 12.9869Z" fill="white"/>
<path fill-rule="evenodd" clip-rule="evenodd" d="M65.9727 12.9869L65.9727 1.29863C65.9727 0.581381 66.5541 -6.67503e-05 67.2714 -6.67417e-05C67.9886 -6.67332e-05 68.5701 0.581381 68.5701 1.29863L68.5701 12.9869L65.9727 12.9869Z" fill="white"/>
<path fill-rule="evenodd" clip-rule="evenodd" d="M68.5723 24.6744C68.5723 25.3917 67.9908 25.9731 67.2736 25.9731L24.1567 25.9731C23.4394 25.9731 22.858 25.3917 22.858 24.6744C22.858 23.9572 23.4394 23.3757 24.1567 23.3757L67.2736 23.3757C67.9908 23.3757 68.5723 23.9572 68.5723 24.6744Z" fill="#FEE100"/>
<path fill-rule="evenodd" clip-rule="evenodd" d="M102.857 24.6744C102.857 25.3917 102.276 25.9731 101.559 25.9731L75.5847 25.9731C74.8675 25.9731 74.286 25.3917 74.286 24.6744C74.286 23.9572 74.8675 23.3757 75.5847 23.3757L101.559 23.3757C102.276 23.3757 102.857 23.9572 102.857 24.6744Z" fill="#FEE100"/>
<path fill-rule="evenodd" clip-rule="evenodd" d="M120 24.6744C120 25.3917 119.419 25.9731 118.701 25.9731H109.87C109.153 25.9731 108.571 25.3917 108.571 24.6744C108.571 23.9572 109.153 23.3757 109.87 23.3757H118.701C119.419 23.3757 120 23.9572 120 24.6744Z" fill="#FEE100"/>
<path fill-rule="evenodd" clip-rule="evenodd" d="M26.4934 18.1821C29.3624 18.1821 31.6882 15.8563 31.6882 12.9873C31.6882 10.1183 29.3624 7.79247 26.4934 7.79247C23.6244 7.79247 21.2986 10.1183 21.2986 12.9873C21.2986 15.8563 23.6244 18.1821 26.4934 18.1821ZM26.4934 20.7795C30.7969 20.7795 34.2856 17.2908 34.2856 12.9873C34.2856 8.68376 30.7969 5.19507 26.4934 5.19507C22.1899 5.19507 18.7012 8.68376 18.7012 12.9873C18.7012 17.2908 22.1899 20.7795 26.4934 20.7795Z" fill="white"/>
<path fill-rule="evenodd" clip-rule="evenodd" d="M43.636 18.1821C46.505 18.1821 48.8308 15.8563 48.8308 12.9873C48.8308 10.1183 46.505 7.79247 43.636 7.79247C40.7669 7.79247 38.4412 10.1183 38.4412 12.9873C38.4412 15.8563 40.7669 18.1821 43.636 18.1821ZM43.636 20.7795C47.9395 20.7795 51.4282 17.2908 51.4282 12.9873C51.4282 8.68376 47.9395 5.19507 43.636 5.19507C39.3324 5.19507 35.8438 8.68376 35.8438 12.9873C35.8438 17.2908 39.3324 20.7795 43.636 20.7795Z" fill="white"/>
<path fill-rule="evenodd" clip-rule="evenodd" d="M77.9231 18.1821C80.7921 18.1821 83.1179 15.8563 83.1179 12.9873C83.1179 10.1183 80.7921 7.79247 77.9231 7.79247C75.0541 7.79247 72.7283 10.1183 72.7283 12.9873C72.7283 15.8563 75.0541 18.1821 77.9231 18.1821ZM77.9231 20.7795C82.2266 20.7795 85.7153 17.2908 85.7153 12.9873C85.7153 8.68376 82.2266 5.19507 77.9231 5.19507C73.6195 5.19507 70.1309 8.68376 70.1309 12.9873C70.1309 17.2908 73.6195 20.7795 77.9231 20.7795Z" fill="white"/>
<path fill-rule="evenodd" clip-rule="evenodd" d="M95.0656 18.1821C97.9347 18.1821 100.26 15.8563 100.26 12.9873C100.26 10.1183 97.9347 7.79247 95.0656 7.79247C92.1966 7.79247 89.8708 10.1183 89.8708 12.9873C89.8708 15.8563 92.1966 18.1821 95.0656 18.1821ZM95.0656 20.7795C99.3692 20.7795 102.858 17.2908 102.858 12.9873C102.858 8.68376 99.3692 5.19507 95.0656 5.19507C90.7621 5.19507 87.2734 8.68376 87.2734 12.9873C87.2734 17.2908 90.7621 20.7795 95.0656 20.7795Z" fill="white"/>
<path fill-rule="evenodd" clip-rule="evenodd" d="M112.208 18.1821C115.077 18.1821 117.403 15.8563 117.403 12.9873C117.403 10.1183 115.077 7.79247 112.208 7.79247C109.339 7.79247 107.013 10.1183 107.013 12.9873C107.013 15.8563 109.339 18.1821 112.208 18.1821ZM112.208 20.7795C116.512 20.7795 120 17.2908 120 12.9873C120 8.68376 116.512 5.19507 112.208 5.19507C107.905 5.19507 104.416 8.68376 104.416 12.9873C104.416 17.2908 107.905 20.7795 112.208 20.7795Z" fill="white"/>
<path fill-rule="evenodd" clip-rule="evenodd" d="M60.7785 18.1821C63.6475 18.1821 65.9733 15.8563 65.9733 12.9873C65.9733 10.1183 63.6475 7.79247 60.7785 7.79247C57.9095 7.79247 55.5837 10.1183 55.5837 12.9873C55.5837 15.8563 57.9095 18.1821 60.7785 18.1821ZM60.7785 20.7795C65.082 20.7795 68.5707 17.2908 68.5707 12.9873C68.5707 8.68376 65.082 5.19507 60.7785 5.19507C56.475 5.19507 52.9863 8.68376 52.9863 12.9873C52.9863 17.2908 56.475 20.7795 60.7785 20.7795Z" fill="white"/>
<path d="M0 9.34998C0 7.34168 1.62805 5.71362 3.63636 5.71362H10.9091C12.9174 5.71362 14.5454 7.34168 14.5454 9.34998V16.6227C14.5454 18.631 12.9174 20.2591 10.9091 20.2591H3.63636C1.62805 20.2591 0 18.631 0 16.6227V9.34998Z" fill="#F8F8F8"/>
<path d="M0.779297 9.6098C0.779297 7.8884 2.17477 6.49292 3.89618 6.49292H5.71436C6.28816 6.49292 6.75332 6.95808 6.75332 7.53188V11.428C6.75332 12.0018 6.28816 12.467 5.71436 12.467H1.81826C1.24446 12.467 0.779297 12.0018 0.779297 11.428V9.6098Z" fill="#35A7FF"/>
<path d="M7.79297 7.53188C7.79297 6.95808 8.25813 6.49292 8.83193 6.49292H10.6501C12.3715 6.49292 13.767 7.8884 13.767 9.6098V11.428C13.767 12.0018 13.3018 12.467 12.728 12.467H8.83193C8.25813 12.467 7.79297 12.0018 7.79297 11.428V7.53188Z" fill="#FEE101"/>
<path d="M7.79297 14.5456C7.79297 13.9718 8.25813 13.5066 8.83193 13.5066H12.728C13.3018 13.5066 13.767 13.9718 13.767 14.5456V16.3638C13.767 18.0852 12.3715 19.4806 10.6501 19.4806H8.83193C8.25813 19.4806 7.79297 19.0155 7.79297 18.4417V14.5456Z" fill="#090909"/>
<path d="M0.779297 14.5456C0.779297 13.9718 1.24446 13.5066 1.81826 13.5066H5.71436C6.28816 13.5066 6.75332 13.9718 6.75332 14.5456V18.4417C6.75332 19.0155 6.28816 19.4806 5.71436 19.4806H3.89618C2.17477 19.4806 0.779297 18.0852 0.779297 16.3638V14.5456Z" fill="#FF3C38"/>
</svg>
