<svg width="38" height="11" viewBox="0 0 38 11" fill="none" xmlns="http://www.w3.org/2000/svg">
<path d="M25.523 0.333008H22.6187C22.4204 0.333008 22.2514 0.478122 22.2205 0.675306L21.046 8.16019C21.0227 8.30787 21.1365 8.44103 21.2846 8.44103H22.775C22.9134 8.44103 23.0319 8.33945 23.0535 8.20117L23.3868 6.07952C23.4174 5.8819 23.5868 5.73679 23.7851 5.73679H24.7039C26.6171 5.73679 27.7207 4.80636 28.0094 2.96256C28.1398 2.15589 28.0145 1.52209 27.6387 1.07821C27.2264 0.590798 26.4949 0.333008 25.523 0.333008ZM25.858 3.0667C25.6996 4.11408 24.9035 4.11408 24.1333 4.11408H23.6955L24.0033 2.15803C24.0216 2.0398 24.1226 1.95273 24.242 1.95273H24.4428C24.9667 1.95273 25.4618 1.95273 25.7174 2.25321C25.8699 2.43246 25.9161 2.69879 25.858 3.0667Z" fill="#179BD7"/>
<path d="M34.2041 3.0338H32.8144C32.6951 3.0338 32.5936 3.12087 32.5757 3.23909L32.5142 3.63005L32.4165 3.48835C32.1155 3.04916 31.4446 2.90234 30.7746 2.90234C29.238 2.90234 27.926 4.07222 27.6704 5.71329C27.5379 6.5319 27.726 7.31466 28.188 7.86054C28.6126 8.36247 29.218 8.5716 29.9394 8.5716C31.1776 8.5716 31.8641 7.77134 31.8641 7.77134L31.8021 8.15973C31.7788 8.30826 31.8926 8.44143 32.0416 8.44143H33.2937C33.492 8.44143 33.661 8.29631 33.692 8.0987L34.444 3.31464C34.4669 3.16739 34.3531 3.0338 34.2041 3.0338ZM32.2658 5.75426C32.1325 6.55281 31.5011 7.08888 30.6969 7.08888C30.294 7.08888 29.9704 6.9587 29.7632 6.71201C29.5577 6.46702 29.4804 6.11832 29.545 5.72993C29.6711 4.93821 30.3114 4.38464 31.1032 4.38464C31.4981 4.38464 31.8191 4.51652 32.0306 4.76535C32.2433 5.01674 32.3274 5.36757 32.2658 5.75426Z" fill="#179BD7"/>
<path d="M35.8433 0.538728L34.6515 8.16062C34.6281 8.30829 34.7419 8.44146 34.8901 8.44146H36.0883C36.2875 8.44146 36.4564 8.29634 36.487 8.09873L37.6623 0.614273C37.6857 0.466598 37.5719 0.333008 37.4237 0.333008H36.082C35.9635 0.333435 35.8616 0.420503 35.8433 0.538728Z" fill="#179BD7"/>
<path d="M4.81202 0.333008H1.90821C1.7095 0.333008 1.54051 0.478122 1.50951 0.675306L0.33508 8.16019C0.311727 8.30787 0.425518 8.44103 0.574552 8.44103H1.96086C2.15957 8.44103 2.32856 8.29592 2.35956 8.09831L2.6763 6.07952C2.70688 5.8819 2.87629 5.73679 3.07458 5.73679H3.99383C5.90663 5.73679 7.01058 4.80636 7.29889 2.96256C7.42881 2.15589 7.3044 1.52209 6.92864 1.07821C6.51593 0.590798 5.78392 0.333008 4.81202 0.333008ZM5.14703 3.0667C4.98823 4.11408 4.19211 4.11408 3.42232 4.11408H2.98414L3.29154 2.15803C3.3098 2.0398 3.41171 1.95273 3.53059 1.95273H3.73143C4.2558 1.95273 4.75046 1.95273 5.00606 2.25321C5.15849 2.43246 5.2052 2.69879 5.14703 3.0667Z" fill="#253B80"/>
<path d="M13.491 3.03282H12.1005C11.982 3.03282 11.8797 3.11989 11.8614 3.23812L11.7999 3.62907L11.7026 3.48737C11.4016 3.04819 10.7303 2.90137 10.0603 2.90137C8.5237 2.90137 7.21127 4.07124 6.95566 5.71231C6.82276 6.53092 7.01171 7.31368 7.47367 7.85957C7.89741 8.36149 8.50374 8.57062 9.22513 8.57062C10.4633 8.57062 11.1498 7.77036 11.1498 7.77036L11.0878 8.15876C11.0645 8.30729 11.1783 8.44045 11.3265 8.44045H12.579C12.7781 8.44045 12.9463 8.29534 12.9777 8.09772L13.7292 3.31366C13.753 3.16641 13.6397 3.03282 13.491 3.03282ZM11.5528 5.75328C11.4186 6.55183 10.7881 7.0879 9.98388 7.0879C9.58009 7.0879 9.2574 6.95773 9.05019 6.71103C8.84469 6.46605 8.76656 6.11735 8.83195 5.72895C8.95721 4.93723 9.59835 4.38366 10.3902 4.38366C10.7851 4.38366 11.1061 4.51555 11.3175 4.76437C11.5294 5.01576 11.6135 5.3666 11.5528 5.75328Z" fill="#253B80"/>
<path d="M20.8967 3.0332H19.4994C19.3661 3.0332 19.2408 3.09978 19.1652 3.21118L17.238 6.0648L16.4211 3.32258C16.3697 3.151 16.2122 3.0332 16.0338 3.0332H14.6607C14.4938 3.0332 14.3779 3.1971 14.431 3.35501L15.9701 7.89537L14.5231 9.94873C14.4093 10.1105 14.524 10.3329 14.7205 10.3329H16.1162C16.2487 10.3329 16.3726 10.268 16.4478 10.1587L21.0954 3.41519C21.2067 3.25386 21.0925 3.0332 20.8967 3.0332Z" fill="#253B80"/>
</svg>
