<svg width="39" height="26" viewBox="0 0 39 26" fill="none" xmlns="http://www.w3.org/2000/svg">
<path d="M0.5 0H38.5V1.99942H0.5V0ZM0.5 3.99883H38.5V5.99825H0.5V3.99883ZM0.5 7.99766H38.5V9.99708H0.5V7.99766ZM0.5 11.9965H38.5V13.9959H0.5V11.9965ZM0.5 16.0029H38.5V18.0023H0.5V16.0029ZM0.5 20.0018H38.5V22.0012H0.5V20.0018ZM0.5 24.0006H38.5V26H0.5V24.0006Z" fill="#D80027"/>
<path d="M0.5 0H19.5V13.9959H0.5V0Z" fill="#2E52B2"/>
<path d="M4.04141 10.5598L3.74511 9.5867L3.41918 10.5598H2.44141L3.234 11.1452L2.9377 12.1183L3.74511 11.5177L4.5303 12.1183L4.22659 11.1452L5.034 10.5598H4.04141ZM8.21178 10.5598L7.90807 9.5867L7.59696 10.5598H6.61918L7.41178 11.1452L7.11548 12.1183L7.90807 11.5177L8.70807 12.1183L8.41178 11.1452L9.20437 10.5598H8.21178ZM12.397 10.5598L12.0784 9.5867L11.7821 10.5598H10.7821L11.597 11.1452L11.2859 12.1183L12.0784 11.5177L12.8933 12.1183L12.5821 11.1452L13.3747 10.5598H12.397ZM16.5599 10.5598L16.2636 9.5867L15.9525 10.5598H14.9673L15.7673 11.1452L15.471 12.1183L16.2636 11.5177L17.0636 12.1183L16.7451 11.1452L17.5599 10.5598H16.5599ZM7.90807 5.72471L7.59696 6.69781H6.61918L7.41178 7.2984L7.11548 8.25629L7.90807 7.66331L8.70807 8.25629L8.41178 7.2984L9.20437 6.69781H8.21178L7.90807 5.72471ZM3.74511 5.72471L3.41918 6.69781H2.44141L3.234 7.2984L2.9377 8.25629L3.74511 7.66331L4.5303 8.25629L4.22659 7.2984L5.034 6.69781H4.04141L3.74511 5.72471ZM12.0784 5.72471L11.7821 6.69781H10.7821L11.597 7.2984L11.2859 8.25629L12.0784 7.66331L12.8933 8.25629L12.5821 7.2984L13.3747 6.69781H12.397L12.0784 5.72471ZM16.2636 5.72471L15.9525 6.69781H14.9673L15.7673 7.2984L15.471 8.25629L16.2636 7.66331L17.0636 8.25629L16.7451 7.2984L17.5599 6.69781H16.5599L16.2636 5.72471ZM3.74511 1.87793L3.41918 2.83582H2.44141L3.234 3.43641L2.9377 4.40191L3.74511 3.80132L4.5303 4.40191L4.22659 3.43641L5.034 2.83582H4.04141L3.74511 1.87793ZM7.90807 1.87793L7.59696 2.83582H6.61918L7.41178 3.43641L7.11548 4.40191L7.90807 3.80132L8.70807 4.40191L8.41178 3.43641L9.20437 2.83582H8.21178L7.90807 1.87793ZM12.0784 1.87793L11.7821 2.83582H10.7821L11.597 3.43641L11.2859 4.40191L12.0784 3.80132L12.8933 4.40191L12.5821 3.43641L13.3747 2.83582H12.397L12.0784 1.87793ZM16.2636 1.87793L15.9525 2.83582H14.9673L15.7673 3.43641L15.471 4.40191L16.2636 3.80132L17.0636 4.40191L16.7451 3.43641L17.5599 2.83582H16.5599L16.2636 1.87793Z" fill="white"/>
</svg>
