<svg width="29" height="29" viewBox="0 0 29 29" fill="none" xmlns="http://www.w3.org/2000/svg">
<path d="M14.8683 14.0414C7.41537 32.5127 22.3211 32.5127 14.8683 14.0414V14.0414Z" fill="#FF3C38"/>
<path d="M14.8524 14.0414C-3.7254 21.9241 6.81895 32.2706 14.8524 14.0414V14.0414Z" fill="#FF3C38"/>
<path d="M14.8528 14.0276C-3.97176 6.71456 -3.97176 21.3406 14.8528 14.0276V14.0276Z" fill="#FF3C38"/>
<path d="M14.8828 14.0414C22.9163 32.2706 33.4606 21.9241 14.8828 14.0414V14.0414Z" fill="#FF3C38"/>
<path d="M14.883 14.0277C15.0862 13.9422 15.2967 13.8497 15.5144 13.7642C15.3039 13.8497 15.0935 13.9351 14.883 14.0134C14.9629 13.8069 15.0499 13.6004 15.137 13.3939C15.0499 13.6004 14.9629 13.8069 14.8685 14.0134C14.7814 13.814 14.6871 13.6075 14.6 13.3939C14.6871 13.6004 14.7742 13.8069 14.854 14.0134C14.6436 13.9351 14.4331 13.8497 14.2227 13.7642C14.4331 13.8497 14.6436 13.9351 14.854 14.0277C14.6508 14.1131 14.4404 14.2057 14.2227 14.2911C14.4331 14.2057 14.6436 14.1202 14.854 14.0419C14.7742 14.2484 14.6871 14.4549 14.6 14.6614C14.6871 14.4549 14.7742 14.2484 14.8685 14.0419C14.9556 14.2413 15.0499 14.4478 15.137 14.6614C15.0499 14.4549 14.9629 14.2484 14.883 14.0419C15.0935 14.1202 15.3039 14.2057 15.5144 14.2911C15.2967 14.2057 15.0935 14.1131 14.883 14.0277Z" fill="#FF3C38"/>
<path d="M14.8828 14.0276C33.7073 6.71456 33.7073 21.3406 14.8828 14.0276V14.0276Z" fill="#FF3C38"/>
<path d="M14.8828 14.0129C22.9163 -4.21629 33.4606 6.1302 14.8828 14.0129V14.0129Z" fill="#FF3C38"/>
<path d="M14.8524 14.0133C-3.7254 6.13056 6.81895 -4.21593 14.8524 14.0133V14.0133Z" fill="#FF3C38"/>
<path d="M14.8683 14.0133C7.41537 -4.45804 22.3211 -4.45804 14.8683 14.0133V14.0133Z" fill="#FF3C38"/>
</svg>
